# 3ds Max Wavefront OBJ Exporter v0.97b - (c)2007 guruware
# 创建的文件:18.02.2020 13:24:22

mtllib substation_ht_1005_06-.mtl

#
# object substation_ht_1005_06_
#

v  -163.4633 22.3026 1164.4880
v  -161.8128 22.3026 1164.4880
v  -161.8127 24.1685 1164.4880
v  -163.4632 24.1685 1164.4880
v  -161.8127 24.1685 1164.8953
v  -163.4632 24.1685 1164.8953
v  -161.8128 22.3026 1164.8953
v  -163.4633 22.3026 1164.8953
v  -160.0924 21.5103 1164.2001
v  -160.0924 20.7774 1164.2001
v  -157.7547 20.7774 1164.2001
v  -157.7547 21.5103 1164.2001
v  -160.0924 21.5103 1165.1827
v  -157.7547 21.5104 1165.1827
v  -157.7547 20.7774 1165.1827
v  -160.0924 20.7774 1165.1827
v  -162.7958 22.3613 1164.4968
v  -162.7173 21.3840 1164.5787
v  -162.6202 21.3840 1164.5364
v  -162.6202 22.3613 1164.4209
v  -162.4443 22.3613 1164.4968
v  -162.5227 21.3840 1164.5787
v  -162.3716 22.3613 1164.6802
v  -162.4827 21.3840 1164.6802
v  -162.5227 21.3840 1164.7816
v  -162.4443 22.3613 1164.8635
v  -162.6202 22.3613 1164.9395
v  -162.6202 21.3840 1164.8240
v  -162.7173 21.3840 1164.7816
v  -162.7958 22.3613 1164.8635
v  -162.7577 21.3840 1164.6802
v  -162.8685 22.3613 1164.6802
v  -162.5330 19.2520 1164.0864
v  -162.5330 20.7810 1164.0437
v  -162.9641 20.7810 1164.2305
v  -162.9351 19.2520 1164.2609
v  -162.1309 19.2520 1164.2609
v  -162.1017 20.7810 1164.2305
v  -161.9641 19.2520 1164.6802
v  -161.9229 20.7809 1164.6802
v  -162.1309 19.2520 1165.0995
v  -162.1017 20.7810 1165.1301
v  -162.5330 20.7810 1165.3167
v  -162.5330 19.2520 1165.2739
v  -162.9351 19.2520 1165.0995
v  -162.9641 20.7810 1165.1301
v  -163.1428 20.7810 1164.6802
v  -163.1016 19.2520 1164.6802
v  -163.6555 21.7363 1163.8973
v  -163.6555 20.5515 1163.8973
v  -160.0668 20.5515 1163.8973
v  -160.0668 21.7363 1163.8973
v  -163.6555 21.7363 1165.4857
v  -160.0668 21.7363 1165.4857
v  -160.0668 20.5515 1165.4857
v  -163.6555 20.5515 1165.4857
# 56 vertices

vt 0.9539 0.2509 0.0000
vt 0.9591 0.2513 0.0000
vt 0.9580 0.2665 0.0000
vt 0.9523 0.2660 0.0000
vt 0.9644 0.2517 0.0000
vt 0.9636 0.2669 0.0000
vt 0.9697 0.2519 0.0000
vt 0.9693 0.2671 0.0000
vt 0.9750 0.2519 0.0000
vt 0.9750 0.2672 0.0000
vt 0.9802 0.2519 0.0000
vt 0.9806 0.2671 0.0000
vt 0.9855 0.2517 0.0000
vt 0.9863 0.2669 0.0000
vt 0.9908 0.2513 0.0000
vt 0.9919 0.2665 0.0000
vt 0.9960 0.2509 0.0000
vt 0.9976 0.2660 0.0000
vt 0.0000 0.5307 0.0000
vt 0.4473 0.6294 0.0000
vt 0.4473 0.7413 0.0000
vt 0.3355 0.7413 0.0000
vt 0.3355 0.6294 0.0000
vt 0.2237 0.7413 0.0000
vt 0.2237 0.6294 0.0000
vt 0.1118 0.7413 0.0000
vt 0.1118 0.6294 0.0000
vt 0.0000 0.7413 0.0000
vt 0.0000 0.6294 0.0000
vt 0.4473 0.8531 0.0000
vt 0.3355 0.8531 0.0000
vt 0.4473 0.5176 0.0000
vt 0.3355 0.5176 0.0000
vt 0.8341 0.7876 0.0000
vt 0.8341 0.9328 0.0000
vt 0.6700 0.9328 0.0000
vt 0.6700 0.7876 0.0000
vt 0.6341 0.9328 0.0000
vt 0.6341 0.7876 0.0000
vt 0.4700 0.9328 0.0000
vt 0.4700 0.7876 0.0000
vt 0.8700 0.7876 0.0000
vt 0.8700 0.9328 0.0000
vt 0.8341 0.9686 0.0000
vt 0.6700 0.9686 0.0000
vt 0.8341 0.7517 0.0000
vt 0.6700 0.7517 0.0000
vt 0.2767 0.4615 0.0000
vt 0.2767 0.5307 0.0000
vt 0.2075 0.5307 0.0000
vt 0.2075 0.4615 0.0000
vt 0.1384 0.5307 0.0000
vt 0.1384 0.4615 0.0000
vt 0.0692 0.5307 0.0000
vt 0.0692 0.4615 0.0000
vt 0.0000 0.4615 0.0000
vt 0.2767 0.5999 0.0000
vt 0.2075 0.5999 0.0000
vt 0.2767 0.3923 0.0000
vt 0.2075 0.3923 0.0000
# 60 texture coords

g substation_ht_1005_06_
usemtl substationpt_1001_06_phong15
f 4/37 3/36 2/35 1/34 
f 6/39 5/38 3/36 4/37 
f 8/41 7/40 5/38 6/39 
f 8/42 1/34 2/35 7/43 
f 5/45 7/44 2/35 3/36 
f 1/34 8/46 6/47 4/37 
f 12/50 11/49 10/48 9/51 
f 14/52 12/50 9/51 13/53 
f 13/53 16/55 15/54 14/52 
f 11/19 15/54 16/55 10/56 
f 11/49 12/50 14/58 15/57 
f 13/60 9/51 10/48 16/59 
usemtl substationpt_1001_06_phong4
f 20/3 19/2 18/1 17/4 
f 22/5 19/2 20/3 21/6 
f 24/7 22/5 21/6 23/8 
f 23/8 26/10 25/9 24/7 
f 28/11 25/9 26/10 27/12 
f 27/12 30/14 29/13 28/11 
f 30/14 32/16 31/15 29/13 
f 32/16 17/18 18/17 31/15 
f 36/1 35/4 34/3 33/2 
f 38/6 37/5 33/2 34/3 
f 37/5 38/6 40/8 39/7 
f 40/8 42/10 41/9 39/7 
f 44/11 41/9 42/10 43/12 
f 43/12 46/14 45/13 44/11 
f 48/15 45/13 46/14 47/16 
f 47/16 35/18 36/17 48/15 
usemtl substationpt_1001_06_phong15
f 52/22 51/21 50/20 49/23 
f 54/24 52/22 49/23 53/25 
f 56/27 55/26 54/24 53/25 
f 56/27 50/29 51/28 55/26 
f 51/21 52/22 54/31 55/30 
f 49/23 50/20 56/32 53/33 
# 34 polygons

