# 3ds Max Wavefront OBJ Exporter v0.97b - (c)2007 guruware
# 创建的文件:11.03.2020 15:58:48

mtllib substation_ht_1005_09.mtl

#
# object 对象327
#

v  -229.1009 4.7770 1004.4575
v  -228.6242 4.7770 1004.4575
v  -228.6242 -12.1641 1004.4574
v  -229.1009 -12.1641 1004.4574
v  -228.6242 -12.1641 1006.2115
v  -228.6242 4.7770 1006.2115
v  -229.1009 4.7770 1006.2115
v  -229.1009 -12.1641 1006.2115
v  -244.4057 4.7770 1004.4575
v  -243.3045 4.7770 1004.4575
v  -243.3045 -12.1641 1004.4574
v  -244.4057 -12.1641 1004.4574
v  -243.3045 -12.1641 1006.2115
v  -243.3045 4.7770 1006.2115
v  -244.4057 4.7770 1006.2115
v  -244.4057 -12.1641 1006.2115
v  -234.5566 4.7770 1004.4575
v  -234.5566 -12.1641 1004.4574
v  -235.0332 -12.1641 1004.4574
v  -235.0332 4.7770 1004.4575
v  -234.5566 4.7770 1006.2115
v  -235.0332 4.7770 1006.2115
v  -235.0332 -12.1641 1006.2115
v  -234.5566 -12.1641 1006.2115
v  -219.4770 6.5127 1006.3046
v  -220.1686 6.5127 1006.0181
v  -220.4912 5.9343 1006.3408
v  -219.4770 5.9343 1006.7610
v  -218.4628 5.9343 1006.3408
v  -218.7854 6.5127 1006.0181
v  -218.0427 5.9343 1005.3267
v  -218.4990 6.5127 1005.3267
v  -218.4628 5.9343 1004.3124
v  -218.7854 6.5127 1004.6351
v  -219.4770 5.9343 1003.8923
v  -219.4770 6.5127 1004.3486
v  -220.4912 5.9343 1004.3124
v  -220.1686 6.5127 1004.6351
v  -220.9114 5.9343 1005.3267
v  -220.4550 6.5127 1005.3267
v  -219.9925 6.5127 1005.8420
v  -219.4770 6.5127 1006.0556
v  -218.9616 6.5127 1005.8420
v  -218.7480 6.5127 1005.3267
v  -218.9615 6.5127 1004.8112
v  -219.4770 6.5127 1004.5977
v  -219.9924 6.5127 1004.8112
v  -220.2060 6.5127 1005.3267
v  -219.9925 6.9708 1005.8420
v  -219.4770 6.9708 1006.0556
v  -218.9616 6.9708 1005.8420
v  -218.7480 6.9708 1005.3267
v  -218.9615 6.9708 1004.8112
v  -219.4770 6.9708 1004.5977
v  -219.9924 6.9708 1004.8112
v  -220.2060 6.9708 1005.3267
v  -219.4770 7.0907 1005.8743
v  -219.8642 7.0907 1005.7138
v  -219.0898 7.0907 1005.7138
v  -218.9294 7.0907 1005.3267
v  -219.0898 7.0907 1004.9395
v  -219.4770 7.0907 1004.7790
v  -219.8642 7.0907 1004.9395
v  -220.0247 7.0907 1005.3267
v  -220.7198 4.7770 1004.4574
v  -219.6731 4.7770 1004.4574
v  -219.6731 -12.1641 1004.4574
v  -220.7198 -12.1641 1004.4574
v  -219.6731 -12.1641 1006.2115
v  -219.6731 4.7770 1006.2115
v  -220.7198 4.7770 1006.2115
v  -220.7198 -12.1641 1006.2115
v  -219.0940 19.2174 1004.7769
v  -218.8745 19.2151 1004.9960
v  -218.8869 14.3541 1004.9911
v  -219.1229 14.3559 1004.7551
v  -219.4453 14.3582 1004.6686
v  -219.3937 19.2202 1004.6961
v  -219.7677 14.3602 1004.7551
v  -219.6933 19.2228 1004.7764
v  -220.0038 14.3615 1004.9911
v  -219.9126 19.2244 1004.9960
v  -219.9929 19.2247 1005.2959
v  -220.0901 14.3617 1005.3135
v  -220.0038 14.3608 1005.6360
v  -219.9125 19.2235 1005.5955
v  -219.6933 19.2212 1005.8150
v  -219.7677 14.3590 1005.8720
v  -219.3937 19.2184 1005.8952
v  -219.4453 14.3568 1005.9584
v  -219.0940 19.2158 1005.8147
v  -219.1229 14.3547 1005.8720
v  -218.8869 14.3534 1005.6360
v  -218.8745 19.2142 1005.5955
v  -218.8005 14.3532 1005.3135
v  -218.7941 19.2139 1005.2959
v  -219.3963 19.4208 1005.6602
v  -219.5793 19.4226 1005.6113
v  -219.7131 19.4239 1005.4772
v  -219.7621 19.4246 1005.2942
v  -219.7131 19.4245 1005.1113
v  -219.5793 19.4235 1004.9769
v  -219.3963 19.4219 1004.9282
v  -219.2134 19.4202 1004.9775
v  -219.0793 19.4188 1005.1114
v  -219.0302 19.4181 1005.2942
v  -219.0793 19.4182 1005.4772
v  -219.2133 19.4192 1005.6108
v  -218.9850 13.9992 1005.0470
v  -219.1807 14.0007 1004.8514
v  -219.4480 14.0025 1004.7797
v  -219.7152 14.0042 1004.8514
v  -219.9109 14.0053 1005.0470
v  -219.9825 14.0054 1005.3143
v  -219.9108 14.0047 1005.5815
v  -219.7152 14.0032 1005.7772
v  -219.4479 14.0013 1005.8489
v  -219.1807 13.9997 1005.7772
v  -218.9850 13.9986 1005.5815
v  -218.9135 13.9984 1005.3143
v  -219.4480 14.0019 1005.3143
v  -216.3673 5.9835 1003.2188
v  -216.3673 4.2294 1003.2188
v  -247.5650 4.2294 1003.2188
v  -247.5650 5.9835 1003.2188
v  -247.5650 5.9835 1007.4502
v  -247.5650 4.2294 1007.4502
v  -216.3673 4.2294 1007.4502
v  -216.3673 5.9835 1007.4502
v  -231.7405 5.9343 1006.7610
v  -231.7405 6.5127 1006.3046
v  -232.4321 6.5127 1006.0181
v  -232.7547 5.9343 1006.3408
v  -230.7263 5.9343 1006.3408
v  -231.0489 6.5127 1006.0181
v  -230.3062 5.9343 1005.3267
v  -230.7625 6.5127 1005.3267
v  -230.7263 5.9343 1004.3124
v  -231.0489 6.5127 1004.6351
v  -231.7405 5.9343 1003.8922
v  -231.7405 6.5127 1004.3486
v  -232.7547 5.9343 1004.3124
v  -232.4321 6.5127 1004.6351
v  -233.1749 5.9343 1005.3267
v  -232.7185 6.5127 1005.3267
v  -231.7405 6.5127 1006.0556
v  -232.2560 6.5127 1005.8420
v  -231.2251 6.5127 1005.8420
v  -231.0116 6.5127 1005.3267
v  -231.2251 6.5127 1004.8112
v  -231.7405 6.5127 1004.5977
v  -232.2560 6.5127 1004.8112
v  -232.4695 6.5127 1005.3267
v  -231.7405 6.9708 1006.0556
v  -232.2560 6.9708 1005.8420
v  -231.2250 6.9708 1005.8420
v  -231.0116 6.9708 1005.3267
v  -231.2251 6.9708 1004.8112
v  -231.7405 6.9708 1004.5977
v  -232.2560 6.9708 1004.8112
v  -232.4695 6.9708 1005.3267
v  -231.7405 7.0907 1005.8743
v  -232.1277 7.0907 1005.7138
v  -231.3533 7.0907 1005.7138
v  -231.1930 7.0907 1005.3267
v  -231.3533 7.0907 1004.9395
v  -231.7405 7.0907 1004.7789
v  -232.1278 7.0907 1004.9395
v  -232.2881 7.0907 1005.3267
v  -218.9571 12.7245 1004.9042
v  -219.3623 12.7245 1004.7363
v  -219.3623 13.2993 1004.7364
v  -218.9571 13.2993 1004.9042
v  -219.7675 12.7245 1004.9042
v  -219.7675 13.2993 1004.9042
v  -219.9354 12.7245 1005.3094
v  -219.9354 13.2993 1005.3094
v  -219.7675 12.7245 1005.7147
v  -219.7675 13.2993 1005.7147
v  -219.3623 12.7245 1005.8824
v  -219.3623 13.2993 1005.8825
v  -218.9571 12.7245 1005.7147
v  -218.9571 13.2993 1005.7147
v  -218.7893 12.7245 1005.3094
v  -218.7893 13.2993 1005.3094
v  -218.9571 13.6078 1005.7147
v  -218.7893 13.6078 1005.3094
v  -218.7893 13.9873 1005.3094
v  -218.9571 13.9873 1005.7147
v  -218.9833 13.7550 1007.1163
v  -219.3624 13.7550 1007.1163
v  -219.3624 13.6099 1007.1163
v  -218.9833 13.6256 1007.1163
v  -219.7415 13.6256 1007.1163
v  -219.7415 13.7550 1007.1163
v  -219.7675 13.9873 1005.7147
v  -219.9354 13.9873 1005.3094
v  -219.9354 13.6078 1005.3094
v  -219.7675 13.6078 1005.7147
v  -218.5676 13.5599 1005.3094
v  -218.8003 13.5599 1005.8715
v  -218.8003 13.3386 1005.8715
v  -218.5676 13.3386 1005.3094
v  -218.8003 13.3386 1004.7474
v  -218.8003 13.5599 1004.7474
v  -219.3623 13.3386 1004.5146
v  -219.3623 13.5599 1004.5146
v  -219.9243 13.3386 1004.7474
v  -219.9243 13.5599 1004.7474
v  -220.1571 13.3386 1005.3094
v  -220.1571 13.5599 1005.3094
v  -219.9243 13.3386 1005.8715
v  -219.9243 13.5599 1005.8715
v  -219.3624 13.3386 1006.1042
v  -219.3624 13.5599 1006.1042
v  -218.9571 13.6078 1004.9042
v  -219.3623 13.5617 1005.8825
v  -219.7675 13.6078 1004.9042
v  -219.3623 13.6078 1004.7364
v  -219.0608 12.7245 1005.0079
v  -219.3623 12.7245 1004.8829
v  -219.6639 12.7245 1005.0079
v  -219.7888 12.7245 1005.3094
v  -219.6639 12.7245 1005.6110
v  -219.3624 12.7245 1005.7359
v  -219.0608 12.7245 1005.6110
v  -218.9359 12.7245 1005.3094
v  -219.0608 12.3938 1005.0079
v  -219.3623 12.3938 1004.8829
v  -219.6639 12.3938 1005.0079
v  -219.7888 12.3938 1005.3094
v  -219.6639 12.3938 1005.6110
v  -219.3624 12.3938 1005.7359
v  -219.0608 12.3938 1005.6110
v  -218.9359 12.3938 1005.3094
v  -218.9571 13.6597 1006.1409
v  -219.3623 13.6280 1006.1409
v  -218.9571 13.9210 1006.1409
v  -219.3623 13.9873 1005.8825
v  -219.3623 13.9210 1006.1409
v  -219.7676 13.6597 1006.1409
v  -219.7676 13.9210 1006.1409
v  -219.3623 13.9997 1005.3096
v  -218.9571 13.7177 1006.1409
v  -219.3624 13.7020 1006.1409
v  -218.9571 13.8471 1006.1409
v  -219.3624 13.8471 1006.1409
v  -219.7675 13.7177 1006.1409
v  -219.7675 13.8471 1006.1409
v  -218.9833 13.7177 1006.1409
v  -218.9833 13.8471 1006.1409
v  -219.7415 13.7177 1006.1409
v  -219.7415 13.8471 1006.1409
v  -218.9571 13.6078 1004.9063
v  -218.9571 13.9873 1004.9063
v  -218.7893 13.9873 1005.3116
v  -218.7893 13.6078 1005.3116
v  -219.3624 13.6099 1003.5048
v  -219.3624 13.7550 1003.5048
v  -218.9833 13.7550 1003.5048
v  -218.9833 13.6256 1003.5048
v  -219.7415 13.6256 1003.5048
v  -219.7415 13.7550 1003.5048
v  -219.9354 13.9873 1005.3116
v  -219.7675 13.9873 1004.9063
v  -219.7675 13.6078 1004.9063
v  -219.9354 13.6078 1005.3116
v  -219.3623 13.5617 1004.7385
v  -219.3623 13.6280 1004.4801
v  -218.9571 13.6597 1004.4801
v  -218.9571 13.9210 1004.4801
v  -219.3623 13.9210 1004.4801
v  -219.3623 13.9873 1004.7385
v  -219.7676 13.6597 1004.4801
v  -219.7676 13.9210 1004.4801
v  -219.3623 13.9997 1005.3115
v  -219.3624 13.7020 1004.4802
v  -218.9571 13.7177 1004.4802
v  -218.9571 13.8471 1004.4802
v  -219.3624 13.8471 1004.4802
v  -219.7675 13.7177 1004.4802
v  -219.7675 13.8471 1004.4802
v  -218.9833 13.7177 1004.4802
v  -218.9833 13.8471 1004.4802
v  -219.7415 13.7177 1004.4802
v  -219.7415 13.8471 1004.4802
v  -218.9571 20.9102 1005.7344
v  -218.9571 20.5307 1005.7344
v  -218.7893 20.5307 1005.3291
v  -218.7893 20.9102 1005.3291
v  -219.3624 20.6780 1007.1359
v  -219.3624 20.5329 1007.1359
v  -218.9833 20.5486 1007.1359
v  -218.9833 20.6780 1007.1359
v  -219.7415 20.6780 1007.1359
v  -219.7415 20.5486 1007.1359
v  -219.7675 20.9102 1005.7344
v  -219.9354 20.9102 1005.3291
v  -219.9354 20.5307 1005.3291
v  -219.7675 20.5307 1005.7344
v  -219.3623 20.4846 1005.9022
v  -218.9571 20.5826 1006.1606
v  -219.3623 20.5509 1006.1606
v  -218.9571 20.8439 1006.1606
v  -219.3623 20.9102 1005.9022
v  -219.3623 20.8439 1006.1606
v  -219.7676 20.5826 1006.1606
v  -219.7676 20.8439 1006.1606
v  -219.3623 20.9226 1005.3292
v  -219.3624 20.6249 1006.1606
v  -218.9571 20.6406 1006.1606
v  -218.9571 20.7700 1006.1606
v  -219.3624 20.7700 1006.1606
v  -219.7675 20.6406 1006.1606
v  -219.7675 20.7700 1006.1606
v  -218.9833 20.6406 1006.1606
v  -218.9833 20.7700 1006.1606
v  -219.7415 20.6406 1006.1606
v  -219.7415 20.7700 1006.1606
v  -218.9571 20.5307 1004.9260
v  -218.9571 20.9103 1004.9260
v  -218.7893 20.9103 1005.3313
v  -218.7893 20.5307 1005.3313
v  -219.3624 20.5328 1003.5245
v  -219.3624 20.6780 1003.5245
v  -218.9833 20.6780 1003.5245
v  -218.9833 20.5486 1003.5245
v  -219.7415 20.5486 1003.5245
v  -219.7415 20.6780 1003.5245
v  -219.9354 20.5307 1005.3313
v  -219.9354 20.9103 1005.3313
v  -219.7675 20.9103 1004.9260
v  -219.7675 20.5307 1004.9260
v  -219.3623 20.4846 1004.7582
v  -219.3623 20.5509 1004.4998
v  -218.9571 20.5826 1004.4998
v  -218.9571 20.8439 1004.4998
v  -219.3623 20.9103 1004.7582
v  -219.3623 20.8439 1004.4998
v  -219.7676 20.5826 1004.4998
v  -219.7676 20.8439 1004.4998
v  -219.3623 20.9226 1005.3312
v  -219.3624 20.6249 1004.4998
v  -218.9571 20.6406 1004.4998
v  -218.9571 20.7700 1004.4998
v  -219.3624 20.7700 1004.4998
v  -219.7675 20.6406 1004.4998
v  -219.7675 20.7700 1004.4998
v  -218.9833 20.6406 1004.4998
v  -218.9833 20.7700 1004.4998
v  -219.7415 20.6406 1004.4998
v  -219.7415 20.7700 1004.4998
v  -219.3623 19.6474 1004.7560
v  -219.3623 20.2223 1004.7560
v  -218.9571 20.2223 1004.9238
v  -218.9571 19.6474 1004.9238
v  -219.7675 20.2223 1004.9238
v  -219.7675 19.6474 1004.9238
v  -219.9354 19.6474 1005.3291
v  -219.9354 20.2223 1005.3291
v  -219.7675 19.6474 1005.7344
v  -219.7675 20.2223 1005.7344
v  -219.3623 19.6474 1005.9022
v  -219.3623 20.2223 1005.9022
v  -218.9571 19.6474 1005.7344
v  -218.9571 20.2223 1005.7344
v  -218.7893 19.6474 1005.3291
v  -218.7893 20.2223 1005.3291
v  -218.9571 20.9103 1005.7344
v  -219.7675 20.9103 1005.7344
v  -218.5676 20.4828 1005.3291
v  -218.8003 20.4828 1005.8911
v  -218.8003 20.2615 1005.8911
v  -218.5676 20.2615 1005.3291
v  -218.8003 20.4828 1004.7671
v  -218.8003 20.2615 1004.7671
v  -219.3623 20.2615 1004.5343
v  -219.3623 20.4828 1004.5343
v  -219.9243 20.2615 1004.7671
v  -219.9243 20.4828 1004.7671
v  -220.1571 20.2615 1005.3291
v  -220.1571 20.4828 1005.3291
v  -219.9243 20.2615 1005.8911
v  -219.9243 20.4828 1005.8911
v  -219.3624 20.2615 1006.1239
v  -219.3624 20.4828 1006.1239
v  -218.9571 20.5307 1004.9238
v  -219.7675 20.5307 1004.9238
v  -219.3623 20.5307 1004.7560
v  -219.0608 19.6474 1005.0276
v  -219.3623 19.6474 1004.9026
v  -219.6639 19.6474 1005.0276
v  -219.7888 19.6474 1005.3291
v  -219.6639 19.6474 1005.6307
v  -219.3624 19.6474 1005.7556
v  -219.0608 19.6474 1005.6307
v  -218.9359 19.6474 1005.3291
v  -219.0608 19.3167 1005.0276
v  -219.3623 19.3167 1004.9026
v  -219.6639 19.3167 1005.0276
v  -219.7888 19.3167 1005.3291
v  -219.6639 19.3167 1005.6307
v  -219.3624 19.3167 1005.7556
v  -219.0608 19.3167 1005.6307
v  -218.9359 19.3167 1005.3291
v  -219.3623 20.9103 1005.9022
v  -231.2315 13.2993 1004.9042
v  -231.2315 12.7245 1004.9042
v  -231.6367 12.7245 1004.7363
v  -231.6367 13.2993 1004.7364
v  -232.0420 13.2993 1004.9042
v  -232.0420 12.7245 1004.9042
v  -232.2098 12.7245 1005.3094
v  -232.2098 13.2993 1005.3094
v  -232.0420 13.2993 1005.7147
v  -232.0420 12.7245 1005.7147
v  -231.6367 12.7245 1005.8824
v  -231.6367 13.2993 1005.8825
v  -231.2315 12.7245 1005.7147
v  -231.2315 13.2993 1005.7147
v  -231.0637 13.2993 1005.3094
v  -231.0637 12.7245 1005.3094
v  -231.2315 13.9873 1005.7147
v  -231.2315 13.6078 1005.7147
v  -231.0637 13.6078 1005.3094
v  -231.0637 13.9873 1005.3094
v  -231.6368 13.7550 1007.1163
v  -231.6368 13.6099 1007.1163
v  -231.2577 13.6256 1007.1163
v  -231.2577 13.7550 1007.1163
v  -232.0159 13.7550 1007.1163
v  -232.0159 13.6256 1007.1163
v  -232.2098 13.9873 1005.3094
v  -232.2098 13.6078 1005.3094
v  -232.0420 13.6078 1005.7147
v  -232.0420 13.9873 1005.7147
v  -231.0748 13.3386 1005.8715
v  -230.8420 13.3386 1005.3094
v  -230.8420 13.5599 1005.3094
v  -231.0748 13.5599 1005.8715
v  -231.0748 13.3386 1004.7474
v  -231.0748 13.5599 1004.7474
v  -231.6367 13.3386 1004.5146
v  -231.6367 13.5599 1004.5146
v  -232.1988 13.3386 1004.7474
v  -232.1988 13.5599 1004.7474
v  -232.4315 13.5599 1005.3094
v  -232.4315 13.3386 1005.3094
v  -232.1988 13.3386 1005.8715
v  -232.1988 13.5599 1005.8715
v  -231.6368 13.3386 1006.1042
v  -231.6368 13.5599 1006.1042
v  -231.2315 13.6078 1004.9042
v  -231.6367 13.5617 1005.8825
v  -232.0420 13.6078 1004.9042
v  -231.6367 13.6078 1004.7364
v  -231.3352 12.7245 1005.0079
v  -231.6367 12.7245 1004.8829
v  -231.9383 12.7245 1005.0079
v  -232.0632 12.7245 1005.3094
v  -231.9383 12.7245 1005.6110
v  -231.6368 12.7245 1005.7359
v  -231.3352 12.7245 1005.6110
v  -231.2104 12.7245 1005.3094
v  -231.6367 12.3938 1004.8829
v  -231.3352 12.3938 1005.0079
v  -231.9383 12.3938 1005.0079
v  -232.0632 12.3938 1005.3094
v  -231.9383 12.3938 1005.6110
v  -231.6368 12.3938 1005.7359
v  -231.3352 12.3938 1005.6110
v  -231.2104 12.3938 1005.3094
v  -231.2316 13.6597 1006.1409
v  -231.6367 13.6280 1006.1409
v  -231.2316 13.9210 1006.1409
v  -231.6367 13.9873 1005.8825
v  -231.6367 13.9210 1006.1409
v  -232.0420 13.6597 1006.1409
v  -232.0420 13.9210 1006.1409
v  -231.6367 13.9997 1005.3096
v  -231.6368 13.7020 1006.1409
v  -231.2315 13.7177 1006.1409
v  -231.2315 13.8471 1006.1409
v  -231.6368 13.8471 1006.1409
v  -232.0420 13.7177 1006.1409
v  -232.0420 13.8471 1006.1409
v  -231.2577 13.7177 1006.1409
v  -231.2577 13.8471 1006.1409
v  -232.0159 13.7177 1006.1409
v  -232.0159 13.8471 1006.1409
v  -231.0637 13.9873 1005.3116
v  -231.0637 13.6078 1005.3116
v  -231.2315 13.6078 1004.9063
v  -231.2315 13.9873 1004.9063
v  -231.2577 13.6256 1003.5048
v  -231.6368 13.6099 1003.5048
v  -231.6368 13.7550 1003.5048
v  -231.2577 13.7550 1003.5048
v  -232.0159 13.6256 1003.5048
v  -232.0159 13.7550 1003.5048
v  -232.2098 13.6078 1005.3116
v  -232.2098 13.9873 1005.3116
v  -232.0420 13.9873 1004.9063
v  -232.0420 13.6078 1004.9063
v  -231.6367 13.6280 1004.4801
v  -231.2316 13.6597 1004.4801
v  -231.6367 13.5617 1004.7385
v  -231.2316 13.9210 1004.4801
v  -231.6367 13.9210 1004.4801
v  -231.6367 13.9873 1004.7385
v  -232.0420 13.6597 1004.4801
v  -232.0420 13.9210 1004.4801
v  -231.6367 13.9997 1005.3115
v  -231.6368 13.7020 1004.4802
v  -231.2315 13.7177 1004.4802
v  -231.2315 13.8471 1004.4802
v  -231.6368 13.8471 1004.4802
v  -232.0420 13.7177 1004.4802
v  -232.0420 13.8471 1004.4802
v  -231.2577 13.7177 1004.4802
v  -231.2577 13.8471 1004.4802
v  -232.0159 13.7177 1004.4802
v  -232.0159 13.8471 1004.4802
v  -231.0637 20.5307 1005.3291
v  -231.0637 20.9102 1005.3291
v  -231.2315 20.9102 1005.7344
v  -231.2315 20.5307 1005.7344
v  -231.6368 20.5329 1007.1359
v  -231.2577 20.5486 1007.1359
v  -231.2577 20.6780 1007.1359
v  -231.6368 20.6780 1007.1359
v  -232.0159 20.6780 1007.1359
v  -232.0159 20.5486 1007.1359
v  -232.2098 20.9102 1005.3291
v  -232.2098 20.5307 1005.3291
v  -232.0420 20.5307 1005.7344
v  -232.0420 20.9102 1005.7344
v  -231.6367 20.4846 1005.9022
v  -231.2316 20.5826 1006.1606
v  -231.6367 20.5509 1006.1606
v  -231.2316 20.8439 1006.1606
v  -231.6367 20.9102 1005.9022
v  -231.6367 20.8439 1006.1606
v  -232.0420 20.5826 1006.1606
v  -232.0420 20.8439 1006.1606
v  -231.6367 20.9226 1005.3292
v  -231.6368 20.6249 1006.1606
v  -231.2315 20.6406 1006.1606
v  -231.2315 20.7700 1006.1606
v  -231.6368 20.7700 1006.1606
v  -232.0420 20.6406 1006.1606
v  -232.0420 20.7700 1006.1606
v  -231.2577 20.6406 1006.1606
v  -231.2577 20.7700 1006.1606
v  -232.0159 20.6406 1006.1606
v  -232.0159 20.7700 1006.1606
v  -231.2315 20.5307 1004.9260
v  -231.2315 20.9103 1004.9260
v  -231.0637 20.9103 1005.3313
v  -231.0637 20.5307 1005.3313
v  -231.6368 20.6780 1003.5245
v  -231.2577 20.6780 1003.5245
v  -231.2577 20.5486 1003.5245
v  -231.6368 20.5328 1003.5245
v  -232.0159 20.6780 1003.5245
v  -232.0159 20.5486 1003.5245
v  -232.0420 20.9103 1004.9260
v  -232.0420 20.5307 1004.9260
v  -232.2098 20.5307 1005.3313
v  -232.2098 20.9103 1005.3313
v  -231.6367 20.5509 1004.4998
v  -231.2316 20.5826 1004.4998
v  -231.6367 20.4846 1004.7582
v  -231.2316 20.8439 1004.4998
v  -231.6367 20.8439 1004.4998
v  -231.6367 20.9103 1004.7582
v  -232.0420 20.5826 1004.4998
v  -232.0420 20.8439 1004.4998
v  -231.6367 20.9226 1005.3312
v  -231.2315 20.6406 1004.4998
v  -231.6368 20.6249 1004.4998
v  -231.2315 20.7700 1004.4998
v  -231.6368 20.7700 1004.4998
v  -232.0420 20.6406 1004.4998
v  -232.0420 20.7700 1004.4998
v  -231.2577 20.6406 1004.4998
v  -231.2577 20.7700 1004.4998
v  -232.0159 20.6406 1004.4998
v  -232.0159 20.7700 1004.4998
v  -231.6367 19.6474 1004.7560
v  -231.6367 20.2223 1004.7560
v  -231.2315 20.2223 1004.9238
v  -231.2315 19.6474 1004.9238
v  -232.0420 19.6474 1004.9238
v  -232.0420 20.2223 1004.9238
v  -232.2098 19.6474 1005.3291
v  -232.2098 20.2223 1005.3291
v  -232.0420 19.6474 1005.7344
v  -232.0420 20.2223 1005.7344
v  -231.6367 19.6474 1005.9022
v  -231.6367 20.2223 1005.9022
v  -231.2315 19.6474 1005.7344
v  -231.2315 20.2223 1005.7344
v  -231.0637 19.6474 1005.3291
v  -231.0637 20.2223 1005.3291
v  -231.2315 20.9103 1005.7344
v  -232.0420 20.9103 1005.7344
v  -231.0748 20.2615 1005.8911
v  -230.8420 20.2615 1005.3291
v  -230.8420 20.4828 1005.3291
v  -231.0748 20.4828 1005.8911
v  -231.0748 20.4828 1004.7671
v  -231.0748 20.2615 1004.7671
v  -231.6367 20.2615 1004.5343
v  -231.6367 20.4828 1004.5343
v  -232.1988 20.4828 1004.7671
v  -232.1988 20.2615 1004.7671
v  -232.4315 20.2615 1005.3291
v  -232.4315 20.4828 1005.3291
v  -232.1988 20.2615 1005.8911
v  -232.1988 20.4828 1005.8911
v  -231.6368 20.2615 1006.1239
v  -231.6368 20.4828 1006.1239
v  -231.2315 20.5307 1004.9238
v  -232.0420 20.5307 1004.9238
v  -231.6367 20.5307 1004.7560
v  -231.3352 19.6474 1005.0276
v  -231.6367 19.6474 1004.9026
v  -231.9383 19.6474 1005.0276
v  -232.0632 19.6474 1005.3291
v  -231.9383 19.6474 1005.6307
v  -231.6368 19.6474 1005.7556
v  -231.3352 19.6474 1005.6307
v  -231.2104 19.6474 1005.3291
v  -231.3352 19.3167 1005.0276
v  -231.6367 19.3167 1004.9026
v  -231.9383 19.3167 1005.0276
v  -232.0632 19.3167 1005.3291
v  -231.9383 19.3167 1005.6307
v  -231.6368 19.3167 1005.7556
v  -231.3352 19.3167 1005.6307
v  -231.2104 19.3167 1005.3291
v  -231.6367 20.9103 1005.9022
v  -244.6954 6.5127 1006.0181
v  -245.0181 5.9343 1006.3408
v  -244.0038 5.9343 1006.7610
v  -244.0038 6.5127 1006.3046
v  -242.9896 5.9343 1006.3408
v  -243.3123 6.5127 1006.0181
v  -242.5696 5.9343 1005.3267
v  -243.0258 6.5127 1005.3267
v  -242.9896 5.9343 1004.3124
v  -243.3123 6.5127 1004.6351
v  -244.0039 5.9343 1003.8922
v  -244.0038 6.5127 1004.3486
v  -244.6954 6.5127 1004.6351
v  -245.0181 5.9343 1004.3124
v  -245.4382 5.9343 1005.3267
v  -244.9819 6.5127 1005.3267
v  -244.0039 6.5127 1006.0556
v  -244.5193 6.5127 1005.8420
v  -243.4884 6.5127 1005.8420
v  -243.2748 6.5127 1005.3267
v  -243.4884 6.5127 1004.8112
v  -244.0039 6.5127 1004.5977
v  -244.5193 6.5127 1004.8112
v  -244.7328 6.5127 1005.3267
v  -244.0039 6.9708 1006.0556
v  -244.5193 6.9708 1005.8420
v  -243.4884 6.9708 1005.8420
v  -243.2748 6.9708 1005.3267
v  -243.4884 6.9708 1004.8112
v  -244.0039 6.9708 1004.5977
v  -244.5193 6.9708 1004.8112
v  -244.7328 6.9708 1005.3267
v  -244.0038 7.0907 1005.8743
v  -244.3911 7.0907 1005.7138
v  -243.6166 7.0907 1005.7138
v  -243.4563 7.0907 1005.3267
v  -243.6167 7.0907 1004.9395
v  -244.0038 7.0907 1004.7789
v  -244.3911 7.0907 1004.9395
v  -244.5515 7.0907 1005.3267
v  -243.9337 12.7245 1004.7363
v  -243.9337 13.2993 1004.7364
v  -243.5285 13.2993 1004.9042
v  -243.5285 12.7245 1004.9042
v  -244.3390 12.7245 1004.9042
v  -244.3390 13.2993 1004.9042
v  -244.5068 12.7245 1005.3094
v  -244.5068 13.2993 1005.3094
v  -244.3390 12.7245 1005.7147
v  -244.3390 13.2993 1005.7147
v  -243.9337 12.7245 1005.8824
v  -243.9337 13.2993 1005.8825
v  -243.5285 12.7245 1005.7147
v  -243.5285 13.2993 1005.7147
v  -243.3607 12.7245 1005.3094
v  -243.3607 13.2993 1005.3094
v  -243.3607 13.6078 1005.3094
v  -243.3607 13.9873 1005.3094
v  -243.5285 13.9873 1005.7147
v  -243.5285 13.6078 1005.7147
v  -243.5547 13.7550 1007.1163
v  -243.9338 13.7550 1007.1163
v  -243.9338 13.6099 1007.1163
v  -243.5547 13.6256 1007.1163
v  -244.3129 13.7550 1007.1163
v  -244.3129 13.6256 1007.1163
v  -244.3390 13.9873 1005.7147
v  -244.5068 13.9873 1005.3094
v  -244.5068 13.6078 1005.3094
v  -244.3390 13.6078 1005.7147
v  -243.3718 13.5599 1005.8715
v  -243.3718 13.3386 1005.8715
v  -243.1390 13.3386 1005.3094
v  -243.1390 13.5599 1005.3094
v  -243.3718 13.5599 1004.7474
v  -243.3718 13.3386 1004.7474
v  -243.9337 13.3386 1004.5146
v  -243.9337 13.5599 1004.5146
v  -244.4957 13.3386 1004.7474
v  -244.4957 13.5599 1004.7474
v  -244.7285 13.3386 1005.3094
v  -244.7285 13.5599 1005.3094
v  -244.4957 13.3386 1005.8715
v  -244.4957 13.5599 1005.8715
v  -243.9338 13.3386 1006.1042
v  -243.9338 13.5599 1006.1042
v  -243.5285 13.6078 1004.9042
v  -243.9337 13.5617 1005.8825
v  -244.3390 13.6078 1004.9042
v  -243.9337 13.6078 1004.7364
v  -243.6322 12.7245 1005.0079
v  -243.9337 12.7245 1004.8829
v  -244.2353 12.7245 1005.0079
v  -244.3602 12.7245 1005.3094
v  -244.2353 12.7245 1005.6110
v  -243.9338 12.7245 1005.7359
v  -243.6322 12.7245 1005.6110
v  -243.5074 12.7245 1005.3094
v  -243.9337 12.3938 1004.8829
v  -243.6322 12.3938 1005.0079
v  -244.2353 12.3938 1005.0079
v  -244.3602 12.3938 1005.3094
v  -244.2353 12.3938 1005.6110
v  -243.9338 12.3938 1005.7359
v  -243.6322 12.3938 1005.6110
v  -243.5074 12.3938 1005.3094
v  -243.5286 13.6597 1006.1409
v  -243.9337 13.6280 1006.1409
v  -243.5286 13.9210 1006.1409
v  -243.9337 13.9873 1005.8825
v  -243.9337 13.9210 1006.1409
v  -244.3390 13.6597 1006.1409
v  -244.3390 13.9210 1006.1409
v  -243.9337 13.9997 1005.3096
v  -243.9338 13.7020 1006.1409
v  -243.5285 13.7177 1006.1409
v  -243.5285 13.8471 1006.1409
v  -243.9338 13.8471 1006.1409
v  -244.3390 13.7177 1006.1409
v  -244.3390 13.8471 1006.1409
v  -243.5547 13.7177 1006.1409
v  -243.5547 13.8471 1006.1409
v  -244.3129 13.7177 1006.1409
v  -244.3129 13.8471 1006.1409
v  -243.3607 13.9873 1005.3116
v  -243.3607 13.6078 1005.3116
v  -243.5285 13.6078 1004.9063
v  -243.5285 13.9873 1004.9063
v  -243.9338 13.7550 1003.5048
v  -243.5547 13.7550 1003.5048
v  -243.5547 13.6256 1003.5048
v  -243.9338 13.6099 1003.5048
v  -244.3129 13.6256 1003.5048
v  -244.3129 13.7550 1003.5048
v  -244.5068 13.6078 1005.3116
v  -244.5068 13.9873 1005.3116
v  -244.3390 13.9873 1004.9063
v  -244.3390 13.6078 1004.9063
v  -243.5286 13.6597 1004.4801
v  -243.9337 13.5617 1004.7385
v  -243.9337 13.6280 1004.4801
v  -243.5286 13.9210 1004.4801
v  -243.9337 13.9210 1004.4801
v  -243.9337 13.9873 1004.7385
v  -244.3390 13.6597 1004.4801
v  -244.3390 13.9210 1004.4801
v  -243.9337 13.9997 1005.3115
v  -243.9338 13.7020 1004.4802
v  -243.5285 13.7177 1004.4802
v  -243.5285 13.8471 1004.4802
v  -243.9338 13.8471 1004.4802
v  -244.3390 13.7177 1004.4802
v  -244.3390 13.8471 1004.4802
v  -243.5547 13.7177 1004.4802
v  -243.5547 13.8471 1004.4802
v  -244.3129 13.7177 1004.4802
v  -244.3129 13.8471 1004.4802
v  -243.3607 20.9102 1005.3291
v  -243.5285 20.9102 1005.7344
v  -243.5285 20.5307 1005.7344
v  -243.3607 20.5307 1005.3291
v  -243.9338 20.6780 1007.1359
v  -243.9338 20.5329 1007.1359
v  -243.5547 20.5486 1007.1359
v  -243.5547 20.6780 1007.1359
v  -244.3129 20.6780 1007.1359
v  -244.3129 20.5486 1007.1359
v  -244.5068 20.9102 1005.3291
v  -244.5068 20.5307 1005.3291
v  -244.3390 20.5307 1005.7344
v  -244.3390 20.9102 1005.7344
v  -243.9337 20.4846 1005.9022
v  -243.5286 20.5826 1006.1606
v  -243.9337 20.5509 1006.1606
v  -243.5286 20.8439 1006.1606
v  -243.9337 20.9103 1005.9022
v  -243.9337 20.8439 1006.1606
v  -244.3390 20.5826 1006.1606
v  -244.3390 20.8439 1006.1606
v  -243.9337 20.9226 1005.3292
v  -243.5285 20.6406 1006.1606
v  -243.9338 20.6249 1006.1606
v  -243.5285 20.7700 1006.1606
v  -243.9338 20.7700 1006.1606
v  -244.3390 20.6406 1006.1606
v  -244.3390 20.7700 1006.1606
v  -243.5547 20.6406 1006.1606
v  -243.5547 20.7700 1006.1606
v  -244.3129 20.6406 1006.1606
v  -244.3129 20.7700 1006.1606
v  -243.5285 20.5307 1004.9260
v  -243.5285 20.9103 1004.9260
v  -243.3607 20.9103 1005.3313
v  -243.3607 20.5307 1005.3313
v  -243.9338 20.5328 1003.5245
v  -243.9338 20.6780 1003.5245
v  -243.5547 20.6780 1003.5245
v  -243.5547 20.5486 1003.5245
v  -244.3129 20.6780 1003.5245
v  -244.3129 20.5486 1003.5245
v  -244.3390 20.9103 1004.9260
v  -244.3390 20.5307 1004.9260
v  -244.5068 20.5307 1005.3313
v  -244.5068 20.9103 1005.3313
v  -243.9337 20.4846 1004.7582
v  -243.9337 20.5509 1004.4998
v  -243.5286 20.5826 1004.4998
v  -243.5286 20.8439 1004.4998
v  -243.9337 20.8439 1004.4998
v  -243.9337 20.9103 1004.7582
v  -244.3390 20.5826 1004.4998
v  -244.3390 20.8439 1004.4998
v  -243.9337 20.9226 1005.3312
v  -243.9338 20.6249 1004.4998
v  -243.5285 20.6406 1004.4998
v  -243.5285 20.7700 1004.4998
v  -243.9338 20.7700 1004.4998
v  -244.3390 20.6406 1004.4998
v  -244.3390 20.7700 1004.4998
v  -243.5547 20.6406 1004.4998
v  -243.5547 20.7700 1004.4998
v  -244.3129 20.6406 1004.4998
v  -244.3129 20.7700 1004.4998
v  -243.5285 20.2223 1004.9238
v  -243.5285 19.6474 1004.9238
v  -243.9337 19.6474 1004.7560
v  -243.9337 20.2223 1004.7560
v  -244.3390 19.6474 1004.9238
v  -244.3390 20.2223 1004.9238
v  -244.5068 19.6474 1005.3291
v  -244.5068 20.2223 1005.3291
v  -244.3390 19.6474 1005.7344
v  -244.3390 20.2223 1005.7344
v  -243.9337 20.2223 1005.9022
v  -243.9337 19.6474 1005.9022
v  -243.5285 20.2223 1005.7344
v  -243.5285 19.6474 1005.7344
v  -243.3607 19.6474 1005.3291
v  -243.3607 20.2223 1005.3291
v  -243.3607 20.9103 1005.3291
v  -243.5285 20.9103 1005.7344
v  -244.3390 20.9103 1005.7344
v  -244.5068 20.9103 1005.3291
v  -243.3718 20.2615 1005.8911
v  -243.1390 20.2615 1005.3291
v  -243.1390 20.4828 1005.3291
v  -243.3718 20.4828 1005.8911
v  -243.3718 20.4828 1004.7671
v  -243.3718 20.2615 1004.7671
v  -243.9337 20.2615 1004.5343
v  -243.9337 20.4828 1004.5343
v  -244.4957 20.2615 1004.7671
v  -244.4957 20.4828 1004.7671
v  -244.7285 20.2615 1005.3291
v  -244.7285 20.4828 1005.3291
v  -244.4957 20.4828 1005.8911
v  -244.4957 20.2615 1005.8911
v  -243.9338 20.2615 1006.1239
v  -243.9338 20.4828 1006.1239
v  -243.5285 20.5307 1004.9238
v  -244.3390 20.5307 1004.9238
v  -243.9337 20.5307 1004.7560
v  -243.6322 19.6474 1005.0276
v  -243.9337 19.6474 1004.9026
v  -244.2353 19.6474 1005.0276
v  -244.3602 19.6474 1005.3291
v  -244.2353 19.6474 1005.6307
v  -243.9338 19.6474 1005.7556
v  -243.6322 19.6474 1005.6307
v  -243.5074 19.6474 1005.3291
v  -243.9337 19.3167 1004.9026
v  -243.6322 19.3167 1005.0276
v  -244.2353 19.3167 1005.0276
v  -244.3602 19.3167 1005.3291
v  -244.2353 19.3167 1005.6307
v  -243.9338 19.3167 1005.7556
v  -243.6322 19.3167 1005.6307
v  -243.5074 19.3167 1005.3291
v  -243.5286 20.5827 1006.1606
v  -244.3390 20.5827 1006.1606
v  -231.1502 14.3541 1004.9911
v  -231.3862 14.3559 1004.7551
v  -231.3573 19.2174 1004.7769
v  -231.1378 19.2151 1004.9960
v  -231.7086 14.3582 1004.6686
v  -231.6571 19.2202 1004.6961
v  -232.0311 14.3602 1004.7551
v  -231.9566 19.2228 1004.7764
v  -232.2671 14.3615 1004.9911
v  -232.1760 19.2244 1004.9960
v  -232.3535 14.3617 1005.3135
v  -232.2562 19.2247 1005.2959
v  -232.2671 14.3608 1005.6360
v  -232.1759 19.2235 1005.5955
v  -232.0311 14.3590 1005.8720
v  -231.9566 19.2212 1005.8150
v  -231.7086 14.3568 1005.9584
v  -231.6570 19.2184 1005.8952
v  -231.3573 19.2158 1005.8147
v  -231.3863 14.3547 1005.8720
v  -231.1502 14.3534 1005.6360
v  -231.1378 19.2142 1005.5955
v  -231.0638 14.3532 1005.3135
v  -231.0574 19.2139 1005.2959
v  -231.6597 19.4208 1005.6602
v  -231.8425 19.4226 1005.6113
v  -231.9765 19.4239 1005.4772
v  -232.0256 19.4246 1005.2941
v  -231.9764 19.4245 1005.1113
v  -231.8426 19.4235 1004.9769
v  -231.6597 19.4219 1004.9282
v  -231.4767 19.4202 1004.9775
v  -231.3427 19.4188 1005.1113
v  -231.2937 19.4181 1005.2941
v  -231.3427 19.4182 1005.4772
v  -231.4766 19.4192 1005.6107
v  -231.2484 13.9992 1005.0470
v  -231.4440 14.0007 1004.8514
v  -231.7112 14.0025 1004.7797
v  -231.9785 14.0042 1004.8514
v  -232.1742 14.0053 1005.0470
v  -232.2458 14.0054 1005.3143
v  -232.1742 14.0047 1005.5815
v  -231.9785 14.0032 1005.7772
v  -231.7113 14.0013 1005.8489
v  -231.4440 13.9997 1005.7772
v  -231.2484 13.9986 1005.5815
v  -231.1767 13.9984 1005.3143
v  -231.7112 14.0019 1005.3143
v  -241.9135 -10.1005 1002.4550
v  -245.9516 -10.1005 1002.4550
v  -245.9516 -10.1004 1007.5785
v  -241.9135 -10.1004 1007.5785
v  -245.9516 -11.6789 1007.5784
v  -245.9516 -11.6789 1002.4550
v  -241.9135 -11.6789 1007.5784
v  -241.9135 -11.6789 1002.4550
v  -243.6207 12.2552 1004.7769
v  -243.4012 12.2529 1004.9960
v  -243.4136 7.3919 1004.9910
v  -243.6496 7.3938 1004.7551
v  -243.9720 7.3960 1004.6686
v  -243.9204 12.2580 1004.6961
v  -244.2200 12.2606 1004.7764
v  -244.2944 7.3980 1004.7551
v  -244.5305 7.3993 1004.9910
v  -244.4392 12.2622 1004.9960
v  -244.6168 7.3995 1005.3135
v  -244.5196 12.2625 1005.2959
v  -244.5305 7.3986 1005.6359
v  -244.4392 12.2613 1005.5955
v  -244.2944 7.3968 1005.8720
v  -244.2200 12.2590 1005.8150
v  -243.9720 7.3946 1005.9584
v  -243.9204 12.2562 1005.8952
v  -243.6496 7.3926 1005.8720
v  -243.6207 12.2536 1005.8147
v  -243.4136 7.3913 1005.6359
v  -243.4011 12.2520 1005.5955
v  -243.3272 7.3910 1005.3135
v  -243.3208 12.2517 1005.2959
v  -244.1060 12.4604 1005.6113
v  -243.9230 12.4586 1005.6602
v  -244.2398 12.4617 1005.4772
v  -244.2888 12.4625 1005.2941
v  -244.2398 12.4623 1005.1113
v  -244.1060 12.4613 1004.9770
v  -243.9230 12.4597 1004.9282
v  -243.7401 12.4580 1004.9775
v  -243.6061 12.4566 1005.1113
v  -243.5570 12.4559 1005.2941
v  -243.6061 12.4560 1005.4772
v  -243.7401 12.4570 1005.6107
v  -243.5117 7.0370 1005.0469
v  -243.7074 7.0385 1004.8514
v  -243.9747 7.0403 1004.7797
v  -244.2419 7.0420 1004.8514
v  -244.4376 7.0431 1005.0469
v  -244.5092 7.0433 1005.3143
v  -244.4375 7.0425 1005.5815
v  -244.2419 7.0410 1005.7772
v  -243.9746 7.0392 1005.8488
v  -243.7074 7.0375 1005.7772
v  -243.5117 7.0364 1005.5815
v  -243.4402 7.0362 1005.3143
v  -243.9747 7.0398 1005.3143
v  -219.1229 7.3938 1004.7551
v  -219.0940 12.2552 1004.7769
v  -218.8745 12.2529 1004.9960
v  -218.8869 7.3919 1004.9911
v  -219.4453 7.3960 1004.6686
v  -219.3937 12.2580 1004.6961
v  -219.7677 7.3980 1004.7551
v  -219.6933 12.2606 1004.7764
v  -220.0038 7.3993 1004.9911
v  -219.9126 12.2622 1004.9960
v  -220.0901 7.3995 1005.3135
v  -219.9929 12.2625 1005.2959
v  -220.0038 7.3986 1005.6359
v  -219.9125 12.2613 1005.5955
v  -219.7677 7.3968 1005.8720
v  -219.6933 12.2590 1005.8150
v  -219.4453 7.3946 1005.9584
v  -219.3937 12.2562 1005.8952
v  -219.0940 12.2536 1005.8147
v  -219.1229 7.3926 1005.8720
v  -218.8745 12.2520 1005.5955
v  -218.8869 7.3913 1005.6359
v  -218.7941 12.2517 1005.2959
v  -218.8005 7.3910 1005.3135
v  -219.3963 12.4586 1005.6602
v  -219.5793 12.4604 1005.6113
v  -219.7131 12.4617 1005.4772
v  -219.7621 12.4625 1005.2942
v  -219.7131 12.4623 1005.1113
v  -219.5793 12.4613 1004.9770
v  -219.3963 12.4597 1004.9282
v  -219.2134 12.4580 1004.9775
v  -219.0793 12.4566 1005.1114
v  -219.0302 12.4559 1005.2942
v  -219.0793 12.4560 1005.4772
v  -219.2133 12.4570 1005.6108
v  -219.1807 7.0385 1004.8514
v  -218.9850 7.0370 1005.0469
v  -219.4480 7.0403 1004.7797
v  -219.7152 7.0420 1004.8514
v  -219.9109 7.0431 1005.0469
v  -219.9825 7.0433 1005.3143
v  -219.9108 7.0425 1005.5815
v  -219.7152 7.0410 1005.7772
v  -219.4479 7.0392 1005.8488
v  -219.1807 7.0375 1005.7772
v  -218.9850 7.0364 1005.5815
v  -218.9135 7.0362 1005.3143
v  -219.4480 7.0398 1005.3143
v  -218.0515 -10.1004 1007.5785
v  -218.0515 -10.1005 1002.4550
v  -222.0896 -10.1005 1002.4550
v  -222.0896 -10.1004 1007.5785
v  -222.0896 -11.6789 1002.4550
v  -222.0896 -11.6789 1007.5784
v  -218.0515 -11.6789 1007.5784
v  -218.0515 -11.6789 1002.4550
v  -227.5171 -6.3945 1004.2521
v  -236.1407 -6.3945 1004.2521
v  -236.1407 2.3580 1004.2521
v  -227.5171 2.3580 1004.2521
v  -227.5171 2.3580 1007.2316
v  -236.1407 2.3580 1007.2316
v  -236.1407 -6.3945 1007.2316
v  -227.5171 -6.3945 1007.2316
v  -243.4136 14.3541 1004.9911
v  -243.6496 14.3559 1004.7551
v  -243.6207 19.2174 1004.7769
v  -243.4012 19.2151 1004.9960
v  -243.9204 19.2202 1004.6961
v  -243.9720 14.3582 1004.6686
v  -244.2944 14.3602 1004.7551
v  -244.2200 19.2228 1004.7764
v  -244.5305 14.3615 1004.9911
v  -244.4392 19.2244 1004.9960
v  -244.6168 14.3617 1005.3135
v  -244.5196 19.2247 1005.2959
v  -244.5305 14.3608 1005.6360
v  -244.4392 19.2235 1005.5955
v  -244.2944 14.3590 1005.8720
v  -244.2200 19.2212 1005.8150
v  -243.9720 14.3568 1005.9584
v  -243.9204 19.2184 1005.8952
v  -243.6496 14.3547 1005.8720
v  -243.6207 19.2158 1005.8147
v  -243.4136 14.3534 1005.6360
v  -243.4011 19.2142 1005.5955
v  -243.3272 14.3532 1005.3135
v  -243.3208 19.2139 1005.2959
v  -244.1060 19.4226 1005.6113
v  -243.9230 19.4208 1005.6602
v  -244.2398 19.4239 1005.4772
v  -244.2888 19.4246 1005.2941
v  -244.2398 19.4245 1005.1113
v  -244.1060 19.4235 1004.9769
v  -243.9230 19.4219 1004.9282
v  -243.7401 19.4202 1004.9775
v  -243.6061 19.4188 1005.1113
v  -243.5570 19.4181 1005.2941
v  -243.6061 19.4182 1005.4772
v  -243.7401 19.4192 1005.6107
v  -243.7074 14.0007 1004.8514
v  -243.5117 13.9992 1005.0470
v  -243.9747 14.0025 1004.7797
v  -244.2419 14.0042 1004.8514
v  -244.4376 14.0053 1005.0470
v  -244.5092 14.0054 1005.3143
v  -244.4375 14.0047 1005.5815
v  -244.2419 14.0032 1005.7772
v  -243.9746 14.0013 1005.8489
v  -243.7074 13.9997 1005.7772
v  -243.5117 13.9986 1005.5815
v  -243.4402 13.9984 1005.3143
v  -243.9747 14.0019 1005.3143
v  -231.1502 7.3919 1004.9910
v  -231.3862 7.3938 1004.7551
v  -231.3573 12.2552 1004.7769
v  -231.1378 12.2529 1004.9960
v  -231.7086 7.3960 1004.6686
v  -231.6571 12.2580 1004.6961
v  -231.9566 12.2606 1004.7764
v  -232.0311 7.3980 1004.7551
v  -232.1760 12.2622 1004.9960
v  -232.2671 7.3993 1004.9910
v  -232.2562 12.2625 1005.2959
v  -232.3535 7.3995 1005.3135
v  -232.2671 7.3986 1005.6359
v  -232.1759 12.2613 1005.5955
v  -232.0311 7.3968 1005.8720
v  -231.9566 12.2590 1005.8150
v  -231.7086 7.3946 1005.9584
v  -231.6570 12.2562 1005.8952
v  -231.3573 12.2536 1005.8147
v  -231.3863 7.3926 1005.8720
v  -231.1378 12.2520 1005.5955
v  -231.1502 7.3913 1005.6359
v  -231.0574 12.2517 1005.2959
v  -231.0638 7.3910 1005.3135
v  -231.6597 12.4586 1005.6602
v  -231.8425 12.4604 1005.6113
v  -231.9765 12.4617 1005.4772
v  -232.0256 12.4625 1005.2941
v  -231.9764 12.4623 1005.1113
v  -231.8426 12.4613 1004.9770
v  -231.6597 12.4597 1004.9282
v  -231.4767 12.4580 1004.9775
v  -231.3427 12.4566 1005.1113
v  -231.2937 12.4559 1005.2941
v  -231.3427 12.4560 1005.4772
v  -231.4766 12.4570 1005.6107
v  -231.2484 7.0370 1005.0469
v  -231.4440 7.0385 1004.8514
v  -231.7112 7.0403 1004.7797
v  -231.9785 7.0420 1004.8514
v  -232.1742 7.0431 1005.0469
v  -232.2458 7.0433 1005.3143
v  -232.1742 7.0425 1005.5815
v  -231.9785 7.0410 1005.7772
v  -231.7113 7.0392 1005.8488
v  -231.4440 7.0375 1005.7772
v  -231.2484 7.0364 1005.5815
v  -231.1767 7.0362 1005.3143
v  -231.7112 7.0398 1005.3143
# 1192 vertices

vt 0.3454 0.9020 0.0000
vt 0.3456 0.8925 0.0000
vt 0.6820 0.9020 0.0000
vt 0.6818 0.9114 0.0000
vt 0.6808 0.9463 0.0000
vt 0.6805 0.9557 0.0000
vt 0.3441 0.9463 0.0000
vt 0.3444 0.9368 0.0000
vt 0.3431 0.9811 0.0000
vt 0.6796 0.9906 0.0000
vt 0.3822 0.6071 0.0000
vt 0.3822 0.5852 0.0000
vt 0.7187 0.5852 0.0000
vt 0.7187 0.6071 0.0000
vt 0.7187 0.6419 0.0000
vt 0.7187 0.6638 0.0000
vt 0.3822 0.6638 0.0000
vt 0.3822 0.6419 0.0000
vt 0.3822 0.6986 0.0000
vt 0.7187 0.6986 0.0000
vt 0.3399 0.9430 0.0000
vt 0.3399 0.9525 0.0000
vt 0.0034 0.9525 0.0000
vt 0.0034 0.9430 0.0000
vt 0.0034 0.9968 0.0000
vt 0.0034 0.9873 0.0000
vt 0.3399 0.9873 0.0000
vt 0.3399 0.9968 0.0000
vt 0.3399 0.9082 0.0000
vt 0.0034 0.9082 0.0000
vt 0.9577 0.2067 0.0000
vt 0.9589 0.2371 0.0000
vt 0.9389 0.2333 0.0000
vt 0.9384 0.2126 0.0000
vt 0.9459 0.2644 0.0000
vt 0.9298 0.2519 0.0000
vt 0.9223 0.2831 0.0000
vt 0.9134 0.2647 0.0000
vt 0.8930 0.2896 0.0000
vt 0.8930 0.2692 0.0000
vt 0.8638 0.2827 0.0000
vt 0.8727 0.2644 0.0000
vt 0.8404 0.2640 0.0000
vt 0.8564 0.2514 0.0000
vt 0.8274 0.2369 0.0000
vt 0.8473 0.2327 0.0000
vt 0.8280 0.2067 0.0000
vt 0.8476 0.2122 0.0000
vt 0.9323 0.2318 0.0000
vt 0.9324 0.2155 0.0000
vt 0.9246 0.2476 0.0000
vt 0.9106 0.2586 0.0000
vt 0.8932 0.2625 0.0000
vt 0.8757 0.2585 0.0000
vt 0.8617 0.2473 0.0000
vt 0.8539 0.2315 0.0000
vt 0.8535 0.2150 0.0000
vt 0.9208 0.2284 0.0000
vt 0.9211 0.2142 0.0000
vt 0.9153 0.2401 0.0000
vt 0.9053 0.2479 0.0000
vt 0.8930 0.2506 0.0000
vt 0.8808 0.2476 0.0000
vt 0.8710 0.2395 0.0000
vt 0.8658 0.2277 0.0000
vt 0.8659 0.2134 0.0000
vt 0.9153 0.2268 0.0000
vt 0.9153 0.2157 0.0000
vt 0.9109 0.2363 0.0000
vt 0.9030 0.2426 0.0000
vt 0.8932 0.2448 0.0000
vt 0.8834 0.2424 0.0000
vt 0.8757 0.2359 0.0000
vt 0.8714 0.2264 0.0000
vt 0.8716 0.2152 0.0000
vt 0.0034 0.8177 0.0000
vt 0.0034 0.7969 0.0000
vt 0.3399 0.7969 0.0000
vt 0.3399 0.8177 0.0000
vt 0.3399 0.8525 0.0000
vt 0.3399 0.8733 0.0000
vt 0.0034 0.8733 0.0000
vt 0.0034 0.8525 0.0000
vt 0.6911 0.2542 0.0000
vt 0.7044 0.2547 0.0000
vt 0.6892 0.8222 0.0000
vt 0.6813 0.8196 0.0000
vt 0.7183 0.2547 0.0000
vt 0.6970 0.8257 0.0000
vt 0.7331 0.2534 0.0000
vt 0.7047 0.8302 0.0000
vt 0.5745 0.2451 0.0000
vt 0.5892 0.2484 0.0000
vt 0.6179 0.8213 0.0000
vt 0.6101 0.8245 0.0000
vt 0.6030 0.2500 0.0000
vt 0.6257 0.8188 0.0000
vt 0.6161 0.2509 0.0000
vt 0.6336 0.8171 0.0000
vt 0.6288 0.2514 0.0000
vt 0.6416 0.8161 0.0000
vt 0.6412 0.2518 0.0000
vt 0.6495 0.8157 0.0000
vt 0.6535 0.2523 0.0000
vt 0.6575 0.8158 0.0000
vt 0.6659 0.2529 0.0000
vt 0.6654 0.8165 0.0000
vt 0.6783 0.2535 0.0000
vt 0.6734 0.8177 0.0000
vt 0.6502 0.8460 0.0000
vt 0.6428 0.8464 0.0000
vt 0.6356 0.8473 0.0000
vt 0.6285 0.8489 0.0000
vt 0.6217 0.8513 0.0000
vt 0.6154 0.8551 0.0000
vt 0.6996 0.8595 0.0000
vt 0.6934 0.8549 0.0000
vt 0.6866 0.8517 0.0000
vt 0.6796 0.8494 0.0000
vt 0.6724 0.8478 0.0000
vt 0.6650 0.8467 0.0000
vt 0.6576 0.8461 0.0000
vt 0.6838 0.2063 0.0000
vt 0.6929 0.2056 0.0000
vt 0.7010 0.2042 0.0000
vt 0.7079 0.2014 0.0000
vt 0.5997 0.2016 0.0000
vt 0.6068 0.2038 0.0000
vt 0.6152 0.2049 0.0000
vt 0.6244 0.2054 0.0000
vt 0.6341 0.2057 0.0000
vt 0.6441 0.2059 0.0000
vt 0.6542 0.2062 0.0000
vt 0.6643 0.2064 0.0000
vt 0.6742 0.2064 0.0000
vt 0.7292 0.1028 0.0000
vt 0.7292 0.1049 0.0000
vt 0.7271 0.1028 0.0000
vt 0.6976 0.1509 0.0000
vt 0.6989 0.1482 0.0000
vt 0.7010 0.1509 0.0000
vt 0.6809 0.1707 0.0000
vt 0.6823 0.1680 0.0000
vt 0.6843 0.1707 0.0000
vt 0.7113 0.1617 0.0000
vt 0.7127 0.1589 0.0000
vt 0.7147 0.1617 0.0000
vt 0.6854 0.1482 0.0000
vt 0.6868 0.1455 0.0000
vt 0.6888 0.1482 0.0000
vt 0.6806 0.1129 0.0000
vt 0.6819 0.1102 0.0000
vt 0.6840 0.1129 0.0000
vt 0.7085 0.1482 0.0000
vt 0.7099 0.1455 0.0000
vt 0.7119 0.1482 0.0000
vt 0.7089 0.1555 0.0000
vt 0.7102 0.1528 0.0000
vt 0.7123 0.1555 0.0000
vt 0.7049 0.1509 0.0000
vt 0.7062 0.1482 0.0000
vt 0.7083 0.1509 0.0000
vt 0.7089 0.1629 0.0000
vt 0.7102 0.1602 0.0000
vt 0.7123 0.1629 0.0000
vt 0.6797 0.1680 0.0000
vt 0.6811 0.1653 0.0000
vt 0.6831 0.1680 0.0000
vt 0.7283 0.1071 0.0000
vt 0.7304 0.1071 0.0000
vt 0.7304 0.1092 0.0000
vt 0.6580 0.0841 0.0000
vt 0.6580 0.1189 0.0000
vt 0.0382 0.1189 0.0000
vt 0.0382 0.0841 0.0000
vt 0.0382 0.2378 0.0000
vt 0.0382 0.2030 0.0000
vt 0.6580 0.2030 0.0000
vt 0.6580 0.2378 0.0000
vt 0.6580 0.0000 0.0000
vt 0.6928 0.0000 0.0000
vt 0.6928 0.0841 0.0000
vt 0.0382 0.0000 0.0000
vt 0.0034 0.0841 0.0000
vt 0.0034 0.0000 0.0000
vt 0.9054 0.3025 0.0000
vt 0.9162 0.3009 0.0000
vt 0.9198 0.3161 0.0000
vt 0.9073 0.3179 0.0000
vt 0.9268 0.2981 0.0000
vt 0.9322 0.3133 0.0000
vt 0.9375 0.2930 0.0000
vt 0.9438 0.3090 0.0000
vt 0.8523 0.2932 0.0000
vt 0.8623 0.2984 0.0000
vt 0.8568 0.3141 0.0000
vt 0.8448 0.3098 0.0000
vt 0.8728 0.3014 0.0000
vt 0.8695 0.3171 0.0000
vt 0.8836 0.3029 0.0000
vt 0.8823 0.3186 0.0000
vt 0.8945 0.3032 0.0000
vt 0.8949 0.3188 0.0000
vt 0.8825 0.3362 0.0000
vt 0.8961 0.3355 0.0000
vt 0.8970 0.3461 0.0000
vt 0.8841 0.3469 0.0000
vt 0.9724 0.0272 0.0000
vt 0.9799 0.0344 0.0000
vt 0.9775 0.0370 0.0000
vt 0.9698 0.0300 0.0000
vt 0.9647 0.0203 0.0000
vt 0.9622 0.0229 0.0000
vt 0.8410 0.3292 0.0000
vt 0.8536 0.3312 0.0000
vt 0.8523 0.3416 0.0000
vt 0.8399 0.3399 0.0000
vt 0.8954 0.3244 0.0000
vt 0.8957 0.3305 0.0000
vt 0.8824 0.3305 0.0000
vt 0.8824 0.3244 0.0000
vt 0.9082 0.3234 0.0000
vt 0.9088 0.3294 0.0000
vt 0.9210 0.3216 0.0000
vt 0.9219 0.3275 0.0000
vt 0.9341 0.3187 0.0000
vt 0.9351 0.3246 0.0000
vt 0.9484 0.3142 0.0000
vt 0.9503 0.3210 0.0000
vt 0.8391 0.3225 0.0000
vt 0.8403 0.3155 0.0000
vt 0.8554 0.3198 0.0000
vt 0.8541 0.3256 0.0000
vt 0.8690 0.3228 0.0000
vt 0.8682 0.3289 0.0000
vt 0.9096 0.3348 0.0000
vt 0.8677 0.3347 0.0000
vt 0.9486 0.3282 0.0000
vt 0.9360 0.3304 0.0000
vt 0.9229 0.3330 0.0000
vt 0.9051 0.2988 0.0000
vt 0.9154 0.2972 0.0000
vt 0.9252 0.2945 0.0000
vt 0.9339 0.2903 0.0000
vt 0.8559 0.2906 0.0000
vt 0.8643 0.2950 0.0000
vt 0.8740 0.2978 0.0000
vt 0.8842 0.2992 0.0000
vt 0.8947 0.2995 0.0000
vt 0.9040 0.2898 0.0000
vt 0.9131 0.2883 0.0000
vt 0.9218 0.2858 0.0000
vt 0.9298 0.2822 0.0000
vt 0.8602 0.2822 0.0000
vt 0.8682 0.2863 0.0000
vt 0.8766 0.2888 0.0000
vt 0.8855 0.2901 0.0000
vt 0.8947 0.2904 0.0000
vt 0.8006 0.2333 0.0000
vt 0.7813 0.2333 0.0000
vt 0.7891 0.2258 0.0000
vt 0.7977 0.2246 0.0000
vt 0.7766 0.2179 0.0000
vt 0.7860 0.2198 0.0000
vt 0.7920 0.2069 0.0000
vt 0.7947 0.2154 0.0000
vt 0.8161 0.2220 0.0000
vt 0.8054 0.2205 0.0000
vt 0.8109 0.2067 0.0000
vt 0.8043 0.2139 0.0000
vt 0.6248 0.4091 0.0000
vt 0.6433 0.4147 0.0000
vt 0.5974 0.4118 0.0000
vt 0.6630 0.4091 0.0000
vt 0.6897 0.4118 0.0000
vt 0.6891 0.4156 0.0000
vt 0.7884 0.2245 0.0000
vt 0.7969 0.2222 0.0000
vt 0.7869 0.2215 0.0000
vt 0.7955 0.2176 0.0000
vt 0.8052 0.2190 0.0000
vt 0.8046 0.2157 0.0000
vt 0.9905 0.0076 0.0000
vt 0.9987 0.0150 0.0000
vt 0.9982 0.0146 0.0000
vt 0.9986 0.0546 0.0000
vt 0.9962 0.0572 0.0000
vt 0.9957 0.0567 0.0000
vt 0.9980 0.0541 0.0000
vt 0.9598 0.0572 0.0000
vt 0.9516 0.0497 0.0000
vt 0.9516 0.0497 0.0000
vt 0.9592 0.0567 0.0000
vt 0.9825 0.0000 0.0000
vt 0.9830 0.0005 0.0000
vt 0.9434 0.0421 0.0000
vt 0.9440 0.0426 0.0000
vt 0.9406 0.0058 0.0000
vt 0.9431 0.0032 0.0000
vt 0.9436 0.0037 0.0000
vt 0.9411 0.0063 0.0000
vt 0.1493 0.1916 0.0000
vt 0.1382 0.1920 0.0000
vt 0.1493 0.1971 0.0000
vt 0.1382 0.1975 0.0000
vt 0.2293 0.2952 0.0000
vt 0.2714 0.4612 0.0000
vt 0.1029 0.5040 0.0000
vt 0.0607 0.3380 0.0000
vt 0.4552 0.2378 0.0000
vt 0.4973 0.4039 0.0000
vt 0.3288 0.4467 0.0000
vt 0.2866 0.2806 0.0000
vt 0.2860 0.5186 0.0000
vt 0.1175 0.5614 0.0000
vt 0.2147 0.2378 0.0000
vt 0.0462 0.2806 0.0000
vt 0.0455 0.5186 0.0000
vt 0.0034 0.3526 0.0000
# 319 texture coords

g 对象327
usemtl substationpt_1001_06_breaker_3003_01_01_phong4SG1
f 1/3 2/4 3/1 4/2 
f 5/8 6/5 7/6 8/7 
f 1/10 4/9 8/7 7/6 
f 2/4 6/5 5/8 3/1 
f 9/13 10/14 11/11 12/12 
f 13/18 14/15 15/16 16/17 
f 12/19 16/17 15/16 9/20 
f 13/18 11/11 10/14 14/15 
f 17/24 18/21 19/22 20/23 
f 21/25 22/26 23/27 24/28 
f 20/23 19/22 23/27 22/26 
f 24/29 18/21 17/24 21/30 
f 25/33 26/34 27/31 28/32 
f 25/33 28/32 29/35 30/36 
f 31/37 32/38 30/36 29/35 
f 31/37 33/39 34/40 32/38 
f 33/39 35/41 36/42 34/40 
f 37/43 38/44 36/42 35/41 
f 37/43 39/45 40/46 38/44 
f 40/46 39/45 27/47 26/48 
f 41/50 26/34 25/33 42/49 
f 43/51 42/49 25/33 30/36 
f 43/51 30/36 32/38 44/52 
f 32/38 34/40 45/53 44/52 
f 36/42 46/54 45/53 34/40 
f 46/54 36/42 38/44 47/55 
f 40/46 48/56 47/55 38/44 
f 48/56 40/46 26/48 41/57 
f 49/59 41/50 42/49 50/58 
f 50/58 42/49 43/51 51/60 
f 51/60 43/51 44/52 52/61 
f 45/53 53/62 52/61 44/52 
f 53/62 45/53 46/54 54/63 
f 55/64 54/63 46/54 47/55 
f 55/64 47/55 48/56 56/65 
f 49/66 56/65 48/56 41/57 
f 49/59 50/58 57/67 58/68 
f 59/69 57/67 50/58 51/60 
f 51/60 52/61 60/70 59/69 
f 52/61 53/62 61/71 60/70 
f 61/71 53/62 54/63 62/72 
f 62/72 54/63 55/64 63/73 
f 64/74 63/73 55/64 56/65 
f 64/74 56/65 49/66 58/75 
f 65/78 66/79 67/76 68/77 
f 69/83 70/80 71/81 72/82 
f 65/29 68/30 72/82 71/81 
f 66/79 70/80 69/83 67/76 
usemtl substationpt_1001_06_0
f 73/86 74/87 75/84 76/85 
f 76/85 77/88 78/89 73/86 
f 77/88 79/90 80/91 78/89 
f 79/92 81/93 82/94 80/95 
f 83/97 82/94 81/93 84/96 
f 84/96 85/98 86/99 83/97 
f 87/101 86/99 85/98 88/100 
f 89/103 87/101 88/100 90/102 
f 91/105 89/103 90/102 92/104 
f 92/104 93/106 94/107 91/105 
f 93/106 95/108 96/109 94/107 
f 95/108 75/84 74/87 96/109 
f 87/101 89/103 97/110 98/111 
f 87/101 98/111 99/112 86/99 
f 83/97 86/99 99/112 100/113 
f 101/114 82/94 83/97 100/113 
f 101/114 102/115 80/95 82/94 
f 103/117 78/89 80/91 102/116 
f 104/118 73/86 78/89 103/117 
f 73/86 104/118 105/119 74/87 
f 74/87 105/119 106/120 96/109 
f 107/121 94/107 96/109 106/120 
f 107/121 108/122 91/105 94/107 
f 108/122 97/110 89/103 91/105 
f 109/123 110/124 76/85 75/84 
f 77/88 76/85 110/124 111/125 
f 112/126 79/90 77/88 111/125 
f 81/93 79/92 112/127 113/128 
f 114/129 84/96 81/93 113/128 
f 115/130 85/98 84/96 114/129 
f 115/130 116/131 88/100 85/98 
f 88/100 116/131 117/132 90/102 
f 118/133 92/104 90/102 117/132 
f 118/133 119/134 93/106 92/104 
f 95/108 93/106 119/134 120/135 
f 120/135 109/123 75/84 95/108 
f 114/136 113/137 121/138 
f 115/139 114/140 121/141 
f 116/142 115/143 121/144 
f 117/145 116/146 121/147 
f 118/148 117/149 121/150 
f 119/151 118/152 121/153 
f 120/154 119/155 121/156 
f 109/157 120/158 121/159 
f 110/160 109/161 121/162 
f 111/163 110/164 121/165 
f 112/166 111/167 121/168 
f 113/169 112/170 121/171 
usemtl substationpt_1001_06_breaker_3003_01_01_phong4SG1
f 122/174 123/175 124/172 125/173 
f 126/178 127/179 128/176 129/177 
f 127/180 126/181 125/182 124/172 
f 126/178 129/177 122/174 125/173 
f 128/183 127/180 124/172 123/175 
f 122/184 129/185 128/183 123/175 
f 130/32 131/33 132/34 133/31 
f 130/32 134/35 135/36 131/33 
f 134/35 136/37 137/38 135/36 
f 136/37 138/39 139/40 137/38 
f 140/41 141/42 139/40 138/39 
f 140/41 142/43 143/44 141/42 
f 142/43 144/45 145/46 143/44 
f 145/46 144/45 133/47 132/48 
f 132/34 131/33 146/49 147/50 
f 148/51 146/49 131/33 135/36 
f 148/51 135/36 137/38 149/52 
f 139/40 150/53 149/52 137/38 
f 139/40 141/42 151/54 150/53 
f 151/54 141/42 143/44 152/55 
f 153/56 152/55 143/44 145/46 
f 145/46 132/48 147/57 153/56 
f 154/58 155/59 147/50 146/49 
f 154/58 146/49 148/51 156/60 
f 149/52 157/61 156/60 148/51 
f 157/61 149/52 150/53 158/62 
f 159/63 158/62 150/53 151/54 
f 152/55 160/64 159/63 151/54 
f 153/56 161/65 160/64 152/55 
f 153/56 147/57 155/66 161/65 
f 154/58 162/67 163/68 155/59 
f 154/58 156/60 164/69 162/67 
f 157/61 165/70 164/69 156/60 
f 157/61 158/62 166/71 165/70 
f 166/71 158/62 159/63 167/72 
f 167/72 159/63 160/64 168/73 
f 168/73 160/64 161/65 169/74 
f 163/75 169/74 161/65 155/66 
f 170/186 171/187 172/188 173/189 
f 171/187 174/190 175/191 172/188 
f 174/190 176/192 177/193 175/191 
f 176/194 178/195 179/196 177/197 
f 180/198 181/199 179/196 178/195 
f 182/200 183/201 181/199 180/198 
f 183/201 182/200 184/202 185/203 
f 173/189 185/203 184/202 170/186 
f 186/204 187/205 188/206 189/207 
f 190/210 191/211 192/208 193/209 
f 194/212 192/208 191/211 195/213 
f 196/216 197/217 198/214 199/215 
f 200/219 201/220 202/221 203/218 
f 204/222 205/223 200/219 203/218 
f 205/223 204/222 206/224 207/225 
f 207/225 206/224 208/226 209/227 
f 208/226 210/228 211/229 209/227 
f 211/230 210/231 212/232 213/233 
f 213/233 212/232 214/234 215/235 
f 202/221 201/220 215/235 214/234 
f 200/219 205/223 216/236 187/205 
f 186/204 201/220 200/219 187/205 
f 217/237 215/235 201/220 186/204 
f 213/233 215/235 217/237 199/215 
f 199/215 198/214 211/230 213/233 
f 211/229 198/238 218/239 209/227 
f 209/227 218/239 219/240 207/225 
f 219/240 216/236 205/223 207/225 
f 185/203 173/189 204/222 203/218 
f 206/224 204/222 173/189 172/188 
f 206/224 172/188 175/191 208/226 
f 177/193 210/228 208/226 175/191 
f 210/231 177/197 179/196 212/232 
f 179/196 181/199 214/234 212/232 
f 183/201 202/221 214/234 181/199 
f 183/201 185/203 203/218 202/221 
f 171/187 170/186 220/241 221/242 
f 171/187 221/242 222/243 174/190 
f 222/243 223/244 176/192 174/190 
f 224/246 178/195 176/194 223/245 
f 224/246 225/247 180/198 178/195 
f 226/248 182/200 180/198 225/247 
f 227/249 184/202 182/200 226/248 
f 227/249 220/241 170/186 184/202 
f 228/250 229/251 221/242 220/241 
f 222/243 221/242 229/251 230/252 
f 230/252 231/253 223/244 222/243 
f 231/254 232/255 224/246 223/245 
f 232/255 233/256 225/247 224/246 
f 226/248 225/247 233/256 234/257 
f 226/248 234/257 235/258 227/249 
f 220/241 227/249 235/258 228/250 
f 236/261 237/262 217/259 186/260 
f 186/260 189/263 238/264 236/261 
f 239/265 240/266 238/264 189/263 
f 199/267 217/259 237/262 241/268 
f 239/265 196/269 242/270 240/266 
f 242/270 196/269 199/267 241/268 
f 196/271 243/272 197/273 
f 239/274 243/272 196/271 
f 189/275 243/272 239/274 
f 188/276 243/272 189/275 
f 244/277 245/278 237/262 236/261 
f 236/261 238/264 246/279 244/277 
f 247/280 246/279 238/264 240/266 
f 248/281 241/268 237/262 245/278 
f 242/270 249/282 247/280 240/266 
f 242/270 241/268 248/281 249/282 
f 245/283 244/284 250/285 
f 244/286 246/287 251/288 250/289 
f 247/292 251/293 246/290 
f 245/283 252/295 248/294 
f 247/291 249/296 253/297 
f 252/300 253/301 249/298 248/299 
f 193/209 192/208 245/283 250/285 
f 190/210 193/209 250/289 251/288 
f 191/211 190/210 251/293 247/292 
f 194/212 252/295 245/283 192/208 
f 195/213 191/211 247/292 253/297 
f 253/301 252/300 194/212 195/213 
f 254/204 255/207 256/206 257/205 
f 258/208 259/211 260/210 261/209 
f 259/211 258/208 262/212 263/213 
f 264/217 265/216 266/215 267/214 
f 268/259 269/262 270/261 254/260 
f 255/263 254/260 270/261 271/264 
f 272/266 273/265 255/263 271/264 
f 266/267 274/268 269/262 268/259 
f 272/266 275/270 265/269 273/265 
f 266/267 265/269 275/270 274/268 
f 265/271 264/273 276/272 
f 273/274 265/271 276/272 
f 255/275 273/274 276/272 
f 256/276 255/275 276/272 
f 270/261 269/262 277/278 278/277 
f 271/264 270/261 278/277 279/279 
f 280/280 272/266 271/264 279/279 
f 277/278 269/262 274/268 281/281 
f 280/280 282/282 275/270 272/266 
f 274/268 275/270 282/282 281/281 
f 283/285 278/284 277/283 
f 279/287 278/286 283/289 284/288 
f 279/290 284/293 280/292 
f 281/294 285/295 277/283 
f 286/297 282/296 280/291 
f 281/299 282/298 286/301 285/300 
f 258/208 261/209 283/285 277/283 
f 260/210 284/288 283/289 261/209 
f 259/211 280/292 284/293 260/210 
f 285/295 262/212 258/208 277/283 
f 263/213 286/297 280/292 259/211 
f 285/300 286/301 263/213 262/212 
f 287/207 288/204 289/205 290/206 
f 291/211 292/208 293/209 294/210 
f 295/213 296/212 292/208 291/211 
f 297/216 298/217 299/214 300/215 
f 301/259 288/260 302/261 303/262 
f 288/260 287/263 304/264 302/261 
f 305/265 306/266 304/264 287/263 
f 301/259 303/262 307/268 300/267 
f 308/270 306/266 305/265 297/269 
f 297/269 300/267 307/268 308/270 
f 297/271 309/272 298/273 
f 305/274 309/272 297/271 
f 287/275 309/272 305/274 
f 290/276 309/272 287/275 
f 310/278 303/262 302/261 311/277 
f 312/279 311/277 302/261 304/264 
f 306/266 313/280 312/279 304/264 
f 310/278 314/281 307/268 303/262 
f 308/270 315/282 313/280 306/266 
f 307/268 314/281 315/282 308/270 
f 310/283 311/284 316/285 
f 312/287 317/288 316/289 311/286 
f 313/292 317/293 312/290 
f 310/283 318/295 314/294 
f 313/291 315/296 319/297 
f 315/298 314/299 318/300 319/301 
f 316/285 293/209 292/208 310/283 
f 317/288 294/210 293/209 316/289 
f 313/292 291/211 294/210 317/293 
f 310/283 292/208 296/212 318/295 
f 295/213 291/211 313/292 319/297 
f 295/213 319/301 318/300 296/212 
f 320/204 321/207 322/206 323/205 
f 324/208 325/211 326/210 327/209 
f 325/211 324/208 328/212 329/213 
f 330/214 331/217 332/216 333/215 
f 334/259 335/262 336/261 320/260 
f 321/263 320/260 336/261 337/264 
f 338/265 321/263 337/264 339/266 
f 333/267 340/268 335/262 334/259 
f 332/269 338/265 339/266 341/270 
f 340/268 333/267 332/269 341/270 
f 332/271 331/273 342/272 
f 338/274 332/271 342/272 
f 321/275 338/274 342/272 
f 322/276 321/275 342/272 
f 336/261 335/262 343/278 344/277 
f 345/279 337/264 336/261 344/277 
f 339/266 337/264 345/279 346/280 
f 343/278 335/262 340/268 347/281 
f 339/266 346/280 348/282 341/270 
f 341/270 348/282 347/281 340/268 
f 349/285 344/284 343/283 
f 344/286 349/289 350/288 345/287 
f 345/290 350/293 346/292 
f 347/294 351/295 343/283 
f 352/297 348/296 346/291 
f 351/300 347/299 348/298 352/301 
f 349/285 343/283 324/208 327/209 
f 326/210 350/288 349/289 327/209 
f 346/292 350/293 326/210 325/211 
f 343/283 351/295 328/212 324/208 
f 352/297 346/292 325/211 329/213 
f 328/212 351/300 352/301 329/213 
f 353/187 354/188 355/189 356/186 
f 357/191 354/188 353/187 358/190 
f 358/190 359/192 360/193 357/191 
f 361/195 362/196 360/197 359/194 
f 362/196 361/195 363/198 364/199 
f 364/199 363/198 365/200 366/201 
f 366/201 365/200 367/202 368/203 
f 355/189 368/203 367/202 356/186 
f 290/206 369/207 288/204 
f 288/204 289/205 290/206 
f 293/209 294/210 291/211 292/208 
f 291/211 295/213 296/212 292/208 
f 370/216 298/217 299/214 300/215 
f 371/219 372/220 373/221 374/218 
f 375/223 371/219 374/218 376/222 
f 376/222 377/224 378/225 375/223 
f 379/226 380/227 378/225 377/224 
f 380/227 379/226 381/228 382/229 
f 381/231 383/232 384/233 382/230 
f 384/233 383/232 385/234 386/235 
f 372/220 386/235 385/234 373/221 
f 387/236 289/205 371/219 375/223 
f 371/219 289/205 288/204 372/220 
f 288/204 301/237 386/235 372/220 
f 386/235 301/237 300/215 384/233 
f 384/233 300/215 299/214 382/230 
f 388/239 380/227 382/229 299/238 
f 378/225 380/227 388/239 389/240 
f 389/240 387/236 375/223 378/225 
f 376/222 374/218 368/203 355/189 
f 354/188 377/224 376/222 355/189 
f 357/191 379/226 377/224 354/188 
f 357/191 360/193 381/228 379/226 
f 381/231 360/197 362/196 383/232 
f 383/232 362/196 364/199 385/234 
f 385/234 364/199 366/201 373/221 
f 373/221 366/201 368/203 374/218 
f 390/241 391/242 353/187 356/186 
f 358/190 353/187 391/242 392/243 
f 358/190 392/243 393/244 359/192 
f 394/246 361/195 359/194 393/245 
f 394/246 395/247 363/198 361/195 
f 395/247 396/248 365/200 363/198 
f 396/248 397/249 367/202 365/200 
f 397/249 390/241 356/186 367/202 
f 391/242 390/241 398/250 399/251 
f 392/243 391/242 399/251 400/252 
f 392/243 400/252 401/253 393/244 
f 393/245 401/254 402/255 394/246 
f 394/246 402/255 403/256 395/247 
f 403/256 404/257 396/248 395/247 
f 405/258 397/249 396/248 404/257 
f 390/241 397/249 405/258 398/250 
f 302/261 303/262 301/259 
f 301/259 288/260 302/261 
f 302/261 288/260 369/263 
f 369/263 304/264 302/261 
f 306/266 304/264 369/263 
f 369/263 406/265 306/266 
f 303/262 307/268 300/267 301/259 
f 370/269 308/270 306/266 406/265 
f 300/267 307/268 308/270 370/269 
f 370/271 309/272 298/273 
f 406/274 309/272 370/271 
f 369/275 309/272 406/274 
f 290/276 309/272 369/275 
f 303/262 302/261 311/277 
f 311/277 310/278 303/262 
f 302/261 304/264 312/279 
f 312/279 311/277 302/261 
f 304/264 306/266 313/280 
f 313/280 312/279 304/264 
f 303/262 310/278 314/281 307/268 
f 306/266 308/270 315/282 313/280 
f 314/281 315/282 308/270 
f 308/270 307/268 314/281 
f 310/283 311/284 316/285 
f 312/287 317/288 316/289 
f 316/289 311/286 312/287 
f 313/292 317/293 312/290 
f 310/283 318/295 314/294 
f 313/291 315/296 319/297 
f 318/300 319/301 315/298 
f 315/298 314/299 318/300 
f 292/208 310/283 316/285 293/209 
f 294/210 293/209 316/289 317/288 
f 291/211 294/210 317/293 313/292 
f 310/283 292/208 296/212 318/295 
f 319/297 295/213 291/211 313/292 
f 296/212 295/213 319/301 318/300 
f 407/189 408/186 409/187 410/188 
f 411/191 410/188 409/187 412/190 
f 412/190 413/192 414/193 411/191 
f 415/196 414/197 413/194 416/195 
f 416/195 417/198 418/199 415/196 
f 417/198 419/200 420/201 418/199 
f 421/203 420/201 419/200 422/202 
f 421/203 422/202 408/186 407/189 
f 423/207 424/204 425/205 426/206 
f 427/211 428/208 429/209 430/210 
f 431/213 432/212 428/208 427/211 
f 433/217 434/214 435/215 436/216 
f 437/221 438/218 439/219 440/220 
f 441/222 442/223 439/219 438/218 
f 441/222 443/224 444/225 442/223 
f 444/225 443/224 445/226 446/227 
f 447/229 446/227 445/226 448/228 
f 447/230 448/231 449/232 450/233 
f 450/233 449/232 451/234 452/235 
f 452/235 451/234 437/221 440/220 
f 453/236 425/205 439/219 442/223 
f 424/204 440/220 439/219 425/205 
f 424/204 454/237 452/235 440/220 
f 452/235 454/237 435/215 450/233 
f 450/233 435/215 434/214 447/230 
f 455/239 446/227 447/229 434/238 
f 456/240 444/225 446/227 455/239 
f 453/236 442/223 444/225 456/240 
f 438/218 421/203 407/189 441/222 
f 410/188 443/224 441/222 407/189 
f 410/188 411/191 445/226 443/224 
f 445/226 411/191 414/193 448/228 
f 414/197 415/196 449/232 448/231 
f 418/199 451/234 449/232 415/196 
f 420/201 437/221 451/234 418/199 
f 420/201 421/203 438/218 437/221 
f 408/186 457/241 458/242 409/187 
f 412/190 409/187 458/242 459/243 
f 460/244 413/192 412/190 459/243 
f 460/245 461/246 416/195 413/194 
f 461/246 462/247 417/198 416/195 
f 463/248 419/200 417/198 462/247 
f 419/200 463/248 464/249 422/202 
f 408/186 422/202 464/249 457/241 
f 465/251 458/242 457/241 466/250 
f 465/251 467/252 459/243 458/242 
f 459/243 467/252 468/253 460/244 
f 461/246 460/245 468/254 469/255 
f 469/255 470/256 462/247 461/246 
f 470/256 471/257 463/248 462/247 
f 471/257 472/258 464/249 463/248 
f 466/250 457/241 464/249 472/258 
f 454/259 424/260 473/261 474/262 
f 423/263 475/264 473/261 424/260 
f 476/265 477/266 475/264 423/263 
f 435/267 454/259 474/262 478/268 
f 436/269 479/270 477/266 476/265 
f 479/270 436/269 435/267 478/268 
f 436/271 480/272 433/273 
f 476/274 480/272 436/271 
f 423/275 480/272 476/274 
f 426/276 480/272 423/275 
f 481/278 474/262 473/261 482/277 
f 473/261 475/264 483/279 482/277 
f 477/266 484/280 483/279 475/264 
f 478/268 474/262 481/278 485/281 
f 484/280 477/266 479/270 486/282 
f 485/281 486/282 479/270 478/268 
f 481/283 482/284 487/285 
f 487/289 482/286 483/287 488/288 
f 484/292 488/293 483/290 
f 481/283 489/295 485/294 
f 484/291 486/296 490/297 
f 489/300 490/301 486/298 485/299 
f 487/285 429/209 428/208 481/283 
f 429/209 487/289 488/288 430/210 
f 484/292 427/211 430/210 488/293 
f 481/283 428/208 432/212 489/295 
f 490/297 431/213 427/211 484/292 
f 490/301 489/300 432/212 431/213 
f 491/206 492/205 493/204 494/207 
f 495/209 496/208 497/211 498/210 
f 499/212 500/213 497/211 496/208 
f 501/214 502/217 503/216 504/215 
f 505/262 506/261 493/260 507/259 
f 508/264 494/263 493/260 506/261 
f 508/264 509/266 510/265 494/263 
f 505/262 507/259 504/267 511/268 
f 510/265 509/266 512/270 503/269 
f 503/269 512/270 511/268 504/267 
f 503/271 502/273 513/272 
f 510/274 503/271 513/272 
f 494/275 510/274 513/272 
f 491/276 494/275 513/272 
f 506/261 505/262 514/278 515/277 
f 508/264 506/261 515/277 516/279 
f 509/266 508/264 516/279 517/280 
f 511/268 518/281 514/278 505/262 
f 519/282 512/270 509/266 517/280 
f 512/270 519/282 518/281 511/268 
f 520/285 515/284 514/283 
f 521/288 516/287 515/286 520/289 
f 516/290 521/293 517/292 
f 518/294 522/295 514/283 
f 523/297 519/296 517/291 
f 522/300 518/299 519/298 523/301 
f 514/283 496/208 495/209 520/285 
f 520/289 495/209 498/210 521/288 
f 497/211 517/292 521/293 498/210 
f 522/295 499/212 496/208 514/283 
f 523/297 517/292 497/211 500/213 
f 522/300 523/301 500/213 499/212 
f 524/205 525/206 526/207 527/204 
f 528/208 529/209 530/210 531/211 
f 528/208 531/211 532/213 533/212 
f 534/217 535/214 536/215 537/216 
f 538/259 527/260 539/261 540/262 
f 539/261 527/260 526/263 541/264 
f 542/265 543/266 541/264 526/263 
f 540/262 544/268 536/267 538/259 
f 543/266 542/265 537/269 545/270 
f 544/268 545/270 537/269 536/267 
f 537/271 546/272 534/273 
f 542/274 546/272 537/271 
f 526/275 546/272 542/274 
f 525/276 546/272 526/275 
f 547/278 540/262 539/261 548/277 
f 548/277 539/261 541/264 549/279 
f 543/266 550/280 549/279 541/264 
f 540/262 547/278 551/281 544/268 
f 550/280 543/266 545/270 552/282 
f 551/281 552/282 545/270 544/268 
f 547/283 548/284 553/285 
f 549/287 554/288 553/289 548/286 
f 550/292 554/293 549/290 
f 547/283 555/295 551/294 
f 550/291 552/296 556/297 
f 551/299 555/300 556/301 552/298 
f 553/285 529/209 528/208 547/283 
f 530/210 529/209 553/289 554/288 
f 530/210 554/293 550/292 531/211 
f 555/295 547/283 528/208 533/212 
f 556/297 532/213 531/211 550/292 
f 556/301 555/300 533/212 532/213 
f 557/204 558/207 559/206 560/205 
f 561/211 562/210 563/209 564/208 
f 565/213 561/211 564/208 566/212 
f 567/216 568/215 569/214 570/217 
f 571/262 572/261 557/260 573/259 
f 558/263 557/260 572/261 574/264 
f 575/266 576/265 558/263 574/264 
f 571/262 573/259 568/267 577/268 
f 575/266 578/270 567/269 576/265 
f 567/269 578/270 577/268 568/267 
f 567/271 570/273 579/272 
f 576/274 567/271 579/272 
f 558/275 576/274 579/272 
f 559/276 558/275 579/272 
f 580/277 572/261 571/262 581/278 
f 574/264 572/261 580/277 582/279 
f 574/264 582/279 583/280 575/266 
f 581/278 571/262 577/268 584/281 
f 578/270 575/266 583/280 585/282 
f 584/281 577/268 578/270 585/282 
f 586/285 580/284 581/283 
f 582/287 580/286 586/289 587/288 
f 582/290 587/293 583/292 
f 584/294 588/295 581/283 
f 589/297 585/296 583/291 
f 585/298 589/301 588/300 584/299 
f 581/283 564/208 563/209 586/285 
f 562/210 587/288 586/289 563/209 
f 561/211 583/292 587/293 562/210 
f 566/212 564/208 581/283 588/295 
f 565/213 589/297 583/292 561/211 
f 566/212 588/300 589/301 565/213 
f 590/187 591/188 592/189 593/186 
f 591/188 590/187 594/190 595/191 
f 596/192 597/193 595/191 594/190 
f 596/194 598/195 599/196 597/197 
f 599/196 598/195 600/198 601/199 
f 602/200 603/201 601/199 600/198 
f 604/202 605/203 603/201 602/200 
f 592/189 605/203 604/202 593/186 
f 527/204 524/205 525/206 606/207 
f 530/210 531/211 528/208 529/209 
f 533/212 528/208 531/211 532/213 
f 536/215 607/216 534/217 535/214 
f 608/221 609/218 610/219 611/220 
f 612/223 610/219 609/218 613/222 
f 612/223 613/222 614/224 615/225 
f 616/227 615/225 614/224 617/226 
f 616/227 617/226 618/228 619/229 
f 618/231 620/232 621/233 619/230 
f 621/233 620/232 622/234 623/235 
f 623/235 622/234 608/221 611/220 
f 610/219 612/223 624/236 524/205 
f 610/219 524/205 527/204 611/220 
f 611/220 527/204 538/237 623/235 
f 621/233 623/235 538/237 536/215 
f 535/214 619/230 621/233 536/215 
f 625/239 616/227 619/229 535/238 
f 626/240 615/225 616/227 625/239 
f 612/223 615/225 626/240 624/236 
f 605/203 592/189 613/222 609/218 
f 592/189 591/188 614/224 613/222 
f 614/224 591/188 595/191 617/226 
f 617/226 595/191 597/193 618/228 
f 618/231 597/197 599/196 620/232 
f 599/196 601/199 622/234 620/232 
f 608/221 622/234 601/199 603/201 
f 605/203 609/218 608/221 603/201 
f 593/186 627/241 628/242 590/187 
f 594/190 590/187 628/242 629/243 
f 629/243 630/244 596/192 594/190 
f 596/194 630/245 631/246 598/195 
f 632/247 600/198 598/195 631/246 
f 632/247 633/248 602/200 600/198 
f 634/249 604/202 602/200 633/248 
f 634/249 627/241 593/186 604/202 
f 628/242 627/241 635/250 636/251 
f 637/252 629/243 628/242 636/251 
f 630/244 629/243 637/252 638/253 
f 630/245 638/254 639/255 631/246 
f 632/247 631/246 639/255 640/256 
f 641/257 633/248 632/247 640/256 
f 634/249 633/248 641/257 642/258 
f 634/249 642/258 635/250 627/241 
f 538/259 527/260 539/261 540/262 
f 606/263 541/264 539/261 527/260 
f 606/263 643/265 543/266 541/264 
f 536/267 538/259 540/262 
f 540/262 544/268 536/267 
f 543/266 643/265 607/269 
f 607/269 545/270 543/266 
f 545/270 607/269 536/267 
f 536/267 544/268 545/270 
f 607/271 546/272 534/273 
f 643/274 546/272 607/271 
f 606/275 546/272 643/274 
f 525/276 546/272 606/275 
f 547/278 540/262 539/261 548/277 
f 549/279 548/277 539/261 541/264 
f 550/280 549/279 541/264 543/266 
f 551/281 544/268 540/262 
f 540/262 547/278 551/281 
f 543/266 545/270 552/282 
f 552/282 550/280 543/266 
f 545/270 544/268 551/281 
f 551/281 552/282 545/270 
f 547/283 548/284 553/285 
f 548/286 549/287 554/288 553/289 
f 550/292 554/293 549/290 
f 547/283 555/295 551/294 
f 550/291 552/296 556/297 
f 555/300 556/301 552/298 
f 552/298 551/299 555/300 
f 528/208 547/283 553/285 529/209 
f 530/210 529/209 553/289 554/288 
f 554/293 550/292 531/211 530/210 
f 533/212 555/295 547/283 528/208 
f 531/211 550/292 556/297 532/213 
f 533/212 532/213 556/301 555/300 
f 644/34 645/31 646/32 647/33 
f 647/33 646/32 648/35 649/36 
f 649/36 648/35 650/37 651/38 
f 650/37 652/39 653/40 651/38 
f 654/41 655/42 653/40 652/39 
f 656/44 655/42 654/41 657/43 
f 656/44 657/43 658/45 659/46 
f 644/48 659/46 658/45 645/47 
f 660/49 661/50 644/34 647/33 
f 647/33 649/36 662/51 660/49 
f 651/38 663/52 662/51 649/36 
f 653/40 664/53 663/52 651/38 
f 665/54 664/53 653/40 655/42 
f 655/42 656/44 666/55 665/54 
f 667/56 666/55 656/44 659/46 
f 659/46 644/48 661/57 667/56 
f 668/58 669/59 661/50 660/49 
f 670/60 668/58 660/49 662/51 
f 670/60 662/51 663/52 671/61 
f 663/52 664/53 672/62 671/61 
f 664/53 665/54 673/63 672/62 
f 665/54 666/55 674/64 673/63 
f 674/64 666/55 667/56 675/65 
f 667/56 661/57 669/66 675/65 
f 669/59 668/58 676/67 677/68 
f 676/67 668/58 670/60 678/69 
f 670/60 671/61 679/70 678/69 
f 679/70 671/61 672/62 680/71 
f 673/63 681/72 680/71 672/62 
f 681/72 673/63 674/64 682/73 
f 674/64 675/65 683/74 682/73 
f 683/74 675/65 669/66 677/75 
f 684/187 685/188 686/189 687/186 
f 685/188 684/187 688/190 689/191 
f 690/192 691/193 689/191 688/190 
f 691/197 690/194 692/195 693/196 
f 693/196 692/195 694/198 695/199 
f 696/200 697/201 695/199 694/198 
f 696/200 698/202 699/203 697/201 
f 699/203 698/202 687/186 686/189 
f 700/205 701/206 702/207 703/204 
f 704/210 705/211 706/208 707/209 
f 708/213 709/212 706/208 705/211 
f 710/216 711/217 712/214 713/215 
f 714/220 715/221 716/218 717/219 
f 718/223 717/219 716/218 719/222 
f 718/223 719/222 720/224 721/225 
f 720/224 722/226 723/227 721/225 
f 723/227 722/226 724/228 725/229 
f 725/230 724/231 726/232 727/233 
f 728/234 729/235 727/233 726/232 
f 714/220 729/235 728/234 715/221 
f 700/205 717/219 718/223 730/236 
f 714/220 717/219 700/205 703/204 
f 729/235 714/220 703/204 731/237 
f 713/215 727/233 729/235 731/237 
f 712/214 725/230 727/233 713/215 
f 732/239 723/227 725/229 712/238 
f 733/240 721/225 723/227 732/239 
f 730/236 718/223 721/225 733/240 
f 716/218 699/203 686/189 719/222 
f 686/189 685/188 720/224 719/222 
f 722/226 720/224 685/188 689/191 
f 722/226 689/191 691/193 724/228 
f 691/197 693/196 726/232 724/231 
f 693/196 695/199 728/234 726/232 
f 728/234 695/199 697/201 715/221 
f 697/201 699/203 716/218 715/221 
f 734/241 735/242 684/187 687/186 
f 735/242 736/243 688/190 684/187 
f 737/244 690/192 688/190 736/243 
f 692/195 690/194 737/245 738/246 
f 739/247 694/198 692/195 738/246 
f 740/248 696/200 694/198 739/247 
f 741/249 698/202 696/200 740/248 
f 741/249 734/241 687/186 698/202 
f 742/251 735/242 734/241 743/250 
f 744/252 736/243 735/242 742/251 
f 744/252 745/253 737/244 736/243 
f 738/246 737/245 745/254 746/255 
f 746/255 747/256 739/247 738/246 
f 747/256 748/257 740/248 739/247 
f 748/257 749/258 741/249 740/248 
f 734/241 741/249 749/258 743/250 
f 750/261 751/262 731/259 703/260 
f 750/261 703/260 702/263 752/264 
f 702/263 753/265 754/266 752/264 
f 755/268 713/267 731/259 751/262 
f 753/265 710/269 756/270 754/266 
f 756/270 710/269 713/267 755/268 
f 710/271 757/272 711/273 
f 753/274 757/272 710/271 
f 702/275 757/272 753/274 
f 701/276 757/272 702/275 
f 758/278 751/262 750/261 759/277 
f 752/264 760/279 759/277 750/261 
f 760/279 752/264 754/266 761/280 
f 751/262 758/278 762/281 755/268 
f 756/270 763/282 761/280 754/266 
f 762/281 763/282 756/270 755/268 
f 758/283 759/284 764/285 
f 760/287 765/288 764/289 759/286 
f 761/292 765/293 760/290 
f 758/283 766/295 762/294 
f 761/291 763/296 767/297 
f 762/299 766/300 767/301 763/298 
f 758/283 764/285 707/209 706/208 
f 764/289 765/288 704/210 707/209 
f 704/210 765/293 761/292 705/211 
f 766/295 758/283 706/208 709/212 
f 761/292 767/297 708/213 705/211 
f 708/213 767/301 766/300 709/212 
f 768/206 769/205 770/204 771/207 
f 772/211 773/210 774/209 775/208 
f 776/212 777/213 772/211 775/208 
f 778/214 779/217 780/216 781/215 
f 782/261 770/260 783/259 784/262 
f 771/263 770/260 782/261 785/264 
f 771/263 785/264 786/266 787/265 
f 783/259 781/267 788/268 784/262 
f 789/270 780/269 787/265 786/266 
f 781/267 780/269 789/270 788/268 
f 780/271 779/273 790/272 
f 787/274 780/271 790/272 
f 771/275 787/274 790/272 
f 768/276 771/275 790/272 
f 784/262 791/278 792/277 782/261 
f 793/279 785/264 782/261 792/277 
f 794/280 786/266 785/264 793/279 
f 788/268 795/281 791/278 784/262 
f 789/270 786/266 794/280 796/282 
f 795/281 788/268 789/270 796/282 
f 797/285 792/284 791/283 
f 792/286 797/289 798/288 793/287 
f 793/290 798/293 794/292 
f 795/294 799/295 791/283 
f 800/297 796/296 794/291 
f 796/298 800/301 799/300 795/299 
f 791/283 775/208 774/209 797/285 
f 797/289 774/209 773/210 798/288 
f 794/292 798/293 773/210 772/211 
f 799/295 776/212 775/208 791/283 
f 777/213 800/297 794/292 772/211 
f 799/300 800/301 777/213 776/212 
f 801/206 802/207 803/204 804/205 
f 805/211 806/208 807/209 808/210 
f 805/211 809/213 810/212 806/208 
f 811/217 812/214 813/215 814/216 
f 815/259 803/260 816/261 817/262 
f 816/261 803/260 802/263 818/264 
f 819/265 820/266 818/264 802/263 
f 815/259 817/262 821/268 813/267 
f 819/265 814/269 822/270 820/266 
f 822/270 814/269 813/267 821/268 
f 814/271 823/272 811/273 
f 819/274 823/272 814/271 
f 802/275 823/272 819/274 
f 801/276 823/272 802/275 
f 816/261 824/277 825/278 817/262 
f 818/264 826/279 824/277 816/261 
f 818/264 820/266 827/280 826/279 
f 825/278 828/281 821/268 817/262 
f 822/270 829/282 827/280 820/266 
f 822/270 821/268 828/281 829/282 
f 825/283 824/284 830/285 
f 830/289 824/286 826/287 831/288 
f 827/292 831/293 826/290 
f 825/283 832/295 828/294 
f 827/291 829/296 833/297 
f 829/298 828/299 832/300 833/301 
f 825/283 830/285 807/209 806/208 
f 830/289 831/288 808/210 807/209 
f 831/293 827/292 805/211 808/210 
f 825/283 806/208 810/212 832/295 
f 833/297 809/213 805/211 827/292 
f 809/213 833/301 832/300 810/212 
f 834/204 835/207 836/206 837/205 
f 838/208 839/211 840/210 841/209 
f 842/213 839/211 838/208 843/212 
f 844/216 845/215 846/214 847/217 
f 848/259 849/262 850/261 834/260 
f 835/263 834/260 850/261 851/264 
f 835/263 851/264 852/266 853/265 
f 845/267 854/268 849/262 848/259 
f 853/265 852/266 855/270 844/269 
f 845/267 844/269 855/270 854/268 
f 844/271 847/273 856/272 
f 853/274 844/271 856/272 
f 835/275 853/274 856/272 
f 836/276 835/275 856/272 
f 849/262 857/278 858/277 850/261 
f 858/277 859/279 851/264 850/261 
f 859/279 860/280 852/266 851/264 
f 854/268 861/281 857/278 849/262 
f 852/266 860/280 862/282 855/270 
f 854/268 855/270 862/282 861/281 
f 863/285 858/284 857/283 
f 859/287 858/286 863/289 864/288 
f 859/290 864/293 860/292 
f 861/294 865/295 857/283 
f 866/297 862/296 860/291 
f 865/300 861/299 862/298 866/301 
f 857/283 838/208 841/209 863/285 
f 841/209 840/210 864/288 863/289 
f 864/293 840/210 839/211 860/292 
f 843/212 838/208 857/283 865/295 
f 860/292 839/211 842/213 866/297 
f 843/212 865/300 866/301 842/213 
f 867/189 868/186 869/187 870/188 
f 869/187 871/190 872/191 870/188 
f 871/190 873/192 874/193 872/191 
f 873/194 875/195 876/196 874/197 
f 877/199 876/196 875/195 878/198 
f 879/201 877/199 878/198 880/200 
f 880/200 881/202 882/203 879/201 
f 867/189 882/203 881/202 868/186 
f 803/204 804/205 883/206 884/207 
f 807/209 808/210 805/211 806/208 
f 810/212 806/208 805/211 809/213 
f 885/216 886/217 812/214 813/215 
f 887/221 888/218 889/219 890/220 
f 891/223 889/219 888/218 892/222 
f 891/223 892/222 893/224 894/225 
f 893/224 895/226 896/227 894/225 
f 895/226 897/228 898/229 896/227 
f 899/233 898/230 897/231 900/232 
f 899/233 900/232 901/234 902/235 
f 890/220 902/235 901/234 887/221 
f 889/219 891/223 903/236 804/205 
f 803/204 890/220 889/219 804/205 
f 803/204 815/237 902/235 890/220 
f 899/233 902/235 815/237 813/215 
f 813/215 812/214 898/230 899/233 
f 812/238 904/239 896/227 898/229 
f 905/240 894/225 896/227 904/239 
f 894/225 905/240 903/236 891/223 
f 892/222 888/218 882/203 867/189 
f 867/189 870/188 893/224 892/222 
f 893/224 870/188 872/191 895/226 
f 895/226 872/191 874/193 897/228 
f 874/197 876/196 900/232 897/231 
f 900/232 876/196 877/199 901/234 
f 879/201 887/221 901/234 877/199 
f 887/221 879/201 882/203 888/218 
f 868/186 906/241 907/242 869/187 
f 871/190 869/187 907/242 908/243 
f 908/243 909/244 873/192 871/190 
f 873/194 909/245 910/246 875/195 
f 910/246 911/247 878/198 875/195 
f 911/247 912/248 880/200 878/198 
f 913/249 881/202 880/200 912/248 
f 881/202 913/249 906/241 868/186 
f 914/251 907/242 906/241 915/250 
f 916/252 908/243 907/242 914/251 
f 917/253 909/244 908/243 916/252 
f 910/246 909/245 917/254 918/255 
f 919/256 911/247 910/246 918/255 
f 920/257 912/248 911/247 919/256 
f 921/258 913/249 912/248 920/257 
f 906/241 913/249 921/258 915/250 
f 922/261 817/262 815/259 803/260 
f 922/261 803/260 884/263 818/264 
f 819/265 820/266 818/264 884/263 
f 923/268 813/267 815/259 817/262 
f 819/265 885/269 822/270 820/266 
f 822/270 885/269 813/267 923/268 
f 885/271 823/272 886/273 
f 819/274 823/272 885/271 
f 884/275 823/272 819/274 
f 883/276 823/272 884/275 
f 825/278 817/262 922/261 824/277 
f 826/279 824/277 922/261 818/264 
f 818/264 820/266 827/280 826/279 
f 817/262 825/278 828/281 923/268 
f 822/270 829/282 827/280 820/266 
f 828/281 829/282 822/270 923/268 
f 825/283 824/284 830/285 
f 830/289 824/286 826/287 831/288 
f 827/292 831/293 826/290 
f 825/283 832/295 828/294 
f 827/291 829/296 833/297 
f 832/300 833/301 829/298 828/299 
f 807/209 806/208 825/283 830/285 
f 807/209 830/289 831/288 808/210 
f 805/211 808/210 831/293 827/292 
f 825/283 806/208 810/212 832/295 
f 809/213 805/211 827/292 833/297 
f 833/301 832/300 810/212 809/213 
usemtl substationpt_1001_06_0
f 924/84 925/85 926/86 927/87 
f 925/85 928/88 929/89 926/86 
f 929/89 928/88 930/90 931/91 
f 931/95 930/92 932/93 933/94 
f 933/94 932/93 934/96 935/97 
f 935/97 934/96 936/98 937/99 
f 937/99 936/98 938/100 939/101 
f 940/102 941/103 939/101 938/100 
f 942/105 941/103 940/102 943/104 
f 943/104 944/106 945/107 942/105 
f 944/106 946/108 947/109 945/107 
f 947/109 946/108 924/84 927/87 
f 941/103 948/110 949/111 939/101 
f 937/99 939/101 949/111 950/112 
f 950/112 951/113 935/97 937/99 
f 935/97 951/113 952/114 933/94 
f 933/94 952/114 953/115 931/95 
f 931/91 953/116 954/117 929/89 
f 926/86 929/89 954/117 955/118 
f 927/87 926/86 955/118 956/119 
f 947/109 927/87 956/119 957/120 
f 958/121 945/107 947/109 957/120 
f 945/107 958/121 959/122 942/105 
f 941/103 942/105 959/122 948/110 
f 925/85 924/84 960/123 961/124 
f 962/125 928/88 925/85 961/124 
f 930/90 928/88 962/125 963/126 
f 932/93 930/92 963/127 964/128 
f 932/93 964/128 965/129 934/96 
f 934/96 965/129 966/130 936/98 
f 966/130 967/131 938/100 936/98 
f 967/131 968/132 940/102 938/100 
f 969/133 943/104 940/102 968/132 
f 943/104 969/133 970/134 944/106 
f 970/134 971/135 946/108 944/106 
f 924/84 946/108 971/135 960/123 
f 965/136 964/137 972/138 
f 966/139 965/140 972/141 
f 967/142 966/143 972/144 
f 968/145 967/146 972/147 
f 969/148 968/149 972/150 
f 970/151 969/152 972/153 
f 971/154 970/155 972/156 
f 960/157 971/158 972/159 
f 961/160 960/161 972/162 
f 962/163 961/164 972/165 
f 963/166 962/167 972/168 
f 964/169 963/170 972/171 
usemtl substationpt_1001_06_Material__88
f 973/302 974/302 975/303 976/303 
f 977/305 975/303 974/302 978/304 
f 979/305 980/304 973/302 976/303 
f 977/305 979/305 976/303 975/303 
f 978/304 974/302 973/302 980/304 
usemtl substationpt_1001_06_0
f 981/86 982/87 983/84 984/85 
f 985/88 986/89 981/86 984/85 
f 987/91 986/89 985/88 988/90 
f 987/95 988/92 989/93 990/94 
f 990/94 989/93 991/96 992/97 
f 992/97 991/96 993/98 994/99 
f 994/99 993/98 995/100 996/101 
f 996/101 995/100 997/102 998/103 
f 998/103 997/102 999/104 1000/105 
f 1000/105 999/104 1001/106 1002/107 
f 1002/107 1001/106 1003/108 1004/109 
f 983/84 982/87 1004/109 1003/108 
f 1005/111 996/101 998/103 1006/110 
f 1005/111 1007/112 994/99 996/101 
f 1008/113 992/97 994/99 1007/112 
f 1008/113 1009/114 990/94 992/97 
f 1010/115 987/95 990/94 1009/114 
f 1010/116 1011/117 986/89 987/91 
f 981/86 986/89 1011/117 1012/118 
f 981/86 1012/118 1013/119 982/87 
f 1014/120 1004/109 982/87 1013/119 
f 1014/120 1015/121 1002/107 1004/109 
f 1015/121 1016/122 1000/105 1002/107 
f 998/103 1000/105 1016/122 1006/110 
f 983/84 1017/123 1018/124 984/85 
f 1018/124 1019/125 985/88 984/85 
f 985/88 1019/125 1020/126 988/90 
f 988/92 1020/127 1021/128 989/93 
f 989/93 1021/128 1022/129 991/96 
f 991/96 1022/129 1023/130 993/98 
f 993/98 1023/130 1024/131 995/100 
f 995/100 1024/131 1025/132 997/102 
f 997/102 1025/132 1026/133 999/104 
f 1001/106 999/104 1026/133 1027/134 
f 1027/134 1028/135 1003/108 1001/106 
f 1017/123 983/84 1003/108 1028/135 
f 1022/136 1021/137 1029/138 
f 1023/139 1022/140 1029/141 
f 1024/142 1023/143 1029/144 
f 1025/145 1024/146 1029/147 
f 1026/148 1025/149 1029/150 
f 1027/151 1026/152 1029/153 
f 1028/154 1027/155 1029/156 
f 1017/157 1028/158 1029/159 
f 1018/160 1017/161 1029/162 
f 1019/163 1018/164 1029/165 
f 1020/166 1019/167 1029/168 
f 1021/169 1020/170 1029/171 
f 1030/85 1031/86 1032/87 1033/84 
f 1030/85 1034/88 1035/89 1031/86 
f 1035/89 1034/88 1036/90 1037/91 
f 1037/95 1036/92 1038/93 1039/94 
f 1039/94 1038/93 1040/96 1041/97 
f 1041/97 1040/96 1042/98 1043/99 
f 1043/99 1042/98 1044/100 1045/101 
f 1045/101 1044/100 1046/102 1047/103 
f 1048/105 1047/103 1046/102 1049/104 
f 1050/107 1048/105 1049/104 1051/106 
f 1052/109 1050/107 1051/106 1053/108 
f 1033/84 1032/87 1052/109 1053/108 
f 1047/103 1054/110 1055/111 1045/101 
f 1055/111 1056/112 1043/99 1045/101 
f 1056/112 1057/113 1041/97 1043/99 
f 1058/114 1039/94 1041/97 1057/113 
f 1059/115 1037/95 1039/94 1058/114 
f 1035/89 1037/91 1059/116 1060/117 
f 1035/89 1060/117 1061/118 1031/86 
f 1062/119 1032/87 1031/86 1061/118 
f 1063/120 1052/109 1032/87 1062/119 
f 1064/121 1050/107 1052/109 1063/120 
f 1065/122 1048/105 1050/107 1064/121 
f 1047/103 1048/105 1065/122 1054/110 
f 1066/124 1030/85 1033/84 1067/123 
f 1066/124 1068/125 1034/88 1030/85 
f 1069/126 1036/90 1034/88 1068/125 
f 1036/92 1069/127 1070/128 1038/93 
f 1071/129 1040/96 1038/93 1070/128 
f 1072/130 1042/98 1040/96 1071/129 
f 1073/131 1044/100 1042/98 1072/130 
f 1074/132 1046/102 1044/100 1073/131 
f 1075/133 1049/104 1046/102 1074/132 
f 1076/134 1051/106 1049/104 1075/133 
f 1077/135 1053/108 1051/106 1076/134 
f 1033/84 1053/108 1077/135 1067/123 
f 1071/136 1070/137 1078/138 
f 1072/139 1071/140 1078/141 
f 1073/142 1072/143 1078/144 
f 1074/145 1073/146 1078/147 
f 1075/148 1074/149 1078/150 
f 1076/151 1075/152 1078/153 
f 1077/154 1076/155 1078/156 
f 1067/157 1077/158 1078/159 
f 1066/160 1067/161 1078/162 
f 1068/163 1066/164 1078/165 
f 1069/166 1068/167 1078/168 
f 1070/169 1069/170 1078/171 
usemtl substationpt_1001_06_Material__88
f 1079/303 1080/302 1081/302 1082/303 
f 1083/304 1084/305 1082/303 1081/302 
f 1079/303 1085/305 1086/304 1080/302 
f 1085/305 1079/303 1082/303 1084/305 
f 1081/302 1080/302 1086/304 1083/304 
usemtl substationpt_1001_06_breaker_3003_01_01_phong4SG1
f 1087/306 1088/307 1089/308 1090/309 
f 1091/310 1092/311 1093/312 1094/313 
f 1093/312 1088/307 1087/306 1094/313 
f 1092/315 1089/308 1088/307 1093/314 
f 1094/316 1087/306 1090/309 1091/317 
f 1091/319 1090/309 1089/308 1092/318 
usemtl substationpt_1001_06_0
f 1095/84 1096/85 1097/86 1098/87 
f 1099/89 1097/86 1096/85 1100/88 
f 1099/89 1100/88 1101/90 1102/91 
f 1102/95 1101/92 1103/93 1104/94 
f 1104/94 1103/93 1105/96 1106/97 
f 1106/97 1105/96 1107/98 1108/99 
f 1108/99 1107/98 1109/100 1110/101 
f 1109/100 1111/102 1112/103 1110/101 
f 1112/103 1111/102 1113/104 1114/105 
f 1114/105 1113/104 1115/106 1116/107 
f 1115/106 1117/108 1118/109 1116/107 
f 1118/109 1117/108 1095/84 1098/87 
f 1119/111 1110/101 1112/103 1120/110 
f 1121/112 1108/99 1110/101 1119/111 
f 1122/113 1106/97 1108/99 1121/112 
f 1106/97 1122/113 1123/114 1104/94 
f 1104/94 1123/114 1124/115 1102/95 
f 1125/117 1099/89 1102/91 1124/116 
f 1125/117 1126/118 1097/86 1099/89 
f 1127/119 1098/87 1097/86 1126/118 
f 1128/120 1118/109 1098/87 1127/119 
f 1116/107 1118/109 1128/120 1129/121 
f 1130/122 1114/105 1116/107 1129/121 
f 1114/105 1130/122 1120/110 1112/103 
f 1131/124 1096/85 1095/84 1132/123 
f 1131/124 1133/125 1100/88 1096/85 
f 1134/126 1101/90 1100/88 1133/125 
f 1134/127 1135/128 1103/93 1101/92 
f 1136/129 1105/96 1103/93 1135/128 
f 1136/129 1137/130 1107/98 1105/96 
f 1138/131 1109/100 1107/98 1137/130 
f 1138/131 1139/132 1111/102 1109/100 
f 1111/102 1139/132 1140/133 1113/104 
f 1141/134 1115/106 1113/104 1140/133 
f 1141/134 1142/135 1117/108 1115/106 
f 1095/84 1117/108 1142/135 1132/123 
f 1136/136 1135/137 1143/138 
f 1137/139 1136/140 1143/141 
f 1138/142 1137/143 1143/144 
f 1139/145 1138/146 1143/147 
f 1140/148 1139/149 1143/150 
f 1141/151 1140/152 1143/153 
f 1142/154 1141/155 1143/156 
f 1132/157 1142/158 1143/159 
f 1131/160 1132/161 1143/162 
f 1133/163 1131/164 1143/165 
f 1134/166 1133/167 1143/168 
f 1135/169 1134/170 1143/171 
f 1144/84 1145/85 1146/86 1147/87 
f 1148/88 1149/89 1146/86 1145/85 
f 1150/91 1149/89 1148/88 1151/90 
f 1152/94 1150/95 1151/92 1153/93 
f 1154/97 1152/94 1153/93 1155/96 
f 1155/96 1156/98 1157/99 1154/97 
f 1157/99 1156/98 1158/100 1159/101 
f 1158/100 1160/102 1161/103 1159/101 
f 1162/105 1161/103 1160/102 1163/104 
f 1164/107 1162/105 1163/104 1165/106 
f 1166/109 1164/107 1165/106 1167/108 
f 1166/109 1167/108 1144/84 1147/87 
f 1168/110 1169/111 1159/101 1161/103 
f 1157/99 1159/101 1169/111 1170/112 
f 1157/99 1170/112 1171/113 1154/97 
f 1171/113 1172/114 1152/94 1154/97 
f 1172/114 1173/115 1150/95 1152/94 
f 1173/116 1174/117 1149/89 1150/91 
f 1175/118 1146/86 1149/89 1174/117 
f 1175/118 1176/119 1147/87 1146/86 
f 1147/87 1176/119 1177/120 1166/109 
f 1166/109 1177/120 1178/121 1164/107 
f 1164/107 1178/121 1179/122 1162/105 
f 1162/105 1179/122 1168/110 1161/103 
f 1144/84 1180/123 1181/124 1145/85 
f 1182/125 1148/88 1145/85 1181/124 
f 1182/125 1183/126 1151/90 1148/88 
f 1153/93 1151/92 1183/127 1184/128 
f 1153/93 1184/128 1185/129 1155/96 
f 1186/130 1156/98 1155/96 1185/129 
f 1187/131 1158/100 1156/98 1186/130 
f 1188/132 1160/102 1158/100 1187/131 
f 1189/133 1163/104 1160/102 1188/132 
f 1189/133 1190/134 1165/106 1163/104 
f 1165/106 1190/134 1191/135 1167/108 
f 1180/123 1144/84 1167/108 1191/135 
f 1185/136 1184/137 1192/138 
f 1186/139 1185/140 1192/141 
f 1187/142 1186/143 1192/144 
f 1188/145 1187/146 1192/147 
f 1189/148 1188/149 1192/150 
f 1190/151 1189/152 1192/153 
f 1191/154 1190/155 1192/156 
f 1180/157 1191/158 1192/159 
f 1181/160 1180/161 1192/162 
f 1182/163 1181/164 1192/165 
f 1183/166 1182/167 1192/168 
f 1184/169 1183/170 1192/171 
# 981 polygons - 226 triangles

