# 3ds Max Wavefront OBJ Exporter v0.97b - (c)2007 guruware
# 创建的文件:11.03.2020 16:01:29

mtllib substation_ht_1005_05-.mtl

#
# object _045
#

v  -162.0635 18.1213 945.6456
v  -162.0635 18.1213 944.5324
v  -160.8197 18.1213 944.5325
v  -160.8197 18.1213 945.6456
v  -161.9240 17.4734 944.5325
v  -160.9592 17.4734 944.5324
v  -160.9592 18.0330 944.5324
v  -161.9240 18.0330 944.5325
v  -160.9592 18.0330 945.6456
v  -160.9592 17.4734 945.6456
v  -161.9240 18.0330 945.6456
v  -161.9240 17.4734 945.6456
v  -162.0635 18.0330 945.6456
v  -162.0635 18.0330 944.5324
v  -160.8197 18.0330 944.5325
v  -160.8197 18.0330 945.6456
v  -160.8197 17.4734 945.6456
v  -160.8197 17.4734 944.5325
v  -160.8197 17.3850 944.5325
v  -160.8197 17.3850 945.6456
v  -162.0635 17.3850 944.5324
v  -162.0635 17.4734 944.5324
v  -162.0635 17.4734 945.6456
v  -162.0635 17.3850 945.6456
v  -161.1956 17.5669 945.2950
v  -161.2126 16.8388 945.2781
v  -161.4462 16.8388 945.3750
v  -161.4462 17.5669 945.3989
v  -161.6797 16.8388 945.2781
v  -161.6967 17.5669 945.2950
v  -161.7766 16.8388 945.0446
v  -161.8004 17.5669 945.0446
v  -161.6797 16.8388 944.8112
v  -161.6967 17.5669 944.7941
v  -161.4462 16.8388 944.7141
v  -161.4462 17.5669 944.6904
v  -161.2126 16.8388 944.8112
v  -161.1956 17.5669 944.7941
v  -161.1158 16.8388 945.0446
v  -161.0919 17.5669 945.0446
v  -161.8096 17.7631 945.2828
v  -167.1074 17.7631 945.2828
v  -167.1074 17.8986 945.2266
v  -161.8096 17.8986 945.2266
v  -161.8096 17.6276 945.2264
v  -167.1074 17.6276 945.2264
v  -161.8096 17.5714 945.0910
v  -167.1074 17.5714 945.0910
v  -161.8096 17.6276 944.9553
v  -167.1074 17.6276 944.9553
v  -161.8096 17.7631 944.8994
v  -167.1074 17.7631 944.8994
v  -161.8096 17.8986 944.9553
v  -167.1074 17.8986 944.9553
v  -161.8096 17.9548 945.0911
v  -167.1074 17.9548 945.0911
# 56 vertices

vt 0.7685 0.2990 0.0000
vt 0.7685 0.3305 0.0000
vt 0.5398 0.3305 0.0000
vt 0.5398 0.2990 0.0000
vt 0.9637 0.2156 0.0000
vt 0.9637 0.2027 0.0000
vt 0.9882 0.2027 0.0000
vt 0.9882 0.2156 0.0000
vt 0.7685 0.3361 0.0000
vt 0.7685 0.3490 0.0000
vt 0.5398 0.3490 0.0000
vt 0.5398 0.3361 0.0000
vt 0.9637 0.2326 0.0000
vt 0.9637 0.2197 0.0000
vt 0.9882 0.2197 0.0000
vt 0.9882 0.2326 0.0000
vt 0.5398 0.2934 0.0000
vt 0.5398 0.2805 0.0000
vt 0.7685 0.2805 0.0000
vt 0.7685 0.2934 0.0000
vt 0.5398 0.2969 0.0000
vt 0.7685 0.2969 0.0000
vt 0.7685 0.3326 0.0000
vt 0.5398 0.3326 0.0000
vt 0.7685 0.2414 0.0000
vt 0.7685 0.2434 0.0000
vt 0.5398 0.2434 0.0000
vt 0.5398 0.2414 0.0000
vt 0.7685 0.2770 0.0000
vt 0.5398 0.2770 0.0000
vt 0.5398 0.2749 0.0000
vt 0.7685 0.2749 0.0000
vt 0.9917 0.2346 0.0000
vt 0.9602 0.2346 0.0000
vt 0.9917 0.2007 0.0000
vt 0.9917 0.2027 0.0000
vt 0.9602 0.2326 0.0000
vt 0.9602 0.2176 0.0000
vt 0.9602 0.2156 0.0000
vt 0.9602 0.2176 0.0000
vt 0.9917 0.2176 0.0000
vt 0.5398 0.2378 0.0000
vt 0.7685 0.2378 0.0000
vt 0.9917 0.2197 0.0000
vt 0.9917 0.2176 0.0000
vt 0.9917 0.2156 0.0000
vt 0.9602 0.2027 0.0000
vt 0.9602 0.2007 0.0000
vt 0.9917 0.2326 0.0000
vt 0.9602 0.2197 0.0000
vt 0.9539 0.2509 0.0000
vt 0.9591 0.2513 0.0000
vt 0.9580 0.2665 0.0000
vt 0.9523 0.2660 0.0000
vt 0.9644 0.2517 0.0000
vt 0.9636 0.2669 0.0000
vt 0.9697 0.2519 0.0000
vt 0.9693 0.2671 0.0000
vt 0.9750 0.2519 0.0000
vt 0.9750 0.2672 0.0000
vt 0.9802 0.2519 0.0000
vt 0.9806 0.2671 0.0000
vt 0.9855 0.2517 0.0000
vt 0.9863 0.2669 0.0000
vt 0.9908 0.2513 0.0000
vt 0.9919 0.2665 0.0000
vt 0.9960 0.2509 0.0000
vt 0.9976 0.2660 0.0000
vt 0.7829 0.1555 0.0000
vt 0.7829 0.1657 0.0000
vt 0.6595 0.1657 0.0000
vt 0.6595 0.1555 0.0000
vt 0.7829 0.1452 0.0000
vt 0.6595 0.1452 0.0000
vt 0.7829 0.1350 0.0000
vt 0.6595 0.1350 0.0000
vt 0.7829 0.1247 0.0000
vt 0.6595 0.1247 0.0000
vt 0.7829 0.1965 0.0000
vt 0.7829 0.2067 0.0000
vt 0.6595 0.2067 0.0000
vt 0.6595 0.1965 0.0000
vt 0.7829 0.1862 0.0000
vt 0.6595 0.1862 0.0000
vt 0.7829 0.1760 0.0000
vt 0.6595 0.1760 0.0000
# 86 texture coords

g _045
usemtl _刀闸_2set4
f 4/3 3/2 2/1 1/4 
f 8/7 7/6 6/5 5/8 
f 10/11 6/10 7/9 9/12 
f 12/15 10/14 9/13 11/16 
f 5/19 12/18 11/17 8/20 
f 14/22 13/21 1/4 2/1 
f 16/24 15/23 3/2 4/3 
f 20/27 19/26 18/25 17/28 
f 24/31 23/30 22/29 21/32 
f 4/34 1/33 11/16 9/13 
f 14/22 8/20 11/17 13/21 
f 14/36 2/35 8/7 
f 16/24 9/12 7/9 15/23 
f 16/37 4/34 9/13 
f 18/39 19/38 6/5 
f 21/32 19/26 20/27 24/31 
f 24/41 20/40 10/14 12/15 
f 18/25 6/43 10/42 17/28 
f 23/30 12/18 5/19 22/29 
f 23/44 24/41 12/15 
f 22/46 5/8 21/45 
f 5/8 6/5 19/38 21/45 
f 3/48 15/47 7/6 8/7 2/35 
f 13/49 11/16 1/33 
f 10/14 20/40 17/50 
f 28/53 27/52 26/51 25/54 
f 30/56 29/55 27/52 28/53 
f 32/58 31/57 29/55 30/56 
f 34/60 33/59 31/57 32/58 
f 36/62 35/61 33/59 34/60 
f 38/64 37/63 35/61 36/62 
f 40/66 39/65 37/63 38/64 
f 25/68 26/67 39/65 40/66 
f 44/71 43/70 42/69 41/72 
f 41/72 42/69 46/73 45/74 
f 45/74 46/73 48/75 47/76 
f 47/76 48/75 50/77 49/78 
f 49/81 50/80 52/79 51/82 
f 51/82 52/79 54/83 53/84 
f 53/84 54/83 56/85 55/86 
f 55/86 56/85 43/70 44/71 
# 34 polygons - 7 triangles

