# 3ds Max Wavefront OBJ Exporter v0.97b - (c)2007 guruware
# 创建的文件:11.03.2020 15:54:51

mtllib substation_ht_1005_05+.mtl

#
# object _044
#

v  -167.2607 18.1327 945.0898
v  -167.2607 18.0255 945.3511
v  -168.2499 18.0217 945.3516
v  -168.2499 18.1302 945.0927
v  -168.2499 17.7615 945.4581
v  -167.2607 17.7645 945.4606
v  -168.2499 17.5023 945.3494
v  -167.2607 17.5026 945.3531
v  -168.2499 17.3960 945.0897
v  -167.2607 17.3935 945.0925
v  -168.2499 17.5047 944.8303
v  -167.2607 17.5009 944.8307
v  -168.2499 17.7646 944.7238
v  -167.2607 17.7617 944.7214
v  -168.2499 18.0237 944.8323
v  -167.2607 18.0234 944.8286
v  -168.4033 17.8986 945.2266
v  -174.7697 17.8986 945.2266
v  -174.7697 17.9548 945.0911
v  -168.4033 17.9548 945.0911
v  -174.7697 17.8986 944.9553
v  -168.4033 17.8986 944.9553
v  -174.7697 17.7631 944.8994
v  -168.4033 17.7631 944.8994
v  -174.7697 17.6276 944.9553
v  -168.4033 17.6276 944.9553
v  -174.7697 17.5714 945.0910
v  -168.4033 17.5714 945.0910
v  -174.7697 17.6276 945.2264
v  -168.4033 17.6276 945.2264
v  -174.7697 17.7631 945.2828
v  -168.4033 17.7631 945.2828
v  -167.1074 17.9548 945.0911
v  -167.1074 17.8986 945.2266
v  -167.1074 17.7631 945.2828
v  -167.1074 17.6276 945.2264
v  -167.1074 17.5714 945.0910
v  -167.1074 17.6276 944.9553
v  -167.1074 17.7631 944.8994
v  -167.1074 17.8986 944.9553
v  -175.5016 18.1214 945.6456
v  -175.5016 18.1214 944.5324
v  -174.2578 18.1214 944.5325
v  -174.2578 18.1214 945.6456
v  -175.3621 17.4734 944.5325
v  -174.3973 17.4734 944.5324
v  -174.3973 18.0330 944.5324
v  -175.3621 18.0330 944.5325
v  -174.3973 18.0330 945.6456
v  -174.3973 17.4734 945.6456
v  -175.3621 18.0330 945.6456
v  -175.3621 17.4734 945.6456
v  -175.5016 18.0330 945.6456
v  -175.5016 18.0330 944.5324
v  -174.2578 18.0330 944.5325
v  -174.2578 18.0330 945.6456
v  -174.2578 17.4734 945.6456
v  -174.2578 17.4734 944.5325
v  -174.2578 17.3850 944.5325
v  -174.2578 17.3850 945.6456
v  -175.5016 17.3850 944.5324
v  -175.5016 17.4734 944.5324
v  -175.5016 17.4734 945.6456
v  -175.5016 17.3850 945.6456
v  -174.7360 17.5669 945.2950
v  -174.7529 16.8388 945.2781
v  -174.9865 16.8388 945.3750
v  -174.9865 17.5669 945.3989
v  -175.2201 16.8388 945.2781
v  -175.2370 17.5669 945.2950
v  -175.3169 16.8388 945.0446
v  -175.3408 17.5669 945.0446
v  -175.2201 16.8388 944.8112
v  -175.2370 17.5669 944.7941
v  -174.9865 16.8388 944.7141
v  -174.9865 17.5669 944.6904
v  -174.7529 16.8388 944.8112
v  -174.7360 17.5669 944.7941
v  -174.6561 16.8388 945.0446
v  -174.6322 17.5669 945.0446
# 80 vertices

vt 0.7829 0.1657 0.0000
vt 0.8103 0.1657 0.0000
vt 0.8103 0.1760 0.0000
vt 0.7829 0.1760 0.0000
vt 0.7829 0.1555 0.0000
vt 0.8103 0.1555 0.0000
vt 0.7829 0.1452 0.0000
vt 0.8103 0.1452 0.0000
vt 0.7829 0.1350 0.0000
vt 0.8103 0.1350 0.0000
vt 0.7829 0.1247 0.0000
vt 0.8104 0.1247 0.0000
vt 0.8103 0.2067 0.0000
vt 0.7829 0.2067 0.0000
vt 0.7829 0.1965 0.0000
vt 0.8103 0.1965 0.0000
vt 0.7829 0.1862 0.0000
vt 0.8103 0.1862 0.0000
vt 0.9338 0.1657 0.0000
vt 0.9338 0.1760 0.0000
vt 0.8103 0.1760 0.0000
vt 0.8103 0.1657 0.0000
vt 0.9338 0.1862 0.0000
vt 0.8103 0.1862 0.0000
vt 0.9338 0.1965 0.0000
vt 0.8103 0.1965 0.0000
vt 0.9338 0.2067 0.0000
vt 0.8103 0.2067 0.0000
vt 0.9338 0.1247 0.0000
vt 0.9338 0.1350 0.0000
vt 0.8103 0.1350 0.0000
vt 0.8104 0.1247 0.0000
vt 0.9338 0.1452 0.0000
vt 0.8103 0.1452 0.0000
vt 0.9338 0.1555 0.0000
vt 0.8103 0.1555 0.0000
vt 0.7829 0.1760 0.0000
vt 0.7829 0.1657 0.0000
vt 0.7829 0.1555 0.0000
vt 0.7829 0.1452 0.0000
vt 0.7829 0.1350 0.0000
vt 0.7829 0.1247 0.0000
vt 0.7829 0.2067 0.0000
vt 0.7829 0.1965 0.0000
vt 0.7829 0.1862 0.0000
vt 0.7685 0.2990 0.0000
vt 0.7685 0.3305 0.0000
vt 0.5398 0.3305 0.0000
vt 0.5398 0.2990 0.0000
vt 0.9637 0.2156 0.0000
vt 0.9637 0.2027 0.0000
vt 0.9882 0.2027 0.0000
vt 0.9882 0.2156 0.0000
vt 0.7685 0.3361 0.0000
vt 0.7685 0.3490 0.0000
vt 0.5398 0.3490 0.0000
vt 0.5398 0.3361 0.0000
vt 0.9637 0.2326 0.0000
vt 0.9637 0.2197 0.0000
vt 0.9882 0.2197 0.0000
vt 0.9882 0.2326 0.0000
vt 0.5398 0.2934 0.0000
vt 0.5398 0.2805 0.0000
vt 0.7685 0.2805 0.0000
vt 0.7685 0.2934 0.0000
vt 0.5398 0.2969 0.0000
vt 0.7685 0.2969 0.0000
vt 0.7685 0.3326 0.0000
vt 0.5398 0.3326 0.0000
vt 0.7685 0.2414 0.0000
vt 0.7685 0.2434 0.0000
vt 0.5398 0.2434 0.0000
vt 0.5398 0.2414 0.0000
vt 0.7685 0.2770 0.0000
vt 0.5398 0.2770 0.0000
vt 0.5398 0.2749 0.0000
vt 0.7685 0.2749 0.0000
vt 0.9917 0.2346 0.0000
vt 0.9602 0.2346 0.0000
vt 0.9917 0.2007 0.0000
vt 0.9917 0.2027 0.0000
vt 0.9602 0.2326 0.0000
vt 0.9602 0.2176 0.0000
vt 0.9602 0.2156 0.0000
vt 0.9602 0.2176 0.0000
vt 0.9917 0.2176 0.0000
vt 0.5398 0.2378 0.0000
vt 0.7685 0.2378 0.0000
vt 0.9917 0.2197 0.0000
vt 0.9917 0.2176 0.0000
vt 0.9917 0.2156 0.0000
vt 0.9602 0.2027 0.0000
vt 0.9602 0.2007 0.0000
vt 0.9917 0.2326 0.0000
vt 0.9602 0.2197 0.0000
vt 0.9539 0.2509 0.0000
vt 0.9591 0.2513 0.0000
vt 0.9580 0.2665 0.0000
vt 0.9523 0.2660 0.0000
vt 0.9644 0.2517 0.0000
vt 0.9636 0.2669 0.0000
vt 0.9697 0.2519 0.0000
vt 0.9693 0.2671 0.0000
vt 0.9750 0.2519 0.0000
vt 0.9750 0.2672 0.0000
vt 0.9802 0.2519 0.0000
vt 0.9806 0.2671 0.0000
vt 0.9855 0.2517 0.0000
vt 0.9863 0.2669 0.0000
vt 0.9908 0.2513 0.0000
vt 0.9919 0.2665 0.0000
vt 0.9960 0.2509 0.0000
vt 0.9976 0.2660 0.0000
# 113 texture coords

g _044
usemtl _刀闸_3set4
f 4/3 3/2 2/1 1/4 
f 6/5 2/1 3/2 5/6 
f 8/7 6/5 5/6 7/8 
f 10/9 8/7 7/8 9/10 
f 12/11 10/9 9/10 11/12 
f 14/15 12/14 11/13 13/16 
f 16/17 14/15 13/16 15/18 
f 1/4 16/17 15/18 4/3 
f 20/21 19/20 18/19 17/22 
f 22/24 21/23 19/20 20/21 
f 24/26 23/25 21/23 22/24 
f 26/28 25/27 23/25 24/26 
f 28/31 27/30 25/29 26/32 
f 30/34 29/33 27/30 28/31 
f 32/36 31/35 29/33 30/34 
f 17/22 18/19 31/35 32/36 
f 4/3 20/21 17/22 3/2 
f 2/1 34/38 33/37 1/4 
f 6/5 35/39 34/38 2/1 
f 3/2 17/22 32/36 5/6 
f 8/7 36/40 35/39 6/5 
f 5/6 32/36 30/34 7/8 
f 10/9 37/41 36/40 8/7 
f 7/8 30/34 28/31 9/10 
f 12/11 38/42 37/41 10/9 
f 9/10 28/31 26/32 11/12 
f 14/15 39/44 38/43 12/14 
f 11/13 26/28 24/26 13/16 
f 16/17 40/45 39/44 14/15 
f 13/16 24/26 22/24 15/18 
f 1/4 33/37 40/45 16/17 
f 15/18 22/24 20/21 4/3 
f 44/48 43/47 42/46 41/49 
f 48/52 47/51 46/50 45/53 
f 50/56 46/55 47/54 49/57 
f 52/60 50/59 49/58 51/61 
f 45/64 52/63 51/62 48/65 
f 54/67 53/66 41/49 42/46 
f 56/69 55/68 43/47 44/48 
f 60/72 59/71 58/70 57/73 
f 64/76 63/75 62/74 61/77 
f 44/79 41/78 51/61 49/58 
f 54/67 48/65 51/62 53/66 
f 54/81 42/80 48/52 
f 56/69 49/57 47/54 55/68 
f 56/82 44/79 49/58 
f 58/84 59/83 46/50 
f 61/77 59/71 60/72 64/76 
f 64/86 60/85 50/59 52/60 
f 58/70 46/88 50/87 57/73 
f 63/75 52/63 45/64 62/74 
f 63/89 64/86 52/60 
f 62/91 45/53 61/90 
f 45/53 46/50 59/83 61/90 
f 43/93 55/92 47/51 48/52 42/80 
f 53/94 51/61 41/78 
f 50/59 60/85 57/95 
f 68/98 67/97 66/96 65/99 
f 70/101 69/100 67/97 68/98 
f 72/103 71/102 69/100 70/101 
f 74/105 73/104 71/102 72/103 
f 76/107 75/106 73/104 74/105 
f 78/109 77/108 75/106 76/107 
f 80/111 79/110 77/108 78/109 
f 65/113 66/112 79/110 80/111 
# 58 polygons - 7 triangles

