# 3ds Max Wavefront OBJ Exporter v0.97b - (c)2007 guruware
# 创建的文件:18.02.2020 13:30:02

mtllib substation_ht_1005_07.mtl

#
# object substation_ht_1005_07
#

v  -106.4251 26.2728 1157.3544
v  -106.4251 25.7839 1157.3544
v  -106.6763 25.7839 1157.9608
v  -106.6763 26.2728 1157.9608
v  -106.4251 26.2728 1158.5664
v  -106.4251 25.7839 1158.5664
v  -105.8192 25.7840 1158.8174
v  -105.8192 26.2728 1158.8174
v  -105.2132 25.7839 1158.5664
v  -105.2132 26.2728 1158.5664
v  -104.9621 26.2728 1157.9608
v  -104.9621 25.7839 1157.9608
v  -105.2132 25.7839 1157.3544
v  -105.2132 26.2728 1157.3544
v  -105.8192 25.7839 1157.1034
v  -105.8192 26.2728 1157.1034
v  -106.8901 26.2728 1157.9608
v  -106.5766 26.2728 1157.2030
v  -106.5766 26.2728 1158.7178
v  -105.8192 26.2728 1159.0314
v  -105.0617 26.2728 1158.7178
v  -104.7482 26.2728 1157.9608
v  -105.0617 26.2728 1157.2030
v  -105.8192 26.2728 1156.8896
v  -106.8901 27.2797 1157.9608
v  -106.5766 27.2797 1157.2030
v  -106.5766 27.2797 1158.7178
v  -105.8192 27.2798 1159.0314
v  -105.0617 27.2797 1158.7178
v  -104.7482 27.2797 1157.9608
v  -105.0617 27.2797 1157.2030
v  -105.8192 27.2797 1156.8896
v  -106.5132 27.5672 1158.0366
v  -106.3102 27.5672 1157.5463
v  -106.3102 27.5672 1158.5267
v  -105.8199 27.5672 1158.7301
v  -105.3297 27.5672 1158.5267
v  -105.1267 27.5672 1158.0366
v  -105.3297 27.5672 1157.5463
v  -105.8199 27.5672 1157.3431
v  -105.1531 15.3753 1159.1418
v  -104.6205 15.3808 1158.6091
v  -104.6699 25.3740 1158.6746
v  -105.1643 25.3688 1159.1696
v  -104.4255 15.3877 1157.8816
v  -104.4877 25.3804 1157.9980
v  -104.6205 15.3939 1157.1541
v  -104.6686 25.3862 1157.3219
v  -105.1643 25.3899 1156.8271
v  -105.1531 15.3980 1156.6213
v  -105.8808 15.3987 1156.4265
v  -105.8411 25.3905 1156.6460
v  -106.6084 15.3958 1156.6213
v  -106.5172 25.3879 1156.8273
v  -107.1412 15.3901 1157.1539
v  -107.0126 25.3826 1157.3221
v  -107.3360 15.3833 1157.8816
v  -107.1935 25.3764 1157.9982
v  -107.1412 15.3771 1158.6093
v  -107.0118 25.3705 1158.6746
v  -106.6084 15.3731 1159.1418
v  -106.5172 25.3668 1159.1696
v  -105.8808 15.3724 1159.3368
v  -105.8411 25.3662 1159.3512
v  -106.5527 25.8370 1157.5793
v  -106.6632 25.8331 1157.9922
v  -106.2501 25.8401 1157.2772
v  -105.8371 25.8417 1157.1665
v  -105.4244 25.8413 1157.2773
v  -105.1213 25.8391 1157.5792
v  -105.0114 25.8356 1157.9922
v  -105.1226 25.8317 1158.4050
v  -105.4245 25.8286 1158.7074
v  -105.8371 25.8269 1158.8180
v  -106.2501 25.8272 1158.7074
v  -106.5515 25.8295 1158.4050
v  -105.2793 14.2793 1158.9204
v  -104.8379 14.2839 1158.4788
v  -104.6762 14.2896 1157.8756
v  -104.8379 14.2947 1157.2726
v  -105.2793 14.2981 1156.8311
v  -105.8825 14.2986 1156.6694
v  -106.4856 14.2963 1156.8311
v  -106.9272 14.2915 1157.2726
v  -107.0888 14.2859 1157.8757
v  -106.9272 14.2808 1158.4788
v  -106.4856 14.2775 1158.9204
v  -105.8825 14.2769 1159.0819
v  -106.8203 11.2715 1156.9365
v  -107.1990 11.2715 1157.8508
v  -107.1990 12.2476 1157.8508
v  -106.8203 12.2475 1156.9365
v  -106.8203 11.2715 1158.7653
v  -106.8203 12.2476 1158.7653
v  -105.9058 12.2476 1159.1439
v  -105.9058 11.2715 1159.1439
v  -104.9913 11.2715 1158.7653
v  -104.9913 12.2476 1158.7653
v  -104.6126 11.2715 1157.8508
v  -104.6126 12.2476 1157.8508
v  -104.9913 11.2715 1156.9365
v  -104.9913 12.2475 1156.9365
v  -105.9058 11.2715 1156.5576
v  -105.9058 12.2475 1156.5576
v  -104.9913 13.8102 1156.9365
v  -105.9058 13.8102 1156.5576
v  -105.9058 14.3158 1156.5576
v  -104.9913 14.3158 1156.9365
v  -104.6126 14.3158 1157.8508
v  -104.6126 13.8102 1157.8508
v  -104.9913 13.8102 1158.7653
v  -104.9913 14.3158 1158.7653
v  -105.9058 13.8102 1159.1439
v  -105.9058 14.3158 1159.1439
v  -106.8203 13.8102 1158.7653
v  -106.8203 14.3158 1158.7653
v  -107.1990 13.8102 1157.8508
v  -107.1990 14.3158 1157.8508
v  -106.8203 14.3158 1156.9365
v  -106.8203 13.8102 1156.9365
v  -105.9058 12.6182 1156.0573
v  -105.9058 13.4395 1156.0573
v  -104.6376 13.4395 1156.5825
v  -104.6376 12.6182 1156.5825
v  -107.1740 12.6182 1156.5825
v  -107.1740 13.4395 1156.5825
v  -107.6994 12.6182 1157.8508
v  -107.6994 13.4395 1157.8508
v  -107.1740 12.6182 1159.1190
v  -107.1740 13.4396 1159.1190
v  -105.9058 12.6182 1159.6444
v  -105.9058 13.4396 1159.6444
v  -104.6376 12.6182 1159.1190
v  -104.6376 13.4396 1159.1190
v  -104.1123 12.6182 1157.8508
v  -104.1123 13.4395 1157.8508
v  -106.9965 14.3158 1157.8508
v  -106.6770 14.3158 1157.0796
v  -106.6770 14.3158 1158.6221
v  -105.9058 14.3158 1158.9415
v  -105.1345 14.3158 1158.6221
v  -104.8151 14.3158 1157.8508
v  -105.1345 14.3158 1157.0796
v  -105.9058 14.3158 1156.7601
v  -103.6729 7.6658 1159.8776
v  -103.6729 7.6657 1155.6208
v  -103.6729 7.9499 1155.6208
v  -103.6729 7.9499 1159.8776
v  -107.9297 7.6657 1155.6208
v  -107.9297 7.6658 1159.8776
v  -107.9297 7.9499 1159.8776
v  -107.9297 7.9499 1155.6208
v  -106.8201 11.2587 1156.9364
v  -106.8201 7.8258 1156.9364
v  -107.1990 7.8258 1157.8508
v  -107.1990 11.2587 1157.8507
v  -106.8201 7.8258 1158.7651
v  -106.8201 11.2587 1158.7651
v  -105.9058 7.8258 1159.1439
v  -105.9058 11.2587 1159.1439
v  -104.9915 7.8258 1158.7651
v  -104.9915 11.2587 1158.7651
v  -104.6126 7.8258 1157.8508
v  -104.6126 11.2587 1157.8507
v  -104.9915 7.8258 1156.9364
v  -104.9915 11.2587 1156.9364
v  -105.9058 7.8258 1156.5576
v  -105.9058 11.2587 1156.5576
v  -104.1532 11.3067 1159.3973
v  -104.1532 11.0866 1159.3973
v  -104.1532 11.0866 1156.1012
v  -104.1532 11.3066 1156.1011
v  -107.4494 11.0866 1156.1012
v  -107.4494 11.0866 1159.3973
v  -107.4494 11.3067 1159.3973
v  -107.4494 11.3066 1156.1011
v  -103.9284 9.7354 1159.6219
v  -103.9284 9.4854 1159.6219
v  -103.9284 9.4853 1155.8762
v  -103.9284 9.7354 1155.8762
v  -107.6742 9.4854 1159.6219
v  -107.6742 9.7354 1159.6219
v  -107.6742 9.7354 1155.8762
v  -107.6742 9.4853 1155.8762
v  -107.0932 7.7936 1156.6639
v  -107.0932 -12.3543 1156.6632
v  -107.5850 -12.3543 1157.8506
v  -107.5850 7.7936 1157.8513
v  -107.0932 7.7936 1159.0385
v  -107.0932 -12.3543 1159.0380
v  -105.9058 -12.3543 1159.5298
v  -105.9058 7.7936 1159.5304
v  -104.7184 -12.3543 1159.0380
v  -104.7184 7.7936 1159.0385
v  -104.2266 -12.3543 1157.8506
v  -104.2266 7.7936 1157.8513
v  -104.7184 -12.3543 1156.6632
v  -104.7184 7.7936 1156.6639
v  -105.9058 -12.3543 1156.1714
v  -105.9058 7.7936 1156.1721
# 200 vertices

vt 0.8826 0.2067 0.0000
vt 0.8906 0.2067 0.0000
vt 0.8906 0.2127 0.0000
vt 0.8826 0.2127 0.0000
vt 0.8985 0.2067 0.0000
vt 0.8985 0.2127 0.0000
vt 0.9065 0.2067 0.0000
vt 0.9065 0.2127 0.0000
vt 0.9145 0.2067 0.0000
vt 0.9145 0.2127 0.0000
vt 0.8508 0.2067 0.0000
vt 0.8588 0.2067 0.0000
vt 0.8588 0.2127 0.0000
vt 0.8508 0.2127 0.0000
vt 0.8667 0.2067 0.0000
vt 0.8667 0.2127 0.0000
vt 0.8747 0.2067 0.0000
vt 0.8747 0.2127 0.0000
vt 0.0422 0.2531 0.0000
vt 0.0501 0.2521 0.0000
vt 0.0506 0.2545 0.0000
vt 0.0421 0.2556 0.0000
vt 0.0575 0.2491 0.0000
vt 0.0586 0.2513 0.0000
vt 0.0641 0.2443 0.0000
vt 0.0658 0.2460 0.0000
vt 0.0691 0.2378 0.0000
vt 0.0719 0.2385 0.0000
vt 0.0160 0.2378 0.0000
vt 0.0205 0.2443 0.0000
vt 0.0186 0.2459 0.0000
vt 0.0133 0.2383 0.0000
vt 0.0269 0.2491 0.0000
vt 0.0255 0.2512 0.0000
vt 0.0342 0.2521 0.0000
vt 0.0335 0.2545 0.0000
vt 0.0538 0.2661 0.0000
vt 0.0423 0.2677 0.0000
vt 0.0645 0.2617 0.0000
vt 0.0736 0.2550 0.0000
vt 0.0807 0.2474 0.0000
vt 0.0106 0.2552 0.0000
vt 0.0034 0.2470 0.0000
vt 0.0199 0.2620 0.0000
vt 0.0307 0.2663 0.0000
vt 0.6780 0.0841 0.0000
vt 0.6856 0.0917 0.0000
vt 0.6806 0.0947 0.0000
vt 0.6762 0.0901 0.0000
vt 0.6856 0.1025 0.0000
vt 0.6805 0.1011 0.0000
vt 0.6778 0.1102 0.0000
vt 0.6759 0.1054 0.0000
vt 0.6669 0.1099 0.0000
vt 0.6696 0.1054 0.0000
vt 0.6595 0.1021 0.0000
vt 0.6652 0.1009 0.0000
vt 0.6598 0.0914 0.0000
vt 0.6653 0.0945 0.0000
vt 0.6674 0.0841 0.0000
vt 0.6698 0.0900 0.0000
vt 0.6981 0.2760 0.0000
vt 0.7112 0.2768 0.0000
vt 0.6832 0.8368 0.0000
vt 0.6755 0.8340 0.0000
vt 0.7249 0.2771 0.0000
vt 0.6908 0.8404 0.0000
vt 0.7396 0.2762 0.0000
vt 0.6983 0.8450 0.0000
vt 0.5831 0.2643 0.0000
vt 0.5976 0.2679 0.0000
vt 0.6128 0.8342 0.0000
vt 0.6050 0.8373 0.0000
vt 0.6111 0.2698 0.0000
vt 0.6206 0.8320 0.0000
vt 0.6241 0.2710 0.0000
vt 0.6285 0.8305 0.0000
vt 0.6366 0.2718 0.0000
vt 0.6363 0.8297 0.0000
vt 0.6489 0.2725 0.0000
vt 0.6442 0.8294 0.0000
vt 0.6610 0.2732 0.0000
vt 0.6520 0.8297 0.0000
vt 0.6732 0.2741 0.0000
vt 0.6599 0.8306 0.0000
vt 0.6855 0.2750 0.0000
vt 0.6677 0.8320 0.0000
vt 0.6441 0.8594 0.0000
vt 0.6368 0.8596 0.0000
vt 0.6297 0.8603 0.0000
vt 0.6227 0.8617 0.0000
vt 0.6159 0.8640 0.0000
vt 0.6096 0.8676 0.0000
vt 0.6926 0.8738 0.0000
vt 0.6866 0.8692 0.0000
vt 0.6800 0.8659 0.0000
vt 0.6731 0.8635 0.0000
vt 0.6660 0.8617 0.0000
vt 0.6587 0.8604 0.0000
vt 0.6514 0.8597 0.0000
vt 0.6920 0.2285 0.0000
vt 0.7010 0.2281 0.0000
vt 0.7090 0.2269 0.0000
vt 0.7159 0.2242 0.0000
vt 0.6091 0.2219 0.0000
vt 0.6160 0.2243 0.0000
vt 0.6243 0.2255 0.0000
vt 0.6333 0.2262 0.0000
vt 0.6429 0.2267 0.0000
vt 0.6527 0.2272 0.0000
vt 0.6627 0.2277 0.0000
vt 0.6727 0.2281 0.0000
vt 0.6825 0.2284 0.0000
vt 0.8506 0.5813 0.0000
vt 0.9022 0.5843 0.0000
vt 0.9020 0.5878 0.0000
vt 0.8504 0.5847 0.0000
vt 0.8539 0.5263 0.0000
vt 0.9054 0.5294 0.0000
vt 0.9052 0.5328 0.0000
vt 0.8537 0.5298 0.0000
vt 0.7922 0.5779 0.0000
vt 0.7953 0.5263 0.0000
vt 0.7987 0.5265 0.0000
vt 0.7957 0.5781 0.0000
vt 0.8472 0.5811 0.0000
vt 0.8502 0.5296 0.0000
vt 0.0034 0.6882 0.0000
vt 0.0154 0.6882 0.0000
vt 0.0154 0.7298 0.0000
vt 0.0034 0.7298 0.0000
vt 0.0274 0.6882 0.0000
vt 0.0274 0.7298 0.0000
vt 0.0394 0.6882 0.0000
vt 0.0394 0.7298 0.0000
vt 0.0514 0.6882 0.0000
vt 0.0514 0.7298 0.0000
vt 0.0634 0.6882 0.0000
vt 0.0634 0.7298 0.0000
vt 0.0754 0.6882 0.0000
vt 0.0754 0.7298 0.0000
vt 0.0874 0.6882 0.0000
vt 0.0874 0.7298 0.0000
vt 0.0994 0.6882 0.0000
vt 0.0994 0.7298 0.0000
vt 0.7805 0.6355 0.0000
vt 0.8321 0.6355 0.0000
vt 0.8321 0.6389 0.0000
vt 0.7805 0.6389 0.0000
vt 0.7805 0.5804 0.0000
vt 0.8321 0.5804 0.0000
vt 0.8321 0.5838 0.0000
vt 0.7805 0.5838 0.0000
vt 0.7219 0.6355 0.0000
vt 0.7219 0.5838 0.0000
vt 0.7254 0.5838 0.0000
vt 0.7254 0.6355 0.0000
vt 0.7770 0.6355 0.0000
vt 0.7770 0.5838 0.0000
vt 0.9093 0.6394 0.0000
vt 0.9610 0.6394 0.0000
vt 0.9610 0.6428 0.0000
vt 0.9093 0.6428 0.0000
vt 0.9093 0.5843 0.0000
vt 0.9610 0.5843 0.0000
vt 0.9610 0.5878 0.0000
vt 0.9093 0.5878 0.0000
vt 0.8508 0.6394 0.0000
vt 0.8508 0.5878 0.0000
vt 0.8543 0.5878 0.0000
vt 0.8543 0.6394 0.0000
vt 0.9059 0.6394 0.0000
vt 0.9059 0.5878 0.0000
vt 0.9390 0.0156 0.0000
vt 0.9390 0.0312 0.0000
vt 0.6946 0.0312 0.0000
vt 0.6946 0.0156 0.0000
vt 0.9390 0.0468 0.0000
vt 0.6946 0.0468 0.0000
vt 0.9390 0.0623 0.0000
vt 0.6946 0.0623 0.0000
vt 0.9390 0.0779 0.0000
vt 0.6946 0.0779 0.0000
vt 0.9390 0.0935 0.0000
vt 0.6946 0.0935 0.0000
vt 0.9390 0.1091 0.0000
vt 0.6946 0.1091 0.0000
vt 0.9390 0.1247 0.0000
vt 0.6946 0.1247 0.0000
vt 0.9390 0.0000 0.0000
vt 0.6946 0.0000 0.0000
vt 0.0605 0.6138 0.0000
vt 0.0756 0.6146 0.0000
vt 0.0745 0.6265 0.0000
vt 0.0602 0.6257 0.0000
vt 0.0901 0.6168 0.0000
vt 0.0886 0.6287 0.0000
vt 0.1038 0.6196 0.0000
vt 0.1022 0.6319 0.0000
vt 0.1163 0.6220 0.0000
vt 0.1149 0.6342 0.0000
vt 0.0040 0.6216 0.0000
vt 0.0168 0.6193 0.0000
vt 0.0179 0.6316 0.0000
vt 0.0050 0.6343 0.0000
vt 0.0306 0.6165 0.0000
vt 0.0316 0.6285 0.0000
vt 0.0454 0.6145 0.0000
vt 0.0458 0.6264 0.0000
vt 0.0361 0.6523 0.0000
vt 0.0482 0.6499 0.0000
vt 0.0492 0.6561 0.0000
vt 0.0379 0.6581 0.0000
vt 0.0241 0.6555 0.0000
vt 0.0270 0.6611 0.0000
vt 0.0135 0.6612 0.0000
vt 0.0170 0.6670 0.0000
vt 0.0972 0.6556 0.0000
vt 0.1086 0.6612 0.0000
vt 0.1047 0.6671 0.0000
vt 0.0946 0.6613 0.0000
vt 0.0850 0.6522 0.0000
vt 0.0835 0.6582 0.0000
vt 0.0728 0.6503 0.0000
vt 0.0721 0.6564 0.0000
vt 0.0605 0.6496 0.0000
vt 0.0606 0.6558 0.0000
vt 0.0466 0.6332 0.0000
vt 0.0474 0.6432 0.0000
vt 0.0343 0.6450 0.0000
vt 0.0328 0.6353 0.0000
vt 0.0604 0.6326 0.0000
vt 0.0603 0.6424 0.0000
vt 0.0743 0.6334 0.0000
vt 0.0732 0.6432 0.0000
vt 0.0881 0.6356 0.0000
vt 0.0863 0.6452 0.0000
vt 0.1020 0.6391 0.0000
vt 0.0997 0.6487 0.0000
vt 0.1169 0.6426 0.0000
vt 0.1146 0.6543 0.0000
vt 0.0073 0.6551 0.0000
vt 0.0034 0.6436 0.0000
vt 0.0188 0.6390 0.0000
vt 0.0211 0.6488 0.0000
vt 0.0717 0.6587 0.0000
vt 0.0605 0.6581 0.0000
vt 0.0828 0.6604 0.0000
vt 0.0934 0.6633 0.0000
vt 0.1024 0.6685 0.0000
vt 0.0281 0.6632 0.0000
vt 0.0193 0.6685 0.0000
vt 0.0386 0.6603 0.0000
vt 0.0495 0.6584 0.0000
# 254 texture coords

g substation_ht_1005_07
usemtl substationpt_1001_06_Material__81
f 1/4 2/1 3/2 4/3 
f 5/6 4/3 3/2 6/5 
f 6/5 7/7 8/8 5/6 
f 7/7 9/9 10/10 8/8 
f 11/13 10/14 9/11 12/12 
f 12/12 13/15 14/16 11/13 
f 13/15 15/17 16/18 14/16 
f 1/4 16/18 15/17 2/1 
f 1/19 4/20 17/21 18/22 
f 17/21 4/20 5/23 19/24 
f 19/24 5/23 8/25 20/26 
f 20/26 8/25 10/27 21/28 
f 21/32 10/29 11/30 22/31 
f 14/33 23/34 22/31 11/30 
f 14/33 16/35 24/36 23/34 
f 16/35 1/19 18/22 24/36 
f 17/21 25/37 26/38 18/22 
f 27/39 25/37 17/21 19/24 
f 28/40 27/39 19/24 20/26 
f 20/26 21/28 29/41 28/40 
f 29/43 21/32 22/31 30/42 
f 31/44 30/42 22/31 23/34 
f 31/44 23/34 24/36 32/45 
f 26/38 32/45 24/36 18/22 
f 33/48 34/49 26/46 25/47 
f 33/48 25/47 27/50 35/51 
f 27/50 28/52 36/53 35/51 
f 29/54 37/55 36/53 28/52 
f 38/57 37/55 29/54 30/56 
f 38/57 30/56 31/58 39/59 
f 40/61 39/59 31/58 32/60 
f 40/61 32/60 26/46 34/49 
f 33/48 35/51 36/53 37/55 
f 33/48 37/55 38/57 39/59 
f 33/48 39/59 40/61 34/49 
usemtl substationpt_1001_06_phong2
f 41/62 42/63 43/64 44/65 
f 42/63 45/66 46/67 43/64 
f 45/66 47/68 48/69 46/67 
f 49/72 48/73 47/70 50/71 
f 49/72 50/71 51/74 52/75 
f 52/75 51/74 53/76 54/77 
f 54/77 53/76 55/78 56/79 
f 55/78 57/80 58/81 56/79 
f 58/81 57/80 59/82 60/83 
f 60/83 59/82 61/84 62/85 
f 62/85 61/84 63/86 64/87 
f 44/65 64/87 63/86 41/62 
f 65/89 56/79 58/81 66/88 
f 65/89 67/90 54/77 56/79 
f 52/75 54/77 67/90 68/91 
f 52/75 68/91 69/92 49/72 
f 69/92 70/93 48/73 49/72 
f 48/69 70/94 71/95 46/67 
f 46/67 71/95 72/96 43/64 
f 44/65 43/64 72/96 73/97 
f 74/98 64/87 44/65 73/97 
f 75/99 62/85 64/87 74/98 
f 75/99 76/100 60/83 62/85 
f 60/83 76/100 66/88 58/81 
f 42/63 41/62 77/101 78/102 
f 79/103 45/66 42/63 78/102 
f 47/68 45/66 79/103 80/104 
f 81/106 50/71 47/70 80/105 
f 81/106 82/107 51/74 50/71 
f 51/74 82/107 83/108 53/76 
f 84/109 55/78 53/76 83/108 
f 57/80 55/78 84/109 85/110 
f 85/110 86/111 59/82 57/80 
f 61/84 59/82 86/111 87/112 
f 87/112 88/113 63/86 61/84 
f 41/62 63/86 88/113 77/101 
usemtl substationpt_1001_06_Material__81
f 89/192 90/193 91/194 92/195 
f 90/193 93/196 94/197 91/194 
f 95/199 94/197 93/196 96/198 
f 97/200 98/201 95/199 96/198 
f 97/202 99/203 100/204 98/205 
f 100/204 99/203 101/206 102/207 
f 102/207 101/206 103/208 104/209 
f 104/209 103/208 89/192 92/195 
f 105/210 106/211 107/212 108/213 
f 108/213 109/215 110/214 105/210 
f 111/216 110/214 109/215 112/217 
f 113/218 111/219 112/220 114/221 
f 115/222 113/218 114/221 116/223 
f 117/224 115/222 116/223 118/225 
f 118/225 119/227 120/226 117/224 
f 106/211 120/226 119/227 107/212 
f 121/228 122/229 123/230 124/231 
f 125/232 126/233 122/229 121/228 
f 126/233 125/232 127/234 128/235 
f 129/236 130/237 128/235 127/234 
f 129/236 131/238 132/239 130/237 
f 131/238 133/240 134/241 132/239 
f 134/242 133/243 135/244 136/245 
f 123/230 136/245 135/244 124/231 
f 120/226 106/211 122/229 126/233 
f 106/211 105/210 123/230 122/229 
f 110/214 136/245 123/230 105/210 
f 136/245 110/214 111/216 134/242 
f 134/241 111/219 113/218 132/239 
f 115/222 130/237 132/239 113/218 
f 117/224 128/235 130/237 115/222 
f 120/226 126/233 128/235 117/224 
f 121/228 104/209 92/195 125/232 
f 91/194 127/234 125/232 92/195 
f 91/194 94/197 129/236 127/234 
f 129/236 94/197 95/199 131/238 
f 95/199 98/201 133/240 131/238 
f 100/204 135/244 133/243 98/205 
f 100/204 102/207 124/231 135/244 
f 124/231 102/207 104/209 121/228 
f 137/246 138/247 119/227 118/225 
f 137/246 118/225 116/223 139/248 
f 114/221 140/249 139/248 116/223 
f 112/220 141/250 140/249 114/221 
f 141/252 112/217 109/215 142/251 
f 142/251 109/215 108/213 143/253 
f 144/254 143/253 108/213 107/212 
f 119/227 138/247 144/254 107/212 
f 145/114 146/115 147/116 148/117 
f 149/120 150/121 151/118 152/119 
f 146/122 149/123 152/124 147/125 
f 151/127 150/121 145/114 148/126 
f 147/125 152/124 151/127 148/126 
f 153/131 154/128 155/129 156/130 
f 156/130 155/129 157/132 158/133 
f 158/133 157/132 159/134 160/135 
f 160/135 159/134 161/136 162/137 
f 162/137 161/136 163/138 164/139 
f 164/139 163/138 165/140 166/141 
f 166/141 165/140 167/142 168/143 
f 168/143 167/142 154/144 153/145 
f 169/149 170/146 171/147 172/148 
f 173/152 174/153 175/150 176/151 
f 173/155 176/156 172/157 171/154 
f 175/159 174/153 170/146 169/158 
f 175/159 169/158 172/157 176/156 
f 177/163 178/160 179/161 180/162 
f 181/167 182/164 183/165 184/166 
f 183/170 180/171 179/168 184/169 
f 178/160 177/172 182/173 181/167 
f 177/172 180/171 183/170 182/173 
f 185/177 186/174 187/175 188/176 
f 189/179 188/176 187/175 190/178 
f 189/179 190/178 191/180 192/181 
f 191/180 193/182 194/183 192/181 
f 193/182 195/184 196/185 194/183 
f 195/184 197/186 198/187 196/185 
f 198/187 197/186 199/188 200/189 
f 185/177 200/191 199/190 186/174 
# 150 polygons

