# 3ds Max Wavefront OBJ Exporter v0.97b - (c)2007 guruware
# 创建的文件:18.02.2020 13:31:39

mtllib substation_ht_1005_10.mtl

#
# object substation_ht_1005_10
#

v  -221.0534 2.1245 984.8329
v  -221.0534 -12.2098 984.8329
v  -221.2563 -12.2098 984.3431
v  -221.2563 2.1245 984.3431
v  -221.7460 -12.2098 984.1403
v  -221.7460 2.1245 984.1403
v  -222.2357 -12.2098 984.3431
v  -222.2357 2.1245 984.3431
v  -222.4386 -12.2098 984.8329
v  -222.4386 2.1245 984.8329
v  -221.2563 -12.2098 985.3226
v  -221.2563 2.1245 985.3226
v  -221.7460 -12.2098 985.5255
v  -221.7460 2.1245 985.5255
v  -222.2357 -12.2098 985.3226
v  -222.2357 2.1245 985.3226
v  -231.2184 14.5461 983.9445
v  -232.3033 14.5461 983.9445
v  -232.3033 15.2698 983.9445
v  -231.2184 15.2698 983.9445
v  -232.8457 14.5461 984.8840
v  -232.8457 15.2698 984.8840
v  -230.6760 14.5461 984.8840
v  -230.6760 15.2698 984.8840
v  -231.7609 15.2698 984.8840
v  -232.3033 15.2698 985.8235
v  -232.3033 14.5461 985.8235
v  -231.2184 14.5461 985.8235
v  -231.2184 15.2698 985.8235
v  -231.3498 13.8650 984.1720
v  -232.1720 13.8650 984.1720
v  -232.1720 14.5461 984.1720
v  -231.3498 14.5461 984.1720
v  -232.5831 13.8650 984.8840
v  -232.5831 14.5461 984.8840
v  -230.9387 13.8650 984.8840
v  -230.9387 14.5461 984.8840
v  -232.1720 14.5461 985.5961
v  -232.1720 13.8651 985.5961
v  -231.3498 13.8651 985.5961
v  -231.3498 14.5461 985.5961
v  -230.7260 4.0697 984.8840
v  -231.0739 14.4637 984.8840
v  -231.2751 14.4637 985.3698
v  -231.0291 4.0697 985.6158
v  -231.7609 14.4637 985.5710
v  -231.7609 4.0697 985.9189
v  -232.2466 14.4637 985.3698
v  -232.4926 4.0697 985.6158
v  -232.4478 14.4637 984.8840
v  -232.7957 4.0697 984.8840
v  -231.2751 14.4637 984.3983
v  -231.0291 4.0697 984.1523
v  -231.7609 14.4637 984.1970
v  -231.7609 4.0697 983.8492
v  -232.2466 14.4637 984.3983
v  -232.4926 4.0697 984.1523
v  -231.0470 3.1311 983.6476
v  -232.4747 3.1311 983.6476
v  -232.4747 4.5289 983.6476
v  -231.0470 4.5289 983.6476
v  -233.1885 3.1311 984.8840
v  -233.1885 4.5289 984.8840
v  -230.3332 3.1311 984.8840
v  -230.3332 4.5289 984.8840
v  -231.7609 4.5289 984.8840
v  -232.4747 4.5289 986.1204
v  -232.4747 3.1311 986.1204
v  -231.0470 3.1311 986.1204
v  -231.0470 4.5289 986.1204
v  -243.3291 14.5461 983.9445
v  -244.4139 14.5461 983.9445
v  -244.4139 15.2698 983.9445
v  -243.3291 15.2698 983.9445
v  -244.9564 14.5461 984.8840
v  -244.9564 15.2698 984.8840
v  -242.7866 14.5461 984.8840
v  -242.7866 15.2698 984.8840
v  -243.8715 15.2698 984.8840
v  -244.4139 15.2698 985.8235
v  -244.4139 14.5461 985.8235
v  -243.3291 14.5461 985.8235
v  -243.3291 15.2698 985.8235
v  -243.4604 13.8650 984.1720
v  -244.2826 13.8650 984.1720
v  -244.2826 14.5461 984.1720
v  -243.4604 14.5461 984.1720
v  -244.6937 13.8650 984.8840
v  -244.6937 14.5461 984.8840
v  -243.0493 13.8650 984.8840
v  -243.0493 14.5461 984.8840
v  -244.2826 14.5461 985.5961
v  -244.2826 13.8651 985.5961
v  -243.4604 13.8651 985.5961
v  -243.4604 14.5461 985.5961
v  -242.8367 4.0697 984.8840
v  -243.1845 14.4637 984.8840
v  -243.3857 14.4637 985.3698
v  -243.1398 4.0697 985.6158
v  -243.8715 14.4637 985.5710
v  -243.8715 4.0697 985.9189
v  -244.3573 14.4637 985.3698
v  -244.6032 4.0697 985.6158
v  -244.5585 14.4637 984.8840
v  -244.9063 4.0697 984.8840
v  -243.3857 14.4637 984.3983
v  -243.1398 4.0697 984.1523
v  -243.8715 14.4637 984.1970
v  -243.8715 4.0697 983.8492
v  -244.3573 14.4637 984.3983
v  -244.6032 4.0697 984.1523
v  -243.1577 3.1311 983.6476
v  -244.5854 3.1311 983.6476
v  -244.5854 4.5289 983.6476
v  -243.1577 4.5289 983.6476
v  -245.2992 3.1311 984.8840
v  -245.2992 4.5289 984.8840
v  -242.4438 3.1311 984.8840
v  -242.4438 4.5289 984.8840
v  -243.8715 4.5289 984.8840
v  -244.5854 4.5289 986.1204
v  -244.5854 3.1311 986.1204
v  -243.1577 3.1311 986.1204
v  -243.1577 4.5289 986.1204
v  -218.9150 14.5461 983.9445
v  -219.9999 14.5461 983.9445
v  -219.9999 15.2698 983.9445
v  -218.9150 15.2698 983.9445
v  -220.5423 14.5461 984.8840
v  -220.5423 15.2698 984.8840
v  -218.3726 14.5461 984.8840
v  -218.3726 15.2698 984.8840
v  -219.4575 15.2698 984.8840
v  -219.9999 15.2698 985.8235
v  -219.9999 14.5461 985.8235
v  -218.9150 14.5461 985.8235
v  -218.9150 15.2698 985.8235
v  -219.0464 13.8651 984.1720
v  -219.8685 13.8651 984.1720
v  -219.8685 14.5461 984.1720
v  -219.0464 14.5461 984.1720
v  -220.2796 13.8651 984.8840
v  -220.2796 14.5461 984.8840
v  -218.6352 13.8651 984.8840
v  -218.6352 14.5461 984.8840
v  -219.8685 14.5461 985.5961
v  -219.8685 13.8651 985.5961
v  -219.0464 13.8651 985.5961
v  -219.0464 14.5461 985.5961
v  -218.4226 4.0697 984.8840
v  -218.7705 14.4637 984.8840
v  -218.9717 14.4637 985.3698
v  -218.7257 4.0697 985.6158
v  -219.4574 14.4637 985.5710
v  -219.4574 4.0697 985.9189
v  -219.9432 14.4637 985.3698
v  -220.1892 4.0697 985.6158
v  -220.1444 14.4637 984.8840
v  -220.4923 4.0697 984.8840
v  -218.9717 14.4637 984.3983
v  -218.7257 4.0697 984.1523
v  -219.4574 14.4637 984.1970
v  -219.4574 4.0697 983.8492
v  -219.9432 14.4637 984.3983
v  -220.1892 4.0697 984.1523
v  -218.7436 3.1311 983.6476
v  -220.1713 3.1311 983.6476
v  -220.1713 4.5289 983.6476
v  -218.7436 4.5289 983.6476
v  -220.8851 3.1311 984.8840
v  -220.8851 4.5289 984.8840
v  -218.0298 3.1311 984.8840
v  -218.0298 4.5289 984.8840
v  -219.4575 4.5289 984.8840
v  -220.1713 4.5289 986.1204
v  -220.1713 3.1311 986.1204
v  -218.7436 3.1311 986.1204
v  -218.7436 4.5289 986.1204
v  -245.8962 2.5094 986.3428
v  -245.8962 1.9007 986.3428
v  -217.2870 1.9007 986.3428
v  -217.2870 2.5094 986.3428
v  -245.8962 3.1738 986.3428
v  -217.2870 3.1738 986.3428
v  -217.2870 3.1738 983.3185
v  -245.8962 3.1738 983.3185
v  -217.2870 2.5094 983.3185
v  -217.2870 1.9007 983.3185
v  -245.8962 1.9007 983.3185
v  -245.8962 2.5094 983.3185
v  -245.8962 2.5251 986.3428
v  -217.2870 2.5251 986.3428
v  -217.2870 2.5251 983.3185
v  -245.8962 2.5251 983.3185
v  -239.4056 2.1245 984.8329
v  -239.4056 -12.2098 984.8329
v  -239.6084 -12.2098 984.3431
v  -239.6084 2.1245 984.3431
v  -240.0981 -12.2098 984.1403
v  -240.0981 2.1245 984.1403
v  -240.5879 -12.2098 984.3431
v  -240.5879 2.1245 984.3431
v  -240.7907 -12.2098 984.8329
v  -240.7907 2.1245 984.8329
v  -239.6084 -12.2098 985.3226
v  -239.6084 2.1245 985.3226
v  -240.0981 -12.2098 985.5255
v  -240.0981 2.1245 985.5255
v  -240.5879 -12.2098 985.3226
v  -240.5879 2.1245 985.3226
# 210 vertices

vt 0.9511 0.5553 0.0000
vt 0.9511 0.3808 0.0000
vt 0.9958 0.3808 0.0000
vt 0.9958 0.5553 0.0000
vt 0.9064 0.5553 0.0000
vt 0.9064 0.3808 0.0000
vt 0.8617 0.5553 0.0000
vt 0.8617 0.3808 0.0000
vt 0.8171 0.5553 0.0000
vt 0.8171 0.3808 0.0000
vt 0.9958 0.3808 0.0000
vt 0.9511 0.3808 0.0000
vt 0.9511 0.5553 0.0000
vt 0.9958 0.5553 0.0000
vt 0.9064 0.3808 0.0000
vt 0.9064 0.5553 0.0000
vt 0.8617 0.3808 0.0000
vt 0.8617 0.5553 0.0000
vt 0.8171 0.3808 0.0000
vt 0.8171 0.5553 0.0000
vt 0.8353 0.6092 0.0000
vt 0.8352 0.6414 0.0000
vt 0.9155 0.6414 0.0000
vt 0.9156 0.6092 0.0000
vt 0.7549 0.6092 0.0000
vt 0.7549 0.6414 0.0000
vt 0.9958 0.6414 0.0000
vt 0.9958 0.6092 0.0000
vt 0.9071 0.0075 0.0000
vt 0.9071 0.0996 0.0000
vt 0.9869 0.0532 0.0000
vt 0.9869 0.1453 0.0000
vt 0.9071 0.1917 0.0000
vt 0.8353 0.6092 0.0000
vt 0.9156 0.6092 0.0000
vt 0.9155 0.6414 0.0000
vt 0.8352 0.6414 0.0000
vt 0.7549 0.6092 0.0000
vt 0.7549 0.6414 0.0000
vt 0.9958 0.6092 0.0000
vt 0.9958 0.6414 0.0000
vt 0.9071 0.0075 0.0000
vt 0.9869 0.0532 0.0000
vt 0.9071 0.0996 0.0000
vt 0.9869 0.1453 0.0000
vt 0.9071 0.1917 0.0000
vt 0.8829 0.3833 0.0000
vt 0.8829 0.5556 0.0000
vt 0.9254 0.5556 0.0000
vt 0.9254 0.3833 0.0000
vt 0.8405 0.3833 0.0000
vt 0.8405 0.5556 0.0000
vt 0.9678 0.5556 0.0000
vt 0.9678 0.3833 0.0000
vt 0.8572 0.4537 0.0000
vt 0.8675 0.4595 0.0000
vt 0.8675 0.4109 0.0000
vt 0.8572 0.4171 0.0000
vt 0.8249 0.4726 0.0000
vt 0.8249 0.4846 0.0000
vt 0.8249 0.3874 0.0000
vt 0.8249 0.3993 0.0000
vt 0.8829 0.3833 0.0000
vt 0.9254 0.3833 0.0000
vt 0.9254 0.5556 0.0000
vt 0.8829 0.5556 0.0000
vt 0.8405 0.3833 0.0000
vt 0.8405 0.5556 0.0000
vt 0.9678 0.3833 0.0000
vt 0.9678 0.5556 0.0000
vt 0.8572 0.4537 0.0000
vt 0.8572 0.4171 0.0000
vt 0.8675 0.4109 0.0000
vt 0.8675 0.4595 0.0000
vt 0.8249 0.4726 0.0000
vt 0.8249 0.4846 0.0000
vt 0.8249 0.3993 0.0000
vt 0.8249 0.3874 0.0000
vt 0.7743 0.6506 0.0000
vt 0.8247 0.6506 0.0000
vt 0.8247 0.9943 0.0000
vt 0.7743 0.9943 0.0000
vt 0.8735 0.6506 0.0000
vt 0.8766 0.9943 0.0000
vt 0.9254 0.6506 0.0000
vt 0.9254 0.9943 0.0000
vt 0.9757 0.6506 0.0000
vt 0.9757 0.9943 0.0000
vt 0.7743 0.6506 0.0000
vt 0.7743 0.9943 0.0000
vt 0.8247 0.9943 0.0000
vt 0.8247 0.6506 0.0000
vt 0.8766 0.9943 0.0000
vt 0.8735 0.6506 0.0000
vt 0.9254 0.9943 0.0000
vt 0.9254 0.6506 0.0000
vt 0.9757 0.9943 0.0000
vt 0.9757 0.6506 0.0000
vt 0.8353 0.6092 0.0000
vt 0.8352 0.6414 0.0000
vt 0.9155 0.6414 0.0000
vt 0.9156 0.6092 0.0000
vt 0.7549 0.6092 0.0000
vt 0.7549 0.6414 0.0000
vt 0.9958 0.6414 0.0000
vt 0.9958 0.6092 0.0000
vt 0.9071 0.0075 0.0000
vt 0.9071 0.0996 0.0000
vt 0.9869 0.0532 0.0000
vt 0.9869 0.1453 0.0000
vt 0.9071 0.1917 0.0000
vt 0.8353 0.6092 0.0000
vt 0.9156 0.6092 0.0000
vt 0.9155 0.6414 0.0000
vt 0.8352 0.6414 0.0000
vt 0.7549 0.6092 0.0000
vt 0.7549 0.6414 0.0000
vt 0.9958 0.6092 0.0000
vt 0.9958 0.6414 0.0000
vt 0.9071 0.0075 0.0000
vt 0.9869 0.0532 0.0000
vt 0.9071 0.0996 0.0000
vt 0.9869 0.1453 0.0000
vt 0.9071 0.1917 0.0000
vt 0.8353 0.6092 0.0000
vt 0.8352 0.6414 0.0000
vt 0.9155 0.6414 0.0000
vt 0.9156 0.6092 0.0000
vt 0.7549 0.6092 0.0000
vt 0.7549 0.6414 0.0000
vt 0.9958 0.6414 0.0000
vt 0.9958 0.6092 0.0000
vt 0.9071 0.0075 0.0000
vt 0.9071 0.0996 0.0000
vt 0.9869 0.0532 0.0000
vt 0.9869 0.1453 0.0000
vt 0.9071 0.1917 0.0000
vt 0.8353 0.6092 0.0000
vt 0.9156 0.6092 0.0000
vt 0.9155 0.6414 0.0000
vt 0.8352 0.6414 0.0000
vt 0.7549 0.6092 0.0000
vt 0.7549 0.6414 0.0000
vt 0.9958 0.6092 0.0000
vt 0.9958 0.6414 0.0000
vt 0.9071 0.0075 0.0000
vt 0.9869 0.0532 0.0000
vt 0.9071 0.0996 0.0000
vt 0.9869 0.1453 0.0000
vt 0.9071 0.1917 0.0000
vt 0.8829 0.3833 0.0000
vt 0.8829 0.5556 0.0000
vt 0.9254 0.5556 0.0000
vt 0.9254 0.3833 0.0000
vt 0.8405 0.3833 0.0000
vt 0.8405 0.5556 0.0000
vt 0.9678 0.5556 0.0000
vt 0.9678 0.3833 0.0000
vt 0.8572 0.4537 0.0000
vt 0.8675 0.4595 0.0000
vt 0.8675 0.4109 0.0000
vt 0.8572 0.4171 0.0000
vt 0.8249 0.4726 0.0000
vt 0.8249 0.4846 0.0000
vt 0.8249 0.3874 0.0000
vt 0.8249 0.3993 0.0000
vt 0.8829 0.3833 0.0000
vt 0.9254 0.3833 0.0000
vt 0.9254 0.5556 0.0000
vt 0.8829 0.5556 0.0000
vt 0.8405 0.3833 0.0000
vt 0.8405 0.5556 0.0000
vt 0.9678 0.3833 0.0000
vt 0.9678 0.5556 0.0000
vt 0.8572 0.4537 0.0000
vt 0.8572 0.4171 0.0000
vt 0.8675 0.4109 0.0000
vt 0.8675 0.4595 0.0000
vt 0.8249 0.4726 0.0000
vt 0.8249 0.4846 0.0000
vt 0.8249 0.3993 0.0000
vt 0.8249 0.3874 0.0000
vt 0.7743 0.6506 0.0000
vt 0.8247 0.6506 0.0000
vt 0.8247 0.9943 0.0000
vt 0.7743 0.9943 0.0000
vt 0.8735 0.6506 0.0000
vt 0.8766 0.9943 0.0000
vt 0.9254 0.6506 0.0000
vt 0.9254 0.9943 0.0000
vt 0.9757 0.6506 0.0000
vt 0.9757 0.9943 0.0000
vt 0.7743 0.6506 0.0000
vt 0.7743 0.9943 0.0000
vt 0.8247 0.9943 0.0000
vt 0.8247 0.6506 0.0000
vt 0.8766 0.9943 0.0000
vt 0.8735 0.6506 0.0000
vt 0.9254 0.9943 0.0000
vt 0.9254 0.6506 0.0000
vt 0.9757 0.9943 0.0000
vt 0.9757 0.6506 0.0000
vt 0.8353 0.6092 0.0000
vt 0.8352 0.6414 0.0000
vt 0.9155 0.6414 0.0000
vt 0.9156 0.6092 0.0000
vt 0.7549 0.6092 0.0000
vt 0.7549 0.6414 0.0000
vt 0.9958 0.6414 0.0000
vt 0.9958 0.6092 0.0000
vt 0.9071 0.0075 0.0000
vt 0.9071 0.0996 0.0000
vt 0.9869 0.0532 0.0000
vt 0.9869 0.1453 0.0000
vt 0.9071 0.1917 0.0000
vt 0.8353 0.6092 0.0000
vt 0.9156 0.6092 0.0000
vt 0.9155 0.6414 0.0000
vt 0.8352 0.6414 0.0000
vt 0.7549 0.6092 0.0000
vt 0.7549 0.6414 0.0000
vt 0.9958 0.6092 0.0000
vt 0.9958 0.6414 0.0000
vt 0.9071 0.0075 0.0000
vt 0.9869 0.0532 0.0000
vt 0.9071 0.0996 0.0000
vt 0.9869 0.1453 0.0000
vt 0.9071 0.1917 0.0000
vt 0.8353 0.6092 0.0000
vt 0.8352 0.6414 0.0000
vt 0.9155 0.6414 0.0000
vt 0.9156 0.6092 0.0000
vt 0.7549 0.6092 0.0000
vt 0.7549 0.6414 0.0000
vt 0.9958 0.6414 0.0000
vt 0.9958 0.6092 0.0000
vt 0.9071 0.0075 0.0000
vt 0.9071 0.0996 0.0000
vt 0.9869 0.0532 0.0000
vt 0.9869 0.1453 0.0000
vt 0.9071 0.1917 0.0000
vt 0.8353 0.6092 0.0000
vt 0.9156 0.6092 0.0000
vt 0.9155 0.6414 0.0000
vt 0.8352 0.6414 0.0000
vt 0.7549 0.6092 0.0000
vt 0.7549 0.6414 0.0000
vt 0.9958 0.6092 0.0000
vt 0.9958 0.6414 0.0000
vt 0.9071 0.0075 0.0000
vt 0.9869 0.0532 0.0000
vt 0.9071 0.0996 0.0000
vt 0.9869 0.1453 0.0000
vt 0.9071 0.1917 0.0000
vt 0.8829 0.3833 0.0000
vt 0.8829 0.5556 0.0000
vt 0.9254 0.5556 0.0000
vt 0.9254 0.3833 0.0000
vt 0.8405 0.3833 0.0000
vt 0.8405 0.5556 0.0000
vt 0.9678 0.5556 0.0000
vt 0.9678 0.3833 0.0000
vt 0.8572 0.4537 0.0000
vt 0.8675 0.4595 0.0000
vt 0.8675 0.4109 0.0000
vt 0.8572 0.4171 0.0000
vt 0.8249 0.4726 0.0000
vt 0.8249 0.4846 0.0000
vt 0.8249 0.3874 0.0000
vt 0.8249 0.3993 0.0000
vt 0.8829 0.3833 0.0000
vt 0.9254 0.3833 0.0000
vt 0.9254 0.5556 0.0000
vt 0.8829 0.5556 0.0000
vt 0.8405 0.3833 0.0000
vt 0.8405 0.5556 0.0000
vt 0.9678 0.3833 0.0000
vt 0.9678 0.5556 0.0000
vt 0.8572 0.4537 0.0000
vt 0.8572 0.4171 0.0000
vt 0.8675 0.4109 0.0000
vt 0.8675 0.4595 0.0000
vt 0.8249 0.4726 0.0000
vt 0.8249 0.4846 0.0000
vt 0.8249 0.3993 0.0000
vt 0.8249 0.3874 0.0000
vt 0.7743 0.6506 0.0000
vt 0.8247 0.6506 0.0000
vt 0.8247 0.9943 0.0000
vt 0.7743 0.9943 0.0000
vt 0.8735 0.6506 0.0000
vt 0.8766 0.9943 0.0000
vt 0.9254 0.6506 0.0000
vt 0.9254 0.9943 0.0000
vt 0.9757 0.6506 0.0000
vt 0.9757 0.9943 0.0000
vt 0.7743 0.6506 0.0000
vt 0.7743 0.9943 0.0000
vt 0.8247 0.9943 0.0000
vt 0.8247 0.6506 0.0000
vt 0.8766 0.9943 0.0000
vt 0.8735 0.6506 0.0000
vt 0.9254 0.9943 0.0000
vt 0.9254 0.6506 0.0000
vt 0.9757 0.9943 0.0000
vt 0.9757 0.6506 0.0000
vt 0.8353 0.6092 0.0000
vt 0.8352 0.6414 0.0000
vt 0.9155 0.6414 0.0000
vt 0.9156 0.6092 0.0000
vt 0.7549 0.6092 0.0000
vt 0.7549 0.6414 0.0000
vt 0.9958 0.6414 0.0000
vt 0.9958 0.6092 0.0000
vt 0.9071 0.0075 0.0000
vt 0.9071 0.0996 0.0000
vt 0.9869 0.0532 0.0000
vt 0.9869 0.1453 0.0000
vt 0.9071 0.1917 0.0000
vt 0.8353 0.6092 0.0000
vt 0.9156 0.6092 0.0000
vt 0.9155 0.6414 0.0000
vt 0.8352 0.6414 0.0000
vt 0.7549 0.6092 0.0000
vt 0.7549 0.6414 0.0000
vt 0.9958 0.6092 0.0000
vt 0.9958 0.6414 0.0000
vt 0.9071 0.0075 0.0000
vt 0.9869 0.0532 0.0000
vt 0.9071 0.0996 0.0000
vt 0.9869 0.1453 0.0000
vt 0.9071 0.1917 0.0000
vt 0.7440 0.8514 0.0000
vt 0.7440 0.7632 0.0000
vt 0.3373 0.7632 0.0000
vt 0.3373 0.8514 0.0000
vt 0.0313 0.4821 0.0000
vt 0.0313 0.5584 0.0000
vt 0.3418 0.5584 0.0000
vt 0.3418 0.4821 0.0000
vt 0.7440 0.8514 0.0000
vt 0.7440 0.7632 0.0000
vt 0.3373 0.7632 0.0000
vt 0.3373 0.8514 0.0000
vt 0.4404 0.0719 0.0000
vt 0.3699 0.0719 0.0000
vt 0.3699 0.2984 0.0000
vt 0.4404 0.2984 0.0000
vt 0.4404 0.0688 0.0000
vt 0.3699 0.0688 0.0000
vt 0.3699 0.2984 0.0000
vt 0.4404 0.2984 0.0000
vt 0.0050 0.8514 0.0000
vt 0.1590 0.8514 0.0000
vt 0.1590 0.7632 0.0000
vt 0.0050 0.7632 0.0000
vt 0.3699 0.4453 0.0000
vt 0.3699 0.5557 0.0000
vt 0.4404 0.5557 0.0000
vt 0.4404 0.4453 0.0000
vt 0.0050 0.8514 0.0000
vt 0.1590 0.8514 0.0000
vt 0.1590 0.7632 0.0000
vt 0.0050 0.7632 0.0000
vt 0.4404 0.5557 0.0000
vt 0.4404 0.4453 0.0000
vt 0.3699 0.4453 0.0000
vt 0.3699 0.5557 0.0000
vt 0.9511 0.5553 0.0000
vt 0.9511 0.3808 0.0000
vt 0.9958 0.3808 0.0000
vt 0.9958 0.5553 0.0000
vt 0.9064 0.5553 0.0000
vt 0.9064 0.3808 0.0000
vt 0.8617 0.5553 0.0000
vt 0.8617 0.3808 0.0000
vt 0.8171 0.5553 0.0000
vt 0.8171 0.3808 0.0000
vt 0.9958 0.3808 0.0000
vt 0.9511 0.3808 0.0000
vt 0.9511 0.5553 0.0000
vt 0.9958 0.5553 0.0000
vt 0.9064 0.3808 0.0000
vt 0.9064 0.5553 0.0000
vt 0.8617 0.3808 0.0000
vt 0.8617 0.5553 0.0000
vt 0.8171 0.3808 0.0000
vt 0.8171 0.5553 0.0000
# 388 texture coords

g substation_ht_1005_10
usemtl Material__202
f 1/3 2/4 3/1 4/2 
f 4/2 3/1 5/5 6/6 
f 6/6 5/5 7/7 8/8 
f 8/8 7/7 9/9 10/10 
f 11/13 2/14 1/11 12/12 
f 13/16 11/13 12/12 14/15 
f 15/18 13/16 14/15 16/17 
f 9/20 15/18 16/17 10/19 
f 17/24 18/21 19/22 20/23 
f 18/21 21/25 22/26 19/22 
f 23/28 17/24 20/23 24/27 
f 22/29 25/30 19/31 
f 19/31 25/30 20/32 
f 20/32 25/30 24/33 
f 26/37 27/34 28/35 29/36 
f 22/39 21/38 27/34 26/37 
f 29/36 28/35 23/40 24/41 
f 22/42 26/43 25/44 
f 26/43 29/45 25/44 
f 29/45 24/46 25/44 
f 30/50 31/47 32/48 33/49 
f 31/47 34/51 35/52 32/48 
f 36/54 30/50 33/49 37/53 
f 33/58 32/55 18/56 17/57 
f 32/55 35/59 21/60 18/56 
f 37/62 33/58 17/57 23/61 
f 38/66 39/63 40/64 41/65 
f 35/68 34/67 39/63 38/66 
f 41/65 40/64 36/69 37/70 
f 27/74 38/71 41/72 28/73 
f 21/76 35/75 38/71 27/74 
f 28/73 41/72 37/77 23/78 
f 42/82 43/79 44/80 45/81 
f 45/81 44/80 46/83 47/84 
f 47/84 46/83 48/85 49/86 
f 49/86 48/85 50/87 51/88 
f 52/92 43/89 42/90 53/91 
f 54/94 52/92 53/91 55/93 
f 56/96 54/94 55/93 57/95 
f 50/98 56/96 57/95 51/97 
f 58/102 59/99 60/100 61/101 
f 59/99 62/103 63/104 60/100 
f 64/106 58/102 61/101 65/105 
f 63/107 66/108 60/109 
f 60/109 66/108 61/110 
f 61/110 66/108 65/111 
f 67/115 68/112 69/113 70/114 
f 63/117 62/116 68/112 67/115 
f 70/114 69/113 64/118 65/119 
f 63/120 67/121 66/122 
f 67/121 70/123 66/122 
f 70/123 65/124 66/122 
f 71/128 72/125 73/126 74/127 
f 72/125 75/129 76/130 73/126 
f 77/132 71/128 74/127 78/131 
f 76/133 79/134 73/135 
f 73/135 79/134 74/136 
f 74/136 79/134 78/137 
f 80/141 81/138 82/139 83/140 
f 76/143 75/142 81/138 80/141 
f 83/140 82/139 77/144 78/145 
f 76/146 80/147 79/148 
f 80/147 83/149 79/148 
f 83/149 78/150 79/148 
f 84/154 85/151 86/152 87/153 
f 85/151 88/155 89/156 86/152 
f 90/158 84/154 87/153 91/157 
f 87/162 86/159 72/160 71/161 
f 86/159 89/163 75/164 72/160 
f 91/166 87/162 71/161 77/165 
f 92/170 93/167 94/168 95/169 
f 89/172 88/171 93/167 92/170 
f 95/169 94/168 90/173 91/174 
f 81/178 92/175 95/176 82/177 
f 75/180 89/179 92/175 81/178 
f 82/177 95/176 91/181 77/182 
f 96/186 97/183 98/184 99/185 
f 99/185 98/184 100/187 101/188 
f 101/188 100/187 102/189 103/190 
f 103/190 102/189 104/191 105/192 
f 106/196 97/193 96/194 107/195 
f 108/198 106/196 107/195 109/197 
f 110/200 108/198 109/197 111/199 
f 104/202 110/200 111/199 105/201 
f 112/206 113/203 114/204 115/205 
f 113/203 116/207 117/208 114/204 
f 118/210 112/206 115/205 119/209 
f 117/211 120/212 114/213 
f 114/213 120/212 115/214 
f 115/214 120/212 119/215 
f 121/219 122/216 123/217 124/218 
f 117/221 116/220 122/216 121/219 
f 124/218 123/217 118/222 119/223 
f 117/224 121/225 120/226 
f 121/225 124/227 120/226 
f 124/227 119/228 120/226 
f 125/232 126/229 127/230 128/231 
f 126/229 129/233 130/234 127/230 
f 131/236 125/232 128/231 132/235 
f 130/237 133/238 127/239 
f 127/239 133/238 128/240 
f 128/240 133/238 132/241 
f 134/245 135/242 136/243 137/244 
f 130/247 129/246 135/242 134/245 
f 137/244 136/243 131/248 132/249 
f 130/250 134/251 133/252 
f 134/251 137/253 133/252 
f 137/253 132/254 133/252 
f 138/258 139/255 140/256 141/257 
f 139/255 142/259 143/260 140/256 
f 144/262 138/258 141/257 145/261 
f 141/266 140/263 126/264 125/265 
f 140/263 143/267 129/268 126/264 
f 145/270 141/266 125/265 131/269 
f 146/274 147/271 148/272 149/273 
f 143/276 142/275 147/271 146/274 
f 149/273 148/272 144/277 145/278 
f 135/282 146/279 149/280 136/281 
f 129/284 143/283 146/279 135/282 
f 136/281 149/280 145/285 131/286 
f 150/290 151/287 152/288 153/289 
f 153/289 152/288 154/291 155/292 
f 155/292 154/291 156/293 157/294 
f 157/294 156/293 158/295 159/296 
f 160/300 151/297 150/298 161/299 
f 162/302 160/300 161/299 163/301 
f 164/304 162/302 163/301 165/303 
f 158/306 164/304 165/303 159/305 
f 166/310 167/307 168/308 169/309 
f 167/307 170/311 171/312 168/308 
f 172/314 166/310 169/309 173/313 
f 171/315 174/316 168/317 
f 168/317 174/316 169/318 
f 169/318 174/316 173/319 
f 175/323 176/320 177/321 178/322 
f 171/325 170/324 176/320 175/323 
f 178/322 177/321 172/326 173/327 
f 171/328 175/329 174/330 
f 175/329 178/331 174/330 
f 178/331 173/332 174/330 
f 179/336 180/333 181/334 182/335 
f 183/340 184/337 185/338 186/339 
f 187/344 188/341 189/342 190/343 
f 190/348 189/345 180/346 179/347 
f 182/352 181/349 188/350 187/351 
f 184/356 183/353 191/354 192/355 
f 192/360 193/357 185/358 184/359 
f 186/364 185/361 193/362 194/363 
f 183/368 186/365 194/366 191/367 
f 182/335 192/355 191/354 179/336 
f 182/352 187/351 193/357 192/360 
f 187/344 190/343 194/363 193/362 
f 179/347 191/367 194/366 190/348 
f 195/371 196/372 197/369 198/370 
f 198/370 197/369 199/373 200/374 
f 200/374 199/373 201/375 202/376 
f 202/376 201/375 203/377 204/378 
f 205/381 196/382 195/379 206/380 
f 207/384 205/381 206/380 208/383 
f 209/386 207/384 208/383 210/385 
f 203/388 209/386 210/385 204/387 
# 125 polygons - 36 triangles

