# 3ds Max Wavefront OBJ Exporter v0.97b - (c)2007 guruware
# 创建的文件:18.02.2020 13:24:08

mtllib substation_ht_1005_06+.mtl

#
# object substation_ht_1005_06_
#

v  -152.4955 21.3840 1164.5787
v  -152.3982 21.3840 1164.5364
v  -152.3982 22.3613 1164.4209
v  -152.5739 22.3613 1164.4968
v  -152.3009 21.3840 1164.5787
v  -152.2227 22.3613 1164.4968
v  -152.2607 21.3840 1164.6802
v  -152.1498 22.3613 1164.6802
v  -152.3009 21.3840 1164.7816
v  -152.2227 22.3613 1164.8635
v  -152.3982 22.3613 1164.9395
v  -152.3982 21.3840 1164.8240
v  -152.5739 22.3613 1164.8635
v  -152.4955 21.3840 1164.7816
v  -152.5360 21.3840 1164.6802
v  -152.6466 22.3613 1164.6802
v  -155.3497 20.5515 1163.8973
v  -151.7608 20.5514 1163.8973
v  -151.7608 21.7362 1163.8973
v  -155.3497 21.7362 1163.8973
v  -151.7608 21.7362 1165.4857
v  -155.3497 21.7363 1165.4857
v  -155.3497 20.5515 1165.4857
v  -151.7608 20.5514 1165.4857
v  -152.8296 20.7809 1164.2305
v  -152.8003 19.2520 1164.2609
v  -152.3982 19.2520 1164.0864
v  -152.3982 20.7809 1164.0437
v  -151.9962 19.2520 1164.2609
v  -151.9672 20.7809 1164.2305
v  -151.8296 19.2520 1164.6802
v  -151.7885 20.7809 1164.6802
v  -151.9672 20.7809 1165.1301
v  -151.9962 19.2520 1165.0995
v  -152.3982 20.7809 1165.3167
v  -152.3982 19.2520 1165.2739
v  -152.8296 20.7809 1165.1301
v  -152.8003 19.2520 1165.0995
v  -152.9671 19.2520 1164.6802
v  -153.0081 20.7809 1164.6802
v  -157.7317 20.7774 1164.2001
v  -155.1737 20.7774 1164.2001
v  -155.1737 21.5103 1164.2001
v  -157.7317 21.5103 1164.2001
v  -155.1737 21.5103 1165.1827
v  -157.7317 21.5103 1165.1827
v  -155.1737 20.7774 1165.1827
v  -157.7317 20.7774 1165.1827
v  -153.2412 22.3025 1164.4880
v  -151.5909 22.3025 1164.4880
v  -151.5909 24.1684 1164.4880
v  -153.2412 24.1684 1164.4880
v  -151.5909 24.1684 1164.8953
v  -153.2412 24.1684 1164.8953
v  -151.5909 22.3025 1164.8953
v  -153.2412 22.3025 1164.8953
# 56 vertices

vt 0.9539 0.2509 0.0000
vt 0.9591 0.2513 0.0000
vt 0.9580 0.2665 0.0000
vt 0.9523 0.2660 0.0000
vt 0.9644 0.2517 0.0000
vt 0.9636 0.2669 0.0000
vt 0.9697 0.2519 0.0000
vt 0.9693 0.2671 0.0000
vt 0.9750 0.2519 0.0000
vt 0.9750 0.2672 0.0000
vt 0.9802 0.2519 0.0000
vt 0.9806 0.2671 0.0000
vt 0.9855 0.2517 0.0000
vt 0.9863 0.2669 0.0000
vt 0.9908 0.2513 0.0000
vt 0.9919 0.2665 0.0000
vt 0.9960 0.2509 0.0000
vt 0.9976 0.2660 0.0000
vt 0.0000 0.5307 0.0000
vt 0.4473 0.6294 0.0000
vt 0.4473 0.7413 0.0000
vt 0.3355 0.7413 0.0000
vt 0.3355 0.6294 0.0000
vt 0.2237 0.7413 0.0000
vt 0.2237 0.6294 0.0000
vt 0.1118 0.7413 0.0000
vt 0.1118 0.6294 0.0000
vt 0.0000 0.7413 0.0000
vt 0.0000 0.6294 0.0000
vt 0.4473 0.8531 0.0000
vt 0.3355 0.8531 0.0000
vt 0.4473 0.5176 0.0000
vt 0.3355 0.5176 0.0000
vt 0.8341 0.7876 0.0000
vt 0.8341 0.9328 0.0000
vt 0.6700 0.9328 0.0000
vt 0.6700 0.7876 0.0000
vt 0.6341 0.9328 0.0000
vt 0.6341 0.7876 0.0000
vt 0.4700 0.9328 0.0000
vt 0.4700 0.7876 0.0000
vt 0.8700 0.7876 0.0000
vt 0.8700 0.9328 0.0000
vt 0.8341 0.9686 0.0000
vt 0.6700 0.9686 0.0000
vt 0.8341 0.7517 0.0000
vt 0.6700 0.7517 0.0000
vt 0.2767 0.4615 0.0000
vt 0.2767 0.5307 0.0000
vt 0.2075 0.5307 0.0000
vt 0.2075 0.4615 0.0000
vt 0.1384 0.5307 0.0000
vt 0.1384 0.4615 0.0000
vt 0.0692 0.5307 0.0000
vt 0.0692 0.4615 0.0000
vt 0.0000 0.4615 0.0000
vt 0.2767 0.5999 0.0000
vt 0.2075 0.5999 0.0000
vt 0.2767 0.3923 0.0000
vt 0.2075 0.3923 0.0000
# 60 texture coords

g substation_ht_1005_06_
usemtl substationpt_1001_06_phong4
f 4/4 3/3 2/2 1/1 
f 3/3 6/6 5/5 2/2 
f 6/6 8/8 7/7 5/5 
f 10/10 9/9 7/7 8/8 
f 12/11 9/9 10/10 11/12 
f 14/13 12/11 11/12 13/14 
f 16/16 15/15 14/13 13/14 
f 1/17 15/15 16/16 4/18 
usemtl substationpt_1001_06_phong15
f 20/23 19/22 18/21 17/20 
f 22/25 21/24 19/22 20/23 
f 24/26 21/24 22/25 23/27 
f 17/29 18/28 24/26 23/27 
f 24/30 18/21 19/22 21/31 
f 23/32 22/33 20/23 17/20 
usemtl substationpt_1001_06_phong4
f 28/3 27/2 26/1 25/4 
f 28/3 30/6 29/5 27/2 
f 30/6 32/8 31/7 29/5 
f 34/9 31/7 32/8 33/10 
f 36/11 34/9 33/10 35/12 
f 38/13 36/11 35/12 37/14 
f 38/13 37/14 40/16 39/15 
f 26/17 39/15 40/16 25/18 
usemtl substationpt_1001_06_phong15
f 44/51 43/50 42/49 41/48 
f 43/50 44/51 46/53 45/52 
f 45/52 46/53 48/55 47/54 
f 41/56 42/19 47/54 48/55 
f 47/57 42/49 43/50 45/58 
f 41/48 48/59 46/60 44/51 
f 52/37 51/36 50/35 49/34 
f 54/39 53/38 51/36 52/37 
f 56/41 55/40 53/38 54/39 
f 55/43 56/42 49/34 50/35 
f 51/36 53/45 55/44 50/35 
f 52/37 49/34 56/46 54/47 
# 34 polygons

