# 3ds Max Wavefront OBJ Exporter v0.97b - (c)2007 guruware
# 创建的文件:18.02.2020 11:23:42

mtllib substation_ht_1005_02.mtl

#
# object substation_ht_1005_02
#

v  -64.6691 84.8921 968.1665
v  -67.3215 84.9092 970.9184
v  -67.3215 84.9092 886.4335
v  -64.6691 84.8921 889.1854
v  -64.6691 81.6394 889.1854
v  -64.6691 81.6394 968.1665
v  -67.3215 -11.7805 970.9184
v  -67.3215 -11.7805 886.4336
v  17.6218 84.9065 886.4336
v  17.6218 84.8949 889.1854
v  17.6218 84.9065 970.9184
v  17.6218 -11.7805 970.9184
v  17.6218 -11.7805 886.4336
v  17.6218 81.6422 968.1665
v  17.6218 84.8949 968.1665
v  17.6218 81.6422 889.1854
v  99.9128 84.8921 968.1665
v  99.9128 84.8921 889.1854
v  102.5652 84.9092 886.4336
v  102.5652 84.9092 970.9184
v  99.9127 81.6394 968.1665
v  99.9127 81.6394 889.1854
v  102.5652 -11.7805 970.9184
v  102.5652 -11.7805 886.4336
v  74.9253 -10.4658 973.9814
v  86.3488 -10.4658 973.9814
v  86.3488 -10.4658 970.4118
v  74.9253 -10.4658 970.4119
v  86.3488 -2.4217 970.4118
v  86.3488 -2.4217 973.9814
v  74.9253 -2.4217 973.9814
v  74.9253 -2.4217 970.4119
v  74.5622 -11.7573 975.0737
v  86.7119 -11.7573 975.0737
v  86.7119 -11.7573 969.9922
v  74.5622 -11.7573 969.9922
v  86.7119 -10.1991 969.9922
v  86.7119 -10.1991 975.0737
v  74.5622 -10.1991 975.0737
v  74.5622 -10.1991 969.9922
v  37.8436 57.7523 973.9814
v  49.2672 57.7523 973.9814
v  49.2672 57.7523 970.4119
v  37.8436 57.7523 970.4119
v  49.2672 65.7964 970.4119
v  49.2672 65.7964 973.9814
v  37.8436 65.7964 973.9814
v  37.8436 65.7964 970.4119
v  37.4806 56.4608 975.0737
v  49.6303 56.4608 975.0737
v  49.6303 56.4608 969.9922
v  37.4806 56.4608 969.9922
v  49.6303 58.0190 969.9922
v  49.6303 58.0190 975.0737
v  37.4806 58.0190 975.0737
v  37.4806 58.0190 969.9922
v  -13.3215 57.7523 973.9814
v  -1.8979 57.7523 973.9814
v  -1.8979 57.7523 970.4118
v  -13.3215 57.7523 970.4119
v  -1.8979 65.7964 970.4118
v  -1.8979 65.7964 973.9814
v  -13.3215 65.7964 973.9814
v  -13.3215 65.7964 970.4119
v  -13.6845 56.4608 975.0737
v  -1.5349 56.4608 975.0737
v  -1.5349 56.4608 969.9922
v  -13.6845 56.4608 969.9922
v  -1.5349 58.0190 969.9922
v  -1.5349 58.0190 975.0737
v  -13.6845 58.0190 975.0737
v  -13.6845 58.0190 969.9922
v  -8.8039 -10.4658 973.9814
v  2.6196 -10.4658 973.9814
v  2.6196 -10.4658 970.4118
v  -8.8039 -10.4658 970.4119
v  2.6196 -2.4217 970.4118
v  2.6196 -2.4217 973.9814
v  -8.8039 -2.4217 973.9814
v  -8.8039 -2.4217 970.4119
v  -9.1670 -11.7573 975.0737
v  2.9827 -11.7573 975.0737
v  2.9827 -11.7573 969.9922
v  -9.1670 -11.7573 969.9922
v  2.9827 -10.1991 969.9922
v  2.9827 -10.1991 975.0737
v  -9.1670 -10.1991 975.0737
v  -9.1670 -10.1991 969.9922
v  -49.5627 -10.4658 973.9814
v  -38.1391 -10.4658 973.9814
v  -38.1391 -10.4658 970.4118
v  -49.5627 -10.4658 970.4119
v  -38.1391 -2.4217 970.4118
v  -38.1391 -2.4217 973.9814
v  -49.5627 -2.4217 973.9814
v  -49.5627 -2.4217 970.4119
v  -49.9258 -11.7573 975.0737
v  -37.7761 -11.7573 975.0737
v  -37.7761 -11.7573 969.9922
v  -49.9258 -11.7573 969.9922
v  -37.7761 -10.1991 969.9922
v  -37.7761 -10.1991 975.0737
v  -49.9258 -10.1991 975.0737
v  -49.9258 -10.1991 969.9922
v  -67.0950 46.4213 970.4258
v  -67.0950 46.4213 983.4877
v  -67.0950 41.4106 983.4877
v  -67.0950 41.4106 970.4258
v  -67.0950 46.4213 886.9261
v  -67.0950 41.4106 886.9261
v  -67.0950 41.4106 873.8641
v  -67.0950 46.4213 873.8641
v  17.6218 46.4213 983.4877
v  17.6218 41.4106 983.4877
v  17.6218 41.4106 873.8641
v  17.6218 46.4213 873.8642
v  -67.0950 41.6147 970.4258
v  -67.0950 41.6147 983.4877
v  -67.0950 36.6041 983.4877
v  -67.0950 36.6041 970.4258
v  25.2163 -9.7198 970.5812
v  9.9411 -9.7198 970.5812
v  9.9411 -9.7198 971.6849
v  25.2163 -9.7198 971.6849
v  25.2163 11.3502 970.5812
v  25.2163 11.3502 971.6849
v  9.9411 11.3502 971.6849
v  9.9411 11.3502 970.5812
v  26.4924 12.9452 970.0427
v  8.6273 12.9452 970.0427
v  8.6273 12.9452 981.1235
v  26.4924 12.9452 981.1235
v  26.4924 15.6837 970.0427
v  26.4924 15.6837 981.1235
v  8.6273 15.6837 981.1235
v  8.6273 15.6837 970.0427
v  26.4924 -11.7802 970.0428
v  8.6273 -11.7802 970.0428
v  8.6273 -11.7802 975.6013
v  26.4924 -11.7802 975.6013
v  26.4924 -9.7313 970.0428
v  26.4924 -9.7313 975.6012
v  8.6273 -9.7313 975.6012
v  8.6273 -9.7313 970.0428
v  -18.8243 -9.7198 970.5812
v  -34.0996 -9.7198 970.5812
v  -34.0996 -9.7198 971.6849
v  -18.8243 -9.7198 971.6849
v  -18.8243 11.3502 970.5812
v  -18.8243 11.3502 971.6849
v  -34.0996 11.3502 971.6849
v  -34.0996 11.3502 970.5812
v  -17.5486 12.9452 970.0428
v  -35.4134 12.9452 970.0428
v  -35.4134 12.9452 981.1235
v  -17.5486 12.9452 981.1235
v  -17.5486 15.6837 970.0428
v  -17.5486 15.6837 981.1235
v  -35.4134 15.6837 981.1235
v  -35.4134 15.6837 970.0428
v  -17.5486 -11.7802 970.0428
v  -35.4135 -11.7802 970.0428
v  -35.4135 -11.7802 975.6013
v  -17.5486 -11.7802 975.6013
v  -17.5486 -9.7313 970.0428
v  -17.5486 -9.7313 975.6012
v  -35.4134 -9.7313 975.6012
v  -35.4134 -9.7313 970.0428
v  -56.0180 -1.4233 971.2151
v  -51.6210 -1.4233 971.2151
v  -51.6210 -1.4233 970.6450
v  -56.0180 -1.4233 970.6473
v  -56.0180 12.9192 971.2151
v  -56.0180 12.9192 970.6473
v  -51.6210 12.9192 970.6450
v  -51.6210 12.9192 971.2151
v  -40.7601 40.9614 970.5813
v  -56.0355 40.9614 970.5812
v  -56.0355 40.9614 971.6849
v  -40.7601 40.9614 971.6849
v  -40.7601 62.0314 970.5813
v  -40.7601 62.0314 971.6849
v  -56.0355 62.0314 971.6849
v  -56.0355 62.0314 970.5812
v  -39.4845 63.6264 970.0428
v  -57.3494 63.6264 970.0427
v  -57.3494 63.6264 981.1235
v  -39.4845 63.6264 981.1235
v  -39.4845 66.3649 970.0428
v  -39.4845 66.3649 981.1235
v  -57.3494 66.3649 981.1235
v  -57.3494 66.3649 970.0427
v  -20.2440 56.8835 970.0428
v  -34.0372 56.8835 970.0427
v  -34.0372 56.8835 981.1235
v  -20.2440 56.8835 981.1235
v  -20.2440 59.6220 970.0428
v  -20.2440 59.6220 981.1235
v  -34.0372 59.6220 981.1235
v  -34.0372 59.6220 970.0427
v  -30.9226 40.1798 971.2152
v  -24.0191 40.1798 971.2152
v  -24.0191 40.1798 970.6450
v  -30.9226 40.1798 970.6450
v  -30.9226 54.5224 971.2152
v  -30.9226 54.5224 970.6450
v  -24.0191 54.5224 970.6450
v  -24.0191 54.5224 971.2152
v  -67.9087 45.1520 960.2712
v  -67.1211 45.1520 960.2712
v  -67.1210 45.1520 948.4780
v  -67.9087 45.1520 948.4780
v  -67.9087 56.3362 960.2712
v  -67.9087 56.3362 948.4780
v  -67.1210 56.3362 948.4780
v  -67.1211 56.3362 960.2712
v  -60.6706 79.6119 972.8738
v  -59.7030 79.6119 972.3152
v  -59.7030 80.5629 972.1338
v  -60.8203 80.7890 972.5450
v  -60.8203 81.2411 973.3677
v  -60.7735 79.5123 974.1106
v  -59.7030 81.4671 973.7790
v  -59.7030 79.5123 974.7286
v  -58.5859 81.2411 973.3677
v  -58.6327 79.5123 974.1106
v  -58.5859 80.7890 972.5450
v  -58.7356 79.6119 972.8738
v  -60.7735 81.3913 970.7869
v  -59.7030 80.8450 970.7111
v  -59.7030 81.1301 968.7806
v  -60.7735 81.6764 968.7839
v  -60.7735 82.4839 970.9386
v  -60.7735 82.7690 968.7903
v  -59.7030 83.0302 971.0145
v  -59.7030 83.3154 968.7936
v  -58.6327 82.7690 968.7903
v  -58.6327 82.4839 970.9386
v  -58.6327 81.6764 968.7839
v  -58.6327 81.3913 970.7869
v  -60.7735 -11.7820 972.8746
v  -59.7030 -11.7820 972.2565
v  -60.7735 -11.7820 974.1107
v  -59.7030 -11.7820 974.7286
v  -58.6327 -11.7820 974.1107
v  -58.6327 -11.7820 972.8746
v  -61.5388 68.5363 973.8956
v  -61.5388 69.3981 973.3370
v  -62.6067 69.3981 973.1556
v  -62.8604 68.4029 973.5668
v  -63.3680 68.4029 974.3894
v  -61.4271 68.4447 975.1324
v  -63.6217 69.3981 974.8008
v  -61.4271 69.3981 975.7504
v  -63.3680 70.3932 974.3894
v  -61.4271 70.3515 975.1324
v  -62.8604 70.3932 973.5668
v  -61.5388 70.2598 973.8956
v  -63.5367 68.4447 971.8087
v  -62.9233 69.3981 971.7328
v  -63.2434 69.3981 969.8024
v  -63.8567 68.4447 969.8056
v  -64.7634 68.4447 971.9604
v  -65.0834 68.4447 969.8121
v  -65.3767 69.3981 972.0363
v  -65.6968 69.3981 969.8154
v  -65.0834 70.3515 969.8121
v  -64.7634 70.3515 971.9604
v  -63.8567 70.3515 969.8056
v  -63.5367 70.3515 971.8087
v  -67.0950 41.6147 873.8642
v  17.6218 41.6147 873.8642
v  17.6218 41.6147 886.9261
v  -67.0950 41.6147 886.9261
v  -67.0950 36.6041 886.9261
v  -67.0950 36.6041 873.8642
v  25.2714 -9.7198 886.7706
v  25.2714 -9.7198 885.6669
v  9.9962 -9.7198 885.6669
v  9.9962 -9.7198 886.7706
v  25.2714 11.3502 886.7706
v  9.9962 11.3502 886.7706
v  9.9962 11.3502 885.6669
v  25.2714 11.3502 885.6669
v  26.5475 12.9452 887.3091
v  26.5475 12.9452 876.2283
v  8.6824 12.9452 876.2283
v  8.6824 12.9452 887.3091
v  26.5475 15.6837 887.3091
v  8.6824 15.6837 887.3091
v  8.6824 15.6837 876.2283
v  26.5475 15.6837 876.2283
v  26.5475 -11.7802 887.3091
v  26.5475 -11.7802 881.7507
v  8.6824 -11.7802 881.7507
v  8.6824 -11.7802 887.3091
v  26.5475 -9.7313 887.3091
v  8.6824 -9.7313 887.3091
v  8.6824 -9.7313 881.7507
v  26.5475 -9.7313 881.7507
v  -18.8243 -9.7198 886.7706
v  -18.8243 -9.7198 885.6669
v  -34.0996 -9.7198 885.6669
v  -34.0996 -9.7198 886.7706
v  -18.8243 11.3502 886.7706
v  -34.0996 11.3502 886.7706
v  -34.0996 11.3502 885.6669
v  -18.8243 11.3502 885.6669
v  -17.5486 12.9452 887.3091
v  -17.5486 12.9452 876.2284
v  -35.4134 12.9452 876.2284
v  -35.4134 12.9452 887.3091
v  -17.5486 15.6837 887.3091
v  -35.4134 15.6837 887.3091
v  -35.4134 15.6837 876.2284
v  -17.5486 15.6837 876.2284
v  -17.5486 -11.7802 887.3091
v  -17.5486 -11.7802 881.7507
v  -35.4135 -11.7802 881.7507
v  -35.4135 -11.7802 887.3091
v  -17.5486 -9.7313 887.3091
v  -35.4134 -9.7313 887.3091
v  -35.4134 -9.7313 881.7507
v  -17.5486 -9.7313 881.7507
v  -56.0180 -1.4233 886.1367
v  -56.0180 -1.4233 886.7046
v  -51.6210 -1.4233 886.7070
v  -51.6210 -1.4233 886.1367
v  -56.0180 12.9192 886.1367
v  -51.6210 12.9192 886.1367
v  -51.6210 12.9192 886.7070
v  -56.0180 12.9192 886.7046
v  -40.7601 40.9614 886.7706
v  -40.7601 40.9614 885.6669
v  -56.0355 40.9614 885.6669
v  -56.0355 40.9614 886.7706
v  -40.7601 62.0314 886.7706
v  -56.0355 62.0314 886.7706
v  -56.0355 62.0314 885.6669
v  -40.7601 62.0314 885.6669
v  -39.4845 63.6264 887.3091
v  -39.4845 63.6264 876.2283
v  -57.3495 63.6264 876.2285
v  -57.3495 63.6264 887.3091
v  -39.4845 66.3649 887.3091
v  -57.3495 66.3649 887.3091
v  -57.3495 66.3649 876.2285
v  -39.4845 66.3649 876.2283
v  -20.2440 56.8835 887.3091
v  -20.2440 56.8835 876.2283
v  -34.0372 56.8835 876.2285
v  -34.0372 56.8835 887.3091
v  -20.2440 59.6220 887.3091
v  -34.0372 59.6220 887.3091
v  -34.0372 59.6220 876.2285
v  -20.2440 59.6220 876.2283
v  -30.9226 40.1798 886.1367
v  -30.9226 40.1798 886.7070
v  -24.0191 40.1798 886.7070
v  -24.0191 40.1798 886.1367
v  -30.9226 54.5224 886.1367
v  -24.0191 54.5224 886.1367
v  -24.0191 54.5224 886.7070
v  -30.9226 54.5224 886.7070
v  -67.9087 45.1520 897.0806
v  -67.9087 45.1520 908.8738
v  -67.1211 45.1520 908.8738
v  -67.1211 45.1520 897.0806
v  -67.9087 56.3362 897.0806
v  -67.1211 56.3362 897.0806
v  -67.1211 56.3362 908.8738
v  -67.9087 56.3362 908.8738
v  -60.6706 79.6119 884.4781
v  -60.8203 80.7890 884.8069
v  -59.7030 80.5629 885.2181
v  -59.7030 79.6119 885.0366
v  -60.7735 79.5123 883.2413
v  -60.8203 81.2411 883.9842
v  -59.7030 79.5123 882.6233
v  -59.7030 81.4671 883.5729
v  -58.6327 79.5123 883.2413
v  -58.5859 81.2411 883.9842
v  -58.7356 79.6119 884.4781
v  -58.5859 80.7890 884.8068
v  -60.7735 81.3913 886.5649
v  -60.7735 81.6764 888.5680
v  -59.7030 81.1301 888.5712
v  -59.7030 80.8450 886.6407
v  -60.7735 82.4839 886.4133
v  -60.7735 82.7690 888.5616
v  -59.7030 83.0302 886.3374
v  -59.7030 83.3154 888.5583
v  -58.6327 82.4839 886.4133
v  -58.6327 82.7690 888.5615
v  -58.6327 81.3913 886.5649
v  -58.6327 81.6764 888.5680
v  -60.7735 -11.7820 884.4774
v  -59.7030 -11.7820 885.0954
v  -60.7735 -11.7820 883.2413
v  -59.7030 -11.7820 882.6234
v  -58.6327 -11.7820 883.2413
v  -58.6327 -11.7820 884.4774
v  -61.5388 68.5363 883.4563
v  -62.8604 68.4029 883.7851
v  -62.6066 69.3981 884.1964
v  -61.5388 69.3981 884.0149
v  -61.4271 68.4447 882.2195
v  -63.3680 68.4029 882.9625
v  -61.4271 69.3981 881.6016
v  -63.6217 69.3981 882.5511
v  -61.4271 70.3515 882.2195
v  -63.3680 70.3932 882.9625
v  -61.5388 70.2598 883.4563
v  -62.8604 70.3932 883.7851
v  -63.5367 68.4447 885.5432
v  -63.8567 68.4447 887.5463
v  -63.2434 69.3981 887.5495
v  -62.9233 69.3981 885.6190
v  -64.7634 68.4447 885.3915
v  -65.0834 68.4447 887.5397
v  -65.3767 69.3981 885.3157
v  -65.6968 69.3981 887.5366
v  -64.7634 70.3515 885.3915
v  -65.0834 70.3515 887.5397
v  -63.5367 70.3515 885.5432
v  -63.8567 70.3515 887.5463
v  17.6218 36.6041 983.4877
v  17.6218 36.6041 970.4258
v  17.6218 41.6147 983.4877
v  17.6218 81.6422 942.9929
v  -64.6690 81.6395 968.1665
v  -64.6690 81.6395 942.9929
v  17.6218 36.6041 886.9261
v  17.6218 36.6041 873.8642
v  -64.6691 81.6395 889.1854
v  17.6218 41.6147 970.4258
v  17.6218 69.3981 973.3209
v  17.6218 68.5112 973.8958
v  17.6218 68.4446 975.1324
v  17.6218 69.3981 975.7504
v  17.6218 70.3515 975.1324
v  17.6218 70.2850 973.8958
v  17.6218 68.5112 883.4561
v  17.6218 69.3981 884.0310
v  17.6218 68.4446 882.2195
v  17.6218 69.3981 881.6016
v  17.6218 70.3515 882.2195
v  17.6218 70.2850 883.4561
v  102.3387 46.4213 970.4258
v  102.3387 41.4106 970.4258
v  102.3387 41.4106 983.4877
v  102.3387 46.4213 983.4877
v  102.3387 46.4213 886.9261
v  102.3387 46.4213 873.8641
v  102.3387 41.4106 873.8641
v  102.3387 41.4106 886.9261
v  102.3387 41.6147 970.4258
v  102.3387 36.6041 970.4257
v  102.3387 36.6041 983.4877
v  102.3387 41.6147 983.4877
v  54.0680 -9.7198 970.5812
v  54.0680 -9.7198 971.6849
v  69.3433 -9.7198 971.6849
v  69.3433 -9.7198 970.5812
v  54.0680 11.3502 970.5812
v  69.3433 11.3502 970.5812
v  69.3433 11.3502 971.6849
v  54.0680 11.3502 971.6849
v  52.7923 12.9452 970.0428
v  52.7923 12.9452 981.1235
v  70.6571 12.9452 981.1235
v  70.6571 12.9452 970.0428
v  52.7923 15.6837 970.0428
v  70.6571 15.6837 970.0428
v  70.6571 15.6837 981.1235
v  52.7923 15.6837 981.1235
v  52.7923 -11.7801 970.0428
v  52.7923 -11.7801 975.6013
v  70.6571 -11.7801 975.6013
v  70.6571 -11.7801 970.0428
v  52.7923 -9.7313 970.0428
v  70.6571 -9.7313 970.0428
v  70.6571 -9.7313 975.6012
v  52.7923 -9.7313 975.6012
v  91.2617 -1.4233 971.2151
v  91.2617 -1.4233 970.6473
v  86.8647 -1.4233 970.6450
v  86.8647 -1.4233 971.2151
v  91.2617 12.9192 971.2151
v  86.8647 12.9192 971.2151
v  86.8647 12.9192 970.6450
v  91.2617 12.9192 970.6473
v  76.0038 40.9614 970.5813
v  76.0038 40.9614 971.6849
v  91.2791 40.9614 971.6849
v  91.2791 40.9614 970.5812
v  76.0038 62.0314 970.5813
v  91.2791 62.0314 970.5812
v  91.2791 62.0314 971.6849
v  76.0038 62.0314 971.6849
v  74.7281 63.6264 970.0428
v  74.7281 63.6264 981.1235
v  92.5931 63.6264 981.1235
v  92.5931 63.6264 970.0427
v  74.7281 66.3649 970.0428
v  92.5931 66.3649 970.0427
v  92.5931 66.3649 981.1235
v  74.7281 66.3649 981.1235
v  55.4877 56.8835 970.0428
v  55.4877 56.8835 981.1235
v  69.2809 56.8835 981.1235
v  69.2809 56.8835 970.0427
v  55.4877 59.6220 970.0428
v  69.2809 59.6220 970.0427
v  69.2809 59.6220 981.1235
v  55.4877 59.6220 981.1235
v  66.1663 40.1798 971.2152
v  66.1663 40.1798 970.6450
v  59.2628 40.1798 970.6450
v  59.2628 40.1798 971.2152
v  66.1663 54.5224 971.2152
v  59.2628 54.5224 971.2152
v  59.2628 54.5224 970.6450
v  66.1663 54.5224 970.6450
v  103.1524 45.1520 960.2712
v  103.1524 45.1520 948.4780
v  102.3647 45.1520 948.4780
v  102.3647 45.1520 960.2712
v  103.1524 56.3362 960.2712
v  102.3647 56.3362 960.2712
v  102.3647 56.3362 948.4780
v  103.1524 56.3362 948.4780
v  95.9143 79.6119 972.8738
v  96.0640 80.7890 972.5450
v  94.9467 80.5629 972.1338
v  94.9467 79.6119 972.3152
v  96.0172 79.5123 974.1106
v  96.0640 81.2411 973.3677
v  94.9467 79.5123 974.7286
v  94.9467 81.4671 973.7790
v  93.8763 79.5123 974.1106
v  93.8296 81.2411 973.3677
v  93.9793 79.6119 972.8738
v  93.8296 80.7890 972.5450
v  96.0172 81.3913 970.7869
v  96.0172 81.6764 968.7839
v  94.9467 81.1301 968.7806
v  94.9467 80.8450 970.7111
v  96.0172 82.4839 970.9386
v  96.0172 82.7690 968.7903
v  94.9467 83.0302 971.0145
v  94.9467 83.3154 968.7936
v  93.8763 82.4839 970.9386
v  93.8763 82.7690 968.7903
v  93.8763 81.3913 970.7869
v  93.8763 81.6764 968.7839
v  96.0172 -11.7820 972.8746
v  94.9467 -11.7820 972.2565
v  96.0172 -11.7820 974.1106
v  94.9467 -11.7820 974.7286
v  93.8763 -11.7820 974.1106
v  93.8763 -11.7820 972.8746
v  96.7825 68.5363 973.8955
v  98.1041 68.4029 973.5668
v  97.8503 69.3981 973.1556
v  96.7825 69.3981 973.3370
v  96.6708 68.4447 975.1324
v  98.6117 68.4029 974.3894
v  96.6708 69.3981 975.7503
v  98.8654 69.3981 974.8008
v  96.6708 70.3515 975.1324
v  98.6117 70.3932 974.3894
v  96.7825 70.2598 973.8956
v  98.1041 70.3932 973.5668
v  98.7803 68.4447 971.8087
v  99.1004 68.4447 969.8056
v  98.4870 69.3981 969.8024
v  98.1670 69.3981 971.7328
v  100.0071 68.4447 971.9604
v  100.3271 68.4447 969.8121
v  100.6204 69.3981 972.0363
v  100.9405 69.3981 969.8154
v  100.0071 70.3515 971.9604
v  100.3271 70.3515 969.8121
v  98.7803 70.3515 971.8087
v  99.1004 70.3515 969.8056
v  102.3387 41.6147 873.8642
v  102.3387 41.6147 886.9261
v  102.3387 36.6041 873.8642
v  102.3387 36.6041 886.9261
v  54.0680 -9.7198 886.7706
v  69.3433 -9.7198 886.7706
v  69.3433 -9.7198 885.6669
v  54.0680 -9.7198 885.6669
v  54.0680 11.3502 886.7706
v  54.0680 11.3502 885.6669
v  69.3433 11.3502 885.6669
v  69.3433 11.3502 886.7706
v  52.7923 12.9452 887.3091
v  70.6571 12.9452 887.3091
v  70.6571 12.9452 876.2284
v  52.7923 12.9452 876.2284
v  52.7923 15.6837 887.3091
v  52.7923 15.6837 876.2284
v  70.6571 15.6837 876.2284
v  70.6571 15.6837 887.3091
v  52.7923 -11.7802 887.3091
v  70.6571 -11.7802 887.3091
v  70.6571 -11.7802 881.7507
v  52.7923 -11.7802 881.7507
v  52.7923 -9.7313 887.3091
v  52.7923 -9.7313 881.7507
v  70.6571 -9.7313 881.7507
v  70.6571 -9.7313 887.3091
v  91.2617 -1.4233 886.1367
v  86.8647 -1.4233 886.1367
v  86.8647 -1.4233 886.7070
v  91.2617 -1.4233 886.7046
v  91.2617 12.9192 886.1367
v  91.2617 12.9192 886.7046
v  86.8647 12.9192 886.7070
v  86.8647 12.9192 886.1367
v  76.0038 40.9614 886.7706
v  91.2791 40.9614 886.7706
v  91.2791 40.9614 885.6669
v  76.0038 40.9614 885.6669
v  76.0038 62.0314 886.7706
v  76.0038 62.0314 885.6669
v  91.2791 62.0314 885.6669
v  91.2791 62.0314 886.7706
v  74.7281 63.6264 887.3091
v  92.5931 63.6264 887.3091
v  92.5931 63.6264 876.2285
v  74.7281 63.6264 876.2283
v  74.7281 66.3649 887.3091
v  74.7281 66.3649 876.2283
v  92.5931 66.3649 876.2285
v  92.5931 66.3649 887.3091
v  55.4876 56.8835 887.3091
v  69.2809 56.8835 887.3091
v  69.2809 56.8835 876.2285
v  55.4876 56.8835 876.2283
v  55.4876 59.6220 887.3091
v  55.4876 59.6220 876.2283
v  69.2809 59.6220 876.2285
v  69.2809 59.6220 887.3091
v  66.1663 40.1798 886.1367
v  59.2628 40.1798 886.1367
v  59.2628 40.1798 886.7070
v  66.1663 40.1798 886.7070
v  66.1663 54.5224 886.1367
v  66.1663 54.5224 886.7070
v  59.2628 54.5224 886.7070
v  59.2628 54.5224 886.1367
v  103.1524 45.1520 897.0806
v  102.3647 45.1520 897.0806
v  102.3647 45.1520 908.8739
v  103.1524 45.1520 908.8739
v  103.1524 56.3362 897.0806
v  103.1524 56.3362 908.8739
v  102.3647 56.3362 908.8739
v  102.3647 56.3362 897.0806
v  95.9143 79.6119 884.4781
v  94.9466 79.6119 885.0366
v  94.9466 80.5629 885.2181
v  96.0640 80.7890 884.8069
v  96.0640 81.2411 883.9842
v  96.0171 79.5123 883.2413
v  94.9466 81.4671 883.5729
v  94.9466 79.5123 882.6233
v  93.8296 81.2411 883.9842
v  93.8764 79.5123 883.2413
v  93.8296 80.7890 884.8069
v  93.9793 79.6119 884.4781
v  96.0171 81.3913 886.5649
v  94.9466 80.8450 886.6407
v  94.9466 81.1301 888.5712
v  96.0171 81.6764 888.5680
v  96.0171 82.4839 886.4133
v  96.0171 82.7690 888.5616
v  94.9466 83.0302 886.3374
v  94.9466 83.3154 888.5583
v  93.8764 82.7690 888.5616
v  93.8764 82.4839 886.4133
v  93.8764 81.6764 888.5680
v  93.8764 81.3913 886.5649
v  96.0171 -11.7820 884.4774
v  94.9466 -11.7820 885.0954
v  96.0171 -11.7820 883.2413
v  94.9466 -11.7820 882.6234
v  93.8764 -11.7820 883.2413
v  93.8764 -11.7820 884.4774
v  96.7825 68.5363 883.4563
v  96.7825 69.3981 884.0149
v  97.8503 69.3981 884.1964
v  98.1041 68.4029 883.7851
v  98.6116 68.4029 882.9625
v  96.6708 68.4447 882.2195
v  98.8654 69.3981 882.5511
v  96.6708 69.3981 881.6016
v  98.6116 70.3932 882.9625
v  96.6708 70.3515 882.2195
v  98.1041 70.3932 883.7851
v  96.7825 70.2598 883.4563
v  98.7804 68.4447 885.5432
v  98.1670 69.3981 885.6190
v  98.4870 69.3981 887.5495
v  99.1004 68.4447 887.5463
v  100.0070 68.4447 885.3915
v  100.3271 68.4447 887.5397
v  100.6204 69.3981 885.3156
v  100.9405 69.3981 887.5366
v  100.3271 70.3515 887.5397
v  100.0070 70.3515 885.3915
v  99.1004 70.3515 887.5463
v  98.7804 70.3515 885.5432
v  99.9127 81.6395 942.9929
v  99.9128 81.6395 968.1665
v  99.9127 81.6395 889.1854
# 719 vertices

vt 0.0000 0.0088 0.0000
vt 0.2583 1.0000 0.0000
vt 1.0000 1.0000 0.0000
vt 0.3314 1.0000 0.0000
vt 0.5000 1.0000 0.0000
vt 0.5001 1.0000 0.0000
vt 0.5001 1.0000 0.0000
vt 0.0000 0.0088 0.0000
vt 1.0000 1.0000 0.0000
vt 0.2583 0.0088 0.0000
vt 0.2583 1.0000 0.0000
vt 1.0000 1.0000 0.0000
vt 0.0000 1.0000 0.0000
vt 1.0000 1.0000 0.0000
vt 0.0000 1.0000 0.0000
vt -0.5937 1.0000 0.0000
vt -0.5937 1.0000 0.0000
vt 0.0000 1.0000 0.0000
vt 1.0000 1.0000 0.0000
vt 0.5000 1.0000 0.0000
vt 0.0000 1.0000 0.0000
vt 1.0000 0.0088 0.0000
vt -0.5937 1.0000 0.0000
vt -0.5937 1.0000 0.0000
vt 0.6168 1.0000 0.0000
vt -0.2105 1.0000 0.0000
vt 0.3860 1.0000 0.0000
vt 0.9176 1.0000 0.0000
vt 0.6168 1.0000 0.0000
vt -0.2105 1.0000 0.0000
vt 0.3860 1.0000 0.0000
vt 0.9176 1.0000 0.0000
vt -0.2105 1.0000 0.0000
vt 0.9176 0.0088 0.0000
vt 0.9176 0.0088 0.0000
vt -0.2105 1.0000 0.0000
vt 0.2583 1.0000 0.0000
vt 1.0000 1.0000 0.0000
vt 1.0000 1.0000 0.0000
vt 0.3314 1.0000 0.0000
vt 0.5000 1.0000 0.0000
vt 0.5000 1.0000 0.0000
vt 0.5001 1.0000 0.0000
vt 0.5001 1.0000 0.0000
vt 1.0000 1.0000 0.0000
vt 1.0000 0.0088 0.0000
vt 0.2583 0.0088 0.0000
vt 0.2583 1.0000 0.0000
vt 1.0000 1.0000 0.0000
vt 0.6168 1.0000 0.0000
vt 0.3860 1.0000 0.0000
vt 0.0000 1.0000 0.0000
vt 0.0000 0.0088 0.0000
vt 0.9176 0.0088 0.0000
vt 0.0000 0.0088 0.0000
vt 0.0000 1.0000 0.0000
vt 0.9176 1.0000 0.0000
vt -0.5937 1.0000 0.0000
vt -0.2105 1.0000 0.0000
vt -0.2105 1.0000 0.0000
vt -0.5937 1.0000 0.0000
vt 0.6168 1.0000 0.0000
vt 1.0000 1.0000 0.0000
vt 0.0000 1.0000 0.0000
vt 0.3860 1.0000 0.0000
vt -0.2105 1.0000 0.0000
vt -0.5937 1.0000 0.0000
vt -0.5937 1.0000 0.0000
vt -0.2105 1.0000 0.0000
vt 0.9176 0.0088 0.0000
vt 0.9176 1.0000 0.0000
vt 0.0000 1.0000 0.0000
vt 0.1864 0.4552 0.0000
vt 0.1864 0.5795 0.0000
vt 0.1908 0.5795 0.0000
vt 0.1908 0.4552 0.0000
vt 0.0383 0.5853 0.0000
vt 0.0383 0.5896 0.0000
vt 0.1666 0.5896 0.0000
vt 0.1666 0.5853 0.0000
vt 0.1864 0.5795 0.0000
vt 0.1908 0.5795 0.0000
vt 0.1908 0.4552 0.0000
vt 0.1864 0.4552 0.0000
vt 0.0114 0.5795 0.0000
vt 0.1772 0.5795 0.0000
vt 0.1772 0.4552 0.0000
vt 0.0114 0.4552 0.0000
vt 0.1930 0.6485 0.0000
vt 0.1930 0.6695 0.0000
vt 0.1973 0.6695 0.0000
vt 0.1973 0.6485 0.0000
vt 0.1264 0.6284 0.0000
vt 0.1264 0.6328 0.0000
vt 0.1901 0.6328 0.0000
vt 0.1901 0.6284 0.0000
vt 0.1930 0.6695 0.0000
vt 0.1973 0.6695 0.0000
vt 0.1973 0.6485 0.0000
vt 0.1930 0.6485 0.0000
vt 0.1533 0.7193 0.0000
vt 0.1666 0.7193 0.0000
vt 0.1666 0.7094 0.0000
vt 0.1533 0.7094 0.0000
vt 0.1864 0.4552 0.0000
vt 0.1864 0.5795 0.0000
vt 0.1908 0.5795 0.0000
vt 0.1908 0.4552 0.0000
vt 0.0383 0.5853 0.0000
vt 0.0383 0.5896 0.0000
vt 0.1666 0.5896 0.0000
vt 0.1666 0.5853 0.0000
vt 0.1864 0.5795 0.0000
vt 0.1908 0.5795 0.0000
vt 0.1908 0.4552 0.0000
vt 0.1864 0.4552 0.0000
vt 0.0114 0.5795 0.0000
vt 0.1772 0.5795 0.0000
vt 0.1772 0.4552 0.0000
vt 0.0114 0.4552 0.0000
vt 0.1930 0.6485 0.0000
vt 0.1930 0.6695 0.0000
vt 0.1973 0.6695 0.0000
vt 0.1973 0.6485 0.0000
vt 0.1264 0.6284 0.0000
vt 0.1264 0.6328 0.0000
vt 0.1901 0.6328 0.0000
vt 0.1901 0.6284 0.0000
vt 0.1930 0.6695 0.0000
vt 0.1973 0.6695 0.0000
vt 0.1973 0.6485 0.0000
vt 0.1930 0.6485 0.0000
vt 0.1533 0.7193 0.0000
vt 0.1666 0.7193 0.0000
vt 0.1666 0.7094 0.0000
vt 0.1533 0.7094 0.0000
vt 0.1864 0.4552 0.0000
vt 0.1864 0.5795 0.0000
vt 0.1908 0.5795 0.0000
vt 0.1908 0.4552 0.0000
vt 0.0383 0.5853 0.0000
vt 0.0383 0.5896 0.0000
vt 0.1666 0.5896 0.0000
vt 0.1666 0.5853 0.0000
vt 0.1864 0.5795 0.0000
vt 0.1908 0.5795 0.0000
vt 0.1908 0.4552 0.0000
vt 0.1864 0.4552 0.0000
vt 0.0114 0.5795 0.0000
vt 0.1772 0.5795 0.0000
vt 0.1772 0.4552 0.0000
vt 0.0114 0.4552 0.0000
vt 0.1930 0.6485 0.0000
vt 0.1930 0.6695 0.0000
vt 0.1973 0.6695 0.0000
vt 0.1973 0.6485 0.0000
vt 0.1264 0.6284 0.0000
vt 0.1264 0.6328 0.0000
vt 0.1901 0.6328 0.0000
vt 0.1901 0.6284 0.0000
vt 0.1930 0.6695 0.0000
vt 0.1973 0.6695 0.0000
vt 0.1973 0.6485 0.0000
vt 0.1930 0.6485 0.0000
vt 0.1533 0.7193 0.0000
vt 0.1666 0.7193 0.0000
vt 0.1666 0.7094 0.0000
vt 0.1533 0.7094 0.0000
vt 0.1864 0.4552 0.0000
vt 0.1864 0.5795 0.0000
vt 0.1908 0.5795 0.0000
vt 0.1908 0.4552 0.0000
vt 0.0383 0.5853 0.0000
vt 0.0383 0.5896 0.0000
vt 0.1666 0.5896 0.0000
vt 0.1666 0.5853 0.0000
vt 0.1864 0.5795 0.0000
vt 0.1908 0.5795 0.0000
vt 0.1908 0.4552 0.0000
vt 0.1864 0.4552 0.0000
vt 0.0114 0.5795 0.0000
vt 0.1772 0.5795 0.0000
vt 0.1772 0.4552 0.0000
vt 0.0114 0.4552 0.0000
vt 0.1930 0.6485 0.0000
vt 0.1930 0.6695 0.0000
vt 0.1973 0.6695 0.0000
vt 0.1973 0.6485 0.0000
vt 0.1264 0.6284 0.0000
vt 0.1264 0.6328 0.0000
vt 0.1901 0.6328 0.0000
vt 0.1901 0.6284 0.0000
vt 0.1930 0.6695 0.0000
vt 0.1973 0.6695 0.0000
vt 0.1973 0.6485 0.0000
vt 0.1930 0.6485 0.0000
vt 0.1533 0.7193 0.0000
vt 0.1666 0.7193 0.0000
vt 0.1666 0.7094 0.0000
vt 0.1533 0.7094 0.0000
vt 0.1864 0.4552 0.0000
vt 0.1864 0.5795 0.0000
vt 0.1908 0.5795 0.0000
vt 0.1908 0.4552 0.0000
vt 0.0383 0.5853 0.0000
vt 0.0383 0.5896 0.0000
vt 0.1666 0.5896 0.0000
vt 0.1666 0.5853 0.0000
vt 0.1864 0.5795 0.0000
vt 0.1908 0.5795 0.0000
vt 0.1908 0.4552 0.0000
vt 0.1864 0.4552 0.0000
vt 0.0114 0.5795 0.0000
vt 0.1772 0.5795 0.0000
vt 0.1772 0.4552 0.0000
vt 0.0114 0.4552 0.0000
vt 0.1930 0.6485 0.0000
vt 0.1930 0.6695 0.0000
vt 0.1973 0.6695 0.0000
vt 0.1973 0.6485 0.0000
vt 0.1264 0.6284 0.0000
vt 0.1264 0.6328 0.0000
vt 0.1901 0.6328 0.0000
vt 0.1901 0.6284 0.0000
vt 0.1930 0.6695 0.0000
vt 0.1973 0.6695 0.0000
vt 0.1973 0.6485 0.0000
vt 0.1930 0.6485 0.0000
vt 0.1533 0.7193 0.0000
vt 0.1666 0.7193 0.0000
vt 0.1666 0.7094 0.0000
vt 0.1533 0.7094 0.0000
vt -0.5591 0.8462 0.0000
vt -0.5591 0.7646 0.0000
vt -0.5591 0.8462 0.0000
vt -0.5591 0.7646 0.0000
vt 0.2817 0.8462 0.0000
vt 0.1231 0.8462 0.0000
vt 0.1231 0.7647 0.0000
vt 0.2817 0.7647 0.0000
vt 0.2817 0.7647 0.0000
vt 0.2817 0.8462 0.0000
vt 0.1231 0.8462 0.0000
vt 0.1231 0.7647 0.0000
vt 0.2838 0.6283 0.0000
vt 0.2881 0.6283 0.0000
vt 0.2845 0.6934 0.0000
vt 0.2888 0.6934 0.0000
vt 0.2386 0.6574 0.0000
vt 0.2343 0.6574 0.0000
vt 0.2343 0.6745 0.0000
vt 0.2386 0.6745 0.0000
vt 0.2395 0.6442 0.0000
vt 0.2395 0.6344 0.0000
vt 0.4758 0.4339 0.0000
vt 0.4758 0.0024 0.0000
vt 0.4801 0.0024 0.0000
vt 0.4801 0.4339 0.0000
vt 0.4801 0.4339 0.0000
vt 0.4758 0.4339 0.0000
vt 0.4758 0.0024 0.0000
vt 0.4801 0.0024 0.0000
vt 0.6344 0.4339 0.0000
vt 0.3217 0.4339 0.0000
vt 0.3217 0.0024 0.0000
vt 0.6344 0.0024 0.0000
vt 0.2838 0.6372 0.0000
vt 0.2838 0.6283 0.0000
vt 0.2881 0.6283 0.0000
vt 0.2881 0.6372 0.0000
vt 0.2888 0.7039 0.0000
vt 0.2845 0.7039 0.0000
vt 0.2845 0.6934 0.0000
vt 0.2888 0.6934 0.0000
vt 0.2386 0.6574 0.0000
vt 0.2343 0.6574 0.0000
vt 0.2343 0.6745 0.0000
vt 0.2386 0.6745 0.0000
vt 0.3193 0.6442 0.0000
vt 0.2395 0.6442 0.0000
vt 0.2395 0.6344 0.0000
vt 0.3193 0.6344 0.0000
vt 0.2838 0.6372 0.0000
vt 0.2838 0.6283 0.0000
vt 0.2881 0.6283 0.0000
vt 0.2881 0.6372 0.0000
vt 0.2888 0.7039 0.0000
vt 0.2845 0.7039 0.0000
vt 0.2845 0.6934 0.0000
vt 0.2888 0.6934 0.0000
vt 0.2386 0.6574 0.0000
vt 0.2343 0.6574 0.0000
vt 0.2343 0.6745 0.0000
vt 0.2386 0.6745 0.0000
vt 0.3193 0.6442 0.0000
vt 0.2395 0.6442 0.0000
vt 0.2395 0.6344 0.0000
vt 0.3193 0.6344 0.0000
vt 0.4758 0.4339 0.0000
vt 0.4758 0.0024 0.0000
vt 0.4801 0.0024 0.0000
vt 0.4801 0.4339 0.0000
vt 0.4801 0.4339 0.0000
vt 0.4758 0.4339 0.0000
vt 0.4758 0.0024 0.0000
vt 0.4801 0.0024 0.0000
vt 0.6344 0.4339 0.0000
vt 0.3217 0.4339 0.0000
vt 0.3217 0.0024 0.0000
vt 0.6344 0.0024 0.0000
vt 0.2838 0.6372 0.0000
vt 0.2838 0.6283 0.0000
vt 0.2881 0.6283 0.0000
vt 0.2881 0.6372 0.0000
vt 0.2888 0.7039 0.0000
vt 0.2845 0.7039 0.0000
vt 0.2845 0.6934 0.0000
vt 0.2888 0.6934 0.0000
vt 0.2386 0.6574 0.0000
vt 0.2343 0.6574 0.0000
vt 0.2343 0.6745 0.0000
vt 0.2386 0.6745 0.0000
vt 0.3193 0.6442 0.0000
vt 0.2395 0.6442 0.0000
vt 0.2395 0.6344 0.0000
vt 0.3193 0.6344 0.0000
vt 0.2838 0.6372 0.0000
vt 0.2838 0.6283 0.0000
vt 0.2881 0.6283 0.0000
vt 0.2881 0.6372 0.0000
vt 0.2888 0.7039 0.0000
vt 0.2845 0.7039 0.0000
vt 0.2845 0.6934 0.0000
vt 0.2888 0.6934 0.0000
vt 0.2386 0.6574 0.0000
vt 0.2343 0.6574 0.0000
vt 0.2343 0.6745 0.0000
vt 0.2386 0.6745 0.0000
vt 0.3193 0.6442 0.0000
vt 0.2395 0.6442 0.0000
vt 0.2395 0.6344 0.0000
vt 0.3193 0.6344 0.0000
vt 0.1096 0.7368 0.0000
vt 0.1096 0.8652 0.0000
vt 0.1053 0.8652 0.0000
vt 0.1053 0.7368 0.0000
vt 0.1053 0.7368 0.0000
vt 0.1096 0.7368 0.0000
vt 0.1096 0.8652 0.0000
vt 0.1053 0.8652 0.0000
vt 0.0003 0.6303 0.0000
vt 0.1105 0.6303 0.0000
vt 0.1105 0.8652 0.0000
vt 0.0003 0.8652 0.0000
vt 0.1105 0.6303 0.0000
vt 0.1105 0.8652 0.0000
vt 0.4758 0.4339 0.0000
vt 0.4758 0.0024 0.0000
vt 0.4801 0.0024 0.0000
vt 0.4801 0.4339 0.0000
vt 0.4801 0.4339 0.0000
vt 0.4758 0.4339 0.0000
vt 0.4758 0.0024 0.0000
vt 0.4801 0.0024 0.0000
vt 0.6344 0.4339 0.0000
vt 0.3217 0.4339 0.0000
vt 0.3217 0.0024 0.0000
vt 0.6344 0.0024 0.0000
vt 0.2838 0.6372 0.0000
vt 0.2838 0.6283 0.0000
vt 0.2881 0.6283 0.0000
vt 0.2881 0.6372 0.0000
vt 0.2888 0.7039 0.0000
vt 0.2845 0.7039 0.0000
vt 0.2845 0.6934 0.0000
vt 0.2888 0.6934 0.0000
vt 0.2386 0.6574 0.0000
vt 0.2343 0.6574 0.0000
vt 0.2343 0.6745 0.0000
vt 0.2386 0.6745 0.0000
vt 0.3193 0.6442 0.0000
vt 0.2395 0.6442 0.0000
vt 0.2395 0.6344 0.0000
vt 0.3193 0.6344 0.0000
vt 0.2838 0.6372 0.0000
vt 0.2838 0.6283 0.0000
vt 0.2881 0.6283 0.0000
vt 0.2881 0.6372 0.0000
vt 0.2888 0.7039 0.0000
vt 0.2845 0.7039 0.0000
vt 0.2845 0.6934 0.0000
vt 0.2888 0.6934 0.0000
vt 0.2386 0.6574 0.0000
vt 0.2343 0.6574 0.0000
vt 0.2343 0.6745 0.0000
vt 0.2386 0.6745 0.0000
vt 0.3193 0.6442 0.0000
vt 0.2395 0.6442 0.0000
vt 0.2395 0.6344 0.0000
vt 0.3193 0.6344 0.0000
vt 0.1096 0.7368 0.0000
vt 0.1096 0.8652 0.0000
vt 0.1053 0.8652 0.0000
vt 0.1053 0.7368 0.0000
vt 0.1053 0.7368 0.0000
vt 0.1096 0.7368 0.0000
vt 0.1096 0.8652 0.0000
vt 0.1053 0.8652 0.0000
vt 0.0003 0.6303 0.0000
vt 0.1105 0.6303 0.0000
vt 0.1105 0.8652 0.0000
vt 0.0003 0.8652 0.0000
vt 0.1053 0.8689 0.0000
vt 0.1053 0.9972 0.0000
vt 0.1010 0.9972 0.0000
vt 0.1010 0.8689 0.0000
vt 0.1010 0.8689 0.0000
vt 0.1053 0.8689 0.0000
vt 0.1053 0.9972 0.0000
vt 0.1010 0.9972 0.0000
vt 0.0023 0.8689 0.0000
vt 0.2177 0.8689 0.0000
vt 0.2177 0.9972 0.0000
vt 0.0023 0.9972 0.0000
vt 0.2477 0.5753 1.0000
vt 0.2477 0.5828 1.0000
vt 0.2377 0.5828 1.0000
vt 0.2377 0.5753 1.0000
vt 0.2573 0.5753 1.0000
vt 0.2573 0.5828 1.0000
vt 0.2475 0.5828 1.0000
vt 0.2475 0.5753 1.0000
vt 0.2372 0.5753 1.0000
vt 0.2372 0.5828 1.0000
vt 0.2274 0.5828 1.0000
vt 0.2274 0.5753 1.0000
vt 0.2471 0.5753 1.0000
vt 0.2471 0.5828 1.0000
vt 0.2573 0.5753 1.0000
vt 0.2573 0.5828 1.0000
vt 0.2274 0.5828 1.0000
vt 0.2274 0.5753 1.0000
vt 0.2477 0.5903 1.0000
vt 0.2477 0.6052 1.0000
vt 0.2377 0.6052 1.0000
vt 0.2377 0.5903 1.0000
vt 0.2573 0.5903 1.0000
vt 0.2573 0.6052 1.0000
vt 0.2475 0.6052 1.0000
vt 0.2475 0.5903 1.0000
vt 0.2372 0.5903 1.0000
vt 0.2372 0.6052 1.0000
vt 0.2274 0.6052 1.0000
vt 0.2274 0.5903 1.0000
vt 0.2471 0.5903 1.0000
vt 0.2471 0.6052 1.0000
vt 0.2573 0.5903 1.0000
vt 0.2573 0.6052 1.0000
vt 0.2274 0.6052 1.0000
vt 0.2274 0.5903 1.0000
vt 0.2377 0.5604 1.0000
vt 0.2477 0.5604 1.0000
vt 0.2475 0.5604 1.0000
vt 0.2573 0.5604 1.0000
vt 0.2274 0.5604 1.0000
vt 0.2372 0.5604 1.0000
vt 0.2471 0.5604 1.0000
vt 0.2573 0.5604 1.0000
vt 0.2274 0.5604 1.0000
vt 0.2477 0.5753 1.0000
vt 0.2477 0.5828 1.0000
vt 0.2377 0.5828 1.0000
vt 0.2377 0.5753 1.0000
vt 0.2573 0.5753 1.0000
vt 0.2573 0.5828 1.0000
vt 0.2475 0.5828 1.0000
vt 0.2475 0.5753 1.0000
vt 0.2372 0.5753 1.0000
vt 0.2372 0.5828 1.0000
vt 0.2274 0.5828 1.0000
vt 0.2274 0.5753 1.0000
vt 0.2471 0.5753 1.0000
vt 0.2471 0.5828 1.0000
vt 0.2573 0.5753 1.0000
vt 0.2573 0.5828 1.0000
vt 0.2274 0.5828 1.0000
vt 0.2274 0.5753 1.0000
vt 0.2477 0.5903 1.0000
vt 0.2477 0.6052 1.0000
vt 0.2377 0.6052 1.0000
vt 0.2377 0.5903 1.0000
vt 0.2573 0.5903 1.0000
vt 0.2573 0.6052 1.0000
vt 0.2475 0.6052 1.0000
vt 0.2475 0.5903 1.0000
vt 0.2372 0.5903 1.0000
vt 0.2372 0.6052 1.0000
vt 0.2274 0.6052 1.0000
vt 0.2274 0.5903 1.0000
vt 0.2471 0.5903 1.0000
vt 0.2471 0.6052 1.0000
vt 0.2573 0.5903 1.0000
vt 0.2573 0.6052 1.0000
vt 0.2274 0.6052 1.0000
vt 0.2274 0.5903 1.0000
vt 0.2838 0.6283 0.0000
vt 0.2881 0.6283 0.0000
vt 0.2888 0.6934 0.0000
vt 0.2845 0.6934 0.0000
vt 0.2386 0.6745 0.0000
vt 0.2386 0.6574 0.0000
vt 0.2343 0.6574 0.0000
vt 0.2343 0.6745 0.0000
vt 0.2395 0.6442 0.0000
vt 0.2395 0.6344 0.0000
vt 0.4758 0.4339 0.0000
vt 0.4801 0.4339 0.0000
vt 0.4801 0.0024 0.0000
vt 0.4758 0.0024 0.0000
vt 0.4801 0.4339 0.0000
vt 0.4801 0.0024 0.0000
vt 0.4758 0.0024 0.0000
vt 0.4758 0.4339 0.0000
vt 0.6344 0.4339 0.0000
vt 0.6344 0.0024 0.0000
vt 0.3217 0.0024 0.0000
vt 0.3217 0.4339 0.0000
vt 0.2838 0.6372 0.0000
vt 0.2881 0.6372 0.0000
vt 0.2881 0.6283 0.0000
vt 0.2838 0.6283 0.0000
vt 0.2888 0.7039 0.0000
vt 0.2888 0.6934 0.0000
vt 0.2845 0.6934 0.0000
vt 0.2845 0.7039 0.0000
vt 0.2386 0.6574 0.0000
vt 0.2386 0.6745 0.0000
vt 0.2343 0.6745 0.0000
vt 0.2343 0.6574 0.0000
vt 0.3193 0.6442 0.0000
vt 0.3193 0.6344 0.0000
vt 0.2395 0.6344 0.0000
vt 0.2395 0.6442 0.0000
vt 0.2838 0.6372 0.0000
vt 0.2881 0.6372 0.0000
vt 0.2881 0.6283 0.0000
vt 0.2838 0.6283 0.0000
vt 0.2888 0.7039 0.0000
vt 0.2888 0.6934 0.0000
vt 0.2845 0.6934 0.0000
vt 0.2845 0.7039 0.0000
vt 0.2386 0.6574 0.0000
vt 0.2386 0.6745 0.0000
vt 0.2343 0.6745 0.0000
vt 0.2343 0.6574 0.0000
vt 0.3193 0.6442 0.0000
vt 0.3193 0.6344 0.0000
vt 0.2395 0.6344 0.0000
vt 0.2395 0.6442 0.0000
vt 0.4758 0.4339 0.0000
vt 0.4801 0.4339 0.0000
vt 0.4801 0.0024 0.0000
vt 0.4758 0.0024 0.0000
vt 0.4801 0.4339 0.0000
vt 0.4801 0.0024 0.0000
vt 0.4758 0.0024 0.0000
vt 0.4758 0.4339 0.0000
vt 0.6344 0.4339 0.0000
vt 0.6344 0.0024 0.0000
vt 0.3217 0.0024 0.0000
vt 0.3217 0.4339 0.0000
vt 0.2838 0.6372 0.0000
vt 0.2881 0.6372 0.0000
vt 0.2881 0.6283 0.0000
vt 0.2838 0.6283 0.0000
vt 0.2888 0.7039 0.0000
vt 0.2888 0.6934 0.0000
vt 0.2845 0.6934 0.0000
vt 0.2845 0.7039 0.0000
vt 0.2386 0.6574 0.0000
vt 0.2386 0.6745 0.0000
vt 0.2343 0.6745 0.0000
vt 0.2343 0.6574 0.0000
vt 0.3193 0.6442 0.0000
vt 0.3193 0.6344 0.0000
vt 0.2395 0.6344 0.0000
vt 0.2395 0.6442 0.0000
vt 0.2838 0.6372 0.0000
vt 0.2881 0.6372 0.0000
vt 0.2881 0.6283 0.0000
vt 0.2838 0.6283 0.0000
vt 0.2888 0.7039 0.0000
vt 0.2888 0.6934 0.0000
vt 0.2845 0.6934 0.0000
vt 0.2845 0.7039 0.0000
vt 0.2386 0.6574 0.0000
vt 0.2386 0.6745 0.0000
vt 0.2343 0.6745 0.0000
vt 0.2343 0.6574 0.0000
vt 0.3193 0.6442 0.0000
vt 0.3193 0.6344 0.0000
vt 0.2395 0.6344 0.0000
vt 0.2395 0.6442 0.0000
vt 0.1096 0.7368 0.0000
vt 0.1053 0.7368 0.0000
vt 0.1053 0.8652 0.0000
vt 0.1096 0.8652 0.0000
vt 0.1053 0.7368 0.0000
vt 0.1053 0.8652 0.0000
vt 0.1096 0.8652 0.0000
vt 0.1096 0.7368 0.0000
vt 0.0003 0.6303 0.0000
vt 0.0003 0.8652 0.0000
vt 0.1105 0.8652 0.0000
vt 0.1105 0.6303 0.0000
vt 0.1105 0.6303 0.0000
vt 0.1105 0.8652 0.0000
vt 0.4758 0.4339 0.0000
vt 0.4801 0.4339 0.0000
vt 0.4801 0.0024 0.0000
vt 0.4758 0.0024 0.0000
vt 0.4801 0.4339 0.0000
vt 0.4801 0.0024 0.0000
vt 0.4758 0.0024 0.0000
vt 0.4758 0.4339 0.0000
vt 0.6344 0.4339 0.0000
vt 0.6344 0.0024 0.0000
vt 0.3217 0.0024 0.0000
vt 0.3217 0.4339 0.0000
vt 0.2838 0.6372 0.0000
vt 0.2881 0.6372 0.0000
vt 0.2881 0.6283 0.0000
vt 0.2838 0.6283 0.0000
vt 0.2888 0.7039 0.0000
vt 0.2888 0.6934 0.0000
vt 0.2845 0.6934 0.0000
vt 0.2845 0.7039 0.0000
vt 0.2386 0.6574 0.0000
vt 0.2386 0.6745 0.0000
vt 0.2343 0.6745 0.0000
vt 0.2343 0.6574 0.0000
vt 0.3193 0.6442 0.0000
vt 0.3193 0.6344 0.0000
vt 0.2395 0.6344 0.0000
vt 0.2395 0.6442 0.0000
vt 0.2838 0.6372 0.0000
vt 0.2881 0.6372 0.0000
vt 0.2881 0.6283 0.0000
vt 0.2838 0.6283 0.0000
vt 0.2888 0.7039 0.0000
vt 0.2888 0.6934 0.0000
vt 0.2845 0.6934 0.0000
vt 0.2845 0.7039 0.0000
vt 0.2386 0.6574 0.0000
vt 0.2386 0.6745 0.0000
vt 0.2343 0.6745 0.0000
vt 0.2343 0.6574 0.0000
vt 0.3193 0.6442 0.0000
vt 0.3193 0.6344 0.0000
vt 0.2395 0.6344 0.0000
vt 0.2395 0.6442 0.0000
vt 0.1096 0.7368 0.0000
vt 0.1053 0.7368 0.0000
vt 0.1053 0.8652 0.0000
vt 0.1096 0.8652 0.0000
vt 0.1053 0.7368 0.0000
vt 0.1053 0.8652 0.0000
vt 0.1096 0.8652 0.0000
vt 0.1096 0.7368 0.0000
vt 0.0003 0.6303 0.0000
vt 0.0003 0.8652 0.0000
vt 0.1105 0.8652 0.0000
vt 0.1105 0.6303 0.0000
vt 0.1053 0.8689 0.0000
vt 0.1053 0.9972 0.0000
vt 0.1010 0.9972 0.0000
vt 0.1010 0.8689 0.0000
vt 0.1010 0.8689 0.0000
vt 0.1053 0.8689 0.0000
vt 0.1053 0.9972 0.0000
vt 0.1010 0.9972 0.0000
vt 0.0023 0.8689 0.0000
vt 0.2177 0.8689 0.0000
vt 0.2177 0.9972 0.0000
vt 0.0023 0.9972 0.0000
vt 0.2377 0.5828 1.0000
vt 0.2377 0.5753 1.0000
vt 0.2477 0.5753 1.0000
vt 0.2477 0.5828 1.0000
vt 0.2573 0.5828 1.0000
vt 0.2475 0.5828 1.0000
vt 0.2475 0.5753 1.0000
vt 0.2573 0.5753 1.0000
vt 0.2372 0.5828 1.0000
vt 0.2274 0.5828 1.0000
vt 0.2274 0.5753 1.0000
vt 0.2372 0.5753 1.0000
vt 0.2471 0.5753 1.0000
vt 0.2471 0.5828 1.0000
vt 0.2573 0.5753 1.0000
vt 0.2573 0.5828 1.0000
vt 0.2274 0.5828 1.0000
vt 0.2274 0.5753 1.0000
vt 0.2377 0.6052 1.0000
vt 0.2377 0.5903 1.0000
vt 0.2477 0.5903 1.0000
vt 0.2477 0.6052 1.0000
vt 0.2475 0.6052 1.0000
vt 0.2475 0.5903 1.0000
vt 0.2573 0.5903 1.0000
vt 0.2573 0.6052 1.0000
vt 0.2274 0.6052 1.0000
vt 0.2274 0.5903 1.0000
vt 0.2372 0.5903 1.0000
vt 0.2372 0.6052 1.0000
vt 0.2471 0.6052 1.0000
vt 0.2471 0.5903 1.0000
vt 0.2573 0.6052 1.0000
vt 0.2573 0.5903 1.0000
vt 0.2274 0.6052 1.0000
vt 0.2274 0.5903 1.0000
vt 0.2377 0.5604 1.0000
vt 0.2477 0.5604 1.0000
vt 0.2475 0.5604 1.0000
vt 0.2573 0.5604 1.0000
vt 0.2274 0.5604 1.0000
vt 0.2372 0.5604 1.0000
vt 0.2471 0.5604 1.0000
vt 0.2573 0.5604 1.0000
vt 0.2274 0.5604 1.0000
vt 0.2377 0.5828 1.0000
vt 0.2377 0.5753 1.0000
vt 0.2477 0.5753 1.0000
vt 0.2477 0.5828 1.0000
vt 0.2573 0.5828 1.0000
vt 0.2475 0.5828 1.0000
vt 0.2475 0.5753 1.0000
vt 0.2573 0.5753 1.0000
vt 0.2372 0.5828 1.0000
vt 0.2274 0.5828 1.0000
vt 0.2274 0.5753 1.0000
vt 0.2372 0.5753 1.0000
vt 0.2471 0.5753 1.0000
vt 0.2471 0.5828 1.0000
vt 0.2573 0.5753 1.0000
vt 0.2573 0.5828 1.0000
vt 0.2274 0.5828 1.0000
vt 0.2274 0.5753 1.0000
vt 0.2377 0.6052 1.0000
vt 0.2377 0.5903 1.0000
vt 0.2477 0.5903 1.0000
vt 0.2477 0.6052 1.0000
vt 0.2475 0.6052 1.0000
vt 0.2475 0.5903 1.0000
vt 0.2573 0.5903 1.0000
vt 0.2573 0.6052 1.0000
vt 0.2274 0.6052 1.0000
vt 0.2274 0.5903 1.0000
vt 0.2372 0.5903 1.0000
vt 0.2372 0.6052 1.0000
vt 0.2471 0.6052 1.0000
vt 0.2471 0.5903 1.0000
vt 0.2573 0.6052 1.0000
vt 0.2573 0.5903 1.0000
vt 0.2274 0.6052 1.0000
vt 0.2274 0.5903 1.0000
vt 0.1757 0.7646 0.0000
vt 0.1757 0.8462 0.0000
vt 0.1757 0.8462 0.0000
vt 0.1757 0.7646 0.0000
vt 0.2845 0.6974 0.0000
vt 0.2888 0.6974 0.0000
vt 0.2703 0.6442 0.0000
vt 0.2477 0.5713 1.0000
vt 0.2475 0.5713 1.0000
vt 0.2377 0.5713 1.0000
vt 0.2573 0.5713 1.0000
vt 0.2274 0.5713 1.0000
vt 0.2372 0.5713 1.0000
vt 0.2471 0.5713 1.0000
vt 0.2573 0.5713 1.0000
vt 0.2274 0.5713 1.0000
vt 0.2845 0.6974 0.0000
vt 0.2888 0.6974 0.0000
vt 0.2703 0.6442 0.0000
vt 0.2377 0.5713 1.0000
vt 0.2477 0.5713 1.0000
vt 0.2475 0.5713 1.0000
vt 0.2573 0.5713 1.0000
vt 0.2274 0.5713 1.0000
vt 0.2372 0.5713 1.0000
vt 0.2471 0.5713 1.0000
vt 0.2573 0.5713 1.0000
vt 0.2274 0.5713 1.0000
vt 0.2881 0.6317 0.0000
vt 0.2838 0.6317 0.0000
vt 0.2703 0.6344 0.0000
vt 0.2838 0.6317 0.0000
vt 0.2703 0.6344 0.0000
vt 0.2881 0.6317 0.0000
vt 0.1231 0.8462 0.0000
vt 0.1231 0.7647 0.0000
vt 0.2817 0.7647 0.0000
vt 0.2817 0.8462 0.0000
vt 0.1231 0.8462 0.0000
vt 0.2817 0.8462 0.0000
vt 0.2817 0.7647 0.0000
vt 0.1231 0.7647 0.0000
vt -0.5591 0.8462 0.0000
vt -0.5591 0.7646 0.0000
vt 0.1757 0.7646 0.0000
vt 0.1757 0.8462 0.0000
vt -0.5591 0.7646 0.0000
vt -0.5591 0.8462 0.0000
vt 0.1757 0.8462 0.0000
vt 0.1757 0.7646 0.0000
vt 0.2343 0.6574 0.0000
vt 0.2343 0.6745 0.0000
vt 0.2386 0.6745 0.0000
vt 0.2386 0.6574 0.0000
vt 0.4801 0.0024 0.0000
vt 0.4758 0.0024 0.0000
vt 0.4758 0.4339 0.0000
vt 0.4801 0.4339 0.0000
vt 0.4758 0.0024 0.0000
vt 0.4758 0.4339 0.0000
vt 0.4801 0.4339 0.0000
vt 0.4801 0.0024 0.0000
vt 0.3217 0.0024 0.0000
vt 0.3217 0.4339 0.0000
vt 0.6344 0.4339 0.0000
vt 0.6344 0.0024 0.0000
vt 0.2881 0.6283 0.0000
vt 0.2838 0.6283 0.0000
vt 0.2838 0.6372 0.0000
vt 0.2881 0.6372 0.0000
vt 0.2845 0.6934 0.0000
vt 0.2845 0.7039 0.0000
vt 0.2888 0.7039 0.0000
vt 0.2888 0.6934 0.0000
vt 0.2343 0.6745 0.0000
vt 0.2343 0.6574 0.0000
vt 0.2386 0.6574 0.0000
vt 0.2386 0.6745 0.0000
vt 0.2395 0.6344 0.0000
vt 0.2395 0.6442 0.0000
vt 0.3193 0.6442 0.0000
vt 0.3193 0.6344 0.0000
vt 0.2881 0.6283 0.0000
vt 0.2838 0.6283 0.0000
vt 0.2838 0.6372 0.0000
vt 0.2881 0.6372 0.0000
vt 0.2845 0.6934 0.0000
vt 0.2845 0.7039 0.0000
vt 0.2888 0.7039 0.0000
vt 0.2888 0.6934 0.0000
vt 0.2343 0.6745 0.0000
vt 0.2343 0.6574 0.0000
vt 0.2386 0.6574 0.0000
vt 0.2386 0.6745 0.0000
vt 0.2395 0.6344 0.0000
vt 0.2395 0.6442 0.0000
vt 0.3193 0.6442 0.0000
vt 0.3193 0.6344 0.0000
vt 0.1053 0.8652 0.0000
vt 0.1096 0.8652 0.0000
vt 0.1096 0.7368 0.0000
vt 0.1053 0.7368 0.0000
vt 0.1096 0.8652 0.0000
vt 0.1096 0.7368 0.0000
vt 0.1053 0.7368 0.0000
vt 0.1053 0.8652 0.0000
vt 0.1105 0.8652 0.0000
vt 0.1105 0.6303 0.0000
vt 0.0003 0.6303 0.0000
vt 0.0003 0.8652 0.0000
vt 0.1105 0.8652 0.0000
vt 0.1105 0.6303 0.0000
vt 0.4801 0.0024 0.0000
vt 0.4758 0.0024 0.0000
vt 0.4758 0.4339 0.0000
vt 0.4801 0.4339 0.0000
vt 0.4758 0.0024 0.0000
vt 0.4758 0.4339 0.0000
vt 0.4801 0.4339 0.0000
vt 0.4801 0.0024 0.0000
vt 0.3217 0.0024 0.0000
vt 0.3217 0.4339 0.0000
vt 0.6344 0.4339 0.0000
vt 0.6344 0.0024 0.0000
vt 0.2881 0.6283 0.0000
vt 0.2838 0.6283 0.0000
vt 0.2838 0.6372 0.0000
vt 0.2881 0.6372 0.0000
vt 0.2845 0.6934 0.0000
vt 0.2845 0.7039 0.0000
vt 0.2888 0.7039 0.0000
vt 0.2888 0.6934 0.0000
vt 0.2343 0.6745 0.0000
vt 0.2343 0.6574 0.0000
vt 0.2386 0.6574 0.0000
vt 0.2386 0.6745 0.0000
vt 0.2395 0.6344 0.0000
vt 0.2395 0.6442 0.0000
vt 0.3193 0.6442 0.0000
vt 0.3193 0.6344 0.0000
vt 0.2881 0.6283 0.0000
vt 0.2838 0.6283 0.0000
vt 0.2838 0.6372 0.0000
vt 0.2881 0.6372 0.0000
vt 0.2845 0.6934 0.0000
vt 0.2845 0.7039 0.0000
vt 0.2888 0.7039 0.0000
vt 0.2888 0.6934 0.0000
vt 0.2343 0.6745 0.0000
vt 0.2343 0.6574 0.0000
vt 0.2386 0.6574 0.0000
vt 0.2386 0.6745 0.0000
vt 0.2395 0.6344 0.0000
vt 0.2395 0.6442 0.0000
vt 0.3193 0.6442 0.0000
vt 0.3193 0.6344 0.0000
vt 0.1053 0.8652 0.0000
vt 0.1096 0.8652 0.0000
vt 0.1096 0.7368 0.0000
vt 0.1053 0.7368 0.0000
vt 0.1096 0.8652 0.0000
vt 0.1096 0.7368 0.0000
vt 0.1053 0.7368 0.0000
vt 0.1053 0.8652 0.0000
vt 0.1105 0.8652 0.0000
vt 0.1105 0.6303 0.0000
vt 0.0003 0.6303 0.0000
vt 0.0003 0.8652 0.0000
vt 0.1010 0.9972 0.0000
vt 0.1010 0.8689 0.0000
vt 0.1053 0.8689 0.0000
vt 0.1053 0.9972 0.0000
vt 0.1053 0.9972 0.0000
vt 0.1010 0.9972 0.0000
vt 0.1010 0.8689 0.0000
vt 0.1053 0.8689 0.0000
vt 0.2177 0.9972 0.0000
vt 0.0023 0.9972 0.0000
vt 0.0023 0.8689 0.0000
vt 0.2177 0.8689 0.0000
vt 0.2477 0.5753 1.0000
vt 0.2477 0.5828 1.0000
vt 0.2377 0.5828 1.0000
vt 0.2377 0.5753 1.0000
vt 0.2475 0.5753 1.0000
vt 0.2573 0.5753 1.0000
vt 0.2573 0.5828 1.0000
vt 0.2475 0.5828 1.0000
vt 0.2274 0.5753 1.0000
vt 0.2372 0.5753 1.0000
vt 0.2372 0.5828 1.0000
vt 0.2274 0.5828 1.0000
vt 0.2471 0.5753 1.0000
vt 0.2471 0.5828 1.0000
vt 0.2573 0.5753 1.0000
vt 0.2573 0.5828 1.0000
vt 0.2274 0.5753 1.0000
vt 0.2274 0.5828 1.0000
vt 0.2477 0.5903 1.0000
vt 0.2477 0.6052 1.0000
vt 0.2377 0.6052 1.0000
vt 0.2377 0.5903 1.0000
vt 0.2573 0.5903 1.0000
vt 0.2573 0.6052 1.0000
vt 0.2475 0.6052 1.0000
vt 0.2475 0.5903 1.0000
vt 0.2372 0.5903 1.0000
vt 0.2372 0.6052 1.0000
vt 0.2274 0.6052 1.0000
vt 0.2274 0.5903 1.0000
vt 0.2471 0.5903 1.0000
vt 0.2471 0.6052 1.0000
vt 0.2573 0.5903 1.0000
vt 0.2573 0.6052 1.0000
vt 0.2274 0.5903 1.0000
vt 0.2274 0.6052 1.0000
vt 0.2477 0.5604 1.0000
vt 0.2377 0.5604 1.0000
vt 0.2573 0.5604 1.0000
vt 0.2475 0.5604 1.0000
vt 0.2372 0.5604 1.0000
vt 0.2274 0.5604 1.0000
vt 0.2471 0.5604 1.0000
vt 0.2573 0.5604 1.0000
vt 0.2274 0.5604 1.0000
vt 0.2477 0.5753 1.0000
vt 0.2477 0.5828 1.0000
vt 0.2377 0.5828 1.0000
vt 0.2377 0.5753 1.0000
vt 0.2475 0.5753 1.0000
vt 0.2573 0.5753 1.0000
vt 0.2573 0.5828 1.0000
vt 0.2475 0.5828 1.0000
vt 0.2274 0.5753 1.0000
vt 0.2372 0.5753 1.0000
vt 0.2372 0.5828 1.0000
vt 0.2274 0.5828 1.0000
vt 0.2471 0.5753 1.0000
vt 0.2471 0.5828 1.0000
vt 0.2573 0.5753 1.0000
vt 0.2573 0.5828 1.0000
vt 0.2274 0.5753 1.0000
vt 0.2274 0.5828 1.0000
vt 0.2477 0.5903 1.0000
vt 0.2477 0.6052 1.0000
vt 0.2377 0.6052 1.0000
vt 0.2377 0.5903 1.0000
vt 0.2573 0.5903 1.0000
vt 0.2573 0.6052 1.0000
vt 0.2475 0.6052 1.0000
vt 0.2475 0.5903 1.0000
vt 0.2372 0.5903 1.0000
vt 0.2372 0.6052 1.0000
vt 0.2274 0.6052 1.0000
vt 0.2274 0.5903 1.0000
vt 0.2471 0.5903 1.0000
vt 0.2471 0.6052 1.0000
vt 0.2573 0.5903 1.0000
vt 0.2573 0.6052 1.0000
vt 0.2274 0.5903 1.0000
vt 0.2274 0.6052 1.0000
vt 0.2845 0.6934 0.0000
vt 0.2845 0.6974 0.0000
vt 0.2888 0.6974 0.0000
vt 0.2888 0.6934 0.0000
vt 0.2343 0.6574 0.0000
vt 0.2386 0.6574 0.0000
vt 0.2386 0.6745 0.0000
vt 0.2343 0.6745 0.0000
vt 0.4801 0.0024 0.0000
vt 0.4801 0.4339 0.0000
vt 0.4758 0.4339 0.0000
vt 0.4758 0.0024 0.0000
vt 0.4758 0.0024 0.0000
vt 0.4801 0.0024 0.0000
vt 0.4801 0.4339 0.0000
vt 0.4758 0.4339 0.0000
vt 0.3217 0.0024 0.0000
vt 0.6344 0.0024 0.0000
vt 0.6344 0.4339 0.0000
vt 0.3217 0.4339 0.0000
vt 0.2881 0.6283 0.0000
vt 0.2881 0.6372 0.0000
vt 0.2838 0.6372 0.0000
vt 0.2838 0.6283 0.0000
vt 0.2845 0.6934 0.0000
vt 0.2888 0.6934 0.0000
vt 0.2888 0.7039 0.0000
vt 0.2845 0.7039 0.0000
vt 0.2343 0.6745 0.0000
vt 0.2386 0.6745 0.0000
vt 0.2386 0.6574 0.0000
vt 0.2343 0.6574 0.0000
vt 0.2395 0.6344 0.0000
vt 0.3193 0.6344 0.0000
vt 0.3193 0.6442 0.0000
vt 0.2395 0.6442 0.0000
vt 0.2881 0.6283 0.0000
vt 0.2881 0.6372 0.0000
vt 0.2838 0.6372 0.0000
vt 0.2838 0.6283 0.0000
vt 0.2845 0.6934 0.0000
vt 0.2888 0.6934 0.0000
vt 0.2888 0.7039 0.0000
vt 0.2845 0.7039 0.0000
vt 0.2343 0.6745 0.0000
vt 0.2386 0.6745 0.0000
vt 0.2386 0.6574 0.0000
vt 0.2343 0.6574 0.0000
vt 0.2395 0.6344 0.0000
vt 0.3193 0.6344 0.0000
vt 0.3193 0.6442 0.0000
vt 0.2395 0.6442 0.0000
vt 0.1053 0.8652 0.0000
vt 0.1053 0.7368 0.0000
vt 0.1096 0.7368 0.0000
vt 0.1096 0.8652 0.0000
vt 0.1096 0.8652 0.0000
vt 0.1053 0.8652 0.0000
vt 0.1053 0.7368 0.0000
vt 0.1096 0.7368 0.0000
vt 0.1105 0.8652 0.0000
vt 0.0003 0.8652 0.0000
vt 0.0003 0.6303 0.0000
vt 0.1105 0.6303 0.0000
vt 0.1105 0.6303 0.0000
vt 0.1105 0.8652 0.0000
vt 0.4801 0.0024 0.0000
vt 0.4801 0.4339 0.0000
vt 0.4758 0.4339 0.0000
vt 0.4758 0.0024 0.0000
vt 0.4758 0.0024 0.0000
vt 0.4801 0.0024 0.0000
vt 0.4801 0.4339 0.0000
vt 0.4758 0.4339 0.0000
vt 0.3217 0.0024 0.0000
vt 0.6344 0.0024 0.0000
vt 0.6344 0.4339 0.0000
vt 0.3217 0.4339 0.0000
vt 0.2881 0.6283 0.0000
vt 0.2881 0.6372 0.0000
vt 0.2838 0.6372 0.0000
vt 0.2838 0.6283 0.0000
vt 0.2845 0.6934 0.0000
vt 0.2888 0.6934 0.0000
vt 0.2888 0.7039 0.0000
vt 0.2845 0.7039 0.0000
vt 0.2343 0.6745 0.0000
vt 0.2386 0.6745 0.0000
vt 0.2386 0.6574 0.0000
vt 0.2343 0.6574 0.0000
vt 0.2395 0.6344 0.0000
vt 0.3193 0.6344 0.0000
vt 0.3193 0.6442 0.0000
vt 0.2395 0.6442 0.0000
vt 0.2881 0.6283 0.0000
vt 0.2881 0.6372 0.0000
vt 0.2838 0.6372 0.0000
vt 0.2838 0.6283 0.0000
vt 0.2845 0.6934 0.0000
vt 0.2888 0.6934 0.0000
vt 0.2888 0.7039 0.0000
vt 0.2845 0.7039 0.0000
vt 0.2343 0.6745 0.0000
vt 0.2386 0.6745 0.0000
vt 0.2386 0.6574 0.0000
vt 0.2343 0.6574 0.0000
vt 0.2395 0.6344 0.0000
vt 0.3193 0.6344 0.0000
vt 0.3193 0.6442 0.0000
vt 0.2395 0.6442 0.0000
vt 0.1053 0.8652 0.0000
vt 0.1053 0.7368 0.0000
vt 0.1096 0.7368 0.0000
vt 0.1096 0.8652 0.0000
vt 0.1096 0.8652 0.0000
vt 0.1053 0.8652 0.0000
vt 0.1053 0.7368 0.0000
vt 0.1096 0.7368 0.0000
vt 0.1105 0.8652 0.0000
vt 0.0003 0.8652 0.0000
vt 0.0003 0.6303 0.0000
vt 0.1105 0.6303 0.0000
vt 0.1010 0.9972 0.0000
vt 0.1053 0.9972 0.0000
vt 0.1053 0.8689 0.0000
vt 0.1010 0.8689 0.0000
vt 0.1053 0.9972 0.0000
vt 0.1053 0.8689 0.0000
vt 0.1010 0.8689 0.0000
vt 0.1010 0.9972 0.0000
vt 0.2177 0.9972 0.0000
vt 0.2177 0.8689 0.0000
vt 0.0023 0.8689 0.0000
vt 0.0023 0.9972 0.0000
vt 0.2477 0.5753 1.0000
vt 0.2377 0.5753 1.0000
vt 0.2377 0.5828 1.0000
vt 0.2477 0.5828 1.0000
vt 0.2475 0.5753 1.0000
vt 0.2475 0.5828 1.0000
vt 0.2573 0.5828 1.0000
vt 0.2573 0.5753 1.0000
vt 0.2274 0.5753 1.0000
vt 0.2274 0.5828 1.0000
vt 0.2372 0.5828 1.0000
vt 0.2372 0.5753 1.0000
vt 0.2471 0.5828 1.0000
vt 0.2471 0.5753 1.0000
vt 0.2573 0.5828 1.0000
vt 0.2573 0.5753 1.0000
vt 0.2274 0.5753 1.0000
vt 0.2274 0.5828 1.0000
vt 0.2477 0.5903 1.0000
vt 0.2377 0.5903 1.0000
vt 0.2377 0.6052 1.0000
vt 0.2477 0.6052 1.0000
vt 0.2573 0.5903 1.0000
vt 0.2475 0.5903 1.0000
vt 0.2475 0.6052 1.0000
vt 0.2573 0.6052 1.0000
vt 0.2372 0.5903 1.0000
vt 0.2274 0.5903 1.0000
vt 0.2274 0.6052 1.0000
vt 0.2372 0.6052 1.0000
vt 0.2471 0.6052 1.0000
vt 0.2471 0.5903 1.0000
vt 0.2573 0.6052 1.0000
vt 0.2573 0.5903 1.0000
vt 0.2274 0.5903 1.0000
vt 0.2274 0.6052 1.0000
vt 0.2477 0.5604 1.0000
vt 0.2377 0.5604 1.0000
vt 0.2573 0.5604 1.0000
vt 0.2475 0.5604 1.0000
vt 0.2372 0.5604 1.0000
vt 0.2274 0.5604 1.0000
vt 0.2471 0.5604 1.0000
vt 0.2573 0.5604 1.0000
vt 0.2274 0.5604 1.0000
vt 0.2477 0.5753 1.0000
vt 0.2377 0.5753 1.0000
vt 0.2377 0.5828 1.0000
vt 0.2477 0.5828 1.0000
vt 0.2475 0.5753 1.0000
vt 0.2475 0.5828 1.0000
vt 0.2573 0.5828 1.0000
vt 0.2573 0.5753 1.0000
vt 0.2274 0.5753 1.0000
vt 0.2274 0.5828 1.0000
vt 0.2372 0.5828 1.0000
vt 0.2372 0.5753 1.0000
vt 0.2471 0.5828 1.0000
vt 0.2471 0.5753 1.0000
vt 0.2573 0.5828 1.0000
vt 0.2573 0.5753 1.0000
vt 0.2274 0.5753 1.0000
vt 0.2274 0.5828 1.0000
vt 0.2477 0.5903 1.0000
vt 0.2377 0.5903 1.0000
vt 0.2377 0.6052 1.0000
vt 0.2477 0.6052 1.0000
vt 0.2573 0.5903 1.0000
vt 0.2475 0.5903 1.0000
vt 0.2475 0.6052 1.0000
vt 0.2573 0.6052 1.0000
vt 0.2372 0.5903 1.0000
vt 0.2274 0.5903 1.0000
vt 0.2274 0.6052 1.0000
vt 0.2372 0.6052 1.0000
vt 0.2471 0.6052 1.0000
vt 0.2471 0.5903 1.0000
vt 0.2573 0.6052 1.0000
vt 0.2573 0.5903 1.0000
vt 0.2274 0.5903 1.0000
vt 0.2274 0.6052 1.0000
vt 0.2838 0.6283 0.0000
vt 0.2881 0.6283 0.0000
vt 0.2881 0.6317 0.0000
vt 0.2838 0.6317 0.0000
vt 0.2395 0.6442 0.0000
vt 0.2395 0.6344 0.0000
vt 0.2703 0.6344 0.0000
vt 0.2703 0.6442 0.0000
vt 0.2881 0.6283 0.0000
vt 0.2838 0.6283 0.0000
vt 0.2838 0.6317 0.0000
vt 0.2881 0.6317 0.0000
vt 0.2395 0.6344 0.0000
vt 0.2395 0.6442 0.0000
vt 0.2703 0.6442 0.0000
vt 0.2703 0.6344 0.0000
vt 0.2845 0.6974 0.0000
vt 0.2845 0.6934 0.0000
vt 0.2888 0.6934 0.0000
vt 0.2888 0.6974 0.0000
vt 0.2477 0.5713 1.0000
vt 0.2377 0.5713 1.0000
vt 0.2573 0.5713 1.0000
vt 0.2475 0.5713 1.0000
vt 0.2372 0.5713 1.0000
vt 0.2274 0.5713 1.0000
vt 0.2471 0.5713 1.0000
vt 0.2573 0.5713 1.0000
vt 0.2274 0.5713 1.0000
vt 0.2377 0.5713 1.0000
vt 0.2477 0.5713 1.0000
vt 0.2475 0.5713 1.0000
vt 0.2573 0.5713 1.0000
vt 0.2274 0.5713 1.0000
vt 0.2372 0.5713 1.0000
vt 0.2471 0.5713 1.0000
vt 0.2573 0.5713 1.0000
vt 0.2274 0.5713 1.0000
vt -1.5020 0.8483 0.5000
vt 0.5000 0.8483 0.5000
vt 0.5000 1.4607 0.5000
vt -1.5020 1.4607 0.5000
vt -1.5020 -0.4607 0.5000
vt 0.5000 -0.4607 0.5000
vt 2.5020 0.8483 0.5000
vt 2.5020 1.4607 0.5000
vt 2.5020 -0.4607 0.5000
# 1289 texture coords

g substation_ht_1005_02
usemtl Material__603
f 4/4 3/2 2/19 1/3 
f 6/7 5/5 4/20 1/6 
f 2/11 3/9 8/22 7/10 
f 3/15 4/14 10/29 9/31 
f 12/34 11/28 2/18 7/1 
f 9/32 13/35 8/8 3/21 
f 1/23 15/26 14/36 6/24 
f 15/25 1/12 2/13 11/27 
f 10/30 4/16 5/17 16/33 
f 20/38 19/37 18/40 17/39 
f 18/42 22/41 21/44 17/43 
f 24/46 19/45 20/48 23/47 
f 10/50 18/49 19/52 9/51 
f 12/54 23/53 20/72 11/71 
f 24/55 13/70 9/57 19/56 
f 14/60 15/59 17/58 21/61 
f 20/64 17/63 15/62 11/65 
f 22/68 18/67 10/66 16/69 
usemtl Material__766
f 28/76 27/75 26/74 25/73 
f 32/80 31/79 30/78 29/77 
f 28/84 25/83 31/82 32/81 
f 25/88 26/87 30/86 31/85 
f 26/84 27/83 29/82 30/81 
f 36/92 35/91 34/90 33/89 
f 40/96 39/95 38/94 37/93 
f 36/100 33/99 39/98 40/97 
f 33/104 34/103 38/102 39/101 
f 34/100 35/99 37/98 38/97 
f 44/108 43/107 42/106 41/105 
f 48/112 47/111 46/110 45/109 
f 44/116 41/115 47/114 48/113 
f 41/120 42/119 46/118 47/117 
f 42/116 43/115 45/114 46/113 
f 52/124 51/123 50/122 49/121 
f 56/128 55/127 54/126 53/125 
f 52/132 49/131 55/130 56/129 
f 49/136 50/135 54/134 55/133 
f 50/132 51/131 53/130 54/129 
f 60/140 59/139 58/138 57/137 
f 64/144 63/143 62/142 61/141 
f 60/148 57/147 63/146 64/145 
f 57/152 58/151 62/150 63/149 
f 58/148 59/147 61/146 62/145 
f 68/156 67/155 66/154 65/153 
f 72/160 71/159 70/158 69/157 
f 68/164 65/163 71/162 72/161 
f 65/168 66/167 70/166 71/165 
f 66/164 67/163 69/162 70/161 
f 76/172 75/171 74/170 73/169 
f 80/176 79/175 78/174 77/173 
f 76/180 73/179 79/178 80/177 
f 73/184 74/183 78/182 79/181 
f 74/180 75/179 77/178 78/177 
f 84/188 83/187 82/186 81/185 
f 88/192 87/191 86/190 85/189 
f 84/196 81/195 87/194 88/193 
f 81/200 82/199 86/198 87/197 
f 82/196 83/195 85/194 86/193 
f 92/204 91/203 90/202 89/201 
f 96/208 95/207 94/206 93/205 
f 92/212 89/211 95/210 96/209 
f 89/216 90/215 94/214 95/213 
f 90/212 91/211 93/210 94/209 
f 100/220 99/219 98/218 97/217 
f 104/224 103/223 102/222 101/221 
f 100/228 97/227 103/226 104/225 
f 97/232 98/231 102/230 103/229 
f 98/228 99/227 101/226 102/225 
usemtl terial__1344
f 108/239 107/240 106/237 105/238 
f 112/242 111/241 110/244 109/243 
f 106/233 107/234 114/767 113/768 
f 111/236 112/235 116/769 115/770 
usemtl Material__603
f 120/251 119/252 118/249 117/250 
usemtl Material__570
f 124/256 123/255 122/258 121/257 
f 128/255 127/258 126/257 125/256 
f 125/260 126/259 124/262 121/261 
f 126/264 127/263 123/266 124/265 
f 127/260 128/259 122/262 123/261 
usemtl Material__603
f 132/268 131/267 130/270 129/269 
f 136/272 135/271 134/274 133/273 
f 133/276 134/275 132/278 129/277 
f 134/280 135/279 131/282 132/281 
f 135/276 136/275 130/278 131/277 
f 140/284 139/283 138/286 137/285 
f 144/288 143/287 142/290 141/289 
f 141/292 142/291 140/294 137/293 
f 142/296 143/295 139/298 140/297 
f 143/292 144/291 138/294 139/293 
usemtl Material__570
f 148/300 147/299 146/302 145/301 
f 152/299 151/302 150/301 149/300 
f 149/304 150/303 148/306 145/305 
f 150/308 151/307 147/310 148/309 
f 151/304 152/303 146/306 147/305 
usemtl Material__603
f 156/312 155/311 154/314 153/313 
f 160/316 159/315 158/318 157/317 
f 157/320 158/319 156/322 153/321 
f 158/324 159/323 155/326 156/325 
f 159/320 160/319 154/322 155/321 
f 164/328 163/327 162/330 161/329 
f 168/332 167/331 166/334 165/333 
f 165/336 166/335 164/338 161/337 
f 166/340 167/339 163/342 164/341 
f 167/336 168/335 162/338 163/337 
usemtl Material__570
f 172/344 171/343 170/346 169/345 
f 176/343 175/346 174/345 173/344 
f 170/348 171/347 175/350 176/349 
f 169/352 170/351 176/354 173/353 
f 174/356 172/355 169/352 173/353 
f 180/358 179/357 178/360 177/359 
f 184/357 183/360 182/359 181/358 
f 181/362 182/361 180/364 177/363 
f 182/366 183/365 179/368 180/367 
f 183/362 184/361 178/364 179/363 
usemtl Material__603
f 188/370 187/369 186/372 185/371 
f 192/374 191/373 190/376 189/375 
f 189/378 190/377 188/380 185/379 
f 190/382 191/381 187/384 188/383 
f 191/378 192/377 186/380 187/379 
f 196/386 195/385 194/388 193/387 
f 200/390 199/389 198/392 197/391 
f 197/394 198/393 196/396 193/395 
f 198/398 199/397 195/400 196/399 
f 199/394 200/393 194/396 195/395 
usemtl Material__570
f 204/402 203/401 202/404 201/403 
f 208/401 207/404 206/403 205/402 
f 202/406 203/405 207/408 208/407 
f 201/410 202/409 208/412 205/411 
f 204/406 201/405 205/408 206/407 
f 212/416 211/413 210/414 209/415 
f 216/415 215/416 214/413 213/414 
f 215/420 211/417 212/418 214/419 
f 214/424 212/421 209/422 213/423 
f 213/420 209/417 210/418 216/419 
f 220/426 219/427 218/428 217/425 
f 222/429 221/430 220/431 217/432 
f 224/433 223/434 221/435 222/436 
f 224/433 226/437 225/438 223/434 
f 226/437 228/439 227/440 225/438 
f 218/428 219/427 227/441 228/442 
f 232/444 231/445 230/446 229/443 
f 234/448 232/449 229/450 233/447 
f 236/452 234/453 233/454 235/451 
f 238/455 237/456 236/452 235/451 
f 240/457 239/458 237/456 238/455 
f 230/446 231/445 239/459 240/460 
f 220/426 229/443 230/446 219/427 
f 221/430 233/447 229/450 220/431 
f 235/451 233/454 221/435 223/434 
f 225/438 238/455 235/451 223/434 
f 225/438 227/440 240/457 238/455 
f 227/441 219/427 230/446 240/460 
f 217/425 218/428 242/461 241/462 
f 222/429 217/432 241/463 243/464 
f 224/433 222/436 243/465 244/466 
f 226/437 224/433 244/466 245/467 
f 228/439 226/437 245/467 246/468 
f 242/461 218/428 228/442 246/469 
f 250/471 249/472 248/473 247/470 
f 252/474 251/475 250/476 247/477 
f 254/478 253/479 251/480 252/481 
f 254/478 256/482 255/483 253/479 
f 256/482 258/484 257/485 255/483 
f 248/473 249/472 257/486 258/487 
f 262/489 261/490 260/491 259/488 
f 264/493 262/494 259/495 263/492 
f 266/497 264/498 263/499 265/496 
f 268/500 267/501 266/497 265/496 
f 270/502 269/503 267/501 268/500 
f 260/491 261/490 269/504 270/505 
f 250/471 259/488 260/491 249/472 
f 251/475 263/492 259/495 250/476 
f 265/496 263/499 251/480 253/479 
f 255/483 268/500 265/496 253/479 
f 255/483 257/485 270/502 268/500 
f 257/486 249/472 260/491 270/505 
usemtl Material__603
f 274/509 273/783 272/784 271/508 
f 271/511 276/510 275/513 274/512 
usemtl Material__570
f 280/517 279/516 278/519 277/518 
f 284/518 283/517 282/516 281/519 
f 278/521 284/520 281/523 277/522 
f 279/525 283/524 284/527 278/526 
f 280/521 282/520 283/523 279/522 
usemtl Material__603
f 288/529 287/528 286/531 285/530 
f 292/533 291/532 290/535 289/534 
f 286/537 292/536 289/539 285/538 
f 287/541 291/540 292/543 286/542 
f 288/537 290/536 291/539 287/538 
f 296/545 295/544 294/547 293/546 
f 300/549 299/548 298/551 297/550 
f 294/553 300/552 297/555 293/554 
f 295/557 299/556 300/559 294/558 
f 296/553 298/552 299/555 295/554 
usemtl Material__570
f 304/561 303/560 302/563 301/562 
f 308/562 307/561 306/560 305/563 
f 302/565 308/564 305/567 301/566 
f 303/569 307/568 308/571 302/570 
f 304/565 306/564 307/567 303/566 
usemtl Material__603
f 312/573 311/572 310/575 309/574 
f 316/577 315/576 314/579 313/578 
f 310/581 316/580 313/583 309/582 
f 311/585 315/584 316/587 310/586 
f 312/581 314/580 315/583 311/582 
f 320/589 319/588 318/591 317/590 
f 324/593 323/592 322/595 321/594 
f 318/597 324/596 321/599 317/598 
f 319/601 323/600 324/603 318/602 
f 320/597 322/596 323/599 319/598 
usemtl Material__570
f 328/605 327/604 326/607 325/606 
f 332/606 331/605 330/604 329/607 
f 331/609 327/608 328/611 330/610 
f 330/613 328/612 325/615 329/614 
f 325/615 326/616 332/617 329/614 
f 336/619 335/618 334/621 333/620 
f 340/620 339/619 338/618 337/621 
f 334/623 340/622 337/625 333/624 
f 335/627 339/626 340/629 334/628 
f 336/623 338/622 339/625 335/624 
usemtl Material__603
f 344/631 343/630 342/633 341/632 
f 348/635 347/634 346/637 345/636 
f 342/639 348/638 345/641 341/640 
f 343/643 347/642 348/645 342/644 
f 344/639 346/638 347/641 343/640 
f 352/647 351/646 350/649 349/648 
f 356/651 355/650 354/653 353/652 
f 350/655 356/654 353/657 349/656 
f 351/659 355/658 356/661 350/660 
f 352/655 354/654 355/657 351/656 
usemtl Material__570
f 360/663 359/662 358/665 357/664 
f 364/664 363/663 362/662 361/665 
f 363/667 359/666 360/669 362/668 
f 362/671 360/670 357/673 361/672 
f 361/667 357/666 358/669 364/668 
f 368/675 367/674 366/677 365/676 
f 372/674 371/677 370/676 369/675 
f 366/679 367/678 371/681 372/680 
f 365/683 366/682 372/685 369/684 
f 368/679 365/678 369/681 370/680 
f 376/687 375/686 374/689 373/688 
f 374/691 378/690 377/693 373/692 
f 378/695 380/694 379/697 377/696 
f 382/699 381/698 379/697 380/694 
f 384/701 383/700 381/698 382/699 
f 384/702 375/686 376/687 383/703 
f 388/705 387/704 386/707 385/706 
f 385/709 386/708 390/711 389/710 
f 389/713 390/712 392/715 391/714 
f 392/715 394/716 393/717 391/714 
f 394/716 396/718 395/719 393/717 
f 396/720 387/704 388/705 395/721 
f 388/705 385/706 374/689 375/686 
f 385/709 389/710 378/690 374/691 
f 378/695 389/713 391/714 380/694 
f 391/714 393/717 382/699 380/694 
f 395/719 384/701 382/699 393/717 
f 388/705 375/686 384/702 395/721 
f 398/722 376/687 373/688 397/723 
f 397/724 373/692 377/693 399/725 
f 399/726 377/696 379/697 400/727 
f 400/727 379/697 381/698 401/728 
f 401/728 381/698 383/700 402/729 
f 383/703 376/687 398/722 402/730 
f 406/732 405/731 404/734 403/733 
f 404/736 408/735 407/738 403/737 
f 408/740 410/739 409/742 407/741 
f 412/744 411/743 409/742 410/739 
f 414/746 413/745 411/743 412/744 
f 414/747 405/731 406/732 413/748 
f 418/750 417/749 416/752 415/751 
f 415/754 416/753 420/756 419/755 
f 419/758 420/757 422/760 421/759 
f 422/760 424/761 423/762 421/759 
f 424/761 426/763 425/764 423/762 
f 426/765 417/749 418/750 425/766 
f 418/750 415/751 404/734 405/731 
f 415/754 419/755 408/735 404/736 
f 408/740 419/758 421/759 410/739 
f 421/759 423/762 412/744 410/739 
f 425/764 414/746 412/744 423/762 
f 418/750 405/731 414/747 425/766 
usemtl Material__603
f 119/245 120/246 428/795 427/796 
f 118/253 119/254 427/797 429/773 
usemtl Material__615
f 432/1281 431/1284 14/1283 430/1282 
usemtl Material__603
f 275/507 276/506 434/798 433/800 
f 276/515 271/514 272/785 434/799 
usemtl Material__615
f 435/1285 432/1281 430/1282 16/1286 
usemtl Material__603
f 436/771 117/247 118/248 429/772 
usemtl Material__570
f 438/774 247/470 248/473 437/776 
f 439/777 252/474 247/477 438/775 
f 440/779 254/478 252/481 439/778 
f 441/780 256/482 254/478 440/779 
f 442/781 258/484 256/482 441/780 
f 437/776 248/473 258/487 442/782 
f 444/786 406/732 403/733 443/787 
f 443/788 403/737 407/738 445/789 
f 445/790 407/741 409/742 446/791 
f 446/791 409/742 411/743 447/792 
f 447/792 411/743 413/745 448/793 
f 448/794 413/748 406/732 444/786 
usemtl terial__1344
f 452/804 451/803 450/802 449/801 
f 456/808 455/807 454/806 453/805 
f 114/811 451/810 452/809 113/812 
f 116/815 454/814 455/813 115/816 
usemtl Material__603
f 460/820 459/819 458/818 457/817 
usemtl Material__570
f 464/824 463/823 462/822 461/821 
f 468/821 467/824 466/823 465/822 
f 462/828 468/827 465/826 461/825 
f 463/832 467/831 468/830 462/829 
f 464/828 466/827 467/826 463/825 
usemtl Material__603
f 472/836 471/835 470/834 469/833 
f 476/840 475/839 474/838 473/837 
f 470/844 476/843 473/842 469/841 
f 471/848 475/847 476/846 470/845 
f 472/844 474/843 475/842 471/841 
f 480/852 479/851 478/850 477/849 
f 484/856 483/855 482/854 481/853 
f 478/860 484/859 481/858 477/857 
f 479/864 483/863 484/862 478/861 
f 480/860 482/859 483/858 479/857 
usemtl Material__570
f 488/868 487/867 486/866 485/865 
f 492/865 491/868 490/867 489/866 
f 491/872 487/871 488/870 490/869 
f 490/876 488/875 485/874 489/873 
f 485/874 486/878 492/877 489/873 
f 496/882 495/881 494/880 493/879 
f 500/879 499/882 498/881 497/880 
f 494/886 500/885 497/884 493/883 
f 495/890 499/889 500/888 494/887 
f 496/886 498/885 499/884 495/883 
usemtl Material__603
f 504/894 503/893 502/892 501/891 
f 508/898 507/897 506/896 505/895 
f 502/902 508/901 505/900 501/899 
f 503/906 507/905 508/904 502/903 
f 504/902 506/901 507/900 503/899 
f 512/910 511/909 510/908 509/907 
f 516/914 515/913 514/912 513/911 
f 510/918 516/917 513/916 509/915 
f 511/922 515/921 516/920 510/919 
f 512/918 514/917 515/916 511/915 
usemtl Material__570
f 520/926 519/925 518/924 517/923 
f 524/923 523/926 522/925 521/924 
f 523/930 519/929 520/928 522/927 
f 522/934 520/933 517/932 521/931 
f 521/930 517/929 518/928 524/927 
f 528/938 527/937 526/936 525/935 
f 532/937 531/936 530/935 529/938 
f 526/942 527/941 531/940 532/939 
f 525/946 526/945 532/944 529/943 
f 528/942 525/941 529/940 530/939 
f 536/950 535/949 534/948 533/947 
f 534/954 538/953 537/952 533/951 
f 538/958 540/957 539/956 537/955 
f 542/960 541/959 539/956 540/957 
f 544/962 543/961 541/959 542/960 
f 544/964 535/949 536/950 543/963 
f 548/968 547/967 546/966 545/965 
f 545/972 546/971 550/970 549/969 
f 549/976 550/975 552/974 551/973 
f 552/974 554/978 553/977 551/973 
f 554/978 556/980 555/979 553/977 
f 556/982 547/967 548/968 555/981 
f 548/968 545/965 534/948 535/949 
f 545/972 549/969 538/953 534/954 
f 538/958 549/976 551/973 540/957 
f 551/973 553/977 542/960 540/957 
f 555/979 544/962 542/960 553/977 
f 548/968 535/949 544/964 555/981 
f 558/984 536/950 533/947 557/983 
f 557/986 533/951 537/952 559/985 
f 559/988 537/955 539/956 560/987 
f 560/987 539/956 541/959 561/989 
f 561/989 541/959 543/961 562/990 
f 543/963 536/950 558/984 562/991 
f 566/995 565/994 564/993 563/992 
f 564/999 568/998 567/997 563/996 
f 568/1003 570/1002 569/1001 567/1000 
f 572/1005 571/1004 569/1001 570/1002 
f 574/1007 573/1006 571/1004 572/1005 
f 574/1009 565/994 566/995 573/1008 
f 578/1013 577/1012 576/1011 575/1010 
f 575/1017 576/1016 580/1015 579/1014 
f 579/1021 580/1020 582/1019 581/1018 
f 582/1019 584/1023 583/1022 581/1018 
f 584/1023 586/1025 585/1024 583/1022 
f 586/1027 577/1012 578/1013 585/1026 
f 578/1013 575/1010 564/993 565/994 
f 575/1017 579/1014 568/998 564/999 
f 568/1003 579/1021 581/1018 570/1002 
f 581/1018 583/1022 572/1005 570/1002 
f 585/1024 574/1007 572/1005 583/1022 
f 578/1013 565/994 574/1009 585/1026 
usemtl Material__603
f 272/1030 273/1029 588/1028 587/1031 
f 590/1035 589/1034 587/1033 588/1032 
usemtl Material__570
f 594/1039 593/1038 592/1037 591/1036 
f 598/1038 597/1037 596/1036 595/1039 
f 595/1043 596/1042 594/1041 591/1040 
f 596/1047 597/1046 593/1045 594/1044 
f 597/1043 598/1042 592/1041 593/1040 
usemtl Material__603
f 602/1051 601/1050 600/1049 599/1048 
f 606/1055 605/1054 604/1053 603/1052 
f 603/1059 604/1058 602/1057 599/1056 
f 604/1063 605/1062 601/1061 602/1060 
f 605/1059 606/1058 600/1057 601/1056 
f 610/1067 609/1066 608/1065 607/1064 
f 614/1071 613/1070 612/1069 611/1068 
f 611/1075 612/1074 610/1073 607/1072 
f 612/1079 613/1078 609/1077 610/1076 
f 613/1075 614/1074 608/1073 609/1072 
usemtl Material__570
f 618/1083 617/1082 616/1081 615/1080 
f 622/1082 621/1081 620/1080 619/1083 
f 616/1087 617/1086 621/1085 622/1084 
f 615/1091 616/1090 622/1089 619/1088 
f 620/1093 618/1092 615/1091 619/1088 
f 626/1097 625/1096 624/1095 623/1094 
f 630/1096 629/1095 628/1094 627/1097 
f 627/1101 628/1100 626/1099 623/1098 
f 628/1105 629/1104 625/1103 626/1102 
f 629/1101 630/1100 624/1099 625/1098 
usemtl Material__603
f 634/1109 633/1108 632/1107 631/1106 
f 638/1113 637/1112 636/1111 635/1110 
f 635/1117 636/1116 634/1115 631/1114 
f 636/1121 637/1120 633/1119 634/1118 
f 637/1117 638/1116 632/1115 633/1114 
f 642/1125 641/1124 640/1123 639/1122 
f 646/1129 645/1128 644/1127 643/1126 
f 643/1133 644/1132 642/1131 639/1130 
f 644/1137 645/1136 641/1135 642/1134 
f 645/1133 646/1132 640/1131 641/1130 
usemtl Material__570
f 650/1141 649/1140 648/1139 647/1138 
f 654/1140 653/1139 652/1138 651/1141 
f 648/1145 649/1144 653/1143 654/1142 
f 647/1149 648/1148 654/1147 651/1146 
f 650/1145 647/1144 651/1143 652/1142 
f 658/1153 657/1152 656/1151 655/1150 
f 662/1150 661/1153 660/1152 659/1151 
f 661/1157 657/1156 658/1155 660/1154 
f 660/1161 658/1160 655/1159 659/1158 
f 659/1157 655/1156 656/1155 662/1154 
f 666/1165 665/1164 664/1163 663/1162 
f 668/1169 667/1168 666/1167 663/1166 
f 670/1173 669/1172 667/1171 668/1170 
f 670/1173 672/1175 671/1174 669/1172 
f 672/1175 674/1177 673/1176 671/1174 
f 664/1163 665/1164 673/1179 674/1178 
f 678/1183 677/1182 676/1181 675/1180 
f 680/1187 678/1186 675/1185 679/1184 
f 682/1191 680/1190 679/1189 681/1188 
f 684/1193 683/1192 682/1191 681/1188 
f 686/1195 685/1194 683/1192 684/1193 
f 676/1181 677/1182 685/1197 686/1196 
f 666/1165 675/1180 676/1181 665/1164 
f 667/1168 679/1184 675/1185 666/1167 
f 681/1188 679/1189 667/1171 669/1172 
f 671/1174 684/1193 681/1188 669/1172 
f 671/1174 673/1176 686/1195 684/1193 
f 673/1179 665/1164 676/1181 686/1196 
f 663/1162 664/1163 688/1199 687/1198 
f 668/1169 663/1166 687/1201 689/1200 
f 670/1173 668/1170 689/1203 690/1202 
f 672/1175 670/1173 690/1202 691/1204 
f 674/1177 672/1175 691/1204 692/1205 
f 688/1199 664/1163 674/1178 692/1206 
f 696/1210 695/1209 694/1208 693/1207 
f 698/1214 697/1213 696/1212 693/1211 
f 700/1218 699/1217 697/1216 698/1215 
f 700/1218 702/1220 701/1219 699/1217 
f 702/1220 704/1222 703/1221 701/1219 
f 694/1208 695/1209 703/1224 704/1223 
f 708/1228 707/1227 706/1226 705/1225 
f 710/1232 708/1231 705/1230 709/1229 
f 712/1236 710/1235 709/1234 711/1233 
f 714/1238 713/1237 712/1236 711/1233 
f 716/1240 715/1239 713/1237 714/1238 
f 706/1226 707/1227 715/1242 716/1241 
f 696/1210 705/1225 706/1226 695/1209 
f 697/1213 709/1229 705/1230 696/1212 
f 711/1233 709/1234 697/1216 699/1217 
f 701/1219 714/1238 711/1233 699/1217 
f 701/1219 703/1221 716/1240 714/1238 
f 703/1224 695/1209 706/1226 716/1241 
usemtl Material__603
f 428/1245 458/1244 459/1243 427/1246 
f 427/1249 459/1248 460/1247 429/1250 
usemtl Material__615
f 14/1283 718/1288 717/1287 430/1282 
usemtl Material__603
f 434/1253 589/1252 590/1251 433/1254 
f 272/1257 587/1256 589/1255 434/1258 
usemtl Material__615
f 430/1282 717/1287 719/1289 16/1286 
usemtl Material__603
f 460/1261 457/1260 436/1259 429/1262 
usemtl Material__570
f 566/995 563/992 438/1263 437/1264 
f 563/996 567/997 439/1265 438/1266 
f 567/1000 569/1001 440/1267 439/1268 
f 569/1001 571/1004 441/1269 440/1267 
f 571/1004 573/1006 442/1270 441/1269 
f 573/1008 566/995 437/1264 442/1271 
f 693/1207 694/1208 444/1272 443/1273 
f 698/1214 693/1211 443/1274 445/1275 
f 700/1218 698/1215 445/1276 446/1277 
f 702/1220 700/1218 446/1277 447/1278 
f 704/1222 702/1220 447/1278 448/1279 
f 694/1208 704/1223 448/1280 444/1272 
# 498 polygons

