# 3ds Max Wavefront OBJ Exporter v0.97b - (c)2007 guruware
# 创建的文件:11.03.2020 16:15:39

mtllib electric_tower_1005_01.mtl

#
# object 对象182
#

v  -288.6399 137.4146 669.7580
v  -288.1907 133.2643 656.9462
v  -288.1904 133.6154 656.2330
v  -288.6396 137.7656 669.0450
v  -286.6859 109.5369 670.8475
v  -286.6802 114.1211 655.1115
v  -286.6805 114.6140 656.0120
v  -286.6863 110.0298 671.7477
v  -287.2665 119.2410 670.1529
v  -287.2613 123.4207 655.8058
v  -287.2617 123.9135 656.7061
v  -287.2669 119.7338 671.0532
v  -286.3162 103.1282 654.9490
v  -286.3166 103.6210 655.8494
v  -286.3224 98.9420 671.9105
v  -286.3220 98.4491 671.0104
v  -281.8974 5.4899 675.8184
v  -281.8880 12.9694 650.1443
v  -281.8883 13.4622 651.0443
v  -281.8977 5.9827 676.7188
v  -281.8885 13.1587 651.5720
v  -281.8882 13.6325 650.6099
v  -282.8544 21.6275 675.2906
v  -282.8548 21.1537 676.2527
v  -282.7773 20.6694 674.9348
v  -282.7686 27.6341 651.0275
v  -282.7690 28.1269 651.9276
v  -282.7776 21.1622 675.8347
v  -285.9188 91.8636 654.1080
v  -285.9191 92.3564 655.0079
v  -285.9256 87.1871 672.7521
v  -285.9252 86.6943 671.8519
v  -281.9108 6.0265 675.2910
v  -281.9111 5.5528 676.2531
v  -280.9449 -2.4422 651.5723
v  -280.9445 -1.9685 650.6102
v  -285.8723 92.7765 655.4731
v  -285.8719 93.2503 654.5109
v  -285.9730 98.5169 670.7692
v  -285.9732 98.0431 671.7315
v  -285.9734 86.7045 672.4336
v  -285.8720 80.9831 654.7710
v  -285.8717 81.4568 653.8090
v  -285.9731 87.1783 671.4714
v  -280.9537 -10.1111 675.8187
v  -280.9443 -2.6315 650.1447
v  -280.9446 -2.1387 651.0446
v  -280.9540 -9.6183 676.7191
v  -300.5945 172.0833 658.5838
v  -300.5945 171.5046 658.5838
v  -300.2708 171.5174 667.8479
v  -300.2708 172.0961 667.8479
v  -300.5229 170.7520 659.0565
v  -300.5227 170.4252 658.4594
v  -300.7410 167.7062 667.7930
v  -300.7412 168.0330 668.3900
v  -301.1470 164.7009 657.7457
v  -301.1473 164.3599 658.4385
v  -300.8238 167.5272 668.2163
v  -300.8235 167.8682 667.5236
v  -301.4117 160.4347 668.6761
v  -301.4119 160.7614 669.2731
v  -300.7354 163.9953 658.1730
v  -300.7351 163.6685 657.5759
v  -300.9670 156.9253 658.1730
v  -300.9669 156.5985 657.5759
v  -301.6434 153.3646 668.6760
v  -301.6436 153.6914 669.2730
v  -301.3524 160.5739 668.5768
v  -301.3522 160.9150 667.8842
v  -301.3785 157.5140 657.3848
v  -301.3788 157.1729 658.0776
v  -302.0932 145.6403 668.9868
v  -302.0934 146.0429 669.7220
v  -301.4167 149.4982 657.8617
v  -301.4164 149.0956 657.1265
v  -301.8284 149.6848 657.8112
v  -301.8023 153.3187 669.0295
v  -301.8021 153.7058 668.2434
v  -301.8281 150.0719 657.0253
v  -301.8282 141.5511 657.3839
v  -301.8024 145.4146 669.3109
v  -301.8022 145.7657 668.5977
v  -301.8280 141.9022 656.6709
v  -302.0890 141.5378 657.3813
v  -302.0887 141.1726 656.7144
v  -302.0934 137.4574 669.4669
v  -302.0936 137.8226 670.1340
v  -301.7015 137.4146 669.7534
v  -301.7013 137.7656 669.0403
v  -302.1412 133.6154 656.2281
v  -302.1415 133.2643 656.9414
v  -302.4068 128.6450 669.9402
v  -302.4071 129.0101 670.6072
v  -302.4021 133.0011 656.9078
v  -302.4018 132.6359 656.2408
v  -302.8097 124.1701 656.8873
v  -302.3701 128.5166 670.3054
v  -302.3697 128.9904 669.3430
v  -302.8093 124.6439 655.9251
v  -303.0703 123.9135 656.7003
v  -303.0700 123.4207 655.8000
v  -303.0752 119.2410 670.1472
v  -303.0756 119.7338 671.0475
v  -302.9512 119.2251 670.9543
v  -302.9508 119.6989 669.9922
v  -303.3900 114.9317 655.2755
v  -303.3904 114.4579 656.2379
v  -303.6510 114.6140 656.0057
v  -303.6506 114.1211 655.1054
v  -303.6563 109.5369 670.8414
v  -303.6566 110.0298 671.7415
v  -303.9723 109.3032 670.9540
v  -303.9720 109.7769 669.9918
v  -304.0615 105.0098 655.2751
v  -304.0619 104.5360 656.2376
v  -304.0203 98.4491 671.0040
v  -304.0206 98.9420 671.9042
v  -304.0148 103.6210 655.8429
v  -304.0145 103.1282 654.9428
v  -304.4588 92.7765 655.4663
v  -304.3697 98.0431 671.7247
v  -304.3694 98.5169 670.7625
v  -304.4584 93.2503 654.5041
v  -304.4117 92.3564 655.0014
v  -304.4113 91.8636 654.1013
v  -304.4178 86.6943 671.8453
v  -304.4181 87.1871 672.7454
v  -304.4584 80.9831 654.7642
v  -304.3700 86.7045 672.4271
v  -304.3696 87.1783 671.4647
v  -304.4581 81.4568 653.8021
v  -309.3831 -2.1387 651.0346
v  -309.3828 -2.6315 650.1343
v  -309.3922 -10.1111 675.8087
v  -309.3925 -9.6183 676.7088
v  -309.3834 -2.4422 651.5619
v  -308.4351 5.5528 676.2434
v  -308.4348 6.0265 675.2815
v  -309.3830 -1.9685 650.5999
v  -308.4392 12.9694 650.1346
v  -308.4485 5.4899 675.8090
v  -308.4489 5.9827 676.7091
v  -308.4395 13.4622 651.0350
v  -308.4393 13.6325 650.6001
v  -308.4396 13.1587 651.5623
v  -307.4913 21.1537 676.2437
v  -307.4910 21.6275 675.2818
v  -307.5679 20.6694 674.9257
v  -307.5682 21.1622 675.8259
v  -307.5595 28.1269 651.9186
v  -307.5591 27.6341 651.0184
v  -306.6106 35.6593 674.9583
v  -306.6102 36.1331 673.9961
v  -307.5594 28.9711 651.8864
v  -307.5598 28.4973 652.8483
v  -306.7725 42.9270 652.4651
v  -306.7729 42.4532 653.4275
v  -305.8233 49.2403 674.3801
v  -305.8229 49.7141 673.4178
v  -306.7724 42.1137 652.2131
v  -306.7803 35.8448 673.7318
v  -306.7806 36.3376 674.6318
v  -306.7728 42.6066 653.1131
v  -305.9421 69.2146 653.5693
v  -305.9424 68.7408 654.5316
v  -304.3074 74.8128 673.2767
v  -304.3070 75.2866 672.3145
v  -305.9423 68.4779 654.2480
v  -305.9420 67.9850 653.3477
v  -305.9490 62.3771 672.5976
v  -305.9493 62.8700 673.4976
v  -304.4179 75.0095 672.2529
v  -304.4183 75.5023 673.1532
v  -304.4115 80.9092 654.5936
v  -304.4111 80.4163 653.6934
v  -305.9419 55.8639 653.1135
v  -305.9416 55.3711 652.2134
v  -305.9493 49.1021 673.7321
v  -305.9497 49.5950 674.6321
v  -305.8323 62.0419 673.8123
v  -305.8320 62.5157 672.8502
v  -305.9419 56.0964 653.0332
v  -305.9423 55.6227 653.9954
v  -285.9257 75.5023 673.1599
v  -285.9254 75.0095 672.2596
v  -285.9186 80.4163 653.7001
v  -285.9189 80.9092 654.6003
v  -283.7346 35.6593 674.9666
v  -282.7693 28.4973 652.8573
v  -282.7689 28.9711 651.8953
v  -283.7342 36.1331 674.0044
v  -283.5562 42.1137 652.2213
v  -283.5565 42.6066 653.1216
v  -283.5643 36.3377 674.6401
v  -283.5640 35.8448 673.7402
v  -286.0367 74.8128 673.2834
v  -284.3879 68.7408 654.5392
v  -284.3876 69.2146 653.5770
v  -286.0363 75.2866 672.3212
v  -284.3950 49.1021 673.7399
v  -284.3871 55.3711 652.2209
v  -284.3874 55.8639 653.1213
v  -284.3953 49.5950 674.6400
v  -288.2477 145.6403 668.9918
v  -288.9160 149.0956 657.1309
v  -288.9162 149.4982 657.8663
v  -288.2480 146.0429 669.7272
v  -288.5384 153.7058 668.2482
v  -288.5386 153.3187 669.0344
v  -288.5043 149.6848 657.8163
v  -288.5040 150.0719 657.0300
v  -289.1860 164.3599 658.4427
v  -289.1857 164.7009 657.7501
v  -289.5164 167.8682 667.5275
v  -289.5166 167.5272 668.2203
v  -288.9541 157.1729 658.0820
v  -288.9539 157.5140 657.3893
v  -288.9879 160.9150 667.8887
v  -288.9882 160.5739 668.5814
v  -288.6974 153.6914 669.2776
v  -288.6973 153.3646 668.6808
v  -289.3658 156.5985 657.5801
v  -289.3660 156.9253 658.1768
v  -284.3878 55.6227 654.0032
v  -284.3874 56.0965 653.0409
v  -284.5117 62.5157 672.8578
v  -284.5120 62.0419 673.8200
v  -284.3948 62.8700 673.5055
v  -284.3945 62.3771 672.6053
v  -284.3875 67.9850 653.3556
v  -284.3878 68.4779 654.2559
v  -283.5566 42.4532 653.4359
v  -283.5563 42.9270 652.4736
v  -284.5212 49.7141 673.4255
v  -284.5215 49.2403 674.3879
v  -288.9293 160.7614 669.2775
v  -288.9291 160.4347 668.6807
v  -289.5975 163.6685 657.5800
v  -289.5977 163.9953 658.1768
v  -289.7388 171.5046 658.5878
v  -289.7388 172.0833 658.5878
v  -290.0693 172.0961 667.8517
v  -290.0693 171.5174 667.8517
v  -289.5993 168.0330 668.3939
v  -289.5991 167.7062 667.7969
v  -289.8106 170.4252 658.4634
v  -289.8108 170.7520 659.0604
v  -287.9351 129.0101 670.6124
v  -287.9348 128.6450 669.9456
v  -287.9299 132.6359 656.2460
v  -287.9301 133.0011 656.9131
v  -288.5388 145.4146 669.3154
v  -288.5042 141.5511 657.3888
v  -288.5039 141.9022 656.6757
v  -288.5385 145.7657 668.6025
v  -287.5221 124.6439 655.9305
v  -287.9714 128.9904 669.3482
v  -287.9719 128.5166 670.3105
v  -287.5224 124.1701 656.8929
v  -287.3912 119.2251 670.9600
v  -286.9413 114.4579 656.2437
v  -286.9409 114.9317 655.2814
v  -287.3909 119.6989 669.9979
v  -288.2435 141.5378 657.3862
v  -288.2482 137.8226 670.1391
v  -288.2479 137.4574 669.4720
v  -288.2432 141.1726 656.7192
v  -286.3701 109.3031 670.9604
v  -286.2697 104.5360 656.2438
v  -286.2695 105.0098 655.2816
v  -286.3697 109.7769 669.9982
v  -289.3793 160.4347 669.4030
v  -288.7347 160.7614 669.4033
v  -300.7232 163.9953 668.7264
v  -301.3680 163.6685 668.7262
v  -306.1873 55.8639 673.9330
v  -307.1595 55.3711 673.9324
v  -283.9188 49.1021 673.9410
v  -282.9466 49.5950 673.9413
v  -305.2347 55.6227 673.9332
v  -283.8321 62.0419 673.8240
v  -284.8714 62.5157 673.8237
v  -306.2740 56.0965 673.9329
v  -287.9584 109.7769 671.9634
v  -303.8526 105.0098 672.0527
v  -302.8133 104.5360 672.0530
v  -286.9192 109.3031 671.9637
v  -301.3680 156.5985 668.9581
v  -289.3795 153.3646 669.6348
v  -288.7347 153.6914 669.6350
v  -300.7233 156.9253 668.9583
v  -300.8260 157.1729 669.3700
v  -289.4867 160.5739 669.3439
v  -290.2348 160.9150 669.3436
v  -301.5742 157.5140 669.3697
v  -288.2497 146.0429 670.0850
v  -301.0591 149.4982 669.4078
v  -301.8533 149.0956 669.4073
v  -289.0439 145.6403 670.0847
v  -300.2793 171.5046 668.5856
v  -290.2739 171.5174 668.2621
v  -290.2739 172.0961 668.2621
v  -300.2793 172.0833 668.5856
v  -289.6887 168.0330 668.7326
v  -299.7690 170.7520 668.5142
v  -300.4136 170.4252 668.5139
v  -290.3334 167.7062 668.7323
v  -300.4363 164.3599 669.1382
v  -289.8762 167.5272 668.8151
v  -290.6243 167.8682 668.8148
v  -301.1845 164.7009 669.1381
v  -284.4104 74.8128 672.2988
v  -285.4497 75.2866 672.2986
v  -305.6951 69.2146 673.9330
v  -304.6558 68.7408 673.9333
v  -305.9341 67.9850 673.9329
v  -285.1442 62.3771 673.9406
v  -284.1719 62.8700 673.9410
v  -304.9619 68.4779 673.9334
v  -284.5439 75.5023 672.4100
v  -304.5888 80.9092 672.4026
v  -305.5610 80.4163 672.4022
v  -285.5162 75.0095 672.4095
v  -286.8652 98.4491 672.0118
v  -285.8929 98.9420 672.0122
v  -303.2396 103.6210 672.0060
v  -304.2118 103.1282 672.0056
v  -287.1260 98.5169 672.3608
v  -304.6853 93.2503 672.4493
v  -303.6461 92.7766 672.4498
v  -286.0868 98.0431 672.3612
v  -285.9566 86.6943 672.4094
v  -284.9844 87.1871 672.4098
v  -304.1483 92.3564 672.4028
v  -305.1206 91.8636 672.4023
v  -301.1136 149.6848 669.8195
v  -288.9977 153.3187 669.7938
v  -289.8467 153.7058 669.7935
v  -301.9626 150.0719 669.8192
v  -288.6941 145.4146 669.7939
v  -289.4641 145.7657 669.7936
v  -302.3453 141.9022 669.8191
v  -301.5753 141.5511 669.8193
v  -287.8048 137.8226 670.0851
v  -301.5782 141.5378 670.0801
v  -302.2985 141.1726 670.0798
v  -288.5252 137.4574 670.0848
v  -288.9860 137.7656 669.6927
v  -302.8234 133.6154 670.1324
v  -302.0535 133.2643 670.1326
v  -288.2160 137.4146 669.6929
v  -287.2938 129.0101 670.3986
v  -302.0894 133.0011 670.3932
v  -302.8098 132.6359 670.3929
v  -288.0142 128.6450 670.3983
v  -287.6199 128.5166 670.3615
v  -288.6592 128.9904 670.3611
v  -303.1508 124.6439 670.8003
v  -302.1115 124.1701 670.8007
v  -302.3135 123.9135 671.0613
v  -303.2857 123.4207 671.0610
v  -287.7905 119.2410 671.0668
v  -286.8183 119.7338 671.0670
v  -287.9581 119.6989 670.9421
v  -303.8524 114.9317 671.3811
v  -302.8131 114.4579 671.3813
v  -286.9188 119.2251 670.9426
v  -287.0408 109.5369 671.6479
v  -286.0687 110.0298 671.6483
v  -303.0636 114.6140 671.6421
v  -304.0359 114.1211 671.6417
v  -286.3676 87.1783 672.3611
v  -305.4435 81.4568 672.4490
v  -304.4044 80.9831 672.4494
v  -285.3284 86.7045 672.3615
v  -281.6760 -10.1111 677.3839
v  -280.7039 -9.6183 677.3842
v  -308.4326 -2.1387 677.3741
v  -309.4048 -2.6315 677.3738
v  -308.9019 -1.9685 677.3739
v  -307.8628 -2.4422 677.3743
v  -281.2063 5.5528 676.4268
v  -282.2454 6.0265 676.4263
v  -309.4045 12.9694 676.4302
v  -281.6757 5.4899 676.4402
v  -280.7034 5.9827 676.4407
v  -308.4323 13.4623 676.4304
v  -281.2059 21.1537 675.4832
v  -282.2452 21.6275 675.4828
v  -308.9016 13.6325 676.4303
v  -307.8624 13.1587 676.4307
v  -281.6574 21.1622 675.5598
v  -307.4776 28.1269 675.5505
v  -308.4498 27.6341 675.5500
v  -282.6298 20.6694 675.5596
v  -282.5942 35.6593 674.6022
v  -283.6335 36.1331 674.6019
v  -307.5126 28.9711 675.5504
v  -306.4734 28.4973 675.5508
v  -306.8874 42.9270 674.7635
v  -305.8481 42.4532 674.7640
v  -283.2189 49.2403 673.8149
v  -284.2582 49.7141 673.8146
v  -282.9470 36.3377 674.7724
v  -306.1876 42.6066 674.7639
v  -307.1598 42.1137 674.7635
v  -283.9191 35.8448 674.7719
v  -300.2756 172.0833 658.6115
v  -290.2705 172.0961 658.9423
v  -290.2705 171.5174 658.9423
v  -300.2756 171.5046 658.6115
v  -300.4101 170.4252 658.6835
v  -299.7654 170.7520 658.6837
v  -289.6849 168.0330 658.4723
v  -290.3296 167.7062 658.4721
v  -290.6205 167.8682 658.3895
v  -289.8723 167.5272 658.3897
v  -300.4324 164.3599 658.0587
v  -301.1805 164.7009 658.0585
v  -304.1420 92.3564 654.7917
v  -284.9780 87.1871 654.7987
v  -285.9501 86.6943 654.7983
v  -305.1142 91.8636 654.7913
v  -285.3220 86.7045 654.8465
v  -304.3979 80.9831 654.7446
v  -305.4371 81.4568 654.7443
v  -286.3613 87.1783 654.8461
v  -281.6660 -10.1111 649.8270
v  -309.3948 -2.6315 649.8169
v  -308.4225 -2.1387 649.8173
v  -280.6938 -9.6183 649.8274
v  -308.8920 -1.9685 649.8171
v  -282.2361 6.0265 650.7841
v  -281.1969 5.5528 650.7845
v  -307.8528 -2.4422 649.8175
v  -280.6941 5.9827 650.7709
v  -281.6663 5.4899 650.7706
v  -309.3951 12.9694 650.7606
v  -308.4228 13.4622 650.7609
v  -308.8922 13.6325 650.7607
v  -282.2365 21.6275 651.7277
v  -281.1972 21.1537 651.7281
v  -307.8531 13.1587 650.7611
v  -308.4411 27.6341 651.6412
v  -307.4688 28.1269 651.6416
v  -281.6487 21.1622 651.6510
v  -282.6210 20.6694 651.6506
v  -306.4647 28.4973 651.6420
v  -307.5040 28.9711 651.6416
v  -283.6254 36.1331 652.6076
v  -282.5862 35.6593 652.6079
v  -283.2115 49.2403 653.3948
v  -305.8401 42.4532 652.4293
v  -306.8792 42.9270 652.4288
v  -284.2507 49.7141 653.3943
v  -301.3643 163.6685 658.4702
v  -300.7195 163.9953 658.4703
v  -288.7304 160.7614 657.8024
v  -289.3751 160.4347 657.8022
v  -287.9523 109.7769 655.2430
v  -286.9131 109.3031 655.2433
v  -302.8072 104.5360 655.1425
v  -303.8464 105.0098 655.1421
v  -304.2057 103.1282 655.1888
v  -303.2335 103.6210 655.1892
v  -285.8868 98.9420 655.1956
v  -286.8590 98.4491 655.1952
v  -303.6396 92.7765 654.7449
v  -304.6788 93.2503 654.7445
v  -287.1196 98.5169 654.8459
v  -286.0804 98.0431 654.8463
v  -289.3750 153.3646 657.5702
v  -301.3641 156.5985 658.2386
v  -300.7194 156.9253 658.2389
v  -288.7304 153.6914 657.5706
v  -289.4825 160.5739 657.8613
v  -300.8219 157.1729 657.8269
v  -301.5701 157.5140 657.8267
v  -290.2307 160.9150 657.8612
v  -289.0393 145.6403 657.1209
v  -301.8491 149.0956 657.7885
v  -301.0548 149.4982 657.7888
v  -288.2449 146.0429 657.1212
v  -301.1090 149.6848 657.3770
v  -301.9581 150.0719 657.3767
v  -289.8422 153.7058 657.4113
v  -288.9931 153.3187 657.4115
v  -301.5707 141.5511 657.3769
v  -302.3407 141.9022 657.3766
v  -289.4596 145.7657 657.4114
v  -288.6896 145.4146 657.4117
v  -288.5204 137.4574 657.1211
v  -302.2938 141.1726 657.1160
v  -301.5734 141.5378 657.1162
v  -287.8001 137.8226 657.1213
v  -288.2115 137.4146 657.5129
v  -302.0486 133.2643 657.0635
v  -302.8187 133.6154 657.0631
v  -288.9816 137.7656 657.5126
v  -288.0092 128.6450 656.8079
v  -302.8049 132.6359 656.8026
v  -302.0845 133.0011 656.8029
v  -287.2888 129.0101 656.8082
v  -302.1063 124.1701 656.3951
v  -303.1456 124.6439 656.3948
v  -288.6542 128.9904 656.8446
v  -287.6150 128.5166 656.8450
v  -303.2803 123.4207 656.1341
v  -302.3081 123.9135 656.1345
v  -286.8128 119.7338 656.1400
v  -287.7851 119.2410 656.1398
v  -286.9135 119.2251 656.2644
v  -302.8074 114.4579 655.8138
v  -303.8466 114.9317 655.8135
v  -287.9527 119.6989 656.2640
v  -287.0350 109.5369 655.5591
v  -304.0300 114.1211 655.5529
v  -303.0577 114.6140 655.5533
v  -286.0627 110.0298 655.5594
v  -283.9109 35.8448 652.4372
v  -307.1516 42.1137 652.4288
v  -306.1793 42.6066 652.4291
v  -282.9388 36.3377 652.4377
v  -304.6483 68.7408 653.2606
v  -305.6874 69.2146 653.2601
v  -285.4434 75.2866 654.9094
v  -284.4041 74.8128 654.9098
v  -285.1365 62.3771 653.2676
v  -305.9266 67.9850 653.2601
v  -304.9544 68.4779 653.2604
v  -284.1644 62.8700 653.2681
v  -285.5098 75.0095 654.7985
v  -305.5546 80.4163 654.7911
v  -304.5824 80.9092 654.7916
v  -284.5375 75.5023 654.7990
v  -283.9113 49.1021 653.2681
v  -307.1519 55.3711 653.2596
v  -306.1797 55.8639 653.2599
v  -282.9390 49.5950 653.2684
v  -283.8246 62.0419 653.3853
v  -305.2271 55.6227 653.2603
v  -306.2664 56.0964 653.2599
v  -284.8639 62.5157 653.3848
v  -311.2183 61.0508 672.2021
v  -310.3253 61.0508 671.6923
v  -320.8834 61.0508 653.2003
v  -321.7764 61.0508 653.7101
v  -305.2880 172.7228 657.7744
v  -305.2916 172.7228 667.2834
v  -304.2632 172.7228 667.2838
v  -304.2596 172.7228 657.7747
v  -314.3417 109.6633 655.6314
v  -315.1859 109.6633 655.0442
v  -325.4306 109.6632 669.7681
v  -324.5865 109.6632 670.3555
v  -324.8550 109.6632 669.0845
v  -336.7145 109.6633 655.6270
v  -337.4860 109.6633 656.3069
v  -325.6265 109.6632 669.7644
v  -303.6304 109.6632 669.7725
v  -302.8588 109.6632 669.0925
v  -314.7182 109.6633 655.6350
v  -315.4897 109.6633 656.3148
v  -332.0574 61.0508 672.1256
v  -321.2265 61.0508 653.7920
v  -322.1120 61.0508 653.2688
v  -332.9428 61.0508 671.6025
v  -333.5814 61.0508 672.1940
v  -332.6884 61.0508 671.6840
v  -343.2465 61.0508 653.1921
v  -344.1395 61.0508 653.7020
v  -343.7707 61.0508 653.6563
v  -344.7991 61.0508 653.6558
v  -344.8058 61.0508 671.7256
v  -343.7774 61.0508 671.7259
v  -312.3405 175.4927 667.2810
v  -312.3369 175.4928 657.7717
v  -313.3653 175.4928 657.7713
v  -313.3690 175.4927 667.2806
v  -271.7696 61.0508 671.6248
v  -270.8842 61.0508 672.1478
v  -260.0533 61.0508 653.8143
v  -260.9388 61.0508 653.2912
v  -249.1520 61.0508 671.7145
v  -259.7101 61.0508 653.2226
v  -260.6032 61.0508 653.7324
v  -250.0451 61.0508 672.2245
v  -272.4081 61.0508 672.2163
v  -271.5151 61.0508 671.7064
v  -282.0732 61.0508 653.2144
v  -282.9664 61.0508 653.7244
v  -248.9069 61.0508 671.7606
v  -247.8786 61.0508 671.7609
v  -247.8719 61.0508 653.6912
v  -248.9003 61.0508 653.6907
v  -302.5472 172.5016 658.8918
v  -302.5469 172.5016 658.1038
v  -302.5469 172.0380 658.1038
v  -302.5472 172.0380 658.8918
v  -288.8027 172.0380 658.1088
v  -288.8030 172.0380 658.8967
v  -288.8027 172.5016 658.1088
v  -288.8030 172.5016 658.8967
v  -262.8276 181.4826 657.0731
v  -262.8279 181.4826 657.8611
v  -262.5328 181.0949 657.8611
v  -262.5324 181.0949 657.0732
v  -289.6826 171.8887 658.8386
v  -289.6823 171.8887 658.0507
v  -289.9777 172.2764 658.8385
v  -289.9774 172.2764 658.0505
v  -329.6082 181.6692 658.0433
v  -329.6078 181.6692 656.9535
v  -329.6078 181.0280 656.9535
v  -329.6082 181.0280 658.0433
v  -262.5033 181.0280 656.9780
v  -262.5037 181.0280 658.0676
v  -262.5033 181.6692 656.9780
v  -262.5037 181.6692 658.0676
v  -329.3353 181.4826 657.0487
v  -329.6304 181.0949 657.0486
v  -329.6307 181.0949 657.8367
v  -329.3356 181.4826 657.8367
v  -302.4817 171.9053 658.8339
v  -302.4814 171.9053 658.0460
v  -302.1863 172.2930 658.0460
v  -302.1865 172.2930 658.8340
v  -329.3392 181.4826 667.7801
v  -329.3390 181.4826 666.9921
v  -329.6341 181.0949 666.9919
v  -329.6343 181.0949 667.7799
v  -302.4854 171.9053 668.7772
v  -302.4851 171.9053 667.9893
v  -302.1899 172.2930 667.9893
v  -302.1902 172.2930 668.7773
v  -329.6118 181.6692 667.9864
v  -329.6114 181.6692 666.8966
v  -329.6114 181.0280 666.8966
v  -329.6118 181.0280 667.9864
v  -262.5070 181.0280 666.9213
v  -262.5074 181.0280 668.0108
v  -262.5074 181.6692 668.0108
v  -262.5070 181.6692 666.9213
v  -262.5362 181.0949 667.0164
v  -262.8312 181.4826 667.0162
v  -262.8315 181.4826 667.8042
v  -262.5364 181.0949 667.8044
v  -289.6859 171.8887 667.9938
v  -289.6862 171.8887 668.7818
v  -289.9813 172.2764 668.7817
v  -289.9810 172.2764 667.9937
v  -302.5508 172.5016 668.8350
v  -302.5505 172.5016 668.0470
v  -302.5505 172.0380 668.0470
v  -302.5508 172.0380 668.8350
v  -288.8066 172.0380 668.8400
v  -288.8063 172.0380 668.0519
v  -288.8063 172.5016 668.0519
v  -288.8066 172.5016 668.8400
v  -337.9574 109.5381 670.2185
v  -338.3290 110.1567 670.2183
v  -338.3286 110.1567 669.4304
v  -337.9572 109.5381 669.4305
v  -304.1476 124.8185 671.2181
v  -304.1474 124.8185 670.4302
v  -303.7761 124.1999 671.2183
v  -303.7758 124.1999 670.4304
v  -338.3006 109.2405 670.4249
v  -338.3006 110.2634 670.4249
v  -338.3002 110.2634 669.3351
v  -338.3002 109.2405 669.3351
v  -253.8141 110.2634 669.3660
v  -253.8145 110.2634 670.4557
v  -253.8145 109.2405 670.4557
v  -253.8141 109.2405 669.3660
v  -254.2224 109.5381 669.4611
v  -253.8508 110.1567 669.4611
v  -253.8511 110.1567 670.2491
v  -254.2227 109.5381 670.2491
v  -288.0329 124.8450 670.4360
v  -288.0331 124.8450 671.2239
v  -288.4044 124.2264 670.4359
v  -288.4047 124.2264 671.2239
v  -304.2297 124.6068 670.4879
v  -304.2297 123.8671 670.4879
v  -304.2300 123.8671 671.2760
v  -304.2300 124.6068 671.2760
v  -286.9257 124.6068 671.2823
v  -286.9255 124.6068 670.4942
v  -286.9257 123.8671 671.2823
v  -286.9255 123.8671 670.4942
v  -304.2245 124.6068 655.9431
v  -304.2245 123.8671 655.9431
v  -304.2247 123.8671 656.7311
v  -304.2247 124.6068 656.7311
v  -286.9202 124.6068 655.9493
v  -286.9205 124.6068 656.7374
v  -286.9205 123.8671 656.7374
v  -286.9202 123.8671 655.9493
v  -253.8455 110.1567 654.9163
v  -253.8458 110.1567 655.7042
v  -254.2173 109.5381 655.7040
v  -254.2171 109.5381 654.9161
v  -288.0275 124.8450 655.8912
v  -288.0278 124.8450 656.6792
v  -288.3992 124.2264 655.8911
v  -288.3994 124.2264 656.6790
v  -338.2952 109.2404 655.8800
v  -338.2952 110.2634 655.8800
v  -338.2948 110.2634 654.7904
v  -338.2948 109.2404 654.7904
v  -253.8091 110.2634 655.9108
v  -253.8088 110.2634 654.8212
v  -253.8091 109.2404 655.9108
v  -253.8088 109.2404 654.8212
v  -338.3234 110.1567 654.8854
v  -337.9518 109.5381 654.8855
v  -337.9521 109.5381 655.6736
v  -338.3237 110.1567 655.6735
v  -304.1423 124.8185 656.6733
v  -304.1420 124.8185 655.8853
v  -303.7708 124.1999 656.6735
v  -303.7705 124.1999 655.8854
v  -305.5542 77.4561 654.8962
v  -305.5542 78.3299 654.8962
v  -305.5540 78.3299 654.1083
v  -305.5540 77.4561 654.1083
v  -285.4285 78.3299 654.9035
v  -285.4282 78.3299 654.1155
v  -285.4285 77.4561 654.9035
v  -285.4282 77.4561 654.1155
v  -247.3931 60.5306 653.0842
v  -246.9610 61.2613 653.0843
v  -246.9612 61.2613 653.8723
v  -247.3934 60.5306 653.8721
v  -286.7162 78.6112 654.0573
v  -286.7164 78.6112 654.8452
v  -287.1486 77.8805 654.8450
v  -287.1483 77.8805 654.0571
v  -345.1797 60.1790 654.0431
v  -345.1797 61.3873 654.0431
v  -345.1793 61.3873 652.9533
v  -345.1793 60.1790 652.9533
v  -246.9186 61.3873 654.0789
v  -246.9183 61.3873 652.9892
v  -246.9186 60.1790 654.0789
v  -246.9183 60.1790 652.9892
v  -344.7806 60.5306 653.8365
v  -345.2128 61.2612 653.8365
v  -345.2126 61.2612 653.0485
v  -344.7803 60.5306 653.0486
v  -305.4583 78.5799 654.8384
v  -305.4580 78.5799 654.0503
v  -305.0262 77.8492 654.8385
v  -305.0259 77.8492 654.0505
v  -290.4330 172.1580 658.1514
v  -286.2162 79.9023 653.4713
v  -286.2169 79.9023 655.0186
v  -290.4334 172.1580 658.9764
v  -289.6082 172.1580 658.9767
v  -289.6079 172.1580 658.1516
v  -284.6694 79.9023 655.0191
v  -284.6688 79.9023 653.4718
v  -279.7299 -12.3534 648.7917
v  -281.9996 -12.3534 648.7910
v  -282.0004 -12.3534 651.0609
v  -279.7307 -12.3534 651.0618
v  -310.7597 -12.3534 648.7805
v  -310.7605 -12.3534 651.0504
v  -305.8247 79.9023 655.0114
v  -305.8241 79.9023 653.4641
v  -300.0634 172.1580 658.1478
v  -300.8885 172.1580 658.1476
v  -300.8889 172.1580 658.9727
v  -300.0637 172.1580 658.9729
v  -308.4908 -12.3534 651.0513
v  -308.4900 -12.3534 648.7814
v  -304.2766 79.9023 653.4647
v  -304.2772 79.9023 655.0120
v  -300.8922 172.1580 668.0192
v  -305.8309 79.9023 671.9768
v  -305.8315 79.9023 673.5242
v  -300.8924 172.1580 668.8445
v  -300.0673 172.1580 668.8447
v  -300.0670 172.1580 668.0194
v  -304.2841 79.9023 673.5248
v  -304.2834 79.9023 671.9773
v  -308.5007 -12.3534 678.2050
v  -308.4999 -12.3534 675.9352
v  -310.7697 -12.3534 675.9343
v  -310.7704 -12.3534 678.2040
v  -290.4370 172.1580 668.8481
v  -290.4366 172.1580 668.0229
v  -286.2231 79.9023 671.9839
v  -286.2236 79.9023 673.5314
v  -289.6118 172.1580 668.8485
v  -289.6115 172.1580 668.0232
v  -284.6762 79.9023 673.5320
v  -284.6757 79.9023 671.9845
v  -279.7398 -12.3534 675.9457
v  -282.0095 -12.3534 675.9448
v  -282.0103 -12.3534 678.2145
v  -279.7406 -12.3534 678.2155
v  -344.7874 60.5306 672.3589
v  -345.2195 61.2612 672.3588
v  -345.2192 61.2612 671.5708
v  -344.7871 60.5306 671.5709
v  -305.4651 78.5799 673.3607
v  -305.4648 78.5799 672.5728
v  -305.0329 77.8492 673.3609
v  -305.0327 77.8492 672.5729
v  -345.1865 60.1790 672.5652
v  -345.1865 61.3873 672.5652
v  -345.1862 61.3873 671.4757
v  -345.1862 60.1790 671.4757
v  -246.9254 61.3873 672.6011
v  -246.9250 61.3873 671.5115
v  -246.9254 60.1790 672.6011
v  -246.9250 60.1790 671.5115
v  -247.4001 60.5306 672.3944
v  -247.3998 60.5306 671.6065
v  -246.9677 61.2613 671.6066
v  -246.9680 61.2613 672.3947
v  -286.7229 78.6112 672.5795
v  -286.7232 78.6112 673.3675
v  -287.1554 77.8805 673.3674
v  -287.1550 77.8805 672.5794
v  -305.5607 78.3299 672.6304
v  -305.5607 77.4561 672.6304
v  -305.5610 77.4561 673.4185
v  -305.5610 78.3299 673.4185
v  -285.4353 78.3299 673.4258
v  -285.4350 78.3299 672.6378
v  -285.4350 77.4561 672.6378
v  -285.4353 77.4561 673.4258
v  -271.1218 -10.9971 638.1204
v  -320.9650 -10.9971 638.1022
v  -320.9831 -10.9971 687.9453
v  -271.1400 -10.9971 687.9634
v  -320.9831 -12.6918 687.9453
v  -320.9650 -12.6918 638.1022
v  -315.9646 -12.6918 643.1061
v  -315.9791 -12.6918 682.9449
v  -276.1403 -12.6918 682.9594
v  -271.1400 -12.6918 687.9634
v  -271.1218 -12.6918 638.1204
v  -276.1258 -12.6918 643.1206
v  -336.9934 109.6632 669.5474
v  -336.9882 109.6633 655.8398
v  -338.0166 109.6633 655.8395
v  -338.0217 109.6632 669.5469
v  -279.3880 175.3780 667.2930
v  -279.3843 175.3780 657.7838
v  -280.4128 175.3780 657.7834
v  -280.4164 175.3780 667.2926
v  -272.1129 178.3337 667.2957
v  -271.0846 178.3337 667.2960
v  -271.0810 178.3337 657.7868
v  -272.1093 178.3337 657.7864
v  -263.8095 181.4301 667.2986
v  -262.7812 181.4301 667.2991
v  -262.7776 181.4301 657.7898
v  -263.8060 181.4301 657.7894
v  -320.4143 178.2628 657.7688
v  -321.4426 178.2628 657.7684
v  -321.4463 178.2628 667.2776
v  -320.4179 178.2628 667.2780
v  -328.4952 181.3880 667.2751
v  -328.4916 181.3880 657.7659
v  -329.5201 181.3880 657.7655
v  -329.5236 181.3880 667.2747
v  -255.2316 109.6633 655.8698
v  -255.2368 109.6632 669.5771
v  -254.2084 109.6632 669.5775
v  -254.2032 109.6633 655.8701
v  -287.9961 109.6633 655.6447
v  -288.7676 109.6633 656.3246
v  -276.9083 109.6632 669.7823
v  -276.1367 109.6632 669.1022
v  -266.7714 109.6633 656.3326
v  -254.9121 109.6632 669.7903
v  -254.1405 109.6632 669.1103
v  -265.9999 109.6633 655.6527
v  -276.7123 109.6632 669.7859
v  -275.8682 109.6632 670.3733
v  -265.6234 109.6633 655.6492
v  -266.4676 109.6633 655.0619
# 888 vertices

vt 0.3990 0.2083 0.0000
vt 0.4007 0.2311 0.0000
vt 0.7282 0.2311 0.0000
vt 0.7265 0.2083 0.0000
vt 0.4006 0.2540 0.0000
vt 0.3990 0.2766 0.0000
vt 0.6816 0.2766 0.0000
vt 0.6833 0.2540 0.0000
vt 0.6701 0.5365 0.0000
vt 0.6718 0.5144 0.0000
vt 0.4196 0.5144 0.0000
vt 0.4180 0.5365 0.0000
vt 0.7087 0.5696 0.0000
vt 0.7104 0.5475 0.0000
vt 0.4281 0.5475 0.0000
vt 0.4264 0.5696 0.0000
vt 0.8421 0.1084 0.0000
vt 0.8437 0.0863 0.0000
vt 0.3924 0.0863 0.0000
vt 0.3908 0.1084 0.0000
vt 0.3449 0.0077 0.0000
vt 0.3467 0.0308 0.0000
vt 0.8204 0.0308 0.0000
vt 0.8187 0.0077 0.0000
vt 0.4050 0.1242 0.0000
vt 0.4034 0.1466 0.0000
vt 0.8284 0.1466 0.0000
vt 0.8300 0.1242 0.0000
vt 0.6231 0.4370 0.0000
vt 0.6247 0.4149 0.0000
vt 0.3128 0.4149 0.0000
vt 0.3112 0.4370 0.0000
vt 0.3449 0.0077 0.0000
vt 0.3467 0.0308 0.0000
vt 0.8204 0.0308 0.0000
vt 0.8187 0.0077 0.0000
vt 0.3105 0.3919 0.0000
vt 0.3122 0.4150 0.0000
vt 0.6240 0.4150 0.0000
vt 0.6223 0.3919 0.0000
vt 0.7428 0.6102 0.0000
vt 0.7411 0.5880 0.0000
vt 0.4149 0.5880 0.0000
vt 0.4166 0.6102 0.0000
vt 0.8421 0.1084 0.0000
vt 0.8437 0.0863 0.0000
vt 0.3924 0.0863 0.0000
vt 0.3908 0.1084 0.0000
vt 0.8400 0.0094 0.0000
vt 0.9782 0.0094 0.0000
vt 0.9783 0.0310 0.0000
vt 0.8401 0.0310 0.0000
vt 0.4001 0.2986 0.0000
vt 0.6645 0.2986 0.0000
vt 0.6645 0.3218 0.0000
vt 0.4001 0.3218 0.0000
vt 0.4000 0.2987 0.0000
vt 0.6645 0.2987 0.0000
vt 0.6645 0.3217 0.0000
vt 0.4000 0.3217 0.0000
vt 0.3113 0.3920 0.0000
vt 0.6232 0.3920 0.0000
vt 0.6232 0.4150 0.0000
vt 0.3113 0.4150 0.0000
vt 0.6232 0.3920 0.0000
vt 0.3999 0.2538 0.0000
vt 0.6823 0.2538 0.0000
vt 0.6823 0.2768 0.0000
vt 0.3999 0.2768 0.0000
vt 0.3997 0.2989 0.0000
vt 0.6648 0.2989 0.0000
vt 0.6648 0.3215 0.0000
vt 0.3997 0.3215 0.0000
vt 0.3999 0.2988 0.0000
vt 0.6646 0.2988 0.0000
vt 0.6646 0.3216 0.0000
vt 0.3999 0.3216 0.0000
vt 0.3113 0.3920 0.0000
vt 0.6232 0.3920 0.0000
vt 0.6232 0.4150 0.0000
vt 0.3113 0.4150 0.0000
vt 0.4002 0.2080 0.0000
vt 0.7270 0.2080 0.0000
vt 0.7270 0.2314 0.0000
vt 0.4002 0.2314 0.0000
vt 0.0118 0.4826 0.0000
vt 0.3537 0.4826 0.0000
vt 0.3537 0.5061 0.0000
vt 0.0118 0.5061 0.0000
vt 0.0115 0.4829 0.0000
vt 0.3540 0.4829 0.0000
vt 0.3540 0.5058 0.0000
vt 0.0115 0.5058 0.0000
vt 0.4001 0.2985 0.0000
vt 0.6644 0.2985 0.0000
vt 0.6644 0.3219 0.0000
vt 0.4001 0.3219 0.0000
vt 0.3999 0.2988 0.0000
vt 0.6647 0.2988 0.0000
vt 0.6647 0.3216 0.0000
vt 0.3999 0.3216 0.0000
vt 0.3999 0.2539 0.0000
vt 0.6824 0.2539 0.0000
vt 0.6824 0.2767 0.0000
vt 0.3999 0.2767 0.0000
vt 0.2932 0.4460 0.0000
vt 0.5892 0.4460 0.0000
vt 0.5892 0.4692 0.0000
vt 0.2932 0.4692 0.0000
vt 0.3999 0.2539 0.0000
vt 0.6824 0.2539 0.0000
vt 0.6824 0.2767 0.0000
vt 0.3999 0.2767 0.0000
vt 0.2930 0.4462 0.0000
vt 0.5894 0.4462 0.0000
vt 0.5894 0.4690 0.0000
vt 0.2930 0.4690 0.0000
vt 0.3112 0.3921 0.0000
vt 0.6233 0.3921 0.0000
vt 0.6233 0.4149 0.0000
vt 0.3112 0.4149 0.0000
vt 0.3999 0.2083 0.0000
vt 0.7273 0.2083 0.0000
vt 0.7273 0.2311 0.0000
vt 0.3999 0.2311 0.0000
vt 0.0116 0.4829 0.0000
vt 0.3539 0.4829 0.0000
vt 0.3539 0.5059 0.0000
vt 0.0116 0.5059 0.0000
vt 0.3456 0.0079 0.0000
vt 0.8197 0.0079 0.0000
vt 0.8197 0.0307 0.0000
vt 0.3456 0.0307 0.0000
vt 0.3456 0.0079 0.0000
vt 0.8197 0.0079 0.0000
vt 0.8197 0.0307 0.0000
vt 0.3456 0.0307 0.0000
vt 0.3456 0.0079 0.0000
vt 0.8197 0.0307 0.0000
vt 0.3456 0.0307 0.0000
vt 0.3615 0.0463 0.0000
vt 0.8027 0.0463 0.0000
vt 0.8027 0.0691 0.0000
vt 0.3615 0.0691 0.0000
vt 0.4044 0.1240 0.0000
vt 0.8291 0.1240 0.0000
vt 0.8291 0.1468 0.0000
vt 0.4044 0.1468 0.0000
vt 0.3975 0.1655 0.0000
vt 0.7949 0.1655 0.0000
vt 0.7949 0.1880 0.0000
vt 0.3975 0.1880 0.0000
vt 0.3976 0.1653 0.0000
vt 0.7948 0.1653 0.0000
vt 0.7948 0.1881 0.0000
vt 0.3976 0.1881 0.0000
vt 0.4288 0.6258 0.0000
vt 0.7844 0.6258 0.0000
vt 0.7844 0.6482 0.0000
vt 0.4288 0.6482 0.0000
vt 0.4290 0.6256 0.0000
vt 0.7843 0.6256 0.0000
vt 0.7843 0.6484 0.0000
vt 0.4290 0.6484 0.0000
vt 0.0115 0.4830 0.0000
vt 0.3540 0.4830 0.0000
vt 0.3540 0.5058 0.0000
vt 0.0115 0.5058 0.0000
vt 0.4335 0.6689 0.0000
vt 0.8139 0.6689 0.0000
vt 0.8139 0.6917 0.0000
vt 0.4335 0.6917 0.0000
vt 0.7411 0.6102 0.0000
vt 0.7428 0.5880 0.0000
vt 0.4166 0.5880 0.0000
vt 0.4149 0.6102 0.0000
vt 0.4037 0.1238 0.0000
vt 0.4054 0.1469 0.0000
vt 0.8298 0.1469 0.0000
vt 0.8280 0.1238 0.0000
vt 0.8133 0.6915 0.0000
vt 0.8150 0.6692 0.0000
vt 0.4341 0.6692 0.0000
vt 0.4324 0.6915 0.0000
vt 0.4281 0.6256 0.0000
vt 0.4298 0.6484 0.0000
vt 0.7851 0.6484 0.0000
vt 0.7834 0.6256 0.0000
vt 0.8133 0.6915 0.0000
vt 0.8150 0.6692 0.0000
vt 0.4341 0.6692 0.0000
vt 0.4324 0.6915 0.0000
vt 0.4008 0.2987 0.0000
vt 0.3991 0.3217 0.0000
vt 0.6637 0.3217 0.0000
vt 0.6654 0.2987 0.0000
vt 0.6718 0.5365 0.0000
vt 0.6702 0.5144 0.0000
vt 0.4179 0.5144 0.0000
vt 0.4196 0.5365 0.0000
vt 0.6717 0.5366 0.0000
vt 0.6700 0.5143 0.0000
vt 0.4180 0.5143 0.0000
vt 0.4197 0.5366 0.0000
vt 0.3891 0.4872 0.0000
vt 0.3903 0.5030 0.0000
vt 0.5830 0.5030 0.0000
vt 0.5818 0.4872 0.0000
vt 0.1665 0.5235 0.0000
vt 0.1653 0.5400 0.0000
vt 0.3841 0.5400 0.0000
vt 0.3853 0.5235 0.0000
vt 0.4328 0.6688 0.0000
vt 0.4345 0.6918 0.0000
vt 0.8146 0.6918 0.0000
vt 0.8129 0.6688 0.0000
vt 0.0122 0.4831 0.0000
vt 0.0105 0.5056 0.0000
vt 0.3534 0.5056 0.0000
vt 0.3550 0.4831 0.0000
vt 0.3968 0.1653 0.0000
vt 0.3985 0.1881 0.0000
vt 0.7956 0.1881 0.0000
vt 0.7939 0.1653 0.0000
vt 0.1665 0.5235 0.0000
vt 0.1653 0.5400 0.0000
vt 0.3841 0.5400 0.0000
vt 0.3853 0.5235 0.0000
vt 0.8300 0.0458 0.0000
vt 0.8301 0.0674 0.0000
vt 0.9581 0.0674 0.0000
vt 0.9580 0.0458 0.0000
vt 0.6699 0.5367 0.0000
vt 0.6716 0.5142 0.0000
vt 0.4198 0.5142 0.0000
vt 0.4182 0.5367 0.0000
vt 0.4005 0.2086 0.0000
vt 0.3988 0.2309 0.0000
vt 0.7267 0.2309 0.0000
vt 0.7284 0.2086 0.0000
vt 0.1652 0.5236 0.0000
vt 0.1664 0.5399 0.0000
vt 0.3854 0.5399 0.0000
vt 0.3841 0.5236 0.0000
vt 0.3999 0.3444 0.0000
vt 0.4015 0.3664 0.0000
vt 0.6479 0.3664 0.0000
vt 0.6462 0.3444 0.0000
vt 0.3992 0.2538 0.0000
vt 0.4009 0.2768 0.0000
vt 0.6831 0.2768 0.0000
vt 0.6814 0.2538 0.0000
vt 0.3121 0.3920 0.0000
vt 0.3104 0.4149 0.0000
vt 0.6224 0.4149 0.0000
vt 0.6241 0.3920 0.0000
vt 0.3992 0.2538 0.0000
vt 0.4009 0.2768 0.0000
vt 0.6814 0.2538 0.0000
vt 0.6232 0.3920 0.0000
vt 0.6232 0.4150 0.0000
vt 0.3113 0.4150 0.0000
vt 0.3976 0.1881 0.0000
vt 0.4335 0.6689 0.0000
vt 0.8139 0.6689 0.0000
vt 0.8139 0.6917 0.0000
vt 0.4335 0.6917 0.0000
vt 0.6824 0.2539 0.0000
vt 0.6232 0.3920 0.0000
vt 0.3113 0.4150 0.0000
vt 0.3999 0.2538 0.0000
vt 0.6823 0.2768 0.0000
vt 0.3997 0.2989 0.0000
vt 0.6648 0.2989 0.0000
vt 0.6648 0.3215 0.0000
vt 0.3997 0.3215 0.0000
vt 0.8400 0.0094 0.0000
vt 0.9782 0.0094 0.0000
vt 0.4001 0.2986 0.0000
vt 0.6645 0.2986 0.0000
vt 0.6645 0.3218 0.0000
vt 0.4001 0.3218 0.0000
vt 0.4000 0.2987 0.0000
vt 0.6645 0.2987 0.0000
vt 0.6645 0.3217 0.0000
vt 0.4000 0.3217 0.0000
vt 0.4288 0.6482 0.0000
vt 0.4290 0.6256 0.0000
vt 0.7843 0.6256 0.0000
vt 0.7843 0.6484 0.0000
vt 0.0115 0.4830 0.0000
vt 0.2930 0.4462 0.0000
vt 0.5894 0.4462 0.0000
vt 0.3112 0.3921 0.0000
vt 0.6233 0.3921 0.0000
vt 0.6233 0.4149 0.0000
vt 0.3112 0.4149 0.0000
vt 0.3999 0.2083 0.0000
vt 0.7273 0.2311 0.0000
vt 0.3999 0.2311 0.0000
vt 0.6646 0.3216 0.0000
vt 0.3113 0.3920 0.0000
vt 0.6232 0.3920 0.0000
vt 0.6232 0.4150 0.0000
vt 0.3113 0.4150 0.0000
vt 0.4002 0.2080 0.0000
vt 0.7270 0.2080 0.0000
vt 0.7270 0.2314 0.0000
vt 0.4002 0.2314 0.0000
vt 0.0118 0.4826 0.0000
vt 0.3537 0.4826 0.0000
vt 0.3537 0.5061 0.0000
vt 0.0115 0.4829 0.0000
vt 0.3540 0.4829 0.0000
vt 0.3540 0.5058 0.0000
vt 0.0115 0.5058 0.0000
vt 0.4001 0.2985 0.0000
vt 0.6644 0.2985 0.0000
vt 0.6644 0.3219 0.0000
vt 0.4001 0.3219 0.0000
vt 0.3999 0.3216 0.0000
vt 0.3999 0.2539 0.0000
vt 0.6824 0.2539 0.0000
vt 0.6824 0.2767 0.0000
vt 0.3999 0.2767 0.0000
vt 0.5892 0.4460 0.0000
vt 0.5892 0.4692 0.0000
vt 0.2932 0.4692 0.0000
vt 0.0116 0.4829 0.0000
vt 0.3539 0.5059 0.0000
vt 0.3456 0.0079 0.0000
vt 0.8197 0.0079 0.0000
vt 0.8197 0.0307 0.0000
vt 0.3456 0.0307 0.0000
vt 0.8197 0.0079 0.0000
vt 0.3615 0.0463 0.0000
vt 0.8027 0.0463 0.0000
vt 0.4044 0.1240 0.0000
vt 0.8291 0.1240 0.0000
vt 0.8291 0.1468 0.0000
vt 0.4044 0.1468 0.0000
vt 0.3975 0.1655 0.0000
vt 0.7949 0.1880 0.0000
vt 0.3975 0.1880 0.0000
vt 0.9783 0.0310 0.0000
vt 0.4001 0.2986 0.0000
vt 0.6645 0.3218 0.0000
vt 0.6645 0.2986 0.0000
vt 0.4000 0.2987 0.0000
vt 0.3999 0.2083 0.0000
vt 0.3999 0.2311 0.0000
vt 0.0116 0.5059 0.0000
vt 0.8197 0.0079 0.0000
vt 0.3456 0.0079 0.0000
vt 0.3456 0.0079 0.0000
vt 0.3615 0.0691 0.0000
vt 0.7949 0.1655 0.0000
vt 0.3113 0.3920 0.0000
vt 0.6232 0.3920 0.0000
vt 0.6824 0.2767 0.0000
vt 0.2930 0.4462 0.0000
vt 0.2930 0.4690 0.0000
vt 0.5894 0.4690 0.0000
vt 0.6233 0.4149 0.0000
vt 0.6233 0.3921 0.0000
vt 0.6232 0.4150 0.0000
vt 0.3999 0.2538 0.0000
vt 0.3999 0.2768 0.0000
vt 0.3997 0.2989 0.0000
vt 0.6648 0.3215 0.0000
vt 0.6648 0.2989 0.0000
vt 0.3999 0.3216 0.0000
vt 0.6646 0.2988 0.0000
vt 0.3113 0.3920 0.0000
vt 0.4002 0.2080 0.0000
vt 0.7270 0.2314 0.0000
vt 0.7270 0.2080 0.0000
vt 0.0118 0.5061 0.0000
vt 0.3537 0.5061 0.0000
vt 0.3537 0.4826 0.0000
vt 0.0115 0.4829 0.0000
vt 0.3540 0.4829 0.0000
vt 0.4001 0.2985 0.0000
vt 0.4001 0.3219 0.0000
vt 0.6644 0.3219 0.0000
vt 0.6644 0.2985 0.0000
vt 0.3999 0.2988 0.0000
vt 0.6824 0.2539 0.0000
vt 0.2932 0.4460 0.0000
vt 0.2932 0.4692 0.0000
vt 0.5892 0.4692 0.0000
vt 0.7844 0.6482 0.0000
vt 0.4290 0.6256 0.0000
vt 0.4290 0.6484 0.0000
vt 0.0115 0.4830 0.0000
vt 0.3976 0.1653 0.0000
vt 0.3976 0.1881 0.0000
vt 0.7948 0.1881 0.0000
vt 0.7948 0.1653 0.0000
vt 0.0498 0.5727 0.0000
vt 0.0498 0.6072 0.0000
vt 0.0843 0.6072 0.0000
vt 0.0843 0.5727 0.0000
vt 0.2123 0.6162 0.0000
vt 0.2123 0.6506 0.0000
vt 0.2468 0.6506 0.0000
vt 0.2468 0.6162 0.0000
vt 0.0119 0.5732 0.0000
vt 0.0119 0.6076 0.0000
vt 0.0464 0.6076 0.0000
vt 0.0464 0.5732 0.0000
vt 0.1778 0.6506 0.0000
vt 0.1778 0.6162 0.0000
vt 0.1434 0.6162 0.0000
vt 0.1434 0.6506 0.0000
vt 0.2813 0.6162 0.0000
vt 0.2813 0.6506 0.0000
vt 0.0453 0.7492 0.0000
vt 0.0454 0.7433 0.0000
vt 0.9925 0.7433 0.0000
vt 0.9924 0.7465 0.0000
vt 0.2086 0.6056 0.0000
vt 0.2086 0.5628 0.0000
vt 0.2515 0.5628 0.0000
vt 0.2515 0.6056 0.0000
vt 0.9924 0.7496 0.0000
vt 0.9924 0.7527 0.0000
vt 0.0453 0.7610 0.0000
vt 0.0452 0.7551 0.0000
vt 0.0455 0.7668 0.0000
vt 0.9925 0.7559 0.0000
vt 0.0322 0.9125 0.0000
vt 0.0323 0.9039 0.0000
vt 0.9795 0.9012 0.0000
vt 0.9794 0.9070 0.0000
vt 0.0325 0.8953 0.0000
vt 0.9796 0.8953 0.0000
vt 0.0327 0.9297 0.0000
vt 0.0324 0.9211 0.0000
vt 0.9795 0.9129 0.0000
vt 0.9797 0.9188 0.0000
vt 0.0322 0.8781 0.0000
vt 0.0324 0.8694 0.0000
vt 0.9795 0.8777 0.0000
vt 0.9794 0.8835 0.0000
vt 0.2515 0.5628 0.0000
vt 0.9795 0.8894 0.0000
vt 0.9796 0.8953 0.0000
vt 0.0323 0.8867 0.0000
vt 0.0327 0.8608 0.0000
vt 0.9797 0.8718 0.0000
vt 0.0452 0.7316 0.0000
vt 0.0453 0.7257 0.0000
vt 0.9924 0.7339 0.0000
vt 0.9924 0.7371 0.0000
vt 0.0453 0.7375 0.0000
vt 0.9924 0.7402 0.0000
vt 0.9925 0.7433 0.0000
vt 0.0454 0.7433 0.0000
vt 0.0455 0.7199 0.0000
vt 0.9925 0.7308 0.0000
vt 0.9795 0.9700 0.0000
vt 0.9795 0.9759 0.0000
vt 0.0324 0.9704 0.0000
vt 0.0323 0.9673 0.0000
vt 0.2515 0.6056 0.0000
vt 0.0322 0.9767 0.0000
vt 0.0323 0.9736 0.0000
vt 0.9794 0.9818 0.0000
vt 0.9792 0.9877 0.0000
vt 0.9794 0.9642 0.0000
vt 0.0323 0.9642 0.0000
vt 0.0450 0.8357 0.0000
vt 0.0452 0.8298 0.0000
vt 0.9923 0.8381 0.0000
vt 0.9921 0.8467 0.0000
vt 0.9923 0.8122 0.0000
vt 0.9924 0.8208 0.0000
vt 0.0453 0.8181 0.0000
vt 0.0452 0.8122 0.0000
vt 0.9925 0.8295 0.0000
vt 0.0454 0.8240 0.0000
vt 0.9794 0.9297 0.0000
vt 0.9795 0.9356 0.0000
vt 0.0323 0.9329 0.0000
vt 0.0323 0.9297 0.0000
vt 0.0323 0.9391 0.0000
vt 0.0324 0.9360 0.0000
vt 0.9795 0.9415 0.0000
vt 0.9794 0.9473 0.0000
vt 0.9792 0.9532 0.0000
vt 0.0322 0.9423 0.0000
vt 0.9923 0.8036 0.0000
vt 0.9921 0.8122 0.0000
vt 0.0450 0.8013 0.0000
vt 0.0452 0.7954 0.0000
vt 0.9923 0.7778 0.0000
vt 0.9924 0.7864 0.0000
vt 0.0453 0.7837 0.0000
vt 0.0452 0.7778 0.0000
vt 0.9925 0.7950 0.0000
vt 0.0454 0.7895 0.0000
vt 0.0864 0.0829 0.0000
vt 0.3157 0.0829 0.0000
vt 0.3157 0.3122 0.0000
vt 0.0864 0.3122 0.0000
vt 0.1094 0.0163 0.0000
vt 0.2927 0.0163 0.0000
vt 0.3157 0.0393 0.0000
vt 0.0864 0.0393 0.0000
vt 0.3823 0.1059 0.0000
vt 0.3823 0.2892 0.0000
vt 0.3593 0.3122 0.0000
vt 0.3593 0.0829 0.0000
vt 0.2927 0.3788 0.0000
vt 0.1094 0.3788 0.0000
vt 0.0864 0.3558 0.0000
vt 0.3157 0.3558 0.0000
vt 0.0198 0.2892 0.0000
vt 0.0198 0.1059 0.0000
vt 0.0429 0.0829 0.0000
vt 0.0429 0.3122 0.0000
# 522 texture coords

g 对象182
usemtl substationpt_1001_06_phong16
f 1/4 2/1 3/2 4/3 
f 5/8 6/5 7/6 8/7 
f 9/12 10/9 11/10 12/11 
f 13/13 14/14 15/15 16/16 
f 17/20 18/17 19/18 20/19 
f 21/21 22/22 23/23 24/24 
f 25/28 26/25 27/26 28/27 
f 29/29 30/30 31/31 32/32 
f 33/35 34/36 35/33 36/34 
f 37/37 38/38 39/39 40/40 
f 41/44 42/41 43/42 44/43 
f 45/48 46/45 47/46 48/47 
f 49/52 50/49 51/50 52/51 
f 53/56 54/53 55/54 56/55 
f 57/60 58/57 59/58 60/59 
f 61/62 62/63 63/64 64/61 
f 65/64 66/61 67/65 68/63 
f 69/67 70/68 71/69 72/66 
f 73/71 74/72 75/73 76/70 
f 77/74 78/75 79/76 80/77 
f 81/78 82/79 83/80 84/81 
f 85/85 86/82 87/83 88/84 
f 89/87 90/88 91/89 92/86 
f 93/91 94/92 95/93 96/90 
f 97/94 98/95 99/96 100/97 
f 101/101 102/98 103/99 104/100 
f 105/103 106/104 107/105 108/102 
f 109/109 110/106 111/107 112/108 
f 113/111 114/112 115/113 116/110 
f 117/115 118/116 119/117 120/114 
f 121/118 122/119 123/120 124/121 
f 125/125 126/122 127/123 128/124 
f 129/126 130/127 131/128 132/129 
f 133/133 134/130 135/131 136/132 
f 137/134 138/135 139/136 140/137 
f 141/130 142/131 143/132 144/133 
f 145/140 146/138 147/135 148/139 
f 149/142 150/143 151/144 152/141 
f 153/146 154/147 155/148 156/145 
f 157/152 158/149 159/150 160/151 
f 161/153 162/154 163/155 164/156 
f 165/160 166/157 167/158 168/159 
f 169/164 170/161 171/162 172/163 
f 173/166 174/167 175/168 176/165 
f 177/156 178/153 179/154 180/155 
f 181/170 182/171 183/172 184/169 
f 185/175 186/176 187/173 188/174 
f 189/180 190/177 191/178 192/179 
f 193/181 194/182 195/183 196/184 
f 197/188 198/185 199/186 200/187 
f 201/192 202/189 203/190 204/191 
f 205/196 206/193 207/194 208/195 
f 209/199 210/200 211/197 212/198 
f 213/201 214/202 215/203 216/204 
f 217/205 218/206 219/207 220/208 
f 221/211 222/212 223/209 224/210 
f 225/213 226/214 227/215 228/216 
f 229/219 230/220 231/217 232/218 
f 233/221 234/222 235/223 236/224 
f 237/227 238/228 239/225 240/226 
f 241/229 242/230 243/231 244/232 
f 245/235 246/236 247/233 248/234 
f 249/239 250/240 251/237 252/238 
f 253/244 254/241 255/242 256/243 
f 257/246 258/247 259/248 260/245 
f 261/252 262/249 263/250 264/251 
f 265/254 266/255 267/256 268/253 
f 269/259 270/257 271/258 272/251 
f 273/260 274/261 275/262 276/61 
f 277/263 278/153 279/154 280/155 
f 281/264 282/265 283/266 284/267 
f 285/112 286/113 287/110 288/268 
f 289/61 290/269 291/261 292/270 
f 293/271 294/67 295/272 296/69 
f 297/275 298/276 299/273 300/274 
f 301/277 302/278 303/51 304/52 
f 305/281 306/282 307/279 308/280 
f 309/283 310/284 311/285 312/286 
f 313/158 314/159 315/287 316/157 
f 317/288 318/289 319/290 320/164 
f 321/167 322/168 323/291 324/166 
f 325/293 326/116 327/117 328/292 
f 329/296 330/297 331/294 332/295 
f 333/123 334/299 335/300 336/298 
f 337/74 338/75 339/301 340/77 
f 341/303 342/304 343/305 344/302 
f 345/308 346/309 347/306 348/307 
f 349/312 350/89 351/310 352/311 
f 353/315 354/316 355/313 356/314 
f 357/318 358/319 359/320 360/317 
f 361/321 362/98 363/99 364/100 
f 365/324 366/325 367/322 368/323 
f 369/326 370/327 371/328 372/106 
f 373/330 374/129 375/329 376/127 
f 377/131 378/132 379/133 380/331 
f 381/334 382/134 383/332 384/333 
f 385/130 386/131 387/132 388/133 
f 389/335 390/333 391/334 392/134 
f 393/143 394/144 395/336 396/337 
f 397/339 398/340 399/341 400/338 
f 401/344 402/342 403/150 404/343 
f 405/155 406/156 407/153 408/154 
f 409/52 410/345 411/50 412/277 
f 413/346 414/56 415/347 416/348 
f 417/285 418/284 419/349 420/60 
f 421/351 422/299 423/123 424/350 
f 425/127 426/329 427/352 428/128 
f 429/353 430/130 431/133 432/132 
f 433/334 434/333 435/135 436/354 
f 437/132 438/131 439/355 440/133 
f 441/334 442/333 443/332 444/134 
f 445/141 446/356 447/143 448/337 
f 449/338 450/341 451/340 452/339 
f 453/357 454/342 455/152 456/343 
f 457/358 458/262 459/63 460/359 
f 461/360 462/268 463/110 464/113 
f 465/361 466/362 467/363 468/293 
f 469/294 470/297 471/364 472/365 
f 473/269 474/61 475/270 476/366 
f 477/67 478/367 479/368 480/272 
f 481/371 482/369 483/73 484/370 
f 485/74 486/372 487/76 488/373 
f 489/374 490/305 491/304 492/79 
f 493/377 494/375 495/85 496/376 
f 497/380 498/310 499/378 500/379 
f 501/382 502/381 503/93 504/92 
f 505/383 506/384 507/385 508/386 
f 509/387 510/321 511/100 512/99 
f 513/388 514/102 515/325 516/324 
f 517/326 518/389 519/390 520/391 
f 521/154 522/153 523/156 524/155 
f 525/157 526/287 527/392 528/158 
f 529/289 530/393 531/394 532/290 
f 533/166 534/395 535/168 536/167 
f 537/399 538/396 539/397 540/398 
f 541/265 542/264 543/267 544/266 
f 545/187 546/188 547/185 548/186 
f 549/186 550/187 551/188 552/185 
f 553/185 554/186 555/187 556/188 
f 557/188 558/185 559/186 560/187 
f 561/187 562/188 563/185 564/186 
f 565/188 566/185 567/186 568/187 
f 569/187 570/188 571/185 572/186 
f 573/185 574/186 575/187 576/188 
f 577/188 578/185 579/186 580/187 
f 581/187 582/188 583/185 584/186 
f 585/188 586/185 587/186 588/187 
f 589/187 590/188 591/185 592/186 
f 593/187 594/188 595/185 596/186 
f 597/403 598/400 599/401 600/402 
f 599/404 601/405 602/406 600/407 
f 601/408 603/409 604/410 602/411 
f 604/415 603/412 598/413 597/414 
f 604/417 597/416 600/407 602/406 
f 598/413 603/412 601/405 599/404 
f 605/400 606/403 607/402 608/401 
f 608/404 607/407 609/406 610/405 
f 610/408 609/411 611/410 612/409 
f 611/415 606/414 605/413 612/412 
f 609/406 607/407 606/416 611/417 
f 610/405 612/412 605/413 608/404 
f 613/403 614/400 615/401 616/402 
f 616/407 615/404 617/405 618/406 
f 617/408 619/409 620/410 618/411 
f 613/414 620/415 619/412 614/413 
f 613/416 616/407 618/406 620/417 
f 617/405 615/404 614/413 619/412 
f 621/400 622/401 623/402 624/403 
f 625/406 623/407 622/404 626/405 
f 626/408 627/409 628/410 625/411 
f 621/413 624/414 628/415 627/412 
f 624/416 623/407 625/406 628/417 
f 627/412 626/405 622/404 621/413 
f 629/403 630/400 631/401 632/402 
f 633/406 632/407 631/404 634/405 
f 634/408 635/409 636/410 633/411 
f 629/414 636/415 635/412 630/413 
f 633/406 636/417 629/416 632/407 
f 634/405 631/404 630/413 635/412 
f 637/403 638/400 639/401 640/402 
f 641/405 642/406 640/407 639/404 
f 643/410 642/411 641/408 644/409 
f 644/412 638/413 637/414 643/415 
f 643/417 637/416 640/407 642/406 
f 641/405 639/404 638/413 644/412 
f 645/401 646/400 647/403 648/402 
f 649/405 645/404 648/407 650/406 
f 649/408 650/411 651/410 652/409 
f 652/412 651/415 647/414 646/413 
f 650/406 648/407 647/416 651/417 
f 652/412 646/413 645/404 649/405 
f 653/403 654/400 655/401 656/402 
f 657/406 656/407 655/404 658/405 
f 658/408 659/409 660/410 657/411 
f 660/415 659/412 654/413 653/414 
f 657/406 660/417 653/416 656/407 
f 655/404 654/413 659/412 658/405 
f 661/403 662/402 663/401 664/400 
f 662/407 665/406 666/405 663/404 
f 666/408 665/411 667/410 668/409 
f 668/412 667/415 661/414 664/413 
f 667/417 665/406 662/407 661/416 
f 663/404 666/405 668/412 664/413 
f 669/403 670/402 671/401 672/400 
f 673/405 671/404 670/407 674/406 
f 673/408 674/411 675/410 676/409 
f 672/413 676/412 675/415 669/414 
f 675/417 674/406 670/407 669/416 
f 672/413 671/404 673/405 676/412 
f 677/400 678/401 679/402 680/403 
f 679/407 678/404 681/405 682/406 
f 682/411 681/408 683/409 684/410 
f 684/415 683/412 677/413 680/414 
f 679/407 682/406 684/417 680/416 
f 677/413 683/412 681/405 678/404 
f 685/401 686/400 687/403 688/402 
f 685/404 688/407 689/406 690/405 
f 691/410 692/409 690/408 689/411 
f 691/415 687/414 686/413 692/412 
f 687/416 691/417 689/406 688/407 
f 686/413 685/404 690/405 692/412 
f 693/401 694/400 695/403 696/402 
f 697/405 693/404 696/407 698/406 
f 699/410 700/409 697/408 698/411 
f 694/413 700/412 699/415 695/414 
f 696/407 695/416 699/417 698/406 
f 693/404 697/405 700/412 694/413 
f 701/401 702/402 703/403 704/400 
f 701/404 705/405 706/406 702/407 
f 706/411 705/408 707/409 708/410 
f 703/414 708/415 707/412 704/413 
f 702/407 706/406 708/417 703/416 
f 701/404 704/413 707/412 705/405 
f 709/403 710/402 711/401 712/400 
f 710/407 713/406 714/405 711/404 
f 715/410 716/409 714/408 713/411 
f 712/413 716/412 715/415 709/414 
f 713/406 710/407 709/416 715/417 
f 714/405 716/412 712/413 711/404 
f 717/401 718/400 719/403 720/402 
f 717/404 720/407 721/406 722/405 
f 723/410 724/409 722/408 721/411 
f 724/412 723/415 719/414 718/413 
f 723/417 721/406 720/407 719/416 
f 718/413 717/404 722/405 724/412 
f 725/403 726/402 727/401 728/400 
f 727/404 726/407 729/406 730/405 
f 731/410 732/409 730/408 729/411 
f 728/413 732/412 731/415 725/414 
f 729/406 726/407 725/416 731/417 
f 730/405 732/412 728/413 727/404 
f 733/400 734/401 735/402 736/403 
f 734/404 737/405 738/406 735/407 
f 739/410 738/411 737/408 740/409 
f 736/414 739/415 740/412 733/413 
f 735/407 738/406 739/417 736/416 
f 733/413 740/412 737/405 734/404 
f 741/403 742/402 743/401 744/400 
f 742/407 745/406 746/405 743/404 
f 747/410 748/409 746/408 745/411 
f 748/412 747/415 741/414 744/413 
f 742/407 741/416 747/417 745/406 
f 744/413 743/404 746/405 748/412 
f 749/403 750/402 751/401 752/400 
f 750/407 753/406 754/405 751/404 
f 753/411 755/410 756/409 754/408 
f 749/414 752/413 756/412 755/415 
f 753/406 750/407 749/416 755/417 
f 752/413 751/404 754/405 756/412 
f 757/421 758/418 759/419 760/420 
f 757/422 760/423 761/424 762/425 
f 761/427 763/428 764/429 762/426 
f 763/428 761/427 760/431 759/430 
f 762/426 764/429 758/418 757/421 
f 765/432 766/433 758/434 764/435 
f 767/436 759/437 758/434 766/433 
f 763/440 759/441 767/438 768/439 
f 765/432 764/435 763/440 768/439 
f 769/442 770/443 771/444 772/445 
f 773/423 774/446 775/425 776/422 
f 777/436 778/449 779/447 780/448 
f 777/450 780/451 771/444 770/443 
f 769/442 772/445 779/447 778/449 
f 774/455 772/452 771/453 775/454 
f 773/457 779/456 772/452 774/455 
f 779/456 773/457 776/458 780/459 
f 776/461 775/454 771/453 780/460 
f 781/465 782/462 783/463 784/464 
f 784/423 785/424 786/466 781/422 
f 786/467 785/468 787/469 788/470 
f 783/463 787/469 785/468 784/464 
f 788/471 782/462 781/465 786/472 
f 787/474 789/475 790/476 788/473 
f 788/480 790/477 791/478 782/479 
f 792/481 783/482 782/479 791/478 
f 787/474 783/482 792/481 789/475 
f 793/485 794/486 795/483 796/484 
f 793/423 797/424 798/466 794/422 
f 797/488 799/489 800/490 798/487 
f 799/489 797/488 793/485 796/484 
f 795/491 794/492 798/487 800/490 
f 801/493 802/494 795/495 800/496 
f 803/498 796/499 795/500 802/497 
f 799/502 796/499 803/498 804/501 
f 800/496 799/502 804/501 801/493 
f 805/403 806/402 807/401 808/400 
f 806/407 809/406 810/405 807/404 
f 811/410 812/409 810/408 809/411 
f 812/412 811/415 805/414 808/413 
f 806/407 805/416 811/417 809/406 
f 808/413 807/404 810/405 812/412 
f 813/403 814/402 815/401 816/400 
f 814/407 817/406 818/405 815/404 
f 817/411 819/410 820/409 818/408 
f 813/414 816/413 820/412 819/415 
f 817/406 814/407 813/416 819/417 
f 816/413 815/404 818/405 820/412 
f 821/403 822/400 823/401 824/402 
f 824/407 823/404 825/405 826/406 
f 827/410 826/411 825/408 828/409 
f 821/414 827/415 828/412 822/413 
f 826/406 827/417 821/416 824/407 
f 825/405 823/404 822/413 828/412 
f 829/401 830/400 831/403 832/402 
f 829/404 832/407 833/406 834/405 
f 835/409 834/408 833/411 836/410 
f 836/415 831/414 830/413 835/412 
f 836/417 833/406 832/407 831/416 
f 829/404 834/405 835/412 830/413 
f 837/506 838/503 839/504 840/505 
f 841/509 842/510 843/507 844/508 
f 844/511 845/512 846/513 841/514 
f 847/517 846/518 845/515 848/516 
f 842/521 847/522 848/519 843/520 
f 839/504 838/503 842/510 841/509 
f 839/504 841/514 846/513 840/505 
f 840/505 846/518 847/517 837/506 
f 838/503 837/506 847/522 842/521 
f 849/188 850/185 851/186 852/187 
f 853/188 854/185 855/186 856/187 
f 857/187 858/188 859/185 860/186 
f 861/187 862/188 863/185 864/186 
f 865/185 866/186 867/187 868/188 
f 869/188 870/185 871/186 872/187 
f 873/186 874/187 875/188 876/185 
f 877/185 878/186 879/187 880/188 
f 881/186 882/187 883/188 884/185 
f 885/187 886/188 887/185 888/186 
# 348 polygons

